<?xml version="1.0" encoding="utf-8" standalone="no"?>
<!DOCTYPE svg PUBLIC "-//W3C//DTD SVG 1.1//EN"
  "http://www.w3.org/Graphics/SVG/1.1/DTD/svg11.dtd">
<svg xmlns:xlink="http://www.w3.org/1999/xlink" width="550.08pt" height="291.6pt" viewBox="0 0 550.08 291.6" xmlns="http://www.w3.org/2000/svg" version="1.1">
 <metadata>
  <rdf:RDF xmlns:dc="http://purl.org/dc/elements/1.1/" xmlns:cc="http://creativecommons.org/ns#" xmlns:rdf="http://www.w3.org/1999/02/22-rdf-syntax-ns#">
   <cc:Work>
    <dc:type rdf:resource="http://purl.org/dc/dcmitype/StillImage"/>
    <dc:date>2026-06-28T19:00:43.603096</dc:date>
    <dc:format>image/svg+xml</dc:format>
    <dc:creator>
     <cc:Agent>
      <dc:title>Matplotlib v3.6.3, https://matplotlib.org/</dc:title>
     </cc:Agent>
    </dc:creator>
   </cc:Work>
  </rdf:RDF>
 </metadata>
 <defs>
  <style type="text/css">*{stroke-linejoin: round; stroke-linecap: butt}</style>
 </defs>
 <g id="figure_1">
  <g id="patch_1">
   <path d="M 0 291.6 
L 550.08 291.6 
L 550.08 0 
L 0 0 
z
" style="fill: #ffffff"/>
  </g>
  <g id="axes_1">
   <g id="patch_2">
    <path d="M 25.9488 129.168 
L 170.5824 129.168 
Q 178.6176 129.168 178.6176 125.01 
L 178.6176 44.622 
Q 178.6176 40.464 170.5824 40.464 
L 25.9488 40.464 
Q 17.9136 40.464 17.9136 44.622 
L 17.9136 125.01 
Q 17.9136 129.168 25.9488 129.168 
z
" clip-path="url(#p81335892dc)" style="fill: #ede9fe; stroke: #8b5cf6; stroke-width: 1.2; stroke-linejoin: miter"/>
   </g>
   <g id="patch_3">
    <path d="M 31.3056 84.816 
L 165.2256 84.816 
L 165.2256 48.78 
L 31.3056 48.78 
z
" clip-path="url(#p81335892dc)" style="fill: #8b5cf6; stroke: #ffffff; stroke-width: 1.2; stroke-linejoin: miter"/>
   </g>
   <g id="patch_4">
    <path d="M 31.3056 123.624 
L 165.2256 123.624 
L 165.2256 90.36 
L 31.3056 90.36 
z
" clip-path="url(#p81335892dc)" style="fill: #6d28d9; stroke: #ffffff; stroke-width: 1.2; stroke-linejoin: miter"/>
   </g>
   <g id="patch_5">
    <path d="M 256.2912 129.168 
L 524.1312 129.168 
Q 532.1664 129.168 532.1664 125.01 
L 532.1664 44.622 
Q 532.1664 40.464 524.1312 40.464 
L 256.2912 40.464 
Q 248.256 40.464 248.256 44.622 
L 248.256 125.01 
Q 248.256 129.168 256.2912 129.168 
z
" clip-path="url(#p81335892dc)" style="fill: #fffbeb; stroke: #f59e0b; stroke-width: 1.2; stroke-linejoin: miter"/>
   </g>
   <g id="patch_6">
    <path d="M 258.9696 84.816 
L 339.3216 84.816 
L 339.3216 48.78 
L 258.9696 48.78 
z
" clip-path="url(#p81335892dc)" style="fill: #fb923c; stroke: #ffffff; stroke-width: 1.2; stroke-linejoin: miter"/>
   </g>
   <g id="patch_7">
    <path d="M 350.0352 84.816 
L 430.3872 84.816 
L 430.3872 48.78 
L 350.0352 48.78 
z
" clip-path="url(#p81335892dc)" style="fill: #f97316; stroke: #ffffff; stroke-width: 1.2; stroke-linejoin: miter"/>
   </g>
   <g id="patch_8">
    <path d="M 441.1008 123.624 
L 521.4528 123.624 
L 521.4528 48.78 
L 441.1008 48.78 
z
" clip-path="url(#p81335892dc)" style="fill: #f59e0b; stroke: #ffffff; stroke-width: 1.2; stroke-linejoin: miter"/>
   </g>
   <g id="patch_9">
    <path d="M 258.9696 123.624 
L 430.3872 123.624 
L 430.3872 90.36 
L 258.9696 90.36 
z
" clip-path="url(#p81335892dc)" style="fill: #cbd5e1; stroke: #ffffff; stroke-width: 1.2; stroke-linejoin: miter"/>
   </g>
   <g id="patch_10">
    <path d="M 25.9488 256.68 
L 170.5824 256.68 
Q 178.6176 256.68 178.6176 252.522 
L 178.6176 172.134 
Q 178.6176 167.976 170.5824 167.976 
L 25.9488 167.976 
Q 17.9136 167.976 17.9136 172.134 
L 17.9136 252.522 
Q 17.9136 256.68 25.9488 256.68 
z
" clip-path="url(#p81335892dc)" style="fill: #ede9fe; stroke: #8b5cf6; stroke-width: 1.2; stroke-linejoin: miter"/>
   </g>
   <g id="patch_11">
    <path d="M 31.3056 212.328 
L 165.2256 212.328 
L 165.2256 176.292 
L 31.3056 176.292 
z
" clip-path="url(#p81335892dc)" style="fill: #8b5cf6; stroke: #ffffff; stroke-width: 1.2; stroke-linejoin: miter"/>
   </g>
   <g id="patch_12">
    <path d="M 31.3056 251.136 
L 165.2256 251.136 
L 165.2256 217.872 
L 31.3056 217.872 
z
" clip-path="url(#p81335892dc)" style="fill: #6d28d9; stroke: #ffffff; stroke-width: 1.2; stroke-linejoin: miter"/>
   </g>
   <g id="patch_13">
    <path d="M 256.2912 256.68 
L 524.1312 256.68 
Q 532.1664 256.68 532.1664 252.522 
L 532.1664 172.134 
Q 532.1664 167.976 524.1312 167.976 
L 256.2912 167.976 
Q 248.256 167.976 248.256 172.134 
L 248.256 252.522 
Q 248.256 256.68 256.2912 256.68 
z
" clip-path="url(#p81335892dc)" style="fill: #fffbeb; stroke: #f59e0b; stroke-width: 1.2; stroke-linejoin: miter"/>
   </g>
   <g id="patch_14">
    <path d="M 258.9696 212.328 
L 339.3216 212.328 
L 339.3216 176.292 
L 258.9696 176.292 
z
" clip-path="url(#p81335892dc)" style="fill: #fb923c; stroke: #ffffff; stroke-width: 1.2; stroke-linejoin: miter"/>
   </g>
   <g id="patch_15">
    <path d="M 350.0352 212.328 
L 430.3872 212.328 
L 430.3872 176.292 
L 350.0352 176.292 
z
" clip-path="url(#p81335892dc)" style="fill: #f97316; stroke: #ffffff; stroke-width: 1.2; stroke-linejoin: miter"/>
   </g>
   <g id="patch_16">
    <path d="M 441.1008 251.136 
L 521.4528 251.136 
L 521.4528 176.292 
L 441.1008 176.292 
z
" clip-path="url(#p81335892dc)" style="fill: #f59e0b; stroke: #ffffff; stroke-width: 1.2; stroke-linejoin: miter"/>
   </g>
   <g id="patch_17">
    <path d="M 258.9696 251.136 
L 430.3872 251.136 
L 430.3872 217.872 
L 258.9696 217.872 
z
" clip-path="url(#p81335892dc)" style="fill: #cbd5e1; stroke: #ffffff; stroke-width: 1.2; stroke-linejoin: miter"/>
   </g>
   <g id="text_1">
    <!-- Block-scaled MMA (cta_group::2)  —  缩放系数位于 TMEM -->
    <g style="fill: #1f2937" transform="translate(132.723984 18.970828) scale(0.105 -0.105)">
     <defs>
      <path id="NotoSansCJKjp-Bold-42" d="M 582 0 
L 2272 0 
C 3315 0 4102 442 4102 1395 
C 4102 2029 3731 2394 3219 2515 
L 3219 2541 
C 3622 2688 3866 3130 3866 3571 
C 3866 4454 3123 4742 2150 4742 
L 582 4742 
L 582 0 
z
M 1530 2810 
L 1530 4013 
L 2093 4013 
C 2662 4013 2944 3846 2944 3430 
C 2944 3053 2688 2810 2086 2810 
L 1530 2810 
z
M 1530 730 
L 1530 2112 
L 2189 2112 
C 2842 2112 3181 1914 3181 1453 
C 3181 960 2829 730 2189 730 
L 1530 730 
z
" transform="scale(0.015625)"/>
      <path id="NotoSansCJKjp-Bold-6c" d="M 1395 -90 
C 1613 -90 1766 -51 1875 -6 
L 1760 691 
C 1696 678 1670 678 1632 678 
C 1542 678 1446 749 1446 966 
L 1446 5107 
L 506 5107 
L 506 1005 
C 506 339 736 -90 1395 -90 
z
" transform="scale(0.015625)"/>
      <path id="NotoSansCJKjp-Bold-6f" d="M 2003 -90 
C 2899 -90 3725 602 3725 1792 
C 3725 2982 2899 3674 2003 3674 
C 1101 3674 282 2982 282 1792 
C 282 602 1101 -90 2003 -90 
z
M 2003 678 
C 1510 678 1242 1114 1242 1792 
C 1242 2464 1510 2906 2003 2906 
C 2490 2906 2765 2464 2765 1792 
C 2765 1114 2490 678 2003 678 
z
" transform="scale(0.015625)"/>
      <path id="NotoSansCJKjp-Bold-63" d="M 2029 -90 
C 2426 -90 2861 45 3200 346 
L 2829 966 
C 2630 800 2394 678 2131 678 
C 1613 678 1242 1114 1242 1792 
C 1242 2464 1613 2906 2163 2906 
C 2362 2906 2528 2822 2707 2675 
L 3155 3270 
C 2893 3507 2554 3674 2112 3674 
C 1139 3674 282 2982 282 1792 
C 282 602 1043 -90 2029 -90 
z
" transform="scale(0.015625)"/>
      <path id="NotoSansCJKjp-Bold-6b" d="M 506 0 
L 1434 0 
L 1434 909 
L 1933 1491 
L 2803 0 
L 3827 0 
L 2483 2106 
L 3712 3584 
L 2682 3584 
L 1459 2048 
L 1434 2048 
L 1434 5107 
L 506 5107 
L 506 0 
z
" transform="scale(0.015625)"/>
      <path id="NotoSansCJKjp-Bold-2d" d="M 314 1491 
L 2061 1491 
L 2061 2170 
L 314 2170 
L 314 1491 
z
" transform="scale(0.015625)"/>
      <path id="NotoSansCJKjp-Bold-73" d="M 1530 -90 
C 2458 -90 2957 410 2957 1043 
C 2957 1702 2432 1946 1958 2125 
C 1574 2266 1248 2362 1248 2624 
C 1248 2829 1402 2970 1728 2970 
C 1990 2970 2240 2842 2496 2662 
L 2918 3232 
C 2624 3462 2221 3674 1702 3674 
C 883 3674 365 3219 365 2579 
C 365 1978 870 1702 1325 1530 
C 1702 1382 2074 1261 2074 992 
C 2074 768 1914 614 1555 614 
C 1216 614 915 762 595 1005 
L 166 410 
C 525 115 1050 -90 1530 -90 
z
" transform="scale(0.015625)"/>
      <path id="NotoSansCJKjp-Bold-61" d="M 1382 -90 
C 1798 -90 2157 109 2464 384 
L 2496 384 
L 2560 0 
L 3328 0 
L 3328 2093 
C 3328 3130 2861 3674 1952 3674 
C 1389 3674 877 3456 461 3200 
L 794 2573 
C 1126 2771 1446 2918 1779 2918 
C 2221 2918 2374 2650 2387 2298 
C 947 2144 326 1741 326 979 
C 326 365 742 -90 1382 -90 
z
M 1696 646 
C 1421 646 1222 768 1222 1050 
C 1222 1376 1510 1613 2387 1715 
L 2387 998 
C 2163 774 1965 646 1696 646 
z
" transform="scale(0.015625)"/>
      <path id="NotoSansCJKjp-Bold-65" d="M 2067 -90 
C 2509 -90 2963 64 3315 307 
L 2995 883 
C 2733 723 2483 640 2195 640 
C 1658 640 1274 941 1197 1523 
L 3405 1523 
C 3430 1613 3450 1786 3450 1958 
C 3450 2957 2938 3674 1952 3674 
C 1101 3674 282 2950 282 1792 
C 282 608 1062 -90 2067 -90 
z
M 1178 2157 
C 1254 2675 1587 2944 1965 2944 
C 2432 2944 2643 2637 2643 2157 
L 1178 2157 
z
" transform="scale(0.015625)"/>
      <path id="NotoSansCJKjp-Bold-64" d="M 1766 -90 
C 2138 -90 2496 109 2758 371 
L 2784 371 
L 2854 0 
L 3622 0 
L 3622 5107 
L 2682 5107 
L 2682 3846 
L 2714 3283 
C 2458 3520 2208 3674 1805 3674 
C 1037 3674 301 2957 301 1792 
C 301 614 870 -90 1766 -90 
z
M 2010 685 
C 1536 685 1267 1056 1267 1805 
C 1267 2515 1606 2899 2010 2899 
C 2240 2899 2464 2829 2682 2630 
L 2682 1056 
C 2477 787 2259 685 2010 685 
z
" transform="scale(0.015625)"/>
      <path id="NotoSansCJKjp-Bold-20" transform="scale(0.015625)"/>
      <path id="NotoSansCJKjp-Bold-4d" d="M 582 0 
L 1434 0 
L 1434 1978 
C 1434 2432 1357 3085 1312 3533 
L 1338 3533 
L 1715 2419 
L 2451 429 
L 2995 429 
L 3725 2419 
L 4109 3533 
L 4141 3533 
C 4090 3085 4019 2432 4019 1978 
L 4019 0 
L 4883 0 
L 4883 4742 
L 3834 4742 
L 3040 2515 
C 2944 2227 2861 1914 2758 1613 
L 2726 1613 
C 2630 1914 2541 2227 2438 2515 
L 1632 4742 
L 582 4742 
L 582 0 
z
" transform="scale(0.015625)"/>
      <path id="NotoSansCJKjp-Bold-41" d="M -26 0 
L 934 0 
L 1267 1216 
L 2797 1216 
L 3130 0 
L 4128 0 
L 2611 4742 
L 1491 4742 
L -26 0 
z
M 1472 1952 
L 1613 2470 
C 1754 2963 1888 3501 2016 4019 
L 2042 4019 
C 2182 3514 2310 2963 2458 2470 
L 2598 1952 
L 1472 1952 
z
" transform="scale(0.015625)"/>
      <path id="NotoSansCJKjp-Bold-28" d="M 1504 -1293 
L 2086 -1043 
C 1549 -109 1306 966 1306 2016 
C 1306 3066 1549 4147 2086 5082 
L 1504 5331 
C 896 4339 544 3296 544 2016 
C 544 736 896 -307 1504 -1293 
z
" transform="scale(0.015625)"/>
      <path id="NotoSansCJKjp-Bold-74" d="M 1818 -90 
C 2131 -90 2381 -13 2579 45 
L 2419 730 
C 2323 691 2182 653 2067 653 
C 1747 653 1574 845 1574 1254 
L 1574 2842 
L 2464 2842 
L 2464 3584 
L 1574 3584 
L 1574 4550 
L 800 4550 
L 691 3584 
L 134 3539 
L 134 2842 
L 640 2842 
L 640 1248 
C 640 454 966 -90 1818 -90 
z
" transform="scale(0.015625)"/>
      <path id="NotoSansCJKjp-Bold-5f" d="M 90 -992 
L 3539 -992 
L 3539 -448 
L 90 -448 
L 90 -992 
z
" transform="scale(0.015625)"/>
      <path id="NotoSansCJKjp-Bold-67" d="M 1766 -1555 
C 2963 -1555 3718 -1005 3718 -282 
C 3718 346 3245 614 2381 614 
L 1766 614 
C 1350 614 1203 717 1203 902 
C 1203 1056 1267 1133 1357 1216 
C 1517 1158 1683 1133 1818 1133 
C 2592 1133 3206 1536 3206 2349 
C 3206 2573 3136 2771 3046 2893 
L 3654 2893 
L 3654 3584 
L 2368 3584 
C 2214 3635 2029 3674 1818 3674 
C 1062 3674 378 3219 378 2381 
C 378 1958 608 1619 858 1440 
L 858 1414 
C 640 1261 461 1011 461 749 
C 461 448 595 262 787 141 
L 787 109 
C 448 -77 275 -333 275 -634 
C 275 -1267 922 -1555 1766 -1555 
z
M 1818 1715 
C 1510 1715 1261 1952 1261 2381 
C 1261 2797 1504 3027 1818 3027 
C 2138 3027 2387 2797 2387 2381 
C 2387 1952 2138 1715 1818 1715 
z
M 1907 -954 
C 1389 -954 1056 -787 1056 -493 
C 1056 -339 1126 -198 1286 -70 
C 1421 -102 1568 -115 1779 -115 
L 2221 -115 
C 2605 -115 2816 -186 2816 -442 
C 2816 -717 2451 -954 1907 -954 
z
" transform="scale(0.015625)"/>
      <path id="NotoSansCJKjp-Bold-72" d="M 506 0 
L 1446 0 
L 1446 2138 
C 1651 2656 1984 2842 2259 2842 
C 2413 2842 2515 2822 2643 2784 
L 2797 3597 
C 2694 3642 2579 3674 2381 3674 
C 2010 3674 1626 3418 1363 2950 
L 1344 2950 
L 1274 3584 
L 506 3584 
L 506 0 
z
" transform="scale(0.015625)"/>
      <path id="NotoSansCJKjp-Bold-75" d="M 1574 -90 
C 2067 -90 2406 154 2714 518 
L 2739 518 
L 2810 0 
L 3578 0 
L 3578 3584 
L 2637 3584 
L 2637 1165 
C 2394 845 2202 717 1914 717 
C 1562 717 1402 909 1402 1466 
L 1402 3584 
L 467 3584 
L 467 1350 
C 467 448 800 -90 1574 -90 
z
" transform="scale(0.015625)"/>
      <path id="NotoSansCJKjp-Bold-70" d="M 506 -1376 
L 1446 -1376 
L 1446 -282 
L 1414 301 
C 1683 51 1990 -90 2304 -90 
C 3091 -90 3827 621 3827 1850 
C 3827 2950 3296 3674 2419 3674 
C 2029 3674 1664 3469 1363 3213 
L 1344 3213 
L 1274 3584 
L 506 3584 
L 506 -1376 
z
M 2099 685 
C 1901 685 1677 755 1446 954 
L 1446 2534 
C 1690 2778 1907 2899 2150 2899 
C 2643 2899 2861 2522 2861 1837 
C 2861 1056 2522 685 2099 685 
z
" transform="scale(0.015625)"/>
      <path id="NotoSansCJKjp-Bold-3a" d="M 1043 2342 
C 1376 2342 1626 2605 1626 2950 
C 1626 3302 1376 3565 1043 3565 
C 704 3565 454 3302 454 2950 
C 454 2605 704 2342 1043 2342 
z
M 1043 -90 
C 1376 -90 1626 179 1626 525 
C 1626 877 1376 1139 1043 1139 
C 704 1139 454 877 454 525 
C 454 179 704 -90 1043 -90 
z
" transform="scale(0.015625)"/>
      <path id="NotoSansCJKjp-Bold-32" d="M 275 0 
L 3450 0 
L 3450 794 
L 2426 794 
C 2202 794 1888 768 1645 736 
C 2509 1587 3226 2509 3226 3366 
C 3226 4250 2630 4826 1734 4826 
C 1088 4826 666 4576 224 4102 
L 749 3597 
C 986 3859 1267 4083 1613 4083 
C 2067 4083 2323 3789 2323 3322 
C 2323 2586 1568 1696 275 544 
L 275 0 
z
" transform="scale(0.015625)"/>
      <path id="NotoSansCJKjp-Bold-29" d="M 915 -1293 
C 1523 -307 1875 736 1875 2016 
C 1875 3296 1523 4339 915 5331 
L 333 5082 
C 870 4147 1114 3066 1114 2016 
C 1114 966 870 -109 333 -1043 
L 915 -1293 
z
" transform="scale(0.015625)"/>
      <path id="NotoSansCJKjp-Bold-2014" d="M 314 1536 
L 5498 1536 
L 5498 2138 
L 314 2138 
L 314 1536 
z
" transform="scale(0.015625)"/>
      <path id="NotoSansCJKjp-Bold-7f29" d="M 211 435 
L 384 -288 
C 954 -58 1658 230 2323 506 
L 2195 1133 
C 1466 864 710 589 211 435 
z
M 3699 5274 
C 3770 5146 3840 4998 3910 4851 
L 2362 4851 
L 2362 3686 
L 2899 3686 
C 2733 3091 2438 2413 2061 1952 
L 2067 2195 
L 1344 2035 
C 1715 2554 2074 3149 2362 3725 
L 1779 4077 
C 1690 3859 1587 3635 1472 3424 
L 1030 3392 
C 1363 3910 1683 4550 1907 5146 
L 1235 5453 
C 1037 4704 640 3898 512 3693 
C 384 3482 282 3341 147 3309 
C 237 3123 346 2784 384 2643 
C 480 2688 621 2726 1120 2790 
C 928 2470 762 2221 672 2118 
C 493 1882 365 1734 211 1702 
C 288 1530 397 1216 429 1082 
C 570 1178 800 1261 2080 1587 
L 2061 1850 
C 2176 1715 2317 1510 2387 1382 
C 2483 1485 2573 1600 2662 1728 
L 2662 -563 
L 3302 -563 
L 3302 2906 
C 3424 3187 3526 3475 3610 3750 
L 3059 3885 
L 3059 4224 
L 5414 4224 
L 5414 3776 
L 6144 3776 
L 6144 4851 
L 4698 4851 
C 4608 5043 4486 5293 4365 5485 
L 3699 5274 
z
M 3667 2566 
L 3667 -557 
L 4314 -557 
L 4314 -301 
L 5312 -301 
L 5312 -525 
L 5990 -525 
L 5990 2566 
L 4998 2566 
L 5126 3027 
L 6080 3027 
L 6080 3635 
L 3597 3635 
L 3597 3027 
L 4390 3027 
L 4314 2566 
L 3667 2566 
z
M 4314 851 
L 5312 851 
L 5312 294 
L 4314 294 
L 4314 851 
z
M 4314 1440 
L 4314 1971 
L 5312 1971 
L 5312 1440 
L 4314 1440 
z
" transform="scale(0.015625)"/>
      <path id="NotoSansCJKjp-Bold-653e" d="M 3763 5440 
C 3616 4403 3334 3411 2867 2752 
L 2867 2816 
C 2874 2906 2874 3123 2874 3123 
L 1606 3123 
L 1606 3750 
L 3085 3750 
L 3085 4461 
L 2022 4461 
L 2022 5440 
L 1261 5440 
L 1261 4461 
L 250 4461 
L 250 3750 
L 877 3750 
L 877 2509 
C 877 1683 787 755 96 -38 
C 282 -166 531 -378 659 -544 
C 1453 333 1600 1402 1606 2426 
L 2144 2426 
C 2118 909 2080 358 1990 224 
C 1939 147 1888 122 1805 128 
C 1702 128 1523 128 1318 147 
C 1427 -45 1498 -346 1517 -550 
C 1786 -557 2042 -557 2202 -525 
C 2387 -486 2515 -429 2637 -243 
C 2797 -26 2829 678 2861 2502 
C 3046 2374 3283 2182 3386 2074 
C 3482 2202 3571 2336 3654 2490 
C 3789 2016 3942 1581 4141 1190 
C 3802 717 3347 352 2752 83 
C 2886 -77 3110 -422 3174 -589 
C 3744 -301 4198 58 4557 499 
C 4877 70 5267 -282 5760 -538 
C 5875 -333 6112 -32 6291 122 
C 5766 365 5344 730 5018 1190 
C 5370 1843 5594 2624 5741 3565 
L 6221 3565 
L 6221 4275 
L 4339 4275 
C 4429 4614 4499 4966 4557 5325 
L 3763 5440 
z
M 4128 3565 
L 4979 3565 
C 4890 2963 4762 2438 4576 1984 
C 4371 2445 4224 2957 4115 3514 
L 4128 3565 
z
" transform="scale(0.015625)"/>
      <path id="NotoSansCJKjp-Bold-7cfb" d="M 1574 1165 
C 1242 749 678 314 160 45 
C 358 -77 691 -339 851 -486 
C 1350 -160 1971 371 2374 864 
L 1574 1165 
z
M 3962 762 
C 4480 403 5139 -122 5440 -474 
L 6131 19 
C 5792 371 5114 870 4602 1197 
L 3962 762 
z
M 5165 5382 
C 4019 5146 2138 5018 486 4979 
C 563 4806 653 4486 666 4294 
C 1152 4301 1664 4314 2182 4339 
C 2003 4122 1805 3898 1613 3706 
L 1299 3898 
L 768 3405 
C 1203 3136 1728 2752 2080 2432 
L 1645 2106 
L 294 2086 
L 365 1318 
L 2771 1395 
L 2771 -576 
L 3597 -576 
L 3597 1421 
L 5210 1478 
C 5344 1318 5466 1165 5549 1037 
L 6234 1498 
C 5920 1939 5242 2573 4723 3008 
L 4090 2605 
C 4243 2470 4403 2323 4563 2170 
L 2816 2131 
C 3507 2656 4256 3302 4864 3917 
L 4115 4320 
C 3738 3878 3226 3386 2694 2931 
C 2554 3053 2381 3181 2202 3315 
C 2541 3616 2925 4013 3251 4390 
L 3219 4403 
C 4115 4474 4986 4582 5709 4730 
L 5165 5382 
z
" transform="scale(0.015625)"/>
      <path id="NotoSansCJKjp-Bold-6570" d="M 3917 5440 
C 3770 4294 3456 3200 2918 2541 
C 3053 2445 3277 2246 3424 2099 
L 3520 1997 
C 3629 2138 3725 2291 3821 2464 
C 3936 2003 4077 1574 4250 1190 
C 3968 794 3603 474 3123 224 
C 2970 333 2790 448 2592 563 
C 2746 813 2861 1114 2931 1478 
L 3424 1478 
L 3424 2099 
L 1901 2099 
L 2054 2406 
L 1779 2464 
L 2189 2464 
L 2189 3245 
C 2438 3046 2714 2822 2854 2682 
L 3258 3213 
C 3123 3309 2669 3578 2355 3750 
L 3405 3750 
L 3405 4358 
L 2797 4358 
C 2957 4550 3149 4832 3347 5101 
L 2701 5363 
C 2605 5120 2419 4768 2278 4544 
L 2701 4358 
L 2189 4358 
L 2189 5440 
L 1485 5440 
L 1485 4358 
L 954 4358 
L 1363 4538 
C 1306 4762 1139 5088 973 5331 
L 422 5101 
C 557 4870 698 4576 755 4358 
L 262 4358 
L 262 3750 
L 1261 3750 
C 960 3418 525 3110 134 2950 
C 275 2810 442 2560 525 2394 
C 845 2573 1190 2835 1485 3130 
L 1485 2522 
L 1344 2554 
L 1126 2099 
L 192 2099 
L 192 1478 
L 806 1478 
C 646 1171 486 883 346 659 
L 1018 454 
L 1088 576 
L 1446 403 
C 1139 230 736 122 218 51 
C 346 -102 480 -365 525 -582 
C 1210 -442 1728 -256 2106 32 
C 2368 -134 2598 -301 2771 -454 
L 3066 -160 
C 3168 -314 3270 -486 3315 -595 
C 3872 -320 4314 26 4666 448 
C 4954 38 5306 -307 5747 -563 
C 5862 -352 6106 -51 6278 102 
C 5811 346 5440 710 5146 1165 
C 5491 1818 5709 2611 5843 3571 
L 6202 3571 
L 6202 4282 
L 4493 4282 
C 4576 4621 4640 4973 4698 5331 
L 3917 5440 
z
M 1581 1478 
L 2202 1478 
C 2144 1248 2067 1056 1965 896 
C 1779 979 1587 1062 1402 1139 
L 1581 1478 
z
M 5050 3571 
C 4979 3002 4864 2496 4704 2061 
C 4525 2522 4397 3027 4307 3571 
L 5050 3571 
z
" transform="scale(0.015625)"/>
      <path id="NotoSansCJKjp-Bold-4f4d" d="M 2650 3142 
C 2848 2317 3014 1254 3034 621 
L 3789 781 
C 3750 1414 3558 2451 3341 3258 
L 2650 3142 
z
M 2202 4282 
L 2202 3552 
L 6099 3552 
L 6099 4282 
L 4486 4282 
L 4486 5350 
L 3712 5350 
L 3712 4282 
L 2202 4282 
z
M 2074 422 
L 2074 -301 
L 6234 -301 
L 6234 422 
L 4934 422 
C 5178 1171 5446 2227 5638 3168 
L 4806 3302 
C 4691 2394 4435 1203 4186 422 
L 2074 422 
z
M 1632 5421 
C 1280 4512 685 3616 77 3046 
C 205 2854 416 2432 486 2246 
C 666 2426 838 2624 1011 2848 
L 1011 -557 
L 1741 -557 
L 1741 3942 
C 1971 4346 2182 4768 2349 5184 
L 1632 5421 
z
" transform="scale(0.015625)"/>
      <path id="NotoSansCJKjp-Bold-4e8e" d="M 755 5030 
L 755 4269 
L 2861 4269 
L 2861 2950 
L 320 2950 
L 320 2189 
L 2861 2189 
L 2861 422 
C 2861 294 2803 256 2662 250 
C 2509 243 2010 243 1530 269 
C 1658 45 1805 -314 1850 -544 
C 2483 -544 2957 -525 3258 -397 
C 3571 -275 3674 -58 3674 410 
L 3674 2189 
L 6086 2189 
L 6086 2950 
L 3674 2950 
L 3674 4269 
L 5645 4269 
L 5645 5030 
L 755 5030 
z
" transform="scale(0.015625)"/>
      <path id="NotoSansCJKjp-Bold-54" d="M 1523 0 
L 2470 0 
L 2470 3949 
L 3808 3949 
L 3808 4742 
L 192 4742 
L 192 3949 
L 1523 3949 
L 1523 0 
z
" transform="scale(0.015625)"/>
      <path id="NotoSansCJKjp-Bold-45" d="M 582 0 
L 3558 0 
L 3558 794 
L 1530 794 
L 1530 2061 
L 3187 2061 
L 3187 2854 
L 1530 2854 
L 1530 3949 
L 3488 3949 
L 3488 4742 
L 582 4742 
L 582 0 
z
" transform="scale(0.015625)"/>
     </defs>
     <use xlink:href="#NotoSansCJKjp-Bold-42"/>
     <use xlink:href="#NotoSansCJKjp-Bold-6c" x="68.099991"/>
     <use xlink:href="#NotoSansCJKjp-Bold-6f" x="99.599976"/>
     <use xlink:href="#NotoSansCJKjp-Bold-63" x="162.199966"/>
     <use xlink:href="#NotoSansCJKjp-Bold-6b" x="214.899963"/>
     <use xlink:href="#NotoSansCJKjp-Bold-2d" x="275.299957"/>
     <use xlink:href="#NotoSansCJKjp-Bold-73" x="312.299942"/>
     <use xlink:href="#NotoSansCJKjp-Bold-63" x="361.799927"/>
     <use xlink:href="#NotoSansCJKjp-Bold-61" x="414.499924"/>
     <use xlink:href="#NotoSansCJKjp-Bold-6c" x="473.599915"/>
     <use xlink:href="#NotoSansCJKjp-Bold-65" x="505.099899"/>
     <use xlink:href="#NotoSansCJKjp-Bold-64" x="563.19989"/>
     <use xlink:href="#NotoSansCJKjp-Bold-20" x="627.599884"/>
     <use xlink:href="#NotoSansCJKjp-Bold-4d" x="650.299881"/>
     <use xlink:href="#NotoSansCJKjp-Bold-4d" x="735.599869"/>
     <use xlink:href="#NotoSansCJKjp-Bold-41" x="820.899857"/>
     <use xlink:href="#NotoSansCJKjp-Bold-20" x="884.999847"/>
     <use xlink:href="#NotoSansCJKjp-Bold-28" x="907.699844"/>
     <use xlink:href="#NotoSansCJKjp-Bold-63" x="945.499832"/>
     <use xlink:href="#NotoSansCJKjp-Bold-74" x="998.199829"/>
     <use xlink:href="#NotoSansCJKjp-Bold-61" x="1040.29982"/>
     <use xlink:href="#NotoSansCJKjp-Bold-5f" x="1099.399811"/>
     <use xlink:href="#NotoSansCJKjp-Bold-67" x="1156.099808"/>
     <use xlink:href="#NotoSansCJKjp-Bold-72" x="1215.799805"/>
     <use xlink:href="#NotoSansCJKjp-Bold-6f" x="1259.399796"/>
     <use xlink:href="#NotoSansCJKjp-Bold-75" x="1321.999786"/>
     <use xlink:href="#NotoSansCJKjp-Bold-70" x="1385.699783"/>
     <use xlink:href="#NotoSansCJKjp-Bold-3a" x="1450.099777"/>
     <use xlink:href="#NotoSansCJKjp-Bold-3a" x="1482.599762"/>
     <use xlink:href="#NotoSansCJKjp-Bold-32" x="1515.099747"/>
     <use xlink:href="#NotoSansCJKjp-Bold-29" x="1574.099731"/>
     <use xlink:href="#NotoSansCJKjp-Bold-20" x="1611.899719"/>
     <use xlink:href="#NotoSansCJKjp-Bold-20" x="1634.599716"/>
     <use xlink:href="#NotoSansCJKjp-Bold-2014" x="1657.299713"/>
     <use xlink:href="#NotoSansCJKjp-Bold-20" x="1748.099701"/>
     <use xlink:href="#NotoSansCJKjp-Bold-20" x="1770.799698"/>
     <use xlink:href="#NotoSansCJKjp-Bold-7f29" x="1793.499695"/>
     <use xlink:href="#NotoSansCJKjp-Bold-653e" x="1893.49968"/>
     <use xlink:href="#NotoSansCJKjp-Bold-7cfb" x="1993.499664"/>
     <use xlink:href="#NotoSansCJKjp-Bold-6570" x="2093.499649"/>
     <use xlink:href="#NotoSansCJKjp-Bold-4f4d" x="2193.499634"/>
     <use xlink:href="#NotoSansCJKjp-Bold-4e8e" x="2293.499619"/>
     <use xlink:href="#NotoSansCJKjp-Bold-20" x="2393.499603"/>
     <use xlink:href="#NotoSansCJKjp-Bold-54" x="2416.1996"/>
     <use xlink:href="#NotoSansCJKjp-Bold-4d" x="2478.699585"/>
     <use xlink:href="#NotoSansCJKjp-Bold-45" x="2563.999573"/>
     <use xlink:href="#NotoSansCJKjp-Bold-4d" x="2625.499557"/>
    </g>
   </g>
   <g id="text_2">
    <!-- CTA 0 — SMEM -->
    <g style="fill: #334155" transform="translate(25.9488 50.17415) scale(0.08 -0.08)">
     <defs>
      <path id="NotoSansCJKjp-Bold-43" d="M 2509 -90 
C 3130 -90 3635 154 4026 608 
L 3520 1197 
C 3270 922 2957 730 2547 730 
C 1798 730 1318 1350 1318 2381 
C 1318 3398 1850 4013 2566 4013 
C 2925 4013 3200 3846 3443 3616 
L 3936 4218 
C 3629 4538 3155 4826 2547 4826 
C 1350 4826 346 3910 346 2349 
C 346 768 1318 -90 2509 -90 
z
" transform="scale(0.015625)"/>
      <path id="NotoSansCJKjp-Bold-30" d="M 1888 -90 
C 2854 -90 3494 755 3494 2394 
C 3494 4019 2854 4826 1888 4826 
C 922 4826 282 4026 282 2394 
C 282 755 922 -90 1888 -90 
z
M 1888 646 
C 1478 646 1171 1056 1171 2394 
C 1171 3712 1478 4102 1888 4102 
C 2298 4102 2598 3712 2598 2394 
C 2598 1056 2298 646 1888 646 
z
" transform="scale(0.015625)"/>
      <path id="NotoSansCJKjp-Bold-53" d="M 1997 -90 
C 3091 -90 3738 570 3738 1344 
C 3738 2029 3360 2400 2784 2637 
L 2163 2886 
C 1760 3053 1427 3174 1427 3514 
C 1427 3827 1683 4013 2099 4013 
C 2496 4013 2810 3866 3110 3622 
L 3590 4211 
C 3206 4602 2656 4826 2099 4826 
C 1146 4826 461 4224 461 3456 
C 461 2765 947 2381 1427 2189 
L 2054 1914 
C 2477 1734 2771 1626 2771 1274 
C 2771 941 2509 730 2016 730 
C 1600 730 1146 941 813 1254 
L 269 602 
C 730 154 1363 -90 1997 -90 
z
" transform="scale(0.015625)"/>
     </defs>
     <use xlink:href="#NotoSansCJKjp-Bold-43"/>
     <use xlink:href="#NotoSansCJKjp-Bold-54" x="65.599991"/>
     <use xlink:href="#NotoSansCJKjp-Bold-41" x="128.099976"/>
     <use xlink:href="#NotoSansCJKjp-Bold-20" x="192.199966"/>
     <use xlink:href="#NotoSansCJKjp-Bold-30" x="214.899963"/>
     <use xlink:href="#NotoSansCJKjp-Bold-20" x="273.899948"/>
     <use xlink:href="#NotoSansCJKjp-Bold-2014" x="296.599945"/>
     <use xlink:href="#NotoSansCJKjp-Bold-20" x="387.399933"/>
     <use xlink:href="#NotoSansCJKjp-Bold-53" x="410.09993"/>
     <use xlink:href="#NotoSansCJKjp-Bold-4d" x="472.499924"/>
     <use xlink:href="#NotoSansCJKjp-Bold-45" x="557.799911"/>
     <use xlink:href="#NotoSansCJKjp-Bold-4d" x="619.299896"/>
    </g>
   </g>
   <g id="text_3">
    <!-- A  行 0-127 -->
    <g style="fill: #ffffff" transform="translate(79.320483 63.939093) scale(0.075 -0.075)">
     <defs>
      <path id="NotoSansCJKjp-Bold-884c" d="M 2861 5075 
L 2861 4339 
L 5984 4339 
L 5984 5075 
L 2861 5075 
z
M 1626 5440 
C 1318 4992 698 4410 166 4070 
C 301 3917 499 3610 595 3437 
C 1210 3866 1901 4525 2368 5133 
L 1626 5440 
z
M 2586 3296 
L 2586 2566 
L 4480 2566 
L 4480 333 
C 4480 237 4442 211 4326 211 
C 4211 205 3782 205 3418 224 
C 3520 0 3622 -333 3654 -557 
C 4224 -557 4634 -544 4909 -429 
C 5190 -314 5267 -96 5267 314 
L 5267 2566 
L 6150 2566 
L 6150 3296 
L 2586 3296 
z
M 1869 4045 
C 1453 3315 749 2573 96 2118 
C 250 1958 512 1613 621 1453 
C 794 1594 966 1754 1146 1926 
L 1146 -582 
L 1914 -582 
L 1914 2784 
C 2170 3104 2406 3437 2598 3763 
L 1869 4045 
z
" transform="scale(0.015625)"/>
      <path id="NotoSansCJKjp-Bold-31" d="M 525 0 
L 3373 0 
L 3373 768 
L 2483 768 
L 2483 4742 
L 1786 4742 
C 1485 4550 1165 4429 685 4346 
L 685 3757 
L 1549 3757 
L 1549 768 
L 525 768 
L 525 0 
z
" transform="scale(0.015625)"/>
      <path id="NotoSansCJKjp-Bold-37" d="M 1190 0 
L 2138 0 
C 2221 1850 2368 2822 3469 4166 
L 3469 4742 
L 320 4742 
L 320 3949 
L 2451 3949 
C 1549 2694 1274 1645 1190 0 
z
" transform="scale(0.015625)"/>
     </defs>
     <use xlink:href="#NotoSansCJKjp-Bold-41"/>
     <use xlink:href="#NotoSansCJKjp-Bold-20" x="64.099991"/>
     <use xlink:href="#NotoSansCJKjp-Bold-20" x="86.799988"/>
     <use xlink:href="#NotoSansCJKjp-Bold-884c" x="109.499985"/>
     <use xlink:href="#NotoSansCJKjp-Bold-20" x="209.499969"/>
     <use xlink:href="#NotoSansCJKjp-Bold-30" x="232.199966"/>
     <use xlink:href="#NotoSansCJKjp-Bold-2d" x="291.199951"/>
     <use xlink:href="#NotoSansCJKjp-Bold-31" x="328.199936"/>
     <use xlink:href="#NotoSansCJKjp-Bold-32" x="387.199921"/>
     <use xlink:href="#NotoSansCJKjp-Bold-37" x="446.199905"/>
    </g>
   </g>
   <g id="text_4">
    <!-- fp8/fp4 打包 -->
    <g style="fill: #ffffff" transform="translate(82.259733 74.319182) scale(0.057 -0.057)">
     <defs>
      <path id="NotoSansCJKjp-Regular-66" d="M 211 3002 
L 685 3002 
L 685 0 
L 1267 0 
L 1267 3002 
L 2003 3002 
L 2003 3475 
L 1267 3475 
L 1267 4026 
C 1267 4474 1427 4710 1760 4710 
C 1882 4710 2022 4678 2150 4614 
L 2278 5069 
C 2118 5133 1914 5178 1696 5178 
C 1005 5178 685 4736 685 4032 
L 685 3475 
L 211 3443 
L 211 3002 
z
" transform="scale(0.015625)"/>
      <path id="NotoSansCJKjp-Regular-70" d="M 589 -1466 
L 1178 -1466 
L 1178 -288 
L 1158 320 
C 1472 58 1805 -83 2118 -83 
C 2912 -83 3629 602 3629 1792 
C 3629 2867 3142 3565 2246 3565 
C 1843 3565 1453 3334 1139 3072 
L 1126 3072 
L 1069 3475 
L 589 3475 
L 589 -1466 
z
M 2022 410 
C 1792 410 1485 499 1178 768 
L 1178 2598 
C 1510 2906 1811 3072 2099 3072 
C 2765 3072 3021 2560 3021 1786 
C 3021 928 2598 410 2022 410 
z
" transform="scale(0.015625)"/>
      <path id="NotoSansCJKjp-Regular-38" d="M 1792 -83 
C 2669 -83 3258 448 3258 1126 
C 3258 1773 2880 2125 2470 2362 
L 2470 2394 
C 2746 2611 3091 3034 3091 3526 
C 3091 4250 2605 4762 1805 4762 
C 1075 4762 518 4282 518 3571 
C 518 3078 813 2726 1152 2490 
L 1152 2464 
C 723 2234 294 1792 294 1165 
C 294 442 922 -83 1792 -83 
z
M 2112 2547 
C 1555 2765 1050 3014 1050 3571 
C 1050 4026 1363 4326 1798 4326 
C 2298 4326 2592 3962 2592 3494 
C 2592 3149 2426 2829 2112 2547 
z
M 1798 352 
C 1235 352 813 717 813 1216 
C 813 1664 1082 2035 1459 2278 
C 2125 2010 2701 1779 2701 1146 
C 2701 678 2342 352 1798 352 
z
" transform="scale(0.015625)"/>
      <path id="NotoSansCJKjp-Regular-2f" d="M 70 -1146 
L 499 -1146 
L 2413 5082 
L 1990 5082 
L 70 -1146 
z
" transform="scale(0.015625)"/>
      <path id="NotoSansCJKjp-Regular-34" d="M 2176 0 
L 2726 0 
L 2726 1293 
L 3354 1293 
L 3354 1760 
L 2726 1760 
L 2726 4691 
L 2080 4691 
L 128 1677 
L 128 1293 
L 2176 1293 
L 2176 0 
z
M 2176 1760 
L 736 1760 
L 1805 3360 
C 1939 3590 2067 3827 2182 4051 
L 2208 4051 
C 2195 3814 2176 3430 2176 3200 
L 2176 1760 
z
" transform="scale(0.015625)"/>
      <path id="NotoSansCJKjp-Regular-20" transform="scale(0.015625)"/>
      <path id="NotoSansCJKjp-Regular-6253" d="M 1274 5376 
L 1274 4083 
L 307 4083 
L 307 3622 
L 1274 3622 
L 1274 2259 
C 890 2157 538 2061 250 1990 
L 397 1510 
L 1274 1766 
L 1274 128 
C 1274 38 1235 6 1146 6 
C 1062 0 781 0 480 6 
C 544 -122 614 -320 634 -448 
C 1082 -448 1344 -435 1517 -358 
C 1683 -282 1747 -147 1747 122 
L 1747 1907 
L 2707 2195 
L 2643 2650 
L 1747 2394 
L 1747 3622 
L 2637 3622 
L 2637 4083 
L 1747 4083 
L 1747 5376 
L 1274 5376 
z
M 2675 4838 
L 2675 4358 
L 4499 4358 
L 4499 198 
C 4499 77 4454 38 4326 38 
C 4186 26 3725 26 3251 45 
C 3328 -96 3418 -333 3450 -474 
C 4058 -474 4461 -467 4698 -384 
C 4928 -301 5011 -134 5011 192 
L 5011 4358 
L 6150 4358 
L 6150 4838 
L 2675 4838 
z
" transform="scale(0.015625)"/>
      <path id="NotoSansCJKjp-Regular-5305" d="M 1165 1984 
L 1165 333 
C 1165 -294 1466 -442 2483 -442 
C 2707 -442 4640 -442 4877 -442 
C 5786 -442 5978 -218 6074 704 
C 5933 730 5728 806 5606 883 
C 5549 147 5453 13 4877 13 
C 4442 13 2784 13 2464 13 
C 1766 13 1638 70 1638 339 
L 1638 1549 
L 3866 1549 
L 3866 3507 
L 1318 3507 
C 1478 3718 1626 3949 1766 4186 
L 5178 4186 
C 5126 2374 5062 1709 4922 1549 
C 4870 1485 4800 1466 4691 1466 
C 4570 1466 4269 1466 3942 1498 
C 4019 1370 4070 1184 4077 1037 
C 4416 1024 4736 1018 4922 1043 
C 5114 1056 5235 1107 5350 1254 
C 5542 1491 5600 2253 5664 4410 
C 5670 4486 5670 4646 5670 4646 
L 2022 4646 
C 2125 4851 2221 5056 2304 5267 
L 1805 5408 
C 1453 4499 858 3610 198 3053 
C 320 2976 531 2803 621 2707 
C 838 2912 1050 3155 1254 3424 
L 1254 3078 
L 3386 3078 
L 3386 1984 
L 1165 1984 
z
" transform="scale(0.015625)"/>
     </defs>
     <use xlink:href="#NotoSansCJKjp-Regular-66"/>
     <use xlink:href="#NotoSansCJKjp-Regular-70" x="32.499985"/>
     <use xlink:href="#NotoSansCJKjp-Regular-38" x="94.499969"/>
     <use xlink:href="#NotoSansCJKjp-Regular-2f" x="149.999954"/>
     <use xlink:href="#NotoSansCJKjp-Regular-66" x="189.199951"/>
     <use xlink:href="#NotoSansCJKjp-Regular-70" x="221.699936"/>
     <use xlink:href="#NotoSansCJKjp-Regular-34" x="283.699921"/>
     <use xlink:href="#NotoSansCJKjp-Regular-20" x="339.199905"/>
     <use xlink:href="#NotoSansCJKjp-Regular-6253" x="361.599899"/>
     <use xlink:href="#NotoSansCJKjp-Regular-5305" x="461.599884"/>
    </g>
   </g>
   <g id="text_5">
    <!-- B  列一半 -->
    <g style="fill: #ffffff" transform="translate(82.75935 104.521173) scale(0.075 -0.075)">
     <defs>
      <path id="NotoSansCJKjp-Bold-5217" d="M 3699 4717 
L 3699 1190 
L 4454 1190 
L 4454 4717 
L 3699 4717 
z
M 5197 5318 
L 5197 346 
C 5197 230 5152 192 5030 186 
C 4902 186 4506 186 4115 198 
C 4224 -13 4339 -358 4371 -570 
C 4954 -570 5350 -544 5613 -422 
C 5869 -301 5958 -96 5958 339 
L 5958 5318 
L 5197 5318 
z
M 2573 3027 
C 2490 2643 2381 2291 2253 1978 
C 2016 2150 1670 2368 1382 2541 
C 1472 2694 1549 2861 1626 3027 
L 2573 3027 
z
M 352 5152 
L 352 4442 
L 1331 4442 
C 1114 3571 698 2592 83 2003 
C 250 1888 499 1651 634 1510 
C 768 1645 896 1792 1018 1958 
C 1325 1760 1683 1510 1914 1312 
C 1542 717 1062 275 486 -32 
C 666 -141 947 -429 1062 -589 
C 2246 96 3104 1478 3424 3597 
L 2944 3757 
L 2810 3731 
L 1901 3731 
C 1984 3968 2061 4205 2125 4442 
L 3533 4442 
L 3533 5152 
L 352 5152 
z
" transform="scale(0.015625)"/>
      <path id="NotoSansCJKjp-Bold-4e00" d="M 243 2912 
L 243 2074 
L 6170 2074 
L 6170 2912 
L 243 2912 
z
" transform="scale(0.015625)"/>
      <path id="NotoSansCJKjp-Bold-534a" d="M 826 5030 
C 1101 4582 1382 3987 1472 3603 
L 2234 3917 
C 2118 4301 1811 4877 1530 5306 
L 826 5030 
z
M 4800 5338 
C 4653 4883 4371 4282 4141 3898 
L 4845 3654 
C 5082 4013 5376 4557 5632 5082 
L 4800 5338 
z
M 2778 5440 
L 2778 3437 
L 691 3437 
L 691 2675 
L 2778 2675 
L 2778 1907 
L 301 1907 
L 301 1133 
L 2778 1133 
L 2778 -563 
L 3584 -563 
L 3584 1133 
L 6106 1133 
L 6106 1907 
L 3584 1907 
L 3584 2675 
L 5773 2675 
L 5773 3437 
L 3584 3437 
L 3584 5440 
L 2778 5440 
z
" transform="scale(0.015625)"/>
     </defs>
     <use xlink:href="#NotoSansCJKjp-Bold-42"/>
     <use xlink:href="#NotoSansCJKjp-Bold-20" x="68.099991"/>
     <use xlink:href="#NotoSansCJKjp-Bold-20" x="90.799988"/>
     <use xlink:href="#NotoSansCJKjp-Bold-5217" x="113.499985"/>
     <use xlink:href="#NotoSansCJKjp-Bold-4e00" x="213.499969"/>
     <use xlink:href="#NotoSansCJKjp-Bold-534a" x="313.499954"/>
    </g>
   </g>
   <g id="text_6">
    <!-- fp8/fp4 打包 -->
    <g style="fill: #ffffff" transform="translate(82.259733 114.069662) scale(0.057 -0.057)">
     <use xlink:href="#NotoSansCJKjp-Regular-66"/>
     <use xlink:href="#NotoSansCJKjp-Regular-70" x="32.499985"/>
     <use xlink:href="#NotoSansCJKjp-Regular-38" x="94.499969"/>
     <use xlink:href="#NotoSansCJKjp-Regular-2f" x="149.999954"/>
     <use xlink:href="#NotoSansCJKjp-Regular-66" x="189.199951"/>
     <use xlink:href="#NotoSansCJKjp-Regular-70" x="221.699936"/>
     <use xlink:href="#NotoSansCJKjp-Regular-34" x="283.699921"/>
     <use xlink:href="#NotoSansCJKjp-Regular-20" x="339.199905"/>
     <use xlink:href="#NotoSansCJKjp-Regular-6253" x="361.599899"/>
     <use xlink:href="#NotoSansCJKjp-Regular-5305" x="461.599884"/>
    </g>
   </g>
   <g id="patch_18">
    <path d="M 185.972084 84.816 
Q 210.757878 84.816 233.531211 84.816 
" style="fill: none; stroke: #059669; stroke-width: 1.8; stroke-linecap: round"/>
    <path d="M 229.531211 82.816 
L 233.531211 84.816 
L 229.531211 86.816 
L 229.531211 82.816 
z
" style="fill: #059669; stroke: #059669; stroke-width: 1.8; stroke-linecap: round"/>
   </g>
   <g id="text_7">
    <!-- MMA -->
    <g style="fill: #059669" transform="translate(202.946291 70.168062) scale(0.07 -0.07)">
     <defs>
      <path id="NotoSansCJKjp-Regular-4d" d="M 646 0 
L 1178 0 
L 1178 2598 
C 1178 3002 1139 3571 1101 3981 
L 1126 3981 
L 1504 2912 
L 2394 474 
L 2790 474 
L 3674 2912 
L 4051 3981 
L 4077 3981 
C 4045 3571 4000 3002 4000 2598 
L 4000 0 
L 4550 0 
L 4550 4691 
L 3840 4691 
L 2944 2182 
C 2835 1862 2739 1530 2618 1203 
L 2592 1203 
C 2477 1530 2374 1862 2253 2182 
L 1357 4691 
L 646 4691 
L 646 0 
z
" transform="scale(0.015625)"/>
      <path id="NotoSansCJKjp-Regular-41" d="M 26 0 
L 621 0 
L 1075 1434 
L 2790 1434 
L 3238 0 
L 3866 0 
L 2272 4691 
L 1613 4691 
L 26 0 
z
M 1222 1901 
L 1453 2624 
C 1619 3155 1773 3661 1920 4211 
L 1946 4211 
C 2099 3667 2246 3155 2419 2624 
L 2643 1901 
L 1222 1901 
z
" transform="scale(0.015625)"/>
     </defs>
     <use xlink:href="#NotoSansCJKjp-Regular-4d"/>
     <use xlink:href="#NotoSansCJKjp-Regular-4d" x="81.199982"/>
     <use xlink:href="#NotoSansCJKjp-Regular-41" x="162.399963"/>
    </g>
   </g>
   <g id="text_8">
    <!-- CTA 0 — TMEM -->
    <g style="fill: #334155" transform="translate(256.2912 50.17415) scale(0.08 -0.08)">
     <use xlink:href="#NotoSansCJKjp-Bold-43"/>
     <use xlink:href="#NotoSansCJKjp-Bold-54" x="65.599991"/>
     <use xlink:href="#NotoSansCJKjp-Bold-41" x="128.099976"/>
     <use xlink:href="#NotoSansCJKjp-Bold-20" x="192.199966"/>
     <use xlink:href="#NotoSansCJKjp-Bold-30" x="214.899963"/>
     <use xlink:href="#NotoSansCJKjp-Bold-20" x="273.899948"/>
     <use xlink:href="#NotoSansCJKjp-Bold-2014" x="296.599945"/>
     <use xlink:href="#NotoSansCJKjp-Bold-20" x="387.399933"/>
     <use xlink:href="#NotoSansCJKjp-Bold-54" x="410.09993"/>
     <use xlink:href="#NotoSansCJKjp-Bold-4d" x="472.599915"/>
     <use xlink:href="#NotoSansCJKjp-Bold-45" x="557.899902"/>
     <use xlink:href="#NotoSansCJKjp-Bold-4d" x="619.399887"/>
    </g>
   </g>
   <g id="text_9">
    <!-- SFA -->
    <g style="fill: #ffffff" transform="translate(292.6706 63.793351) scale(0.07 -0.07)">
     <defs>
      <path id="NotoSansCJKjp-Bold-46" d="M 582 0 
L 1530 0 
L 1530 1920 
L 3213 1920 
L 3213 2714 
L 1530 2714 
L 1530 3949 
L 3501 3949 
L 3501 4742 
L 582 4742 
L 582 0 
z
" transform="scale(0.015625)"/>
     </defs>
     <use xlink:href="#NotoSansCJKjp-Bold-53"/>
     <use xlink:href="#NotoSansCJKjp-Bold-46" x="62.399994"/>
     <use xlink:href="#NotoSansCJKjp-Bold-41" x="120.899979"/>
    </g>
   </g>
   <g id="text_10">
    <!-- (M, SFK) -->
    <g style="fill: #ffffff" transform="translate(289.307444 70.958747) scale(0.052 -0.052)">
     <defs>
      <path id="NotoSansCJKjp-Regular-28" d="M 1530 -1254 
L 1888 -1094 
C 1338 -186 1075 902 1075 1990 
C 1075 3072 1338 4154 1888 5069 
L 1530 5235 
C 941 4275 589 3245 589 1990 
C 589 730 941 -301 1530 -1254 
z
" transform="scale(0.015625)"/>
      <path id="NotoSansCJKjp-Regular-2c" d="M 480 -1216 
C 1056 -973 1414 -493 1414 122 
C 1414 550 1229 806 922 806 
C 685 806 480 653 480 397 
C 480 141 678 -13 909 -13 
L 979 -6 
C 973 -390 736 -698 339 -870 
L 480 -1216 
z
" transform="scale(0.015625)"/>
      <path id="NotoSansCJKjp-Regular-53" d="M 1946 -83 
C 2925 -83 3539 506 3539 1248 
C 3539 1946 3117 2266 2573 2502 
L 1907 2790 
C 1542 2944 1126 3117 1126 3578 
C 1126 3994 1472 4256 2003 4256 
C 2438 4256 2784 4090 3072 3821 
L 3379 4198 
C 3053 4538 2560 4774 2003 4774 
C 1152 4774 525 4256 525 3533 
C 525 2848 1043 2515 1478 2330 
L 2150 2035 
C 2598 1837 2938 1683 2938 1197 
C 2938 742 2573 435 1952 435 
C 1466 435 992 666 659 1018 
L 307 608 
C 710 186 1280 -83 1946 -83 
z
" transform="scale(0.015625)"/>
      <path id="NotoSansCJKjp-Regular-46" d="M 646 0 
L 1235 0 
L 1235 2106 
L 3027 2106 
L 3027 2605 
L 1235 2605 
L 1235 4192 
L 3347 4192 
L 3347 4691 
L 646 4691 
L 646 0 
z
" transform="scale(0.015625)"/>
      <path id="NotoSansCJKjp-Regular-4b" d="M 646 0 
L 1235 0 
L 1235 1485 
L 2042 2445 
L 3450 0 
L 4109 0 
L 2413 2912 
L 3885 4691 
L 3213 4691 
L 1248 2336 
L 1235 2336 
L 1235 4691 
L 646 4691 
L 646 0 
z
" transform="scale(0.015625)"/>
      <path id="NotoSansCJKjp-Regular-29" d="M 634 -1254 
C 1222 -301 1574 730 1574 1990 
C 1574 3245 1222 4275 634 5235 
L 269 5069 
C 819 4154 1094 3072 1094 1990 
C 1094 902 819 -186 269 -1094 
L 634 -1254 
z
" transform="scale(0.015625)"/>
     </defs>
     <use xlink:href="#NotoSansCJKjp-Regular-28"/>
     <use xlink:href="#NotoSansCJKjp-Regular-4d" x="33.799988"/>
     <use xlink:href="#NotoSansCJKjp-Regular-2c" x="114.999969"/>
     <use xlink:href="#NotoSansCJKjp-Regular-20" x="142.799957"/>
     <use xlink:href="#NotoSansCJKjp-Regular-53" x="165.199951"/>
     <use xlink:href="#NotoSansCJKjp-Regular-46" x="224.799942"/>
     <use xlink:href="#NotoSansCJKjp-Regular-4b" x="279.999939"/>
     <use xlink:href="#NotoSansCJKjp-Regular-29" x="344.59993"/>
    </g>
    <!-- 行 0-127 -->
    <g style="fill: #ffffff" transform="translate(289.288756 77.116522) scale(0.052 -0.052)">
     <defs>
      <path id="NotoSansCJKjp-Regular-884c" d="M 2784 4992 
L 2784 4531 
L 5933 4531 
L 5933 4992 
L 2784 4992 
z
M 1709 5382 
C 1382 4915 762 4346 224 3981 
C 307 3891 442 3706 506 3597 
C 1082 4006 1741 4634 2170 5190 
L 1709 5382 
z
M 2502 3226 
L 2502 2765 
L 4659 2765 
L 4659 109 
C 4659 6 4614 -26 4493 -32 
C 4378 -38 3942 -38 3488 -19 
C 3558 -160 3629 -358 3648 -493 
C 4275 -493 4640 -493 4858 -422 
C 5069 -339 5146 -192 5146 102 
L 5146 2765 
L 6112 2765 
L 6112 3226 
L 2502 3226 
z
M 1965 4006 
C 1523 3277 819 2534 160 2061 
C 256 1965 429 1754 499 1658 
C 736 1850 986 2080 1229 2330 
L 1229 -531 
L 1702 -531 
L 1702 2854 
C 1971 3174 2214 3507 2419 3840 
L 1965 4006 
z
" transform="scale(0.015625)"/>
      <path id="NotoSansCJKjp-Regular-30" d="M 1779 -83 
C 2669 -83 3238 723 3238 2362 
C 3238 3987 2669 4774 1779 4774 
C 883 4774 320 3987 320 2362 
C 320 723 883 -83 1779 -83 
z
M 1779 390 
C 1248 390 883 986 883 2362 
C 883 3731 1248 4314 1779 4314 
C 2310 4314 2675 3731 2675 2362 
C 2675 986 2310 390 1779 390 
z
" transform="scale(0.015625)"/>
      <path id="NotoSansCJKjp-Regular-2d" d="M 294 1568 
L 1933 1568 
L 1933 2016 
L 294 2016 
L 294 1568 
z
" transform="scale(0.015625)"/>
      <path id="NotoSansCJKjp-Regular-31" d="M 563 0 
L 3136 0 
L 3136 486 
L 2195 486 
L 2195 4691 
L 1747 4691 
C 1491 4544 1190 4435 774 4358 
L 774 3987 
L 1613 3987 
L 1613 486 
L 563 486 
L 563 0 
z
" transform="scale(0.015625)"/>
      <path id="NotoSansCJKjp-Regular-32" d="M 282 0 
L 3232 0 
L 3232 506 
L 1933 506 
C 1696 506 1408 480 1165 461 
C 2266 1504 3008 2458 3008 3398 
C 3008 4230 2477 4774 1638 4774 
C 1043 4774 634 4506 256 4090 
L 595 3757 
C 858 4070 1184 4301 1568 4301 
C 2150 4301 2432 3910 2432 3373 
C 2432 2566 1754 1632 282 346 
L 282 0 
z
" transform="scale(0.015625)"/>
      <path id="NotoSansCJKjp-Regular-37" d="M 1267 0 
L 1875 0 
C 1952 1837 2150 2931 3251 4339 
L 3251 4691 
L 314 4691 
L 314 4192 
L 2592 4192 
C 1670 2912 1350 1779 1267 0 
z
" transform="scale(0.015625)"/>
     </defs>
     <use xlink:href="#NotoSansCJKjp-Regular-884c"/>
     <use xlink:href="#NotoSansCJKjp-Regular-20" x="99.999985"/>
     <use xlink:href="#NotoSansCJKjp-Regular-30" x="122.399979"/>
     <use xlink:href="#NotoSansCJKjp-Regular-2d" x="177.899963"/>
     <use xlink:href="#NotoSansCJKjp-Regular-31" x="212.59996"/>
     <use xlink:href="#NotoSansCJKjp-Regular-32" x="268.099945"/>
     <use xlink:href="#NotoSansCJKjp-Regular-37" x="323.59993"/>
    </g>
   </g>
   <g id="text_11">
    <!-- SFB -->
    <g style="fill: #ffffff" transform="translate(383.5962 63.793351) scale(0.07 -0.07)">
     <use xlink:href="#NotoSansCJKjp-Bold-53"/>
     <use xlink:href="#NotoSansCJKjp-Bold-46" x="62.399994"/>
     <use xlink:href="#NotoSansCJKjp-Bold-42" x="120.899979"/>
    </g>
   </g>
   <g id="text_12">
    <!-- (N, SFK) -->
    <g style="fill: #ffffff" transform="translate(380.604606 70.918285) scale(0.052 -0.052)">
     <defs>
      <path id="NotoSansCJKjp-Regular-4e" d="M 646 0 
L 1203 0 
L 1203 2464 
C 1203 2957 1158 3456 1133 3930 
L 1158 3930 
L 1664 2963 
L 3373 0 
L 3981 0 
L 3981 4691 
L 3418 4691 
L 3418 2253 
C 3418 1766 3462 1235 3501 768 
L 3469 768 
L 2963 1734 
L 1248 4691 
L 646 4691 
L 646 0 
z
" transform="scale(0.015625)"/>
     </defs>
     <use xlink:href="#NotoSansCJKjp-Regular-28"/>
     <use xlink:href="#NotoSansCJKjp-Regular-4e" x="33.799988"/>
     <use xlink:href="#NotoSansCJKjp-Regular-2c" x="106.099976"/>
     <use xlink:href="#NotoSansCJKjp-Regular-20" x="133.899963"/>
     <use xlink:href="#NotoSansCJKjp-Regular-53" x="156.299957"/>
     <use xlink:href="#NotoSansCJKjp-Regular-46" x="215.899948"/>
     <use xlink:href="#NotoSansCJKjp-Regular-4b" x="271.099945"/>
     <use xlink:href="#NotoSansCJKjp-Regular-29" x="335.699936"/>
    </g>
    <!-- 全 N (multicast) -->
    <g style="fill: #ffffff" transform="translate(371.402637 77.156985) scale(0.052 -0.052)">
     <defs>
      <path id="NotoSansCJKjp-Regular-5168" d="M 3174 4909 
C 3750 4102 4877 3155 5862 2579 
C 5952 2720 6067 2880 6182 3002 
C 5184 3501 4064 4442 3392 5389 
L 2906 5389 
C 2413 4550 1344 3533 237 2925 
C 346 2829 480 2656 544 2547 
C 1619 3174 2656 4128 3174 4909 
z
M 486 102 
L 486 -333 
L 5946 -333 
L 5946 102 
L 3430 102 
L 3430 1158 
L 5376 1158 
L 5376 1587 
L 3430 1587 
L 3430 2586 
L 5133 2586 
L 5133 3014 
L 1299 3014 
L 1299 2586 
L 2931 2586 
L 2931 1587 
L 1011 1587 
L 1011 1158 
L 2931 1158 
L 2931 102 
L 486 102 
z
" transform="scale(0.015625)"/>
      <path id="NotoSansCJKjp-Regular-6d" d="M 589 0 
L 1178 0 
L 1178 2522 
C 1491 2880 1786 3053 2048 3053 
C 2490 3053 2694 2778 2694 2125 
L 2694 0 
L 3277 0 
L 3277 2522 
C 3603 2880 3885 3053 4154 3053 
C 4595 3053 4800 2778 4800 2125 
L 4800 0 
L 5382 0 
L 5382 2202 
C 5382 3085 5043 3565 4333 3565 
C 3904 3565 3546 3290 3181 2899 
C 3040 3309 2758 3565 2221 3565 
C 1805 3565 1446 3302 1139 2970 
L 1126 2970 
L 1069 3475 
L 589 3475 
L 589 0 
z
" transform="scale(0.015625)"/>
      <path id="NotoSansCJKjp-Regular-75" d="M 1606 -83 
C 2080 -83 2426 166 2752 544 
L 2771 544 
L 2816 0 
L 3302 0 
L 3302 3475 
L 2720 3475 
L 2720 1011 
C 2387 602 2138 422 1779 422 
C 1318 422 1126 698 1126 1344 
L 1126 3475 
L 538 3475 
L 538 1274 
C 538 384 870 -83 1606 -83 
z
" transform="scale(0.015625)"/>
      <path id="NotoSansCJKjp-Regular-6c" d="M 1203 -83 
C 1363 -83 1459 -58 1542 -32 
L 1459 416 
C 1395 403 1370 403 1338 403 
C 1248 403 1178 474 1178 653 
L 1178 5094 
L 589 5094 
L 589 691 
C 589 198 768 -83 1203 -83 
z
" transform="scale(0.015625)"/>
      <path id="NotoSansCJKjp-Regular-74" d="M 1677 -83 
C 1894 -83 2125 -19 2323 45 
L 2208 486 
C 2093 435 1939 390 1811 390 
C 1408 390 1274 634 1274 1056 
L 1274 3002 
L 2221 3002 
L 2221 3475 
L 1274 3475 
L 1274 4454 
L 787 4454 
L 723 3475 
L 173 3443 
L 173 3002 
L 691 3002 
L 691 1075 
C 691 378 941 -83 1677 -83 
z
" transform="scale(0.015625)"/>
      <path id="NotoSansCJKjp-Regular-69" d="M 589 0 
L 1178 0 
L 1178 3475 
L 589 3475 
L 589 0 
z
M 883 4192 
C 1114 4192 1274 4346 1274 4582 
C 1274 4806 1114 4960 883 4960 
C 653 4960 499 4806 499 4582 
C 499 4346 653 4192 883 4192 
z
" transform="scale(0.015625)"/>
      <path id="NotoSansCJKjp-Regular-63" d="M 1958 -83 
C 2374 -83 2771 83 3085 352 
L 2829 749 
C 2611 557 2330 403 2010 403 
C 1370 403 934 934 934 1734 
C 934 2534 1395 3072 2029 3072 
C 2298 3072 2522 2950 2720 2771 
L 3014 3155 
C 2771 3373 2458 3565 2003 3565 
C 1107 3565 333 2893 333 1734 
C 333 582 1037 -83 1958 -83 
z
" transform="scale(0.015625)"/>
      <path id="NotoSansCJKjp-Regular-61" d="M 1389 -83 
C 1818 -83 2208 141 2541 416 
L 2560 416 
L 2611 0 
L 3091 0 
L 3091 2138 
C 3091 3002 2739 3565 1888 3565 
C 1325 3565 838 3315 525 3110 
L 749 2707 
C 1024 2893 1389 3078 1792 3078 
C 2362 3078 2509 2650 2509 2202 
C 1030 2035 378 1658 378 902 
C 378 275 806 -83 1389 -83 
z
M 1555 390 
C 1210 390 941 544 941 941 
C 941 1389 1338 1677 2509 1811 
L 2509 845 
C 2170 544 1888 390 1555 390 
z
" transform="scale(0.015625)"/>
      <path id="NotoSansCJKjp-Regular-73" d="M 1498 -83 
C 2317 -83 2758 384 2758 947 
C 2758 1606 2208 1811 1702 2003 
C 1312 2150 954 2278 954 2605 
C 954 2880 1158 3110 1600 3110 
C 1907 3110 2150 2976 2387 2803 
L 2669 3168 
C 2406 3386 2022 3565 1594 3565 
C 832 3565 397 3130 397 2579 
C 397 1984 922 1754 1408 1574 
C 1792 1434 2202 1267 2202 915 
C 2202 614 1978 371 1517 371 
C 1101 371 794 538 486 787 
L 205 397 
C 531 122 1005 -83 1498 -83 
z
" transform="scale(0.015625)"/>
     </defs>
     <use xlink:href="#NotoSansCJKjp-Regular-5168"/>
     <use xlink:href="#NotoSansCJKjp-Regular-20" x="99.999985"/>
     <use xlink:href="#NotoSansCJKjp-Regular-4e" x="122.399979"/>
     <use xlink:href="#NotoSansCJKjp-Regular-20" x="194.699966"/>
     <use xlink:href="#NotoSansCJKjp-Regular-28" x="217.09996"/>
     <use xlink:href="#NotoSansCJKjp-Regular-6d" x="250.899948"/>
     <use xlink:href="#NotoSansCJKjp-Regular-75" x="343.499939"/>
     <use xlink:href="#NotoSansCJKjp-Regular-6c" x="404.199936"/>
     <use xlink:href="#NotoSansCJKjp-Regular-74" x="432.59993"/>
     <use xlink:href="#NotoSansCJKjp-Regular-69" x="470.299927"/>
     <use xlink:href="#NotoSansCJKjp-Regular-63" x="497.799911"/>
     <use xlink:href="#NotoSansCJKjp-Regular-61" x="548.799896"/>
     <use xlink:href="#NotoSansCJKjp-Regular-73" x="605.099884"/>
     <use xlink:href="#NotoSansCJKjp-Regular-74" x="651.899872"/>
     <use xlink:href="#NotoSansCJKjp-Regular-29" x="689.599869"/>
    </g>
   </g>
   <g id="text_13">
    <!-- C -->
    <g style="fill: #ffffff" transform="translate(478.817034 77.909973) scale(0.075 -0.075)">
     <use xlink:href="#NotoSansCJKjp-Bold-43"/>
    </g>
   </g>
   <g id="text_14">
    <!-- (M, N) -->
    <g style="fill: #ffffff" transform="translate(473.544839 96.417699) scale(0.057 -0.057)">
     <use xlink:href="#NotoSansCJKjp-Regular-28"/>
     <use xlink:href="#NotoSansCJKjp-Regular-4d" x="33.799988"/>
     <use xlink:href="#NotoSansCJKjp-Regular-2c" x="114.999969"/>
     <use xlink:href="#NotoSansCJKjp-Regular-20" x="142.799957"/>
     <use xlink:href="#NotoSansCJKjp-Regular-4e" x="165.199951"/>
     <use xlink:href="#NotoSansCJKjp-Regular-29" x="237.499939"/>
    </g>
    <!-- 行 0-127 -->
    <g style="fill: #ffffff" transform="translate(470.472183 103.167568) scale(0.057 -0.057)">
     <use xlink:href="#NotoSansCJKjp-Regular-884c"/>
     <use xlink:href="#NotoSansCJKjp-Regular-20" x="99.999985"/>
     <use xlink:href="#NotoSansCJKjp-Regular-30" x="122.399979"/>
     <use xlink:href="#NotoSansCJKjp-Regular-2d" x="177.899963"/>
     <use xlink:href="#NotoSansCJKjp-Regular-31" x="212.59996"/>
     <use xlink:href="#NotoSansCJKjp-Regular-32" x="268.099945"/>
     <use xlink:href="#NotoSansCJKjp-Regular-37" x="323.59993"/>
    </g>
   </g>
   <g id="text_15">
    <!-- SFA 按 M 划分(每个 CTA)· SFB 全 N 发给两者 -->
    <g style="fill: #334155" transform="translate(280.7734 108.86) scale(0.064 -0.064)">
     <defs>
      <path id="NotoSansCJKjp-Regular-6309" d="M 2451 4486 
L 2451 3238 
L 2906 3238 
L 2906 4058 
L 5600 4058 
L 5600 3245 
L 6067 3245 
L 6067 4486 
L 4442 4486 
L 4442 5376 
L 3955 5376 
L 3955 4486 
L 2451 4486 
z
M 2394 2810 
L 2394 2368 
L 3264 2368 
C 3072 1837 2880 1318 2720 941 
L 3162 800 
L 3245 1005 
C 3526 896 3821 774 4102 634 
C 3642 256 3008 32 2170 -109 
C 2259 -211 2381 -410 2419 -518 
C 3334 -326 4032 -51 4538 410 
C 5069 115 5536 -205 5830 -506 
L 6144 -109 
C 5843 179 5382 486 4870 762 
C 5184 1171 5389 1696 5510 2368 
L 6144 2368 
L 6144 2810 
L 3904 2810 
L 4218 3757 
L 3744 3834 
C 3648 3520 3533 3168 3411 2810 
L 2394 2810 
z
M 3750 2368 
L 5005 2368 
C 4909 1786 4730 1331 4442 979 
C 4096 1146 3738 1286 3398 1402 
L 3750 2368 
z
M 1158 5376 
L 1158 4090 
L 269 4090 
L 269 3635 
L 1158 3635 
L 1158 2240 
L 179 1971 
L 314 1504 
L 1158 1766 
L 1158 45 
C 1158 -51 1120 -77 1037 -77 
C 954 -83 691 -83 397 -77 
C 461 -205 525 -397 544 -512 
C 966 -512 1229 -499 1395 -429 
C 1562 -352 1619 -224 1619 45 
L 1619 1907 
L 2406 2157 
L 2342 2586 
L 1619 2374 
L 1619 3635 
L 2336 3635 
L 2336 4090 
L 1619 4090 
L 1619 5376 
L 1158 5376 
z
" transform="scale(0.015625)"/>
      <path id="NotoSansCJKjp-Regular-5212" d="M 4134 4672 
L 4134 1158 
L 4602 1158 
L 4602 4672 
L 4134 4672 
z
M 5376 5312 
L 5376 109 
C 5376 0 5331 -32 5216 -38 
C 5107 -38 4742 -45 4333 -32 
C 4397 -166 4474 -378 4493 -506 
C 5050 -506 5376 -493 5574 -416 
C 5766 -333 5843 -198 5843 115 
L 5843 5312 
L 5376 5312 
z
M 1978 4979 
C 2310 4710 2707 4320 2893 4064 
L 3232 4358 
C 3046 4614 2637 4986 2298 5235 
L 1978 4979 
z
M 2957 3053 
C 2739 2522 2458 2029 2118 1587 
C 1984 2048 1869 2592 1786 3194 
L 3808 3424 
L 3763 3878 
L 1728 3648 
C 1670 4192 1638 4774 1638 5370 
L 1146 5370 
C 1152 4762 1190 4166 1254 3590 
L 230 3475 
L 275 3021 
L 1312 3136 
C 1414 2400 1562 1722 1754 1158 
C 1312 691 800 301 243 6 
C 346 -90 512 -275 582 -378 
C 1069 -90 1523 262 1933 672 
C 2240 -45 2624 -486 3072 -486 
C 3514 -486 3686 -198 3776 774 
C 3648 819 3475 922 3373 1030 
C 3334 282 3258 -13 3098 -13 
C 2829 -13 2541 390 2291 1062 
C 2746 1600 3123 2221 3418 2918 
L 2957 3053 
z
" transform="scale(0.015625)"/>
      <path id="NotoSansCJKjp-Regular-5206" d="M 2074 5248 
C 1677 4256 966 3373 147 2829 
C 262 2739 474 2554 563 2451 
C 1363 3059 2118 4019 2586 5101 
L 2074 5248 
z
M 4307 5261 
L 3846 5075 
C 4326 4122 5139 3085 5850 2509 
C 5939 2643 6118 2829 6253 2931 
C 5549 3424 4723 4397 4307 5261 
z
M 1197 2957 
L 1197 2490 
L 2509 2490 
C 2368 1402 2010 378 486 -122 
C 595 -224 736 -416 800 -544 
C 2445 51 2854 1216 3027 2490 
L 4685 2490 
C 4608 864 4512 224 4346 58 
C 4282 -6 4205 -26 4077 -26 
C 3923 -26 3533 -19 3110 19 
C 3200 -115 3258 -320 3270 -461 
C 3674 -486 4070 -493 4288 -474 
C 4506 -454 4653 -410 4781 -243 
C 5005 0 5094 736 5190 2726 
C 5197 2790 5197 2957 5197 2957 
L 1197 2957 
z
" transform="scale(0.015625)"/>
      <path id="NotoSansCJKjp-Regular-6bcf" d="M 2502 2931 
C 2906 2746 3386 2445 3635 2208 
L 1722 2208 
L 1856 3219 
L 4800 3219 
L 4762 2208 
L 3674 2208 
L 3942 2490 
C 3693 2726 3187 3021 2778 3200 
L 2502 2931 
z
M 275 2221 
L 275 1786 
L 1190 1786 
C 1094 1158 992 550 902 109 
L 1389 77 
L 1434 320 
L 4608 320 
C 4570 128 4525 13 4480 -45 
C 4422 -122 4365 -141 4250 -141 
C 4122 -141 3827 -134 3507 -109 
C 3571 -218 3616 -384 3622 -493 
C 3936 -512 4262 -518 4448 -506 
C 4646 -486 4781 -435 4902 -269 
C 4979 -173 5037 6 5088 320 
L 5914 320 
L 5914 749 
L 5139 749 
C 5171 1024 5190 1363 5216 1786 
L 6138 1786 
L 6138 2221 
L 5235 2221 
L 5280 3411 
C 5280 3475 5286 3648 5286 3648 
L 1427 3648 
C 1382 3219 1318 2720 1254 2221 
L 275 2221 
z
M 4666 749 
L 3603 749 
L 3834 998 
C 3571 1254 3059 1581 2618 1792 
L 4742 1792 
C 4717 1357 4698 1018 4666 749 
z
M 2336 1523 
C 2746 1318 3226 1005 3494 749 
L 1504 749 
L 1664 1792 
L 2598 1792 
L 2336 1523 
z
M 1734 5414 
C 1402 4602 845 3776 262 3264 
C 384 3194 608 3046 710 2963 
C 1030 3290 1363 3718 1658 4192 
L 5901 4192 
L 5901 4634 
L 1920 4634 
C 2029 4845 2138 5056 2234 5274 
L 1734 5414 
z
" transform="scale(0.015625)"/>
      <path id="NotoSansCJKjp-Regular-4e2a" d="M 3174 4858 
C 3770 4026 4941 3014 5990 2406 
C 6080 2554 6189 2720 6317 2842 
C 5261 3373 4090 4365 3398 5357 
L 2893 5357 
C 2387 4493 1274 3411 115 2758 
C 224 2656 358 2483 422 2368 
C 1562 3040 2650 4051 3174 4858 
z
M 2925 3264 
L 2925 -512 
L 3430 -512 
L 3430 3264 
L 2925 3264 
z
" transform="scale(0.015625)"/>
      <path id="NotoSansCJKjp-Regular-43" d="M 2413 -83 
C 3021 -83 3482 160 3853 589 
L 3526 966 
C 3226 634 2886 435 2438 435 
C 1542 435 979 1178 979 2362 
C 979 3533 1574 4256 2458 4256 
C 2861 4256 3168 4077 3418 3814 
L 3738 4198 
C 3469 4499 3021 4774 2451 4774 
C 1261 4774 371 3859 371 2342 
C 371 819 1242 -83 2413 -83 
z
" transform="scale(0.015625)"/>
      <path id="NotoSansCJKjp-Regular-54" d="M 1619 0 
L 2214 0 
L 2214 4192 
L 3635 4192 
L 3635 4691 
L 198 4691 
L 198 4192 
L 1619 4192 
L 1619 0 
z
" transform="scale(0.015625)"/>
      <path id="NotoSansCJKjp-Regular-b7" d="M 1766 1875 
C 1997 1875 2195 2067 2195 2323 
C 2195 2592 1997 2778 1766 2778 
C 1536 2778 1350 2592 1350 2323 
C 1350 2067 1536 1875 1766 1875 
z
" transform="scale(0.015625)"/>
      <path id="NotoSansCJKjp-Regular-42" d="M 646 0 
L 2138 0 
C 3187 0 3917 454 3917 1376 
C 3917 2016 3520 2387 2963 2496 
L 2963 2528 
C 3405 2669 3648 3078 3648 3546 
C 3648 4371 2982 4691 2035 4691 
L 646 4691 
L 646 0 
z
M 1235 2701 
L 1235 4224 
L 1958 4224 
C 2694 4224 3066 4019 3066 3469 
C 3066 2989 2739 2701 1933 2701 
L 1235 2701 
z
M 1235 474 
L 1235 2240 
L 2054 2240 
C 2880 2240 3334 1978 3334 1395 
C 3334 762 2861 474 2054 474 
L 1235 474 
z
" transform="scale(0.015625)"/>
      <path id="NotoSansCJKjp-Regular-53d1" d="M 4307 5056 
C 4582 4762 4947 4352 5126 4109 
L 5504 4371 
C 5325 4602 4954 4998 4678 5286 
L 4307 5056 
z
M 922 3347 
C 986 3418 1203 3456 1606 3456 
L 2502 3456 
C 2080 2125 1370 1075 192 365 
C 314 282 486 96 550 -6 
C 1382 506 1990 1158 2438 1952 
C 2694 1472 3014 1056 3398 704 
C 2848 314 2202 45 1536 -115 
C 1626 -218 1741 -397 1792 -525 
C 2509 -326 3187 -32 3770 390 
C 4352 -38 5050 -346 5869 -531 
C 5939 -397 6067 -205 6170 -102 
C 5389 45 4710 320 4147 691 
C 4704 1184 5139 1824 5402 2643 
L 5075 2797 
L 4986 2771 
L 2822 2771 
C 2906 2989 2989 3219 3053 3456 
L 5952 3456 
L 5958 3917 
L 3181 3917 
C 3283 4358 3366 4819 3437 5312 
L 2899 5402 
C 2835 4877 2746 4384 2630 3917 
L 1466 3917 
C 1645 4256 1824 4685 1939 5101 
L 1427 5197 
C 1318 4704 1069 4186 998 4058 
C 922 3917 851 3821 762 3802 
C 819 3686 896 3450 922 3347 
z
M 3763 986 
C 3328 1357 2982 1798 2733 2310 
L 4749 2310 
C 4518 1786 4173 1350 3763 986 
z
" transform="scale(0.015625)"/>
      <path id="NotoSansCJKjp-Regular-7ed9" d="M 269 339 
L 365 -134 
C 954 19 1741 211 2490 397 
L 2451 826 
C 1638 640 819 448 269 339 
z
M 390 2707 
C 480 2752 634 2790 1408 2899 
C 1133 2490 877 2170 762 2048 
C 563 1805 410 1645 275 1619 
C 333 1498 403 1267 429 1165 
C 563 1248 787 1306 2413 1632 
C 2400 1734 2400 1920 2413 2042 
L 1114 1805 
C 1613 2381 2106 3091 2522 3802 
L 2099 4051 
C 1978 3808 1837 3565 1690 3334 
L 883 3251 
C 1261 3802 1626 4493 1894 5158 
L 1427 5370 
C 1178 4608 730 3782 589 3571 
C 454 3354 339 3206 224 3174 
C 282 3046 365 2803 390 2707 
z
M 4032 5363 
C 3744 4448 3123 3571 2310 3021 
C 2413 2938 2579 2771 2656 2675 
C 2842 2810 3021 2957 3187 3123 
L 3187 2835 
L 5216 2835 
L 5216 3213 
C 5395 3034 5587 2874 5773 2752 
C 5856 2874 6010 3053 6118 3149 
C 5459 3514 4806 4282 4429 5050 
L 4499 5242 
L 4032 5363 
z
M 5152 3277 
L 3341 3277 
C 3693 3654 3987 4090 4218 4563 
C 4474 4090 4800 3642 5152 3277 
z
M 2874 2112 
L 2874 -531 
L 3341 -531 
L 3341 -186 
L 5005 -186 
L 5005 -512 
L 5491 -512 
L 5491 2112 
L 2874 2112 
z
M 3341 250 
L 3341 1677 
L 5005 1677 
L 5005 250 
L 3341 250 
z
" transform="scale(0.015625)"/>
      <path id="NotoSansCJKjp-Regular-4e24" d="M 646 3578 
L 646 -518 
L 1126 -518 
L 1126 3130 
L 2125 3130 
C 2093 2374 1933 1427 1203 730 
C 1312 653 1466 499 1542 397 
C 2003 858 2266 1395 2413 1933 
C 2611 1664 2810 1376 2912 1171 
L 3200 1555 
C 3072 1798 2790 2163 2528 2477 
C 2560 2701 2579 2925 2592 3130 
L 3763 3130 
C 3731 2374 3571 1427 2835 730 
C 2950 653 3104 499 3181 397 
C 3648 864 3910 1414 4058 1958 
C 4397 1536 4742 1056 4922 736 
L 5210 1107 
C 5005 1472 4570 2035 4166 2490 
C 4198 2707 4218 2925 4230 3130 
L 5286 3130 
L 5286 102 
C 5286 0 5248 -38 5126 -38 
C 5005 -45 4570 -51 4115 -32 
C 4186 -166 4256 -378 4282 -518 
C 4858 -518 5242 -512 5472 -435 
C 5696 -352 5766 -205 5766 96 
L 5766 3578 
L 4237 3578 
L 4237 4467 
L 6029 4467 
L 6029 4928 
L 384 4928 
L 384 4467 
L 2131 4467 
L 2131 3578 
L 646 3578 
z
M 2598 4467 
L 3770 4467 
L 3770 3578 
L 2598 3578 
L 2598 4467 
z
" transform="scale(0.015625)"/>
      <path id="NotoSansCJKjp-Regular-8005" d="M 5357 5158 
C 5133 4864 4890 4576 4621 4307 
L 4621 4570 
L 3027 4570 
L 3027 5376 
L 2554 5376 
L 2554 4570 
L 909 4570 
L 909 4147 
L 2554 4147 
L 2554 3322 
L 346 3322 
L 346 2886 
L 2854 2886 
C 2042 2362 1139 1933 205 1613 
C 301 1510 448 1312 512 1210 
C 909 1363 1306 1530 1690 1722 
L 1690 -512 
L 2170 -512 
L 2170 -301 
L 4774 -301 
L 4774 -486 
L 5267 -486 
L 5267 2214 
L 2611 2214 
C 2963 2426 3309 2650 3642 2886 
L 6054 2886 
L 6054 3322 
L 4205 3322 
C 4787 3808 5318 4346 5766 4934 
L 5357 5158 
z
M 3027 3322 
L 3027 4147 
L 4461 4147 
C 4160 3853 3834 3578 3482 3322 
L 3027 3322 
z
M 2170 787 
L 4774 787 
L 4774 115 
L 2170 115 
L 2170 787 
z
M 2170 1171 
L 2170 1805 
L 4774 1805 
L 4774 1171 
L 2170 1171 
z
" transform="scale(0.015625)"/>
     </defs>
     <use xlink:href="#NotoSansCJKjp-Regular-53"/>
     <use xlink:href="#NotoSansCJKjp-Regular-46" x="59.599991"/>
     <use xlink:href="#NotoSansCJKjp-Regular-41" x="114.799988"/>
     <use xlink:href="#NotoSansCJKjp-Regular-20" x="175.599976"/>
     <use xlink:href="#NotoSansCJKjp-Regular-6309" x="197.999969"/>
     <use xlink:href="#NotoSansCJKjp-Regular-20" x="297.999954"/>
     <use xlink:href="#NotoSansCJKjp-Regular-4d" x="320.399948"/>
     <use xlink:href="#NotoSansCJKjp-Regular-20" x="401.59993"/>
     <use xlink:href="#NotoSansCJKjp-Regular-5212" x="423.999924"/>
     <use xlink:href="#NotoSansCJKjp-Regular-5206" x="523.999908"/>
     <use xlink:href="#NotoSansCJKjp-Regular-28" x="623.999893"/>
     <use xlink:href="#NotoSansCJKjp-Regular-6bcf" x="657.799881"/>
     <use xlink:href="#NotoSansCJKjp-Regular-4e2a" x="757.799866"/>
     <use xlink:href="#NotoSansCJKjp-Regular-20" x="857.79985"/>
     <use xlink:href="#NotoSansCJKjp-Regular-43" x="880.199844"/>
     <use xlink:href="#NotoSansCJKjp-Regular-54" x="943.999832"/>
     <use xlink:href="#NotoSansCJKjp-Regular-41" x="1003.899826"/>
     <use xlink:href="#NotoSansCJKjp-Regular-29" x="1064.699814"/>
     <use xlink:href="#NotoSansCJKjp-Regular-b7" x="1098.499802"/>
     <use xlink:href="#NotoSansCJKjp-Regular-20" x="1154.599792"/>
     <use xlink:href="#NotoSansCJKjp-Regular-53" x="1176.999786"/>
     <use xlink:href="#NotoSansCJKjp-Regular-46" x="1236.599777"/>
     <use xlink:href="#NotoSansCJKjp-Regular-42" x="1291.799774"/>
     <use xlink:href="#NotoSansCJKjp-Regular-20" x="1357.499771"/>
     <use xlink:href="#NotoSansCJKjp-Regular-5168" x="1379.899765"/>
     <use xlink:href="#NotoSansCJKjp-Regular-20" x="1479.89975"/>
     <use xlink:href="#NotoSansCJKjp-Regular-4e" x="1502.299744"/>
     <use xlink:href="#NotoSansCJKjp-Regular-20" x="1574.599731"/>
     <use xlink:href="#NotoSansCJKjp-Regular-53d1" x="1596.999725"/>
     <use xlink:href="#NotoSansCJKjp-Regular-7ed9" x="1696.99971"/>
     <use xlink:href="#NotoSansCJKjp-Regular-4e24" x="1796.999695"/>
     <use xlink:href="#NotoSansCJKjp-Regular-8005" x="1896.99968"/>
    </g>
   </g>
   <g id="text_16">
    <!-- CTA 1 — SMEM -->
    <g style="fill: #334155" transform="translate(25.9488 177.68615) scale(0.08 -0.08)">
     <use xlink:href="#NotoSansCJKjp-Bold-43"/>
     <use xlink:href="#NotoSansCJKjp-Bold-54" x="65.599991"/>
     <use xlink:href="#NotoSansCJKjp-Bold-41" x="128.099976"/>
     <use xlink:href="#NotoSansCJKjp-Bold-20" x="192.199966"/>
     <use xlink:href="#NotoSansCJKjp-Bold-31" x="214.899963"/>
     <use xlink:href="#NotoSansCJKjp-Bold-20" x="273.899948"/>
     <use xlink:href="#NotoSansCJKjp-Bold-2014" x="296.599945"/>
     <use xlink:href="#NotoSansCJKjp-Bold-20" x="387.399933"/>
     <use xlink:href="#NotoSansCJKjp-Bold-53" x="410.09993"/>
     <use xlink:href="#NotoSansCJKjp-Bold-4d" x="472.499924"/>
     <use xlink:href="#NotoSansCJKjp-Bold-45" x="557.799911"/>
     <use xlink:href="#NotoSansCJKjp-Bold-4d" x="619.299896"/>
    </g>
   </g>
   <g id="text_17">
    <!-- A  行 128-255 -->
    <g style="fill: #ffffff" transform="translate(74.895483 191.451093) scale(0.075 -0.075)">
     <defs>
      <path id="NotoSansCJKjp-Bold-38" d="M 1888 -90 
C 2842 -90 3482 461 3482 1178 
C 3482 1824 3123 2208 2682 2445 
L 2682 2477 
C 2989 2701 3290 3091 3290 3558 
C 3290 4314 2752 4819 1914 4819 
C 1088 4819 486 4333 486 3565 
C 486 3066 749 2707 1114 2445 
L 1114 2413 
C 672 2182 301 1786 301 1178 
C 301 435 973 -90 1888 -90 
z
M 2182 2707 
C 1690 2906 1318 3123 1318 3565 
C 1318 3949 1574 4160 1894 4160 
C 2291 4160 2522 3885 2522 3501 
C 2522 3219 2413 2944 2182 2707 
z
M 1907 576 
C 1466 576 1114 851 1114 1280 
C 1114 1638 1293 1952 1549 2163 
C 2163 1901 2605 1702 2605 1210 
C 2605 800 2310 576 1907 576 
z
" transform="scale(0.015625)"/>
      <path id="NotoSansCJKjp-Bold-35" d="M 1773 -90 
C 2637 -90 3424 518 3424 1574 
C 3424 2605 2765 3072 1965 3072 
C 1747 3072 1581 3034 1395 2944 
L 1485 3949 
L 3206 3949 
L 3206 4742 
L 672 4742 
L 544 2438 
L 973 2163 
C 1254 2342 1408 2406 1683 2406 
C 2157 2406 2483 2099 2483 1549 
C 2483 992 2138 678 1645 678 
C 1210 678 870 896 602 1158 
L 166 557 
C 525 205 1018 -90 1773 -90 
z
" transform="scale(0.015625)"/>
     </defs>
     <use xlink:href="#NotoSansCJKjp-Bold-41"/>
     <use xlink:href="#NotoSansCJKjp-Bold-20" x="64.099991"/>
     <use xlink:href="#NotoSansCJKjp-Bold-20" x="86.799988"/>
     <use xlink:href="#NotoSansCJKjp-Bold-884c" x="109.499985"/>
     <use xlink:href="#NotoSansCJKjp-Bold-20" x="209.499969"/>
     <use xlink:href="#NotoSansCJKjp-Bold-31" x="232.199966"/>
     <use xlink:href="#NotoSansCJKjp-Bold-32" x="291.199951"/>
     <use xlink:href="#NotoSansCJKjp-Bold-38" x="350.199936"/>
     <use xlink:href="#NotoSansCJKjp-Bold-2d" x="409.199921"/>
     <use xlink:href="#NotoSansCJKjp-Bold-32" x="446.199905"/>
     <use xlink:href="#NotoSansCJKjp-Bold-35" x="505.19989"/>
     <use xlink:href="#NotoSansCJKjp-Bold-35" x="564.199875"/>
    </g>
   </g>
   <g id="text_18">
    <!-- fp8/fp4 打包 -->
    <g style="fill: #ffffff" transform="translate(82.259733 201.831182) scale(0.057 -0.057)">
     <use xlink:href="#NotoSansCJKjp-Regular-66"/>
     <use xlink:href="#NotoSansCJKjp-Regular-70" x="32.499985"/>
     <use xlink:href="#NotoSansCJKjp-Regular-38" x="94.499969"/>
     <use xlink:href="#NotoSansCJKjp-Regular-2f" x="149.999954"/>
     <use xlink:href="#NotoSansCJKjp-Regular-66" x="189.199951"/>
     <use xlink:href="#NotoSansCJKjp-Regular-70" x="221.699936"/>
     <use xlink:href="#NotoSansCJKjp-Regular-34" x="283.699921"/>
     <use xlink:href="#NotoSansCJKjp-Regular-20" x="339.199905"/>
     <use xlink:href="#NotoSansCJKjp-Regular-6253" x="361.599899"/>
     <use xlink:href="#NotoSansCJKjp-Regular-5305" x="461.599884"/>
    </g>
   </g>
   <g id="text_19">
    <!-- B  列一半 -->
    <g style="fill: #ffffff" transform="translate(82.75935 232.033173) scale(0.075 -0.075)">
     <use xlink:href="#NotoSansCJKjp-Bold-42"/>
     <use xlink:href="#NotoSansCJKjp-Bold-20" x="68.099991"/>
     <use xlink:href="#NotoSansCJKjp-Bold-20" x="90.799988"/>
     <use xlink:href="#NotoSansCJKjp-Bold-5217" x="113.499985"/>
     <use xlink:href="#NotoSansCJKjp-Bold-4e00" x="213.499969"/>
     <use xlink:href="#NotoSansCJKjp-Bold-534a" x="313.499954"/>
    </g>
   </g>
   <g id="text_20">
    <!-- fp8/fp4 打包 -->
    <g style="fill: #ffffff" transform="translate(82.259733 241.581662) scale(0.057 -0.057)">
     <use xlink:href="#NotoSansCJKjp-Regular-66"/>
     <use xlink:href="#NotoSansCJKjp-Regular-70" x="32.499985"/>
     <use xlink:href="#NotoSansCJKjp-Regular-38" x="94.499969"/>
     <use xlink:href="#NotoSansCJKjp-Regular-2f" x="149.999954"/>
     <use xlink:href="#NotoSansCJKjp-Regular-66" x="189.199951"/>
     <use xlink:href="#NotoSansCJKjp-Regular-70" x="221.699936"/>
     <use xlink:href="#NotoSansCJKjp-Regular-34" x="283.699921"/>
     <use xlink:href="#NotoSansCJKjp-Regular-20" x="339.199905"/>
     <use xlink:href="#NotoSansCJKjp-Regular-6253" x="361.599899"/>
     <use xlink:href="#NotoSansCJKjp-Regular-5305" x="461.599884"/>
    </g>
   </g>
   <g id="patch_19">
    <path d="M 185.972084 212.328 
Q 210.757878 212.328 233.531211 212.328 
" style="fill: none; stroke: #059669; stroke-width: 1.8; stroke-linecap: round"/>
    <path d="M 229.531211 210.328 
L 233.531211 212.328 
L 229.531211 214.328 
L 229.531211 210.328 
z
" style="fill: #059669; stroke: #059669; stroke-width: 1.8; stroke-linecap: round"/>
   </g>
   <g id="text_21">
    <!-- MMA -->
    <g style="fill: #059669" transform="translate(202.946291 197.680062) scale(0.07 -0.07)">
     <use xlink:href="#NotoSansCJKjp-Regular-4d"/>
     <use xlink:href="#NotoSansCJKjp-Regular-4d" x="81.199982"/>
     <use xlink:href="#NotoSansCJKjp-Regular-41" x="162.399963"/>
    </g>
   </g>
   <g id="text_22">
    <!-- CTA 1 — TMEM -->
    <g style="fill: #334155" transform="translate(256.2912 177.68615) scale(0.08 -0.08)">
     <use xlink:href="#NotoSansCJKjp-Bold-43"/>
     <use xlink:href="#NotoSansCJKjp-Bold-54" x="65.599991"/>
     <use xlink:href="#NotoSansCJKjp-Bold-41" x="128.099976"/>
     <use xlink:href="#NotoSansCJKjp-Bold-20" x="192.199966"/>
     <use xlink:href="#NotoSansCJKjp-Bold-31" x="214.899963"/>
     <use xlink:href="#NotoSansCJKjp-Bold-20" x="273.899948"/>
     <use xlink:href="#NotoSansCJKjp-Bold-2014" x="296.599945"/>
     <use xlink:href="#NotoSansCJKjp-Bold-20" x="387.399933"/>
     <use xlink:href="#NotoSansCJKjp-Bold-54" x="410.09993"/>
     <use xlink:href="#NotoSansCJKjp-Bold-4d" x="472.599915"/>
     <use xlink:href="#NotoSansCJKjp-Bold-45" x="557.899902"/>
     <use xlink:href="#NotoSansCJKjp-Bold-4d" x="619.399887"/>
    </g>
   </g>
   <g id="text_23">
    <!-- SFA -->
    <g style="fill: #ffffff" transform="translate(292.6706 191.305351) scale(0.07 -0.07)">
     <use xlink:href="#NotoSansCJKjp-Bold-53"/>
     <use xlink:href="#NotoSansCJKjp-Bold-46" x="62.399994"/>
     <use xlink:href="#NotoSansCJKjp-Bold-41" x="120.899979"/>
    </g>
   </g>
   <g id="text_24">
    <!-- (M, SFK) -->
    <g style="fill: #ffffff" transform="translate(289.307444 198.470747) scale(0.052 -0.052)">
     <use xlink:href="#NotoSansCJKjp-Regular-28"/>
     <use xlink:href="#NotoSansCJKjp-Regular-4d" x="33.799988"/>
     <use xlink:href="#NotoSansCJKjp-Regular-2c" x="114.999969"/>
     <use xlink:href="#NotoSansCJKjp-Regular-20" x="142.799957"/>
     <use xlink:href="#NotoSansCJKjp-Regular-53" x="165.199951"/>
     <use xlink:href="#NotoSansCJKjp-Regular-46" x="224.799942"/>
     <use xlink:href="#NotoSansCJKjp-Regular-4b" x="279.999939"/>
     <use xlink:href="#NotoSansCJKjp-Regular-29" x="344.59993"/>
    </g>
    <!-- 行 128-255 -->
    <g style="fill: #ffffff" transform="translate(286.402756 204.628522) scale(0.052 -0.052)">
     <defs>
      <path id="NotoSansCJKjp-Regular-35" d="M 1677 -83 
C 2464 -83 3213 499 3213 1523 
C 3213 2560 2573 3021 1798 3021 
C 1517 3021 1306 2950 1094 2835 
L 1216 4192 
L 2982 4192 
L 2982 4691 
L 704 4691 
L 550 2502 
L 864 2304 
C 1133 2483 1331 2579 1645 2579 
C 2234 2579 2618 2182 2618 1510 
C 2618 826 2176 403 1619 403 
C 1075 403 730 653 467 922 
L 173 538 
C 493 224 941 -83 1677 -83 
z
" transform="scale(0.015625)"/>
     </defs>
     <use xlink:href="#NotoSansCJKjp-Regular-884c"/>
     <use xlink:href="#NotoSansCJKjp-Regular-20" x="99.999985"/>
     <use xlink:href="#NotoSansCJKjp-Regular-31" x="122.399979"/>
     <use xlink:href="#NotoSansCJKjp-Regular-32" x="177.899963"/>
     <use xlink:href="#NotoSansCJKjp-Regular-38" x="233.399948"/>
     <use xlink:href="#NotoSansCJKjp-Regular-2d" x="288.899933"/>
     <use xlink:href="#NotoSansCJKjp-Regular-32" x="323.59993"/>
     <use xlink:href="#NotoSansCJKjp-Regular-35" x="379.099915"/>
     <use xlink:href="#NotoSansCJKjp-Regular-35" x="434.599899"/>
    </g>
   </g>
   <g id="text_25">
    <!-- SFB -->
    <g style="fill: #ffffff" transform="translate(383.5962 191.305351) scale(0.07 -0.07)">
     <use xlink:href="#NotoSansCJKjp-Bold-53"/>
     <use xlink:href="#NotoSansCJKjp-Bold-46" x="62.399994"/>
     <use xlink:href="#NotoSansCJKjp-Bold-42" x="120.899979"/>
    </g>
   </g>
   <g id="text_26">
    <!-- (N, SFK) -->
    <g style="fill: #ffffff" transform="translate(380.604606 198.430285) scale(0.052 -0.052)">
     <use xlink:href="#NotoSansCJKjp-Regular-28"/>
     <use xlink:href="#NotoSansCJKjp-Regular-4e" x="33.799988"/>
     <use xlink:href="#NotoSansCJKjp-Regular-2c" x="106.099976"/>
     <use xlink:href="#NotoSansCJKjp-Regular-20" x="133.899963"/>
     <use xlink:href="#NotoSansCJKjp-Regular-53" x="156.299957"/>
     <use xlink:href="#NotoSansCJKjp-Regular-46" x="215.899948"/>
     <use xlink:href="#NotoSansCJKjp-Regular-4b" x="271.099945"/>
     <use xlink:href="#NotoSansCJKjp-Regular-29" x="335.699936"/>
    </g>
    <!-- 全 N (multicast) -->
    <g style="fill: #ffffff" transform="translate(371.402637 204.668985) scale(0.052 -0.052)">
     <use xlink:href="#NotoSansCJKjp-Regular-5168"/>
     <use xlink:href="#NotoSansCJKjp-Regular-20" x="99.999985"/>
     <use xlink:href="#NotoSansCJKjp-Regular-4e" x="122.399979"/>
     <use xlink:href="#NotoSansCJKjp-Regular-20" x="194.699966"/>
     <use xlink:href="#NotoSansCJKjp-Regular-28" x="217.09996"/>
     <use xlink:href="#NotoSansCJKjp-Regular-6d" x="250.899948"/>
     <use xlink:href="#NotoSansCJKjp-Regular-75" x="343.499939"/>
     <use xlink:href="#NotoSansCJKjp-Regular-6c" x="404.199936"/>
     <use xlink:href="#NotoSansCJKjp-Regular-74" x="432.59993"/>
     <use xlink:href="#NotoSansCJKjp-Regular-69" x="470.299927"/>
     <use xlink:href="#NotoSansCJKjp-Regular-63" x="497.799911"/>
     <use xlink:href="#NotoSansCJKjp-Regular-61" x="548.799896"/>
     <use xlink:href="#NotoSansCJKjp-Regular-73" x="605.099884"/>
     <use xlink:href="#NotoSansCJKjp-Regular-74" x="651.899872"/>
     <use xlink:href="#NotoSansCJKjp-Regular-29" x="689.599869"/>
    </g>
   </g>
   <g id="text_27">
    <!-- C -->
    <g style="fill: #ffffff" transform="translate(478.817034 205.421973) scale(0.075 -0.075)">
     <use xlink:href="#NotoSansCJKjp-Bold-43"/>
    </g>
   </g>
   <g id="text_28">
    <!-- (M, N) -->
    <g style="fill: #ffffff" transform="translate(473.544839 223.929699) scale(0.057 -0.057)">
     <use xlink:href="#NotoSansCJKjp-Regular-28"/>
     <use xlink:href="#NotoSansCJKjp-Regular-4d" x="33.799988"/>
     <use xlink:href="#NotoSansCJKjp-Regular-2c" x="114.999969"/>
     <use xlink:href="#NotoSansCJKjp-Regular-20" x="142.799957"/>
     <use xlink:href="#NotoSansCJKjp-Regular-4e" x="165.199951"/>
     <use xlink:href="#NotoSansCJKjp-Regular-29" x="237.499939"/>
    </g>
    <!-- 行 128-255 -->
    <g style="fill: #ffffff" transform="translate(467.308683 230.679568) scale(0.057 -0.057)">
     <use xlink:href="#NotoSansCJKjp-Regular-884c"/>
     <use xlink:href="#NotoSansCJKjp-Regular-20" x="99.999985"/>
     <use xlink:href="#NotoSansCJKjp-Regular-31" x="122.399979"/>
     <use xlink:href="#NotoSansCJKjp-Regular-32" x="177.899963"/>
     <use xlink:href="#NotoSansCJKjp-Regular-38" x="233.399948"/>
     <use xlink:href="#NotoSansCJKjp-Regular-2d" x="288.899933"/>
     <use xlink:href="#NotoSansCJKjp-Regular-32" x="323.59993"/>
     <use xlink:href="#NotoSansCJKjp-Regular-35" x="379.099915"/>
     <use xlink:href="#NotoSansCJKjp-Regular-35" x="434.599899"/>
    </g>
   </g>
   <g id="text_29">
    <!-- SFA 按 M 划分(每个 CTA)· SFB 全 N 发给两者 -->
    <g style="fill: #334155" transform="translate(280.7734 236.372) scale(0.064 -0.064)">
     <use xlink:href="#NotoSansCJKjp-Regular-53"/>
     <use xlink:href="#NotoSansCJKjp-Regular-46" x="59.599991"/>
     <use xlink:href="#NotoSansCJKjp-Regular-41" x="114.799988"/>
     <use xlink:href="#NotoSansCJKjp-Regular-20" x="175.599976"/>
     <use xlink:href="#NotoSansCJKjp-Regular-6309" x="197.999969"/>
     <use xlink:href="#NotoSansCJKjp-Regular-20" x="297.999954"/>
     <use xlink:href="#NotoSansCJKjp-Regular-4d" x="320.399948"/>
     <use xlink:href="#NotoSansCJKjp-Regular-20" x="401.59993"/>
     <use xlink:href="#NotoSansCJKjp-Regular-5212" x="423.999924"/>
     <use xlink:href="#NotoSansCJKjp-Regular-5206" x="523.999908"/>
     <use xlink:href="#NotoSansCJKjp-Regular-28" x="623.999893"/>
     <use xlink:href="#NotoSansCJKjp-Regular-6bcf" x="657.799881"/>
     <use xlink:href="#NotoSansCJKjp-Regular-4e2a" x="757.799866"/>
     <use xlink:href="#NotoSansCJKjp-Regular-20" x="857.79985"/>
     <use xlink:href="#NotoSansCJKjp-Regular-43" x="880.199844"/>
     <use xlink:href="#NotoSansCJKjp-Regular-54" x="943.999832"/>
     <use xlink:href="#NotoSansCJKjp-Regular-41" x="1003.899826"/>
     <use xlink:href="#NotoSansCJKjp-Regular-29" x="1064.699814"/>
     <use xlink:href="#NotoSansCJKjp-Regular-b7" x="1098.499802"/>
     <use xlink:href="#NotoSansCJKjp-Regular-20" x="1154.599792"/>
     <use xlink:href="#NotoSansCJKjp-Regular-53" x="1176.999786"/>
     <use xlink:href="#NotoSansCJKjp-Regular-46" x="1236.599777"/>
     <use xlink:href="#NotoSansCJKjp-Regular-42" x="1291.799774"/>
     <use xlink:href="#NotoSansCJKjp-Regular-20" x="1357.499771"/>
     <use xlink:href="#NotoSansCJKjp-Regular-5168" x="1379.899765"/>
     <use xlink:href="#NotoSansCJKjp-Regular-20" x="1479.89975"/>
     <use xlink:href="#NotoSansCJKjp-Regular-4e" x="1502.299744"/>
     <use xlink:href="#NotoSansCJKjp-Regular-20" x="1574.599731"/>
     <use xlink:href="#NotoSansCJKjp-Regular-53d1" x="1596.999725"/>
     <use xlink:href="#NotoSansCJKjp-Regular-7ed9" x="1696.99971"/>
     <use xlink:href="#NotoSansCJKjp-Regular-4e24" x="1796.999695"/>
     <use xlink:href="#NotoSansCJKjp-Regular-8005" x="1896.99968"/>
    </g>
   </g>
   <g id="text_30">
    <!-- A、B 在 SMEM 中打包 · SFA/SFB 经 tcgen05.cp 从 SMEM 加载到 TMEM · SFK = K / block(nvfp4 为 16,mxfp8 为 32) -->
    <g style="fill: #334155" transform="translate(100.639656 156.139) scale(0.068 -0.068)">
     <defs>
      <path id="NotoSansCJKjp-Regular-3001" d="M 1747 -358 
L 2182 13 
C 1786 480 1210 1062 749 1434 
L 333 1069 
C 787 698 1338 147 1747 -358 
z
" transform="scale(0.015625)"/>
      <path id="NotoSansCJKjp-Regular-5728" d="M 2502 5376 
C 2413 5050 2298 4710 2163 4384 
L 403 4384 
L 403 3923 
L 1952 3923 
C 1542 3104 979 2342 243 1830 
C 320 1722 442 1517 493 1389 
C 762 1581 1011 1798 1235 2035 
L 1235 -486 
L 1715 -486 
L 1715 2605 
C 2016 3014 2278 3462 2496 3923 
L 6010 3923 
L 6010 4384 
L 2694 4384 
C 2810 4672 2912 4966 3002 5254 
L 2502 5376 
z
M 3827 3590 
L 3827 2355 
L 2387 2355 
L 2387 1907 
L 3827 1907 
L 3827 90 
L 2131 90 
L 2131 -358 
L 6003 -358 
L 6003 90 
L 4307 90 
L 4307 1907 
L 5760 1907 
L 5760 2355 
L 4307 2355 
L 4307 3590 
L 3827 3590 
z
" transform="scale(0.015625)"/>
      <path id="NotoSansCJKjp-Regular-45" d="M 646 0 
L 3418 0 
L 3418 506 
L 1235 506 
L 1235 2214 
L 3014 2214 
L 3014 2720 
L 1235 2720 
L 1235 4192 
L 3347 4192 
L 3347 4691 
L 646 4691 
L 646 0 
z
" transform="scale(0.015625)"/>
      <path id="NotoSansCJKjp-Regular-4e2d" d="M 2931 5376 
L 2931 4230 
L 614 4230 
L 614 1190 
L 1094 1190 
L 1094 1587 
L 2931 1587 
L 2931 -506 
L 3437 -506 
L 3437 1587 
L 5280 1587 
L 5280 1222 
L 5773 1222 
L 5773 4230 
L 3437 4230 
L 3437 5376 
L 2931 5376 
z
M 1094 2061 
L 1094 3763 
L 2931 3763 
L 2931 2061 
L 1094 2061 
z
M 5280 2061 
L 3437 2061 
L 3437 3763 
L 5280 3763 
L 5280 2061 
z
" transform="scale(0.015625)"/>
      <path id="NotoSansCJKjp-Regular-7ecf" d="M 256 365 
L 346 -115 
C 934 45 1715 243 2451 442 
L 2400 864 
C 1606 672 794 474 256 365 
z
M 371 2707 
C 467 2752 627 2790 1453 2906 
C 1158 2496 890 2176 762 2048 
C 550 1811 403 1658 256 1632 
C 314 1498 390 1267 416 1165 
C 557 1248 774 1312 2419 1638 
C 2413 1741 2413 1933 2426 2061 
L 1152 1830 
C 1658 2394 2163 3078 2592 3770 
L 2176 4038 
C 2048 3802 1901 3565 1754 3341 
L 877 3251 
C 1267 3802 1651 4493 1952 5165 
L 1498 5376 
C 1229 4608 742 3776 589 3565 
C 448 3341 333 3194 211 3168 
C 269 3040 346 2803 371 2707 
z
M 2714 5037 
L 2714 4595 
L 4973 4595 
C 4384 3763 3296 3085 2285 2746 
C 2381 2650 2515 2464 2579 2349 
C 3149 2560 3731 2854 4250 3226 
C 4845 2970 5542 2605 5907 2355 
L 6182 2752 
C 5830 2976 5197 3290 4634 3526 
C 5082 3910 5459 4358 5715 4877 
L 5370 5056 
L 5280 5037 
L 2714 5037 
z
M 2758 2125 
L 2758 1683 
L 4032 1683 
L 4032 115 
L 2374 115 
L 2374 -333 
L 6150 -333 
L 6150 115 
L 4506 115 
L 4506 1683 
L 5850 1683 
L 5850 2125 
L 2758 2125 
z
" transform="scale(0.015625)"/>
      <path id="NotoSansCJKjp-Regular-67" d="M 1760 -1600 
C 2835 -1600 3520 -1043 3520 -397 
C 3520 179 3110 429 2310 429 
L 1626 429 
C 1158 429 1018 589 1018 806 
C 1018 998 1114 1114 1242 1222 
C 1395 1146 1587 1101 1754 1101 
C 2470 1101 3027 1568 3027 2310 
C 3027 2611 2912 2867 2746 3027 
L 3456 3027 
L 3456 3475 
L 2246 3475 
C 2125 3526 1952 3565 1754 3565 
C 1056 3565 454 3085 454 2323 
C 454 1907 678 1568 909 1389 
L 909 1363 
C 723 1235 525 1005 525 717 
C 525 442 659 256 838 147 
L 838 115 
C 512 -83 326 -371 326 -672 
C 326 -1267 915 -1600 1760 -1600 
z
M 1754 1498 
C 1357 1498 1018 1818 1018 2323 
C 1018 2835 1350 3136 1754 3136 
C 2170 3136 2496 2835 2496 2323 
C 2496 1818 2157 1498 1754 1498 
z
M 1843 -1197 
C 1210 -1197 838 -960 838 -589 
C 838 -390 941 -179 1190 0 
C 1344 -38 1510 -51 1638 -51 
L 2240 -51 
C 2701 -51 2944 -166 2944 -493 
C 2944 -851 2515 -1197 1843 -1197 
z
" transform="scale(0.015625)"/>
      <path id="NotoSansCJKjp-Regular-65" d="M 1997 -83 
C 2464 -83 2835 70 3136 269 
L 2931 659 
C 2669 486 2400 384 2061 384 
C 1402 384 947 858 909 1600 
L 3251 1600 
C 3264 1690 3277 1805 3277 1933 
C 3277 2925 2778 3565 1888 3565 
C 1094 3565 333 2867 333 1734 
C 333 589 1069 -83 1997 -83 
z
M 902 2016 
C 973 2707 1408 3098 1901 3098 
C 2445 3098 2765 2720 2765 2016 
L 902 2016 
z
" transform="scale(0.015625)"/>
      <path id="NotoSansCJKjp-Regular-6e" d="M 589 0 
L 1178 0 
L 1178 2522 
C 1523 2874 1766 3053 2125 3053 
C 2586 3053 2784 2778 2784 2125 
L 2784 0 
L 3366 0 
L 3366 2202 
C 3366 3085 3034 3565 2304 3565 
C 1830 3565 1466 3302 1139 2970 
L 1126 2970 
L 1069 3475 
L 589 3475 
L 589 0 
z
" transform="scale(0.015625)"/>
      <path id="NotoSansCJKjp-Regular-2e" d="M 890 -83 
C 1120 -83 1312 96 1312 358 
C 1312 627 1120 806 890 806 
C 653 806 467 627 467 358 
C 467 96 653 -83 890 -83 
z
" transform="scale(0.015625)"/>
      <path id="NotoSansCJKjp-Regular-4ece" d="M 3974 5146 
C 3949 3827 3917 1126 2099 -141 
C 2259 -237 2419 -371 2528 -499 
C 3520 243 4006 1408 4243 2547 
C 4493 1382 4941 211 5824 -512 
C 5907 -371 6086 -147 6202 -45 
C 5005 832 4614 2624 4448 4128 
C 4474 4506 4480 4851 4486 5146 
L 3974 5146 
z
M 1670 5158 
C 1574 2803 1306 915 230 -192 
C 358 -269 614 -442 698 -518 
C 1306 179 1658 1094 1882 2208 
C 2234 1760 2579 1261 2758 909 
L 3117 1318 
C 2893 1734 2432 2355 1990 2848 
C 2093 3546 2157 4314 2202 5139 
L 1670 5158 
z
" transform="scale(0.015625)"/>
      <path id="NotoSansCJKjp-Regular-52a0" d="M 3661 4582 
L 3661 -416 
L 4122 -416 
L 4122 58 
L 5363 58 
L 5363 -365 
L 5843 -365 
L 5843 4582 
L 3661 4582 
z
M 4122 518 
L 4122 4115 
L 5363 4115 
L 5363 518 
L 4122 518 
z
M 1248 5293 
L 1242 4160 
L 339 4160 
L 339 3693 
L 1229 3693 
C 1184 2080 986 659 179 -186 
C 301 -262 474 -410 550 -518 
C 1414 422 1638 1958 1696 3693 
L 2669 3693 
C 2618 1229 2560 352 2426 166 
C 2368 83 2304 58 2208 64 
C 2093 64 1818 64 1517 90 
C 1600 -45 1645 -250 1658 -390 
C 1946 -410 2240 -416 2419 -390 
C 2605 -365 2726 -307 2842 -141 
C 3040 134 3085 1069 3136 3917 
C 3136 3987 3136 4160 3136 4160 
L 1709 4160 
L 1722 5293 
L 1248 5293 
z
" transform="scale(0.015625)"/>
      <path id="NotoSansCJKjp-Regular-8f7d" d="M 4710 5018 
C 5005 4768 5344 4416 5491 4179 
L 5856 4435 
C 5696 4672 5350 5011 5056 5242 
L 4710 5018 
z
M 5370 3206 
C 5203 2598 4966 2010 4666 1478 
C 4544 2042 4461 2739 4410 3539 
L 6086 3539 
L 6086 3930 
L 4390 3930 
C 4371 4384 4365 4864 4371 5370 
L 3898 5370 
C 3898 4877 3910 4390 3930 3930 
L 2355 3930 
L 2355 4480 
L 3488 4480 
L 3488 4864 
L 2355 4864 
L 2355 5382 
L 1894 5382 
L 1894 4864 
L 672 4864 
L 672 4480 
L 1894 4480 
L 1894 3930 
L 346 3930 
L 346 3539 
L 3949 3539 
C 4013 2522 4134 1619 4326 928 
C 4013 480 3654 96 3245 -198 
C 3360 -282 3501 -422 3584 -525 
C 3923 -262 4230 58 4506 410 
C 4742 -141 5062 -461 5478 -461 
C 5926 -461 6086 -166 6163 794 
C 6048 838 5882 934 5786 1043 
C 5747 294 5683 6 5523 6 
C 5248 6 5011 320 4832 870 
C 5248 1530 5568 2285 5798 3078 
L 5370 3206 
z
M 416 589 
L 467 141 
L 2131 314 
L 2131 -486 
L 2579 -486 
L 2579 358 
L 3744 480 
L 3744 877 
L 2579 768 
L 2579 1370 
L 3597 1370 
L 3597 1786 
L 2579 1786 
L 2579 2304 
L 2131 2304 
L 2131 1786 
L 1242 1786 
C 1382 1997 1517 2240 1651 2502 
L 3731 2502 
L 3731 2899 
L 1843 2899 
C 1920 3066 1990 3232 2054 3398 
L 1581 3526 
C 1517 3315 1434 3098 1350 2899 
L 442 2899 
L 442 2502 
L 1171 2502 
C 1062 2285 973 2118 922 2042 
C 819 1869 723 1741 627 1722 
C 685 1600 749 1376 774 1280 
C 832 1331 1024 1370 1293 1370 
L 2131 1370 
L 2131 730 
L 416 589 
z
" transform="scale(0.015625)"/>
      <path id="NotoSansCJKjp-Regular-5230" d="M 3885 4608 
L 3885 1056 
L 4352 1056 
L 4352 4608 
L 3885 4608 
z
M 5402 5197 
L 5402 134 
C 5402 19 5370 -13 5254 -19 
C 5126 -19 4723 -26 4294 -13 
C 4371 -154 4442 -378 4467 -512 
C 4986 -512 5370 -499 5587 -422 
C 5792 -346 5869 -198 5869 134 
L 5869 5197 
L 5402 5197 
z
M 2349 3994 
C 2522 3795 2701 3565 2861 3334 
L 1382 3264 
C 1562 3648 1747 4115 1914 4518 
L 3610 4518 
L 3610 4960 
L 326 4960 
L 326 4518 
L 1370 4518 
C 1248 4115 1069 3622 896 3245 
L 307 3219 
L 346 2765 
L 3136 2925 
C 3226 2778 3296 2643 3354 2528 
L 3731 2758 
C 3546 3149 3098 3750 2714 4192 
L 2349 3994 
z
M 256 160 
L 326 -320 
C 1184 -205 2445 -19 3635 147 
L 3622 595 
L 2208 410 
L 2208 1472 
L 3424 1472 
L 3424 1907 
L 2208 1907 
L 2208 2675 
L 1734 2675 
L 1734 1907 
L 512 1907 
L 512 1472 
L 1734 1472 
L 1734 346 
L 256 160 
z
" transform="scale(0.015625)"/>
      <path id="NotoSansCJKjp-Regular-3d" d="M 243 2912 
L 3315 2912 
L 3315 3347 
L 243 3347 
L 243 2912 
z
M 243 1376 
L 3315 1376 
L 3315 1811 
L 243 1811 
L 243 1376 
z
" transform="scale(0.015625)"/>
      <path id="NotoSansCJKjp-Regular-62" d="M 2118 -83 
C 2912 -83 3629 602 3629 1792 
C 3629 2867 3142 3565 2246 3565 
C 1856 3565 1472 3347 1152 3078 
L 1178 3699 
L 1178 5094 
L 589 5094 
L 589 0 
L 1056 0 
L 1107 358 
L 1133 358 
C 1434 83 1798 -83 2118 -83 
z
M 2022 410 
C 1792 410 1478 499 1178 768 
L 1178 2598 
C 1504 2906 1811 3072 2099 3072 
C 2765 3072 3021 2560 3021 1786 
C 3021 928 2598 410 2022 410 
z
" transform="scale(0.015625)"/>
      <path id="NotoSansCJKjp-Regular-6f" d="M 1939 -83 
C 2790 -83 3546 582 3546 1734 
C 3546 2893 2790 3565 1939 3565 
C 1088 3565 333 2893 333 1734 
C 333 582 1088 -83 1939 -83 
z
M 1939 403 
C 1338 403 934 934 934 1734 
C 934 2534 1338 3072 1939 3072 
C 2541 3072 2950 2534 2950 1734 
C 2950 934 2541 403 1939 403 
z
" transform="scale(0.015625)"/>
      <path id="NotoSansCJKjp-Regular-6b" d="M 589 0 
L 1165 0 
L 1165 915 
L 1818 1677 
L 2835 0 
L 3469 0 
L 2157 2074 
L 3315 3475 
L 2662 3475 
L 1190 1645 
L 1165 1645 
L 1165 5094 
L 589 5094 
L 589 0 
z
" transform="scale(0.015625)"/>
      <path id="NotoSansCJKjp-Regular-76" d="M 1338 0 
L 2022 0 
L 3251 3475 
L 2675 3475 
L 2016 1498 
C 1914 1158 1798 806 1696 474 
L 1664 474 
C 1562 806 1453 1158 1344 1498 
L 691 3475 
L 83 3475 
L 1338 0 
z
" transform="scale(0.015625)"/>
      <path id="NotoSansCJKjp-Regular-4e3a" d="M 1037 5018 
C 1293 4717 1581 4307 1709 4045 
L 2144 4256 
C 2010 4518 1709 4915 1446 5197 
L 1037 5018 
z
M 3194 2374 
C 3520 1984 3898 1446 4064 1107 
L 4486 1338 
C 4314 1670 3923 2189 3590 2566 
L 3194 2374 
z
M 2630 5363 
L 2630 4608 
C 2630 4365 2624 4109 2605 3834 
L 525 3834 
L 525 3354 
L 2554 3354 
C 2394 2214 1888 928 352 -70 
C 467 -147 646 -314 730 -422 
C 2368 666 2893 2099 3046 3354 
L 5254 3354 
C 5165 1178 5062 320 4870 122 
C 4800 45 4730 26 4589 32 
C 4435 32 4032 32 3597 70 
C 3693 -70 3757 -282 3763 -429 
C 4160 -448 4563 -461 4787 -442 
C 5024 -416 5171 -365 5318 -179 
C 5568 115 5658 1018 5760 3584 
C 5760 3661 5766 3834 5766 3834 
L 3098 3834 
C 3110 4102 3117 4365 3117 4602 
L 3117 5363 
L 2630 5363 
z
" transform="scale(0.015625)"/>
      <path id="NotoSansCJKjp-Regular-36" d="M 1926 -83 
C 2656 -83 3277 531 3277 1440 
C 3277 2426 2765 2912 1971 2912 
C 1606 2912 1197 2701 909 2349 
C 934 3802 1466 4294 2118 4294 
C 2400 4294 2682 4154 2861 3936 
L 3194 4294 
C 2931 4576 2579 4774 2093 4774 
C 1184 4774 358 4077 358 2240 
C 358 691 1030 -83 1926 -83 
z
M 922 1882 
C 1229 2317 1587 2477 1875 2477 
C 2445 2477 2720 2074 2720 1440 
C 2720 800 2374 378 1926 378 
C 1338 378 986 909 922 1882 
z
" transform="scale(0.015625)"/>
      <path id="NotoSansCJKjp-Regular-78" d="M 96 0 
L 710 0 
L 1178 813 
C 1299 1024 1408 1235 1530 1434 
L 1562 1434 
C 1696 1235 1824 1024 1939 813 
L 2451 0 
L 3091 0 
L 1946 1754 
L 3002 3475 
L 2394 3475 
L 1965 2714 
C 1856 2515 1760 2330 1658 2131 
L 1626 2131 
C 1510 2330 1389 2515 1286 2714 
L 819 3475 
L 186 3475 
L 1242 1811 
L 96 0 
z
" transform="scale(0.015625)"/>
      <path id="NotoSansCJKjp-Regular-33" d="M 1683 -83 
C 2522 -83 3194 416 3194 1254 
C 3194 1901 2752 2310 2202 2445 
L 2202 2477 
C 2701 2650 3034 3034 3034 3603 
C 3034 4346 2458 4774 1664 4774 
C 1126 4774 710 4538 358 4218 
L 672 3846 
C 941 4115 1267 4301 1645 4301 
C 2138 4301 2438 4006 2438 3558 
C 2438 3053 2112 2662 1139 2662 
L 1139 2214 
C 2227 2214 2598 1843 2598 1274 
C 2598 736 2208 403 1645 403 
C 1114 403 762 659 486 941 
L 186 563 
C 493 224 954 -83 1683 -83 
z
" transform="scale(0.015625)"/>
     </defs>
     <use xlink:href="#NotoSansCJKjp-Regular-41"/>
     <use xlink:href="#NotoSansCJKjp-Regular-3001" x="60.799988"/>
     <use xlink:href="#NotoSansCJKjp-Regular-42" x="160.799973"/>
     <use xlink:href="#NotoSansCJKjp-Regular-20" x="226.499969"/>
     <use xlink:href="#NotoSansCJKjp-Regular-5728" x="248.899963"/>
     <use xlink:href="#NotoSansCJKjp-Regular-20" x="348.899948"/>
     <use xlink:href="#NotoSansCJKjp-Regular-53" x="371.299942"/>
     <use xlink:href="#NotoSansCJKjp-Regular-4d" x="430.899933"/>
     <use xlink:href="#NotoSansCJKjp-Regular-45" x="512.099915"/>
     <use xlink:href="#NotoSansCJKjp-Regular-4d" x="570.999908"/>
     <use xlink:href="#NotoSansCJKjp-Regular-20" x="652.19989"/>
     <use xlink:href="#NotoSansCJKjp-Regular-4e2d" x="674.599884"/>
     <use xlink:href="#NotoSansCJKjp-Regular-6253" x="774.599869"/>
     <use xlink:href="#NotoSansCJKjp-Regular-5305" x="874.599854"/>
     <use xlink:href="#NotoSansCJKjp-Regular-20" x="974.599838"/>
     <use xlink:href="#NotoSansCJKjp-Regular-b7" x="996.999832"/>
     <use xlink:href="#NotoSansCJKjp-Regular-20" x="1053.099823"/>
     <use xlink:href="#NotoSansCJKjp-Regular-53" x="1075.499817"/>
     <use xlink:href="#NotoSansCJKjp-Regular-46" x="1135.099808"/>
     <use xlink:href="#NotoSansCJKjp-Regular-41" x="1190.299805"/>
     <use xlink:href="#NotoSansCJKjp-Regular-2f" x="1251.099792"/>
     <use xlink:href="#NotoSansCJKjp-Regular-53" x="1290.299789"/>
     <use xlink:href="#NotoSansCJKjp-Regular-46" x="1349.89978"/>
     <use xlink:href="#NotoSansCJKjp-Regular-42" x="1405.099777"/>
     <use xlink:href="#NotoSansCJKjp-Regular-20" x="1470.799774"/>
     <use xlink:href="#NotoSansCJKjp-Regular-7ecf" x="1493.199768"/>
     <use xlink:href="#NotoSansCJKjp-Regular-20" x="1593.199753"/>
     <use xlink:href="#NotoSansCJKjp-Regular-74" x="1615.599747"/>
     <use xlink:href="#NotoSansCJKjp-Regular-63" x="1653.299744"/>
     <use xlink:href="#NotoSansCJKjp-Regular-67" x="1704.299728"/>
     <use xlink:href="#NotoSansCJKjp-Regular-65" x="1760.699722"/>
     <use xlink:href="#NotoSansCJKjp-Regular-6e" x="1816.099716"/>
     <use xlink:href="#NotoSansCJKjp-Regular-30" x="1877.099701"/>
     <use xlink:href="#NotoSansCJKjp-Regular-35" x="1932.599686"/>
     <use xlink:href="#NotoSansCJKjp-Regular-2e" x="1988.09967"/>
     <use xlink:href="#NotoSansCJKjp-Regular-63" x="2015.899658"/>
     <use xlink:href="#NotoSansCJKjp-Regular-70" x="2066.899643"/>
     <use xlink:href="#NotoSansCJKjp-Regular-20" x="2128.899628"/>
     <use xlink:href="#NotoSansCJKjp-Regular-4ece" x="2151.299622"/>
     <use xlink:href="#NotoSansCJKjp-Regular-20" x="2251.299606"/>
     <use xlink:href="#NotoSansCJKjp-Regular-53" x="2273.6996"/>
     <use xlink:href="#NotoSansCJKjp-Regular-4d" x="2333.299591"/>
     <use xlink:href="#NotoSansCJKjp-Regular-45" x="2414.499573"/>
     <use xlink:href="#NotoSansCJKjp-Regular-4d" x="2473.399567"/>
     <use xlink:href="#NotoSansCJKjp-Regular-20" x="2554.599548"/>
     <use xlink:href="#NotoSansCJKjp-Regular-52a0" x="2576.999542"/>
     <use xlink:href="#NotoSansCJKjp-Regular-8f7d" x="2676.999527"/>
     <use xlink:href="#NotoSansCJKjp-Regular-5230" x="2776.999512"/>
     <use xlink:href="#NotoSansCJKjp-Regular-20" x="2876.999496"/>
     <use xlink:href="#NotoSansCJKjp-Regular-54" x="2899.39949"/>
     <use xlink:href="#NotoSansCJKjp-Regular-4d" x="2959.299484"/>
     <use xlink:href="#NotoSansCJKjp-Regular-45" x="3040.499466"/>
     <use xlink:href="#NotoSansCJKjp-Regular-4d" x="3099.39946"/>
     <use xlink:href="#NotoSansCJKjp-Regular-20" x="3180.599442"/>
     <use xlink:href="#NotoSansCJKjp-Regular-b7" x="3202.999435"/>
     <use xlink:href="#NotoSansCJKjp-Regular-20" x="3259.099426"/>
     <use xlink:href="#NotoSansCJKjp-Regular-53" x="3281.49942"/>
     <use xlink:href="#NotoSansCJKjp-Regular-46" x="3341.099411"/>
     <use xlink:href="#NotoSansCJKjp-Regular-4b" x="3396.299408"/>
     <use xlink:href="#NotoSansCJKjp-Regular-20" x="3460.899399"/>
     <use xlink:href="#NotoSansCJKjp-Regular-3d" x="3483.299393"/>
     <use xlink:href="#NotoSansCJKjp-Regular-20" x="3538.799377"/>
     <use xlink:href="#NotoSansCJKjp-Regular-4b" x="3561.199371"/>
     <use xlink:href="#NotoSansCJKjp-Regular-20" x="3625.799362"/>
     <use xlink:href="#NotoSansCJKjp-Regular-2f" x="3648.199356"/>
     <use xlink:href="#NotoSansCJKjp-Regular-20" x="3687.399353"/>
     <use xlink:href="#NotoSansCJKjp-Regular-62" x="3709.799347"/>
     <use xlink:href="#NotoSansCJKjp-Regular-6c" x="3771.599335"/>
     <use xlink:href="#NotoSansCJKjp-Regular-6f" x="3799.999329"/>
     <use xlink:href="#NotoSansCJKjp-Regular-63" x="3860.599319"/>
     <use xlink:href="#NotoSansCJKjp-Regular-6b" x="3911.599304"/>
     <use xlink:href="#NotoSansCJKjp-Regular-28" x="3966.799301"/>
     <use xlink:href="#NotoSansCJKjp-Regular-6e" x="4000.599289"/>
     <use xlink:href="#NotoSansCJKjp-Regular-76" x="4061.599274"/>
     <use xlink:href="#NotoSansCJKjp-Regular-66" x="4113.699265"/>
     <use xlink:href="#NotoSansCJKjp-Regular-70" x="4146.199249"/>
     <use xlink:href="#NotoSansCJKjp-Regular-34" x="4208.199234"/>
     <use xlink:href="#NotoSansCJKjp-Regular-20" x="4263.699219"/>
     <use xlink:href="#NotoSansCJKjp-Regular-4e3a" x="4286.099213"/>
     <use xlink:href="#NotoSansCJKjp-Regular-20" x="4386.099197"/>
     <use xlink:href="#NotoSansCJKjp-Regular-31" x="4408.499191"/>
     <use xlink:href="#NotoSansCJKjp-Regular-36" x="4463.999176"/>
     <use xlink:href="#NotoSansCJKjp-Regular-2c" x="4519.499161"/>
     <use xlink:href="#NotoSansCJKjp-Regular-6d" x="4547.299149"/>
     <use xlink:href="#NotoSansCJKjp-Regular-78" x="4639.899139"/>
     <use xlink:href="#NotoSansCJKjp-Regular-66" x="4689.699127"/>
     <use xlink:href="#NotoSansCJKjp-Regular-70" x="4722.199112"/>
     <use xlink:href="#NotoSansCJKjp-Regular-38" x="4784.199097"/>
     <use xlink:href="#NotoSansCJKjp-Regular-20" x="4839.699081"/>
     <use xlink:href="#NotoSansCJKjp-Regular-4e3a" x="4862.099075"/>
     <use xlink:href="#NotoSansCJKjp-Regular-20" x="4962.09906"/>
     <use xlink:href="#NotoSansCJKjp-Regular-33" x="4984.499054"/>
     <use xlink:href="#NotoSansCJKjp-Regular-32" x="5039.999039"/>
     <use xlink:href="#NotoSansCJKjp-Regular-29" x="5095.499023"/>
    </g>
   </g>
  </g>
 </g>
 <defs>
  <clipPath id="p81335892dc">
   <rect x="7.2" y="7.2" width="535.68" height="277.2"/>
  </clipPath>
 </defs>
</svg>
