<?xml version="1.0" encoding="utf-8" standalone="no"?>
<!DOCTYPE svg PUBLIC "-//W3C//DTD SVG 1.1//EN"
  "http://www.w3.org/Graphics/SVG/1.1/DTD/svg11.dtd">
<svg xmlns:xlink="http://www.w3.org/1999/xlink" width="488.7pt" height="197.352pt" viewBox="0 0 488.7 197.352" xmlns="http://www.w3.org/2000/svg" version="1.1">
 <metadata>
  <rdf:RDF xmlns:dc="http://purl.org/dc/elements/1.1/" xmlns:cc="http://creativecommons.org/ns#" xmlns:rdf="http://www.w3.org/1999/02/22-rdf-syntax-ns#">
   <cc:Work>
    <dc:type rdf:resource="http://purl.org/dc/dcmitype/StillImage"/>
    <dc:date>2026-06-28T19:00:43.056493</dc:date>
    <dc:format>image/svg+xml</dc:format>
    <dc:creator>
     <cc:Agent>
      <dc:title>Matplotlib v3.6.3, https://matplotlib.org/</dc:title>
     </cc:Agent>
    </dc:creator>
   </cc:Work>
  </rdf:RDF>
 </metadata>
 <defs>
  <style type="text/css">*{stroke-linejoin: round; stroke-linecap: butt}</style>
 </defs>
 <g id="figure_1">
  <g id="patch_1">
   <path d="M 0 197.352 
L 488.7 197.352 
L 488.7 0 
L 0 0 
z
" style="fill: #ffffff"/>
  </g>
  <g id="axes_1">
   <g id="patch_2">
    <path d="M 28.5435 175.51584 
L 194.5485 175.51584 
Q 201.663 175.51584 201.663 172.77156 
L 201.663 31.89852 
Q 201.663 29.15424 194.5485 29.15424 
L 28.5435 29.15424 
Q 21.429 29.15424 21.429 31.89852 
L 21.429 172.77156 
Q 21.429 175.51584 28.5435 175.51584 
z
" clip-path="url(#pbe0fedeb6e)" style="fill: #ede9fe; stroke: #8b5cf6; stroke-width: 1.2; stroke-linejoin: miter"/>
   </g>
   <g id="patch_3">
    <path d="M 35.658 102.33504 
L 187.434 102.33504 
L 187.434 43.7904 
L 35.658 43.7904 
z
" clip-path="url(#pbe0fedeb6e)" style="fill: #8b5cf6; stroke: #ffffff; stroke-width: 1.2; stroke-linejoin: miter"/>
   </g>
   <g id="patch_4">
    <path d="M 35.658 168.19776 
L 187.434 168.19776 
L 187.434 113.31216 
L 35.658 113.31216 
z
" clip-path="url(#pbe0fedeb6e)" style="fill: #6d28d9; stroke: #ffffff; stroke-width: 1.2; stroke-linejoin: miter"/>
   </g>
   <g id="patch_5">
    <path d="M 294.1515 175.51584 
L 460.1565 175.51584 
Q 467.271 175.51584 467.271 172.77156 
L 467.271 31.89852 
Q 467.271 29.15424 460.1565 29.15424 
L 294.1515 29.15424 
Q 287.037 29.15424 287.037 31.89852 
L 287.037 172.77156 
Q 287.037 175.51584 294.1515 175.51584 
z
" clip-path="url(#pbe0fedeb6e)" style="fill: #fffbeb; stroke: #f59e0b; stroke-width: 1.2; stroke-linejoin: miter"/>
   </g>
   <g id="patch_6">
    <path d="M 301.266 59.7987 
L 453.042 59.7987 
L 453.042 44.888112 
L 301.266 44.888112 
z
" clip-path="url(#pbe0fedeb6e)" style="fill: #f59e0b; stroke: #ffffff; stroke-width: 1.2; stroke-linejoin: miter"/>
   </g>
   <g id="patch_7">
    <path d="M 301.266 75.807 
L 453.042 75.807 
L 453.042 60.896412 
L 301.266 60.896412 
z
" clip-path="url(#pbe0fedeb6e)" style="fill: url(#hacd2413309); opacity: 0.6; stroke: #ffffff; stroke-linejoin: miter"/>
   </g>
   <g id="patch_8">
    <path d="M 301.266 91.8153 
L 453.042 91.8153 
L 453.042 76.904712 
L 301.266 76.904712 
z
" clip-path="url(#pbe0fedeb6e)" style="fill: #f59e0b; stroke: #ffffff; stroke-width: 1.2; stroke-linejoin: miter"/>
   </g>
   <g id="patch_9">
    <path d="M 301.266 107.8236 
L 453.042 107.8236 
L 453.042 92.913012 
L 301.266 92.913012 
z
" clip-path="url(#pbe0fedeb6e)" style="fill: url(#hacd2413309); opacity: 0.6; stroke: #ffffff; stroke-linejoin: miter"/>
   </g>
   <g id="patch_10">
    <path d="M 301.266 123.8319 
L 453.042 123.8319 
L 453.042 108.921312 
L 301.266 108.921312 
z
" clip-path="url(#pbe0fedeb6e)" style="fill: #f59e0b; stroke: #ffffff; stroke-width: 1.2; stroke-linejoin: miter"/>
   </g>
   <g id="patch_11">
    <path d="M 301.266 139.8402 
L 453.042 139.8402 
L 453.042 124.929612 
L 301.266 124.929612 
z
" clip-path="url(#pbe0fedeb6e)" style="fill: url(#hacd2413309); opacity: 0.6; stroke: #ffffff; stroke-linejoin: miter"/>
   </g>
   <g id="patch_12">
    <path d="M 301.266 155.8485 
L 453.042 155.8485 
L 453.042 140.937912 
L 301.266 140.937912 
z
" clip-path="url(#pbe0fedeb6e)" style="fill: #f59e0b; stroke: #ffffff; stroke-width: 1.2; stroke-linejoin: miter"/>
   </g>
   <g id="patch_13">
    <path d="M 301.266 171.8568 
L 453.042 171.8568 
L 453.042 156.946212 
L 301.266 156.946212 
z
" clip-path="url(#pbe0fedeb6e)" style="fill: url(#hacd2413309); opacity: 0.6; stroke: #ffffff; stroke-linejoin: miter"/>
   </g>
   <g id="text_1">
    <!-- cta_group::1, M=64  —  1 CTA -->
    <g style="fill: #1f2937" transform="translate(170.766328 17.11452) scale(0.105 -0.105)">
     <defs>
      <path id="NotoSansCJKjp-Bold-63" d="M 2029 -90 
C 2426 -90 2861 45 3200 346 
L 2829 966 
C 2630 800 2394 678 2131 678 
C 1613 678 1242 1114 1242 1792 
C 1242 2464 1613 2906 2163 2906 
C 2362 2906 2528 2822 2707 2675 
L 3155 3270 
C 2893 3507 2554 3674 2112 3674 
C 1139 3674 282 2982 282 1792 
C 282 602 1043 -90 2029 -90 
z
" transform="scale(0.015625)"/>
      <path id="NotoSansCJKjp-Bold-74" d="M 1818 -90 
C 2131 -90 2381 -13 2579 45 
L 2419 730 
C 2323 691 2182 653 2067 653 
C 1747 653 1574 845 1574 1254 
L 1574 2842 
L 2464 2842 
L 2464 3584 
L 1574 3584 
L 1574 4550 
L 800 4550 
L 691 3584 
L 134 3539 
L 134 2842 
L 640 2842 
L 640 1248 
C 640 454 966 -90 1818 -90 
z
" transform="scale(0.015625)"/>
      <path id="NotoSansCJKjp-Bold-61" d="M 1382 -90 
C 1798 -90 2157 109 2464 384 
L 2496 384 
L 2560 0 
L 3328 0 
L 3328 2093 
C 3328 3130 2861 3674 1952 3674 
C 1389 3674 877 3456 461 3200 
L 794 2573 
C 1126 2771 1446 2918 1779 2918 
C 2221 2918 2374 2650 2387 2298 
C 947 2144 326 1741 326 979 
C 326 365 742 -90 1382 -90 
z
M 1696 646 
C 1421 646 1222 768 1222 1050 
C 1222 1376 1510 1613 2387 1715 
L 2387 998 
C 2163 774 1965 646 1696 646 
z
" transform="scale(0.015625)"/>
      <path id="NotoSansCJKjp-Bold-5f" d="M 90 -992 
L 3539 -992 
L 3539 -448 
L 90 -448 
L 90 -992 
z
" transform="scale(0.015625)"/>
      <path id="NotoSansCJKjp-Bold-67" d="M 1766 -1555 
C 2963 -1555 3718 -1005 3718 -282 
C 3718 346 3245 614 2381 614 
L 1766 614 
C 1350 614 1203 717 1203 902 
C 1203 1056 1267 1133 1357 1216 
C 1517 1158 1683 1133 1818 1133 
C 2592 1133 3206 1536 3206 2349 
C 3206 2573 3136 2771 3046 2893 
L 3654 2893 
L 3654 3584 
L 2368 3584 
C 2214 3635 2029 3674 1818 3674 
C 1062 3674 378 3219 378 2381 
C 378 1958 608 1619 858 1440 
L 858 1414 
C 640 1261 461 1011 461 749 
C 461 448 595 262 787 141 
L 787 109 
C 448 -77 275 -333 275 -634 
C 275 -1267 922 -1555 1766 -1555 
z
M 1818 1715 
C 1510 1715 1261 1952 1261 2381 
C 1261 2797 1504 3027 1818 3027 
C 2138 3027 2387 2797 2387 2381 
C 2387 1952 2138 1715 1818 1715 
z
M 1907 -954 
C 1389 -954 1056 -787 1056 -493 
C 1056 -339 1126 -198 1286 -70 
C 1421 -102 1568 -115 1779 -115 
L 2221 -115 
C 2605 -115 2816 -186 2816 -442 
C 2816 -717 2451 -954 1907 -954 
z
" transform="scale(0.015625)"/>
      <path id="NotoSansCJKjp-Bold-72" d="M 506 0 
L 1446 0 
L 1446 2138 
C 1651 2656 1984 2842 2259 2842 
C 2413 2842 2515 2822 2643 2784 
L 2797 3597 
C 2694 3642 2579 3674 2381 3674 
C 2010 3674 1626 3418 1363 2950 
L 1344 2950 
L 1274 3584 
L 506 3584 
L 506 0 
z
" transform="scale(0.015625)"/>
      <path id="NotoSansCJKjp-Bold-6f" d="M 2003 -90 
C 2899 -90 3725 602 3725 1792 
C 3725 2982 2899 3674 2003 3674 
C 1101 3674 282 2982 282 1792 
C 282 602 1101 -90 2003 -90 
z
M 2003 678 
C 1510 678 1242 1114 1242 1792 
C 1242 2464 1510 2906 2003 2906 
C 2490 2906 2765 2464 2765 1792 
C 2765 1114 2490 678 2003 678 
z
" transform="scale(0.015625)"/>
      <path id="NotoSansCJKjp-Bold-75" d="M 1574 -90 
C 2067 -90 2406 154 2714 518 
L 2739 518 
L 2810 0 
L 3578 0 
L 3578 3584 
L 2637 3584 
L 2637 1165 
C 2394 845 2202 717 1914 717 
C 1562 717 1402 909 1402 1466 
L 1402 3584 
L 467 3584 
L 467 1350 
C 467 448 800 -90 1574 -90 
z
" transform="scale(0.015625)"/>
      <path id="NotoSansCJKjp-Bold-70" d="M 506 -1376 
L 1446 -1376 
L 1446 -282 
L 1414 301 
C 1683 51 1990 -90 2304 -90 
C 3091 -90 3827 621 3827 1850 
C 3827 2950 3296 3674 2419 3674 
C 2029 3674 1664 3469 1363 3213 
L 1344 3213 
L 1274 3584 
L 506 3584 
L 506 -1376 
z
M 2099 685 
C 1901 685 1677 755 1446 954 
L 1446 2534 
C 1690 2778 1907 2899 2150 2899 
C 2643 2899 2861 2522 2861 1837 
C 2861 1056 2522 685 2099 685 
z
" transform="scale(0.015625)"/>
      <path id="NotoSansCJKjp-Bold-3a" d="M 1043 2342 
C 1376 2342 1626 2605 1626 2950 
C 1626 3302 1376 3565 1043 3565 
C 704 3565 454 3302 454 2950 
C 454 2605 704 2342 1043 2342 
z
M 1043 -90 
C 1376 -90 1626 179 1626 525 
C 1626 877 1376 1139 1043 1139 
C 704 1139 454 877 454 525 
C 454 179 704 -90 1043 -90 
z
" transform="scale(0.015625)"/>
      <path id="NotoSansCJKjp-Bold-31" d="M 525 0 
L 3373 0 
L 3373 768 
L 2483 768 
L 2483 4742 
L 1786 4742 
C 1485 4550 1165 4429 685 4346 
L 685 3757 
L 1549 3757 
L 1549 768 
L 525 768 
L 525 0 
z
" transform="scale(0.015625)"/>
      <path id="NotoSansCJKjp-Bold-2c" d="M 538 -1370 
C 1312 -1107 1747 -538 1747 211 
C 1747 794 1504 1139 1075 1139 
C 736 1139 461 922 461 582 
C 461 224 742 26 1050 26 
L 1114 32 
C 1107 -339 832 -666 339 -858 
L 538 -1370 
z
" transform="scale(0.015625)"/>
      <path id="NotoSansCJKjp-Bold-20" transform="scale(0.015625)"/>
      <path id="NotoSansCJKjp-Bold-4d" d="M 582 0 
L 1434 0 
L 1434 1978 
C 1434 2432 1357 3085 1312 3533 
L 1338 3533 
L 1715 2419 
L 2451 429 
L 2995 429 
L 3725 2419 
L 4109 3533 
L 4141 3533 
C 4090 3085 4019 2432 4019 1978 
L 4019 0 
L 4883 0 
L 4883 4742 
L 3834 4742 
L 3040 2515 
C 2944 2227 2861 1914 2758 1613 
L 2726 1613 
C 2630 1914 2541 2227 2438 2515 
L 1632 4742 
L 582 4742 
L 582 0 
z
" transform="scale(0.015625)"/>
      <path id="NotoSansCJKjp-Bold-3d" d="M 250 2893 
L 3526 2893 
L 3526 3558 
L 250 3558 
L 250 2893 
z
M 250 1235 
L 3526 1235 
L 3526 1907 
L 250 1907 
L 250 1235 
z
" transform="scale(0.015625)"/>
      <path id="NotoSansCJKjp-Bold-36" d="M 2022 -90 
C 2829 -90 3507 525 3507 1498 
C 3507 2509 2938 2982 2144 2982 
C 1843 2982 1440 2803 1178 2483 
C 1222 3661 1664 4070 2214 4070 
C 2483 4070 2771 3910 2938 3725 
L 3437 4288 
C 3155 4582 2733 4826 2150 4826 
C 1197 4826 320 4070 320 2304 
C 320 640 1126 -90 2022 -90 
z
M 1197 1818 
C 1434 2176 1722 2317 1971 2317 
C 2381 2317 2650 2061 2650 1498 
C 2650 922 2362 621 2003 621 
C 1606 621 1286 954 1197 1818 
z
" transform="scale(0.015625)"/>
      <path id="NotoSansCJKjp-Bold-34" d="M 2157 0 
L 3034 0 
L 3034 1229 
L 3597 1229 
L 3597 1946 
L 3034 1946 
L 3034 4742 
L 1901 4742 
L 134 1869 
L 134 1229 
L 2157 1229 
L 2157 0 
z
M 2157 1946 
L 1050 1946 
L 1786 3123 
C 1920 3379 2048 3642 2163 3898 
L 2195 3898 
C 2176 3616 2157 3187 2157 2912 
L 2157 1946 
z
" transform="scale(0.015625)"/>
      <path id="NotoSansCJKjp-Bold-2014" d="M 314 1536 
L 5498 1536 
L 5498 2138 
L 314 2138 
L 314 1536 
z
" transform="scale(0.015625)"/>
      <path id="NotoSansCJKjp-Bold-43" d="M 2509 -90 
C 3130 -90 3635 154 4026 608 
L 3520 1197 
C 3270 922 2957 730 2547 730 
C 1798 730 1318 1350 1318 2381 
C 1318 3398 1850 4013 2566 4013 
C 2925 4013 3200 3846 3443 3616 
L 3936 4218 
C 3629 4538 3155 4826 2547 4826 
C 1350 4826 346 3910 346 2349 
C 346 768 1318 -90 2509 -90 
z
" transform="scale(0.015625)"/>
      <path id="NotoSansCJKjp-Bold-54" d="M 1523 0 
L 2470 0 
L 2470 3949 
L 3808 3949 
L 3808 4742 
L 192 4742 
L 192 3949 
L 1523 3949 
L 1523 0 
z
" transform="scale(0.015625)"/>
      <path id="NotoSansCJKjp-Bold-41" d="M -26 0 
L 934 0 
L 1267 1216 
L 2797 1216 
L 3130 0 
L 4128 0 
L 2611 4742 
L 1491 4742 
L -26 0 
z
M 1472 1952 
L 1613 2470 
C 1754 2963 1888 3501 2016 4019 
L 2042 4019 
C 2182 3514 2310 2963 2458 2470 
L 2598 1952 
L 1472 1952 
z
" transform="scale(0.015625)"/>
     </defs>
     <use xlink:href="#NotoSansCJKjp-Bold-63"/>
     <use xlink:href="#NotoSansCJKjp-Bold-74" x="52.699997"/>
     <use xlink:href="#NotoSansCJKjp-Bold-61" x="94.799988"/>
     <use xlink:href="#NotoSansCJKjp-Bold-5f" x="153.899979"/>
     <use xlink:href="#NotoSansCJKjp-Bold-67" x="210.599976"/>
     <use xlink:href="#NotoSansCJKjp-Bold-72" x="270.299973"/>
     <use xlink:href="#NotoSansCJKjp-Bold-6f" x="313.899963"/>
     <use xlink:href="#NotoSansCJKjp-Bold-75" x="376.499954"/>
     <use xlink:href="#NotoSansCJKjp-Bold-70" x="440.199951"/>
     <use xlink:href="#NotoSansCJKjp-Bold-3a" x="504.599945"/>
     <use xlink:href="#NotoSansCJKjp-Bold-3a" x="537.09993"/>
     <use xlink:href="#NotoSansCJKjp-Bold-31" x="569.599915"/>
     <use xlink:href="#NotoSansCJKjp-Bold-2c" x="628.599899"/>
     <use xlink:href="#NotoSansCJKjp-Bold-20" x="661.099884"/>
     <use xlink:href="#NotoSansCJKjp-Bold-4d" x="683.799881"/>
     <use xlink:href="#NotoSansCJKjp-Bold-3d" x="769.099869"/>
     <use xlink:href="#NotoSansCJKjp-Bold-36" x="828.099854"/>
     <use xlink:href="#NotoSansCJKjp-Bold-34" x="887.099838"/>
     <use xlink:href="#NotoSansCJKjp-Bold-20" x="946.099823"/>
     <use xlink:href="#NotoSansCJKjp-Bold-20" x="968.79982"/>
     <use xlink:href="#NotoSansCJKjp-Bold-2014" x="991.499817"/>
     <use xlink:href="#NotoSansCJKjp-Bold-20" x="1082.299805"/>
     <use xlink:href="#NotoSansCJKjp-Bold-20" x="1104.999802"/>
     <use xlink:href="#NotoSansCJKjp-Bold-31" x="1127.699799"/>
     <use xlink:href="#NotoSansCJKjp-Bold-20" x="1186.699783"/>
     <use xlink:href="#NotoSansCJKjp-Bold-43" x="1209.39978"/>
     <use xlink:href="#NotoSansCJKjp-Bold-54" x="1274.999771"/>
     <use xlink:href="#NotoSansCJKjp-Bold-41" x="1337.499756"/>
    </g>
   </g>
   <g id="text_2">
    <!-- SMEM (1 CTA) -->
    <g style="fill: #334155" transform="translate(28.5435 37.909664) scale(0.08 -0.08)">
     <defs>
      <path id="NotoSansCJKjp-Bold-53" d="M 1997 -90 
C 3091 -90 3738 570 3738 1344 
C 3738 2029 3360 2400 2784 2637 
L 2163 2886 
C 1760 3053 1427 3174 1427 3514 
C 1427 3827 1683 4013 2099 4013 
C 2496 4013 2810 3866 3110 3622 
L 3590 4211 
C 3206 4602 2656 4826 2099 4826 
C 1146 4826 461 4224 461 3456 
C 461 2765 947 2381 1427 2189 
L 2054 1914 
C 2477 1734 2771 1626 2771 1274 
C 2771 941 2509 730 2016 730 
C 1600 730 1146 941 813 1254 
L 269 602 
C 730 154 1363 -90 1997 -90 
z
" transform="scale(0.015625)"/>
      <path id="NotoSansCJKjp-Bold-45" d="M 582 0 
L 3558 0 
L 3558 794 
L 1530 794 
L 1530 2061 
L 3187 2061 
L 3187 2854 
L 1530 2854 
L 1530 3949 
L 3488 3949 
L 3488 4742 
L 582 4742 
L 582 0 
z
" transform="scale(0.015625)"/>
      <path id="NotoSansCJKjp-Bold-28" d="M 1504 -1293 
L 2086 -1043 
C 1549 -109 1306 966 1306 2016 
C 1306 3066 1549 4147 2086 5082 
L 1504 5331 
C 896 4339 544 3296 544 2016 
C 544 736 896 -307 1504 -1293 
z
" transform="scale(0.015625)"/>
      <path id="NotoSansCJKjp-Bold-29" d="M 915 -1293 
C 1523 -307 1875 736 1875 2016 
C 1875 3296 1523 4339 915 5331 
L 333 5082 
C 870 4147 1114 3066 1114 2016 
C 1114 966 870 -109 333 -1043 
L 915 -1293 
z
" transform="scale(0.015625)"/>
     </defs>
     <use xlink:href="#NotoSansCJKjp-Bold-53"/>
     <use xlink:href="#NotoSansCJKjp-Bold-4d" x="62.399994"/>
     <use xlink:href="#NotoSansCJKjp-Bold-45" x="147.699982"/>
     <use xlink:href="#NotoSansCJKjp-Bold-4d" x="209.199966"/>
     <use xlink:href="#NotoSansCJKjp-Bold-20" x="294.499954"/>
     <use xlink:href="#NotoSansCJKjp-Bold-28" x="317.199951"/>
     <use xlink:href="#NotoSansCJKjp-Bold-31" x="354.999939"/>
     <use xlink:href="#NotoSansCJKjp-Bold-20" x="413.999924"/>
     <use xlink:href="#NotoSansCJKjp-Bold-43" x="436.699921"/>
     <use xlink:href="#NotoSansCJKjp-Bold-54" x="502.299911"/>
     <use xlink:href="#NotoSansCJKjp-Bold-41" x="564.799896"/>
     <use xlink:href="#NotoSansCJKjp-Bold-29" x="628.899887"/>
    </g>
   </g>
   <g id="text_3">
    <!-- A   (M, K) -->
    <g style="fill: #ffffff" transform="translate(93.828148 67.488853) scale(0.085 -0.085)">
     <defs>
      <path id="NotoSansCJKjp-Bold-4b" d="M 582 0 
L 1530 0 
L 1530 1331 
L 2150 2131 
L 3379 0 
L 4416 0 
L 2714 2874 
L 4160 4742 
L 3117 4742 
L 1549 2682 
L 1530 2682 
L 1530 4742 
L 582 4742 
L 582 0 
z
" transform="scale(0.015625)"/>
     </defs>
     <use xlink:href="#NotoSansCJKjp-Bold-41"/>
     <use xlink:href="#NotoSansCJKjp-Bold-20" x="64.099991"/>
     <use xlink:href="#NotoSansCJKjp-Bold-20" x="86.799988"/>
     <use xlink:href="#NotoSansCJKjp-Bold-20" x="109.499985"/>
     <use xlink:href="#NotoSansCJKjp-Bold-28" x="132.199982"/>
     <use xlink:href="#NotoSansCJKjp-Bold-4d" x="169.999969"/>
     <use xlink:href="#NotoSansCJKjp-Bold-2c" x="255.299957"/>
     <use xlink:href="#NotoSansCJKjp-Bold-20" x="287.799942"/>
     <use xlink:href="#NotoSansCJKjp-Bold-4b" x="310.499939"/>
     <use xlink:href="#NotoSansCJKjp-Bold-29" x="379.09993"/>
    </g>
   </g>
   <g id="text_4">
    <!-- 64 × K -->
    <g style="fill: #ffffff" transform="translate(100.812391 84.328894) scale(0.067 -0.067)">
     <defs>
      <path id="NotoSansCJKjp-Regular-36" d="M 1926 -83 
C 2656 -83 3277 531 3277 1440 
C 3277 2426 2765 2912 1971 2912 
C 1606 2912 1197 2701 909 2349 
C 934 3802 1466 4294 2118 4294 
C 2400 4294 2682 4154 2861 3936 
L 3194 4294 
C 2931 4576 2579 4774 2093 4774 
C 1184 4774 358 4077 358 2240 
C 358 691 1030 -83 1926 -83 
z
M 922 1882 
C 1229 2317 1587 2477 1875 2477 
C 2445 2477 2720 2074 2720 1440 
C 2720 800 2374 378 1926 378 
C 1338 378 986 909 922 1882 
z
" transform="scale(0.015625)"/>
      <path id="NotoSansCJKjp-Regular-34" d="M 2176 0 
L 2726 0 
L 2726 1293 
L 3354 1293 
L 3354 1760 
L 2726 1760 
L 2726 4691 
L 2080 4691 
L 128 1677 
L 128 1293 
L 2176 1293 
L 2176 0 
z
M 2176 1760 
L 736 1760 
L 1805 3360 
C 1939 3590 2067 3827 2182 4051 
L 2208 4051 
C 2195 3814 2176 3430 2176 3200 
L 2176 1760 
z
" transform="scale(0.015625)"/>
      <path id="NotoSansCJKjp-Regular-20" transform="scale(0.015625)"/>
      <path id="NotoSansCJKjp-Regular-d7" d="M 4954 346 
L 5261 653 
L 3514 2406 
L 5261 4160 
L 4954 4467 
L 3200 2714 
L 1453 4467 
L 1139 4154 
L 2893 2406 
L 1139 653 
L 1453 346 
L 3200 2099 
L 4954 346 
z
" transform="scale(0.015625)"/>
      <path id="NotoSansCJKjp-Regular-4b" d="M 646 0 
L 1235 0 
L 1235 1485 
L 2042 2445 
L 3450 0 
L 4109 0 
L 2413 2912 
L 3885 4691 
L 3213 4691 
L 1248 2336 
L 1235 2336 
L 1235 4691 
L 646 4691 
L 646 0 
z
" transform="scale(0.015625)"/>
     </defs>
     <use xlink:href="#NotoSansCJKjp-Regular-36"/>
     <use xlink:href="#NotoSansCJKjp-Regular-34" x="55.499985"/>
     <use xlink:href="#NotoSansCJKjp-Regular-20" x="110.999969"/>
     <use xlink:href="#NotoSansCJKjp-Regular-d7" x="133.399963"/>
     <use xlink:href="#NotoSansCJKjp-Regular-20" x="233.399948"/>
     <use xlink:href="#NotoSansCJKjp-Regular-4b" x="255.799942"/>
    </g>
   </g>
   <g id="text_5">
    <!-- B   (N, K) -->
    <g style="fill: #ffffff" transform="translate(94.09975 143.377343) scale(0.085 -0.085)">
     <defs>
      <path id="NotoSansCJKjp-Bold-42" d="M 582 0 
L 2272 0 
C 3315 0 4102 442 4102 1395 
C 4102 2029 3731 2394 3219 2515 
L 3219 2541 
C 3622 2688 3866 3130 3866 3571 
C 3866 4454 3123 4742 2150 4742 
L 582 4742 
L 582 0 
z
M 1530 2810 
L 1530 4013 
L 2093 4013 
C 2662 4013 2944 3846 2944 3430 
C 2944 3053 2688 2810 2086 2810 
L 1530 2810 
z
M 1530 730 
L 1530 2112 
L 2189 2112 
C 2842 2112 3181 1914 3181 1453 
C 3181 960 2829 730 2189 730 
L 1530 730 
z
" transform="scale(0.015625)"/>
      <path id="NotoSansCJKjp-Bold-4e" d="M 582 0 
L 1485 0 
L 1485 1901 
C 1485 2445 1402 3040 1363 3552 
L 1395 3552 
L 1875 2534 
L 3238 0 
L 4205 0 
L 4205 4742 
L 3309 4742 
L 3309 2848 
C 3309 2310 3386 1683 3437 1190 
L 3405 1190 
L 2925 2214 
L 1549 4742 
L 582 4742 
L 582 0 
z
" transform="scale(0.015625)"/>
     </defs>
     <use xlink:href="#NotoSansCJKjp-Bold-42"/>
     <use xlink:href="#NotoSansCJKjp-Bold-20" x="68.099991"/>
     <use xlink:href="#NotoSansCJKjp-Bold-20" x="90.799988"/>
     <use xlink:href="#NotoSansCJKjp-Bold-20" x="113.499985"/>
     <use xlink:href="#NotoSansCJKjp-Bold-28" x="136.199982"/>
     <use xlink:href="#NotoSansCJKjp-Bold-4e" x="173.999969"/>
     <use xlink:href="#NotoSansCJKjp-Bold-2c" x="248.899963"/>
     <use xlink:href="#NotoSansCJKjp-Bold-20" x="281.399948"/>
     <use xlink:href="#NotoSansCJKjp-Bold-4b" x="304.099945"/>
     <use xlink:href="#NotoSansCJKjp-Bold-29" x="372.699936"/>
    </g>
   </g>
   <g id="patch_14">
    <path d="M 208.404348 98.676 
Q 237.23511 98.676 264.053412 98.676 
" style="fill: none; stroke: #059669; stroke-width: 1.8; stroke-linecap: round"/>
    <path d="M 260.053412 96.676 
L 264.053412 98.676 
L 260.053412 100.676 
L 260.053412 96.676 
z
" style="fill: #059669; stroke: #059669; stroke-width: 1.8; stroke-linecap: round"/>
   </g>
   <g id="text_6">
    <!-- tcgen05 -->
    <g style="fill: #059669" transform="translate(224.197453 85.391724) scale(0.07 -0.07)">
     <defs>
      <path id="NotoSansCJKjp-Regular-74" d="M 1677 -83 
C 1894 -83 2125 -19 2323 45 
L 2208 486 
C 2093 435 1939 390 1811 390 
C 1408 390 1274 634 1274 1056 
L 1274 3002 
L 2221 3002 
L 2221 3475 
L 1274 3475 
L 1274 4454 
L 787 4454 
L 723 3475 
L 173 3443 
L 173 3002 
L 691 3002 
L 691 1075 
C 691 378 941 -83 1677 -83 
z
" transform="scale(0.015625)"/>
      <path id="NotoSansCJKjp-Regular-63" d="M 1958 -83 
C 2374 -83 2771 83 3085 352 
L 2829 749 
C 2611 557 2330 403 2010 403 
C 1370 403 934 934 934 1734 
C 934 2534 1395 3072 2029 3072 
C 2298 3072 2522 2950 2720 2771 
L 3014 3155 
C 2771 3373 2458 3565 2003 3565 
C 1107 3565 333 2893 333 1734 
C 333 582 1037 -83 1958 -83 
z
" transform="scale(0.015625)"/>
      <path id="NotoSansCJKjp-Regular-67" d="M 1760 -1600 
C 2835 -1600 3520 -1043 3520 -397 
C 3520 179 3110 429 2310 429 
L 1626 429 
C 1158 429 1018 589 1018 806 
C 1018 998 1114 1114 1242 1222 
C 1395 1146 1587 1101 1754 1101 
C 2470 1101 3027 1568 3027 2310 
C 3027 2611 2912 2867 2746 3027 
L 3456 3027 
L 3456 3475 
L 2246 3475 
C 2125 3526 1952 3565 1754 3565 
C 1056 3565 454 3085 454 2323 
C 454 1907 678 1568 909 1389 
L 909 1363 
C 723 1235 525 1005 525 717 
C 525 442 659 256 838 147 
L 838 115 
C 512 -83 326 -371 326 -672 
C 326 -1267 915 -1600 1760 -1600 
z
M 1754 1498 
C 1357 1498 1018 1818 1018 2323 
C 1018 2835 1350 3136 1754 3136 
C 2170 3136 2496 2835 2496 2323 
C 2496 1818 2157 1498 1754 1498 
z
M 1843 -1197 
C 1210 -1197 838 -960 838 -589 
C 838 -390 941 -179 1190 0 
C 1344 -38 1510 -51 1638 -51 
L 2240 -51 
C 2701 -51 2944 -166 2944 -493 
C 2944 -851 2515 -1197 1843 -1197 
z
" transform="scale(0.015625)"/>
      <path id="NotoSansCJKjp-Regular-65" d="M 1997 -83 
C 2464 -83 2835 70 3136 269 
L 2931 659 
C 2669 486 2400 384 2061 384 
C 1402 384 947 858 909 1600 
L 3251 1600 
C 3264 1690 3277 1805 3277 1933 
C 3277 2925 2778 3565 1888 3565 
C 1094 3565 333 2867 333 1734 
C 333 589 1069 -83 1997 -83 
z
M 902 2016 
C 973 2707 1408 3098 1901 3098 
C 2445 3098 2765 2720 2765 2016 
L 902 2016 
z
" transform="scale(0.015625)"/>
      <path id="NotoSansCJKjp-Regular-6e" d="M 589 0 
L 1178 0 
L 1178 2522 
C 1523 2874 1766 3053 2125 3053 
C 2586 3053 2784 2778 2784 2125 
L 2784 0 
L 3366 0 
L 3366 2202 
C 3366 3085 3034 3565 2304 3565 
C 1830 3565 1466 3302 1139 2970 
L 1126 2970 
L 1069 3475 
L 589 3475 
L 589 0 
z
" transform="scale(0.015625)"/>
      <path id="NotoSansCJKjp-Regular-30" d="M 1779 -83 
C 2669 -83 3238 723 3238 2362 
C 3238 3987 2669 4774 1779 4774 
C 883 4774 320 3987 320 2362 
C 320 723 883 -83 1779 -83 
z
M 1779 390 
C 1248 390 883 986 883 2362 
C 883 3731 1248 4314 1779 4314 
C 2310 4314 2675 3731 2675 2362 
C 2675 986 2310 390 1779 390 
z
" transform="scale(0.015625)"/>
      <path id="NotoSansCJKjp-Regular-35" d="M 1677 -83 
C 2464 -83 3213 499 3213 1523 
C 3213 2560 2573 3021 1798 3021 
C 1517 3021 1306 2950 1094 2835 
L 1216 4192 
L 2982 4192 
L 2982 4691 
L 704 4691 
L 550 2502 
L 864 2304 
C 1133 2483 1331 2579 1645 2579 
C 2234 2579 2618 2182 2618 1510 
C 2618 826 2176 403 1619 403 
C 1075 403 730 653 467 922 
L 173 538 
C 493 224 941 -83 1677 -83 
z
" transform="scale(0.015625)"/>
     </defs>
     <use xlink:href="#NotoSansCJKjp-Regular-74"/>
     <use xlink:href="#NotoSansCJKjp-Regular-63" x="37.699997"/>
     <use xlink:href="#NotoSansCJKjp-Regular-67" x="88.699982"/>
     <use xlink:href="#NotoSansCJKjp-Regular-65" x="145.099976"/>
     <use xlink:href="#NotoSansCJKjp-Regular-6e" x="200.499969"/>
     <use xlink:href="#NotoSansCJKjp-Regular-30" x="261.499954"/>
     <use xlink:href="#NotoSansCJKjp-Regular-35" x="316.999939"/>
    </g>
    <!-- MMA -->
    <g style="fill: #059669" transform="translate(229.423391 93.827599) scale(0.07 -0.07)">
     <defs>
      <path id="NotoSansCJKjp-Regular-4d" d="M 646 0 
L 1178 0 
L 1178 2598 
C 1178 3002 1139 3571 1101 3981 
L 1126 3981 
L 1504 2912 
L 2394 474 
L 2790 474 
L 3674 2912 
L 4051 3981 
L 4077 3981 
C 4045 3571 4000 3002 4000 2598 
L 4000 0 
L 4550 0 
L 4550 4691 
L 3840 4691 
L 2944 2182 
C 2835 1862 2739 1530 2618 1203 
L 2592 1203 
C 2477 1530 2374 1862 2253 2182 
L 1357 4691 
L 646 4691 
L 646 0 
z
" transform="scale(0.015625)"/>
      <path id="NotoSansCJKjp-Regular-41" d="M 26 0 
L 621 0 
L 1075 1434 
L 2790 1434 
L 3238 0 
L 3866 0 
L 2272 4691 
L 1613 4691 
L 26 0 
z
M 1222 1901 
L 1453 2624 
C 1619 3155 1773 3661 1920 4211 
L 1946 4211 
C 2099 3667 2246 3155 2419 2624 
L 2643 1901 
L 1222 1901 
z
" transform="scale(0.015625)"/>
     </defs>
     <use xlink:href="#NotoSansCJKjp-Regular-4d"/>
     <use xlink:href="#NotoSansCJKjp-Regular-4d" x="81.199982"/>
     <use xlink:href="#NotoSansCJKjp-Regular-41" x="162.399963"/>
    </g>
   </g>
   <g id="text_7">
    <!-- TMEM (1 CTA) -->
    <g style="fill: #334155" transform="translate(294.1515 37.909664) scale(0.08 -0.08)">
     <use xlink:href="#NotoSansCJKjp-Bold-54"/>
     <use xlink:href="#NotoSansCJKjp-Bold-4d" x="62.499985"/>
     <use xlink:href="#NotoSansCJKjp-Bold-45" x="147.799973"/>
     <use xlink:href="#NotoSansCJKjp-Bold-4d" x="209.299957"/>
     <use xlink:href="#NotoSansCJKjp-Bold-20" x="294.599945"/>
     <use xlink:href="#NotoSansCJKjp-Bold-28" x="317.299942"/>
     <use xlink:href="#NotoSansCJKjp-Bold-31" x="355.09993"/>
     <use xlink:href="#NotoSansCJKjp-Bold-20" x="414.099915"/>
     <use xlink:href="#NotoSansCJKjp-Bold-43" x="436.799911"/>
     <use xlink:href="#NotoSansCJKjp-Bold-54" x="502.399902"/>
     <use xlink:href="#NotoSansCJKjp-Bold-41" x="564.899887"/>
     <use xlink:href="#NotoSansCJKjp-Bold-29" x="628.999878"/>
    </g>
   </g>
   <g id="text_8">
    <!-- 行 0-15 -->
    <g style="fill: #ffffff" transform="translate(364.527633 54.529539) scale(0.075 -0.075)">
     <defs>
      <path id="NotoSansCJKjp-Bold-884c" d="M 2861 5075 
L 2861 4339 
L 5984 4339 
L 5984 5075 
L 2861 5075 
z
M 1626 5440 
C 1318 4992 698 4410 166 4070 
C 301 3917 499 3610 595 3437 
C 1210 3866 1901 4525 2368 5133 
L 1626 5440 
z
M 2586 3296 
L 2586 2566 
L 4480 2566 
L 4480 333 
C 4480 237 4442 211 4326 211 
C 4211 205 3782 205 3418 224 
C 3520 0 3622 -333 3654 -557 
C 4224 -557 4634 -544 4909 -429 
C 5190 -314 5267 -96 5267 314 
L 5267 2566 
L 6150 2566 
L 6150 3296 
L 2586 3296 
z
M 1869 4045 
C 1453 3315 749 2573 96 2118 
C 250 1958 512 1613 621 1453 
C 794 1594 966 1754 1146 1926 
L 1146 -582 
L 1914 -582 
L 1914 2784 
C 2170 3104 2406 3437 2598 3763 
L 1869 4045 
z
" transform="scale(0.015625)"/>
      <path id="NotoSansCJKjp-Bold-30" d="M 1888 -90 
C 2854 -90 3494 755 3494 2394 
C 3494 4019 2854 4826 1888 4826 
C 922 4826 282 4026 282 2394 
C 282 755 922 -90 1888 -90 
z
M 1888 646 
C 1478 646 1171 1056 1171 2394 
C 1171 3712 1478 4102 1888 4102 
C 2298 4102 2598 3712 2598 2394 
C 2598 1056 2298 646 1888 646 
z
" transform="scale(0.015625)"/>
      <path id="NotoSansCJKjp-Bold-2d" d="M 314 1491 
L 2061 1491 
L 2061 2170 
L 314 2170 
L 314 1491 
z
" transform="scale(0.015625)"/>
      <path id="NotoSansCJKjp-Bold-35" d="M 1773 -90 
C 2637 -90 3424 518 3424 1574 
C 3424 2605 2765 3072 1965 3072 
C 1747 3072 1581 3034 1395 2944 
L 1485 3949 
L 3206 3949 
L 3206 4742 
L 672 4742 
L 544 2438 
L 973 2163 
C 1254 2342 1408 2406 1683 2406 
C 2157 2406 2483 2099 2483 1549 
C 2483 992 2138 678 1645 678 
C 1210 678 870 896 602 1158 
L 166 557 
C 525 205 1018 -90 1773 -90 
z
" transform="scale(0.015625)"/>
     </defs>
     <use xlink:href="#NotoSansCJKjp-Bold-884c"/>
     <use xlink:href="#NotoSansCJKjp-Bold-20" x="99.999985"/>
     <use xlink:href="#NotoSansCJKjp-Bold-30" x="122.699982"/>
     <use xlink:href="#NotoSansCJKjp-Bold-2d" x="181.699966"/>
     <use xlink:href="#NotoSansCJKjp-Bold-31" x="218.699951"/>
     <use xlink:href="#NotoSansCJKjp-Bold-35" x="277.699936"/>
    </g>
   </g>
   <g id="text_9">
    <!-- 行 16-31 -->
    <g style="fill: #ffffff" transform="translate(362.315133 86.546139) scale(0.075 -0.075)">
     <defs>
      <path id="NotoSansCJKjp-Bold-33" d="M 1747 -90 
C 2656 -90 3418 410 3418 1280 
C 3418 1907 3008 2304 2477 2451 
L 2477 2483 
C 2976 2682 3264 3053 3264 3565 
C 3264 4378 2643 4826 1728 4826 
C 1171 4826 717 4602 307 4250 
L 794 3667 
C 1069 3930 1344 4083 1683 4083 
C 2086 4083 2317 3866 2317 3494 
C 2317 3066 2035 2771 1171 2771 
L 1171 2093 
C 2195 2093 2470 1805 2470 1338 
C 2470 915 2144 678 1664 678 
C 1229 678 890 890 608 1165 
L 166 570 
C 499 192 1005 -90 1747 -90 
z
" transform="scale(0.015625)"/>
     </defs>
     <use xlink:href="#NotoSansCJKjp-Bold-884c"/>
     <use xlink:href="#NotoSansCJKjp-Bold-20" x="99.999985"/>
     <use xlink:href="#NotoSansCJKjp-Bold-31" x="122.699982"/>
     <use xlink:href="#NotoSansCJKjp-Bold-36" x="181.699966"/>
     <use xlink:href="#NotoSansCJKjp-Bold-2d" x="240.699951"/>
     <use xlink:href="#NotoSansCJKjp-Bold-33" x="277.699936"/>
     <use xlink:href="#NotoSansCJKjp-Bold-31" x="336.699921"/>
    </g>
   </g>
   <g id="text_10">
    <!-- 行 32-47 -->
    <g style="fill: #ffffff" transform="translate(362.315133 118.562739) scale(0.075 -0.075)">
     <defs>
      <path id="NotoSansCJKjp-Bold-32" d="M 275 0 
L 3450 0 
L 3450 794 
L 2426 794 
C 2202 794 1888 768 1645 736 
C 2509 1587 3226 2509 3226 3366 
C 3226 4250 2630 4826 1734 4826 
C 1088 4826 666 4576 224 4102 
L 749 3597 
C 986 3859 1267 4083 1613 4083 
C 2067 4083 2323 3789 2323 3322 
C 2323 2586 1568 1696 275 544 
L 275 0 
z
" transform="scale(0.015625)"/>
      <path id="NotoSansCJKjp-Bold-37" d="M 1190 0 
L 2138 0 
C 2221 1850 2368 2822 3469 4166 
L 3469 4742 
L 320 4742 
L 320 3949 
L 2451 3949 
C 1549 2694 1274 1645 1190 0 
z
" transform="scale(0.015625)"/>
     </defs>
     <use xlink:href="#NotoSansCJKjp-Bold-884c"/>
     <use xlink:href="#NotoSansCJKjp-Bold-20" x="99.999985"/>
     <use xlink:href="#NotoSansCJKjp-Bold-33" x="122.699982"/>
     <use xlink:href="#NotoSansCJKjp-Bold-32" x="181.699966"/>
     <use xlink:href="#NotoSansCJKjp-Bold-2d" x="240.699951"/>
     <use xlink:href="#NotoSansCJKjp-Bold-34" x="277.699936"/>
     <use xlink:href="#NotoSansCJKjp-Bold-37" x="336.699921"/>
    </g>
   </g>
   <g id="text_11">
    <!-- 行 48-63 -->
    <g style="fill: #ffffff" transform="translate(362.315133 150.579339) scale(0.075 -0.075)">
     <defs>
      <path id="NotoSansCJKjp-Bold-38" d="M 1888 -90 
C 2842 -90 3482 461 3482 1178 
C 3482 1824 3123 2208 2682 2445 
L 2682 2477 
C 2989 2701 3290 3091 3290 3558 
C 3290 4314 2752 4819 1914 4819 
C 1088 4819 486 4333 486 3565 
C 486 3066 749 2707 1114 2445 
L 1114 2413 
C 672 2182 301 1786 301 1178 
C 301 435 973 -90 1888 -90 
z
M 2182 2707 
C 1690 2906 1318 3123 1318 3565 
C 1318 3949 1574 4160 1894 4160 
C 2291 4160 2522 3885 2522 3501 
C 2522 3219 2413 2944 2182 2707 
z
M 1907 576 
C 1466 576 1114 851 1114 1280 
C 1114 1638 1293 1952 1549 2163 
C 2163 1901 2605 1702 2605 1210 
C 2605 800 2310 576 1907 576 
z
" transform="scale(0.015625)"/>
     </defs>
     <use xlink:href="#NotoSansCJKjp-Bold-884c"/>
     <use xlink:href="#NotoSansCJKjp-Bold-20" x="99.999985"/>
     <use xlink:href="#NotoSansCJKjp-Bold-34" x="122.699982"/>
     <use xlink:href="#NotoSansCJKjp-Bold-38" x="181.699966"/>
     <use xlink:href="#NotoSansCJKjp-Bold-2d" x="240.699951"/>
     <use xlink:href="#NotoSansCJKjp-Bold-36" x="277.699936"/>
     <use xlink:href="#NotoSansCJKjp-Bold-33" x="336.699921"/>
    </g>
   </g>
   <g id="text_12">
    <!-- C (M, N):未使用的 Lane 带可容纳另一个对齐的 M=64 分块 -->
    <g style="fill: #334155" transform="translate(293.016375 170.94204) scale(0.066 -0.066)">
     <defs>
      <path id="NotoSansCJKjp-Regular-43" d="M 2413 -83 
C 3021 -83 3482 160 3853 589 
L 3526 966 
C 3226 634 2886 435 2438 435 
C 1542 435 979 1178 979 2362 
C 979 3533 1574 4256 2458 4256 
C 2861 4256 3168 4077 3418 3814 
L 3738 4198 
C 3469 4499 3021 4774 2451 4774 
C 1261 4774 371 3859 371 2342 
C 371 819 1242 -83 2413 -83 
z
" transform="scale(0.015625)"/>
      <path id="NotoSansCJKjp-Regular-28" d="M 1530 -1254 
L 1888 -1094 
C 1338 -186 1075 902 1075 1990 
C 1075 3072 1338 4154 1888 5069 
L 1530 5235 
C 941 4275 589 3245 589 1990 
C 589 730 941 -301 1530 -1254 
z
" transform="scale(0.015625)"/>
      <path id="NotoSansCJKjp-Regular-2c" d="M 480 -1216 
C 1056 -973 1414 -493 1414 122 
C 1414 550 1229 806 922 806 
C 685 806 480 653 480 397 
C 480 141 678 -13 909 -13 
L 979 -6 
C 973 -390 736 -698 339 -870 
L 480 -1216 
z
" transform="scale(0.015625)"/>
      <path id="NotoSansCJKjp-Regular-4e" d="M 646 0 
L 1203 0 
L 1203 2464 
C 1203 2957 1158 3456 1133 3930 
L 1158 3930 
L 1664 2963 
L 3373 0 
L 3981 0 
L 3981 4691 
L 3418 4691 
L 3418 2253 
C 3418 1766 3462 1235 3501 768 
L 3469 768 
L 2963 1734 
L 1248 4691 
L 646 4691 
L 646 0 
z
" transform="scale(0.015625)"/>
      <path id="NotoSansCJKjp-Regular-29" d="M 634 -1254 
C 1222 -301 1574 730 1574 1990 
C 1574 3245 1222 4275 634 5235 
L 269 5069 
C 819 4154 1094 3072 1094 1990 
C 1094 902 819 -186 269 -1094 
L 634 -1254 
z
" transform="scale(0.015625)"/>
      <path id="NotoSansCJKjp-Regular-3a" d="M 890 2496 
C 1120 2496 1312 2675 1312 2944 
C 1312 3206 1120 3392 890 3392 
C 653 3392 467 3206 467 2944 
C 467 2675 653 2496 890 2496 
z
M 890 -83 
C 1120 -83 1312 96 1312 358 
C 1312 627 1120 806 890 806 
C 653 806 467 627 467 358 
C 467 96 653 -83 890 -83 
z
" transform="scale(0.015625)"/>
      <path id="NotoSansCJKjp-Regular-672a" d="M 2938 5370 
L 2938 4326 
L 851 4326 
L 851 3853 
L 2938 3853 
L 2938 2746 
L 397 2746 
L 397 2272 
L 2662 2272 
C 2086 1446 1114 646 218 250 
C 326 154 486 -32 570 -154 
C 1414 282 2317 1043 2938 1894 
L 2938 -512 
L 3443 -512 
L 3443 1920 
C 4070 1062 4979 269 5830 -160 
C 5914 -32 6074 160 6182 256 
C 5286 646 4307 1446 3718 2272 
L 6029 2272 
L 6029 2746 
L 3443 2746 
L 3443 3853 
L 5594 3853 
L 5594 4326 
L 3443 4326 
L 3443 5370 
L 2938 5370 
z
" transform="scale(0.015625)"/>
      <path id="NotoSansCJKjp-Regular-4f7f" d="M 3834 5350 
L 3834 4666 
L 2054 4666 
L 2054 4224 
L 3834 4224 
L 3834 3597 
L 2240 3597 
L 2240 1824 
L 3802 1824 
C 3757 1472 3661 1139 3456 838 
C 3117 1075 2842 1363 2643 1696 
L 2240 1562 
C 2477 1152 2790 806 3168 518 
C 2874 250 2438 26 1818 -134 
C 1920 -237 2054 -422 2112 -531 
C 2778 -333 3238 -64 3565 250 
C 4211 -141 5018 -397 5933 -525 
C 5997 -384 6118 -198 6221 -90 
C 5299 13 4493 237 3846 589 
C 4102 966 4218 1382 4269 1824 
L 5946 1824 
L 5946 3597 
L 4301 3597 
L 4301 4224 
L 6157 4224 
L 6157 4666 
L 4301 4666 
L 4301 5350 
L 3834 5350 
z
M 2688 3194 
L 3834 3194 
L 3834 2522 
L 3827 2234 
L 2688 2234 
L 2688 3194 
z
M 4301 3194 
L 5485 3194 
L 5485 2234 
L 4294 2234 
L 4301 2522 
L 4301 3194 
z
M 1779 5389 
C 1402 4416 781 3469 134 2854 
C 218 2739 352 2490 403 2381 
C 646 2624 883 2906 1107 3219 
L 1107 -538 
L 1568 -538 
L 1568 3917 
C 1818 4346 2048 4794 2227 5248 
L 1779 5389 
z
" transform="scale(0.015625)"/>
      <path id="NotoSansCJKjp-Regular-7528" d="M 979 4928 
L 979 2605 
C 979 1702 915 570 205 -230 
C 314 -288 506 -448 576 -544 
C 1069 0 1286 736 1382 1453 
L 2989 1453 
L 2989 -454 
L 3475 -454 
L 3475 1453 
L 5203 1453 
L 5203 141 
C 5203 26 5158 -13 5030 -19 
C 4909 -26 4474 -32 4026 -13 
C 4090 -141 4166 -352 4192 -474 
C 4794 -480 5165 -474 5382 -397 
C 5600 -320 5677 -173 5677 141 
L 5677 4928 
L 979 4928 
z
M 1453 4467 
L 2989 4467 
L 2989 3437 
L 1453 3437 
L 1453 4467 
z
M 5203 4467 
L 5203 3437 
L 3475 3437 
L 3475 4467 
L 5203 4467 
z
M 1453 2982 
L 2989 2982 
L 2989 1907 
L 1427 1907 
C 1446 2150 1453 2387 1453 2605 
L 1453 2982 
z
M 5203 2982 
L 5203 1907 
L 3475 1907 
L 3475 2982 
L 5203 2982 
z
" transform="scale(0.015625)"/>
      <path id="NotoSansCJKjp-Regular-7684" d="M 3533 2707 
C 3885 2240 4320 1600 4512 1210 
L 4922 1466 
C 4710 1843 4269 2464 3904 2918 
L 3533 2707 
z
M 1536 5389 
C 1485 5082 1376 4659 1274 4346 
L 557 4346 
L 557 -346 
L 998 -346 
L 998 160 
L 2784 160 
L 2784 4346 
L 1715 4346 
C 1824 4621 1946 4979 2054 5299 
L 1536 5389 
z
M 998 3917 
L 2342 3917 
L 2342 2566 
L 998 2566 
L 998 3917 
z
M 998 595 
L 998 2144 
L 2342 2144 
L 2342 595 
L 998 595 
z
M 3827 5402 
C 3622 4518 3277 3635 2835 3066 
C 2950 3002 3149 2867 3238 2790 
C 3456 3098 3661 3488 3840 3923 
L 5478 3923 
C 5402 1357 5299 371 5094 154 
C 5018 64 4947 45 4819 45 
C 4672 45 4288 51 3866 83 
C 3955 -38 4013 -243 4026 -378 
C 4384 -397 4762 -410 4979 -390 
C 5210 -365 5350 -314 5498 -122 
C 5754 192 5843 1184 5939 4122 
C 5946 4186 5946 4365 5946 4365 
L 4013 4365 
C 4115 4666 4211 4986 4288 5299 
L 3827 5402 
z
" transform="scale(0.015625)"/>
      <path id="NotoSansCJKjp-Regular-4c" d="M 646 0 
L 3290 0 
L 3290 506 
L 1235 506 
L 1235 4691 
L 646 4691 
L 646 0 
z
" transform="scale(0.015625)"/>
      <path id="NotoSansCJKjp-Regular-61" d="M 1389 -83 
C 1818 -83 2208 141 2541 416 
L 2560 416 
L 2611 0 
L 3091 0 
L 3091 2138 
C 3091 3002 2739 3565 1888 3565 
C 1325 3565 838 3315 525 3110 
L 749 2707 
C 1024 2893 1389 3078 1792 3078 
C 2362 3078 2509 2650 2509 2202 
C 1030 2035 378 1658 378 902 
C 378 275 806 -83 1389 -83 
z
M 1555 390 
C 1210 390 941 544 941 941 
C 941 1389 1338 1677 2509 1811 
L 2509 845 
C 2170 544 1888 390 1555 390 
z
" transform="scale(0.015625)"/>
      <path id="NotoSansCJKjp-Regular-5e26" d="M 499 3226 
L 499 1926 
L 966 1926 
L 966 2810 
L 2931 2810 
L 2931 2086 
L 1197 2086 
L 1197 64 
L 1677 64 
L 1677 1658 
L 2931 1658 
L 2931 -512 
L 3424 -512 
L 3424 1658 
L 4826 1658 
L 4826 582 
C 4826 506 4800 486 4717 480 
C 4627 480 4346 474 4006 486 
C 4077 365 4141 192 4166 64 
C 4602 64 4896 64 5075 141 
C 5261 205 5312 333 5312 576 
L 5312 2086 
L 3424 2086 
L 3424 2810 
L 5421 2810 
L 5421 1926 
L 5914 1926 
L 5914 3226 
L 499 3226 
z
M 4582 5344 
L 4582 4614 
L 3424 4614 
L 3424 5344 
L 2944 5344 
L 2944 4614 
L 1850 4614 
L 1850 5344 
L 1370 5344 
L 1370 4614 
L 326 4614 
L 326 4192 
L 1370 4192 
L 1370 3539 
L 1850 3539 
L 1850 4192 
L 2944 4192 
L 2944 3552 
L 3424 3552 
L 3424 4192 
L 4582 4192 
L 4582 3520 
L 5056 3520 
L 5056 4192 
L 6086 4192 
L 6086 4614 
L 5056 4614 
L 5056 5344 
L 4582 5344 
z
" transform="scale(0.015625)"/>
      <path id="NotoSansCJKjp-Regular-53ef" d="M 358 4922 
L 358 4442 
L 4781 4442 
L 4781 186 
C 4781 51 4736 13 4595 0 
C 4442 0 3917 -6 3405 19 
C 3482 -122 3571 -358 3603 -499 
C 4237 -499 4685 -499 4941 -416 
C 5190 -333 5280 -166 5280 179 
L 5280 4442 
L 6067 4442 
L 6067 4922 
L 358 4922 
z
M 1478 3040 
L 3162 3040 
L 3162 1568 
L 1478 1568 
L 1478 3040 
z
M 1011 3501 
L 1011 595 
L 1478 595 
L 1478 1107 
L 3635 1107 
L 3635 3501 
L 1011 3501 
z
" transform="scale(0.015625)"/>
      <path id="NotoSansCJKjp-Regular-5bb9" d="M 2118 4045 
C 1754 3578 1158 3123 576 2835 
C 678 2746 851 2554 922 2458 
C 1510 2797 2163 3334 2586 3891 
L 2118 4045 
z
M 3757 3770 
C 4346 3405 5069 2854 5414 2490 
L 5766 2816 
C 5408 3174 4666 3706 4083 4051 
L 3757 3770 
z
M 4979 1421 
C 5286 1229 5594 1056 5888 915 
C 5965 1050 6080 1229 6189 1350 
C 5203 1747 4102 2509 3424 3328 
L 2938 3328 
C 2432 2605 1376 1747 288 1261 
C 384 1152 506 973 563 858 
C 858 1005 1158 1171 1440 1350 
L 1440 -518 
L 1901 -518 
L 1901 -301 
L 4493 -301 
L 4493 -493 
L 4979 -493 
L 4979 1421 
z
M 3206 2886 
C 3552 2470 4083 2022 4653 1632 
L 1850 1632 
C 2413 2042 2899 2490 3206 2886 
z
M 1901 128 
L 1901 1203 
L 4493 1203 
L 4493 128 
L 1901 128 
z
M 531 4787 
L 531 3622 
L 998 3622 
L 998 4346 
L 5382 4346 
L 5382 3622 
L 5875 3622 
L 5875 4787 
L 3430 4787 
L 3430 5376 
L 2938 5376 
L 2938 4787 
L 531 4787 
z
" transform="scale(0.015625)"/>
      <path id="NotoSansCJKjp-Regular-7eb3" d="M 269 339 
L 358 -115 
C 941 38 1722 224 2464 416 
L 2426 819 
C 1619 634 806 448 269 339 
z
M 4070 5370 
L 4070 4525 
L 4058 3962 
L 2637 3962 
L 2637 -506 
L 3085 -506 
L 3085 1056 
C 3200 992 3341 890 3418 806 
C 3834 1274 4096 1792 4262 2317 
C 4570 1811 4877 1267 5037 909 
L 5440 1152 
C 5235 1594 4787 2310 4403 2886 
C 4442 3098 4474 3309 4493 3520 
L 5440 3520 
L 5440 102 
C 5440 13 5408 -19 5312 -19 
C 5210 -26 4858 -32 4486 -19 
C 4550 -141 4614 -346 4634 -474 
C 5139 -474 5453 -467 5645 -397 
C 5830 -314 5894 -166 5894 102 
L 5894 3962 
L 4518 3962 
L 4531 4518 
L 4531 5370 
L 4070 5370 
z
M 3085 1165 
L 3085 3520 
L 4026 3520 
C 3942 2733 3712 1894 3085 1165 
z
M 384 2707 
C 480 2752 634 2790 1440 2899 
C 1152 2470 890 2131 774 2003 
C 570 1760 422 1600 288 1574 
C 339 1466 410 1254 429 1165 
C 557 1242 774 1306 2387 1626 
C 2381 1722 2381 1894 2394 2016 
L 1069 1773 
C 1568 2355 2067 3072 2483 3795 
L 2112 4019 
C 1990 3776 1850 3539 1709 3309 
L 851 3213 
C 1235 3776 1606 4499 1888 5184 
L 1466 5376 
C 1210 4602 742 3757 602 3539 
C 461 3315 352 3162 243 3136 
C 294 3021 365 2797 384 2707 
z
" transform="scale(0.015625)"/>
      <path id="NotoSansCJKjp-Regular-53e6" d="M 1517 4621 
L 4896 4621 
L 4896 3226 
L 1517 3226 
L 1517 4621 
z
M 1043 5075 
L 1043 2765 
L 2842 2765 
C 2822 2541 2790 2323 2752 2118 
L 461 2118 
L 461 1677 
L 2637 1677 
C 2368 864 1786 243 320 -90 
C 422 -192 544 -390 595 -512 
C 2240 -109 2874 666 3162 1677 
L 5120 1677 
C 5043 595 4960 141 4819 13 
C 4755 -51 4685 -58 4550 -58 
C 4403 -58 4000 -51 3590 -19 
C 3680 -147 3744 -346 3757 -486 
C 4154 -512 4550 -512 4749 -499 
C 4973 -486 5114 -442 5248 -307 
C 5446 -96 5542 474 5638 1894 
C 5645 1965 5658 2118 5658 2118 
L 3258 2118 
C 3296 2323 3328 2541 3347 2765 
L 5395 2765 
L 5395 5075 
L 1043 5075 
z
" transform="scale(0.015625)"/>
      <path id="NotoSansCJKjp-Regular-4e00" d="M 282 2758 
L 282 2234 
L 6144 2234 
L 6144 2758 
L 282 2758 
z
" transform="scale(0.015625)"/>
      <path id="NotoSansCJKjp-Regular-4e2a" d="M 3174 4858 
C 3770 4026 4941 3014 5990 2406 
C 6080 2554 6189 2720 6317 2842 
C 5261 3373 4090 4365 3398 5357 
L 2893 5357 
C 2387 4493 1274 3411 115 2758 
C 224 2656 358 2483 422 2368 
C 1562 3040 2650 4051 3174 4858 
z
M 2925 3264 
L 2925 -512 
L 3430 -512 
L 3430 3264 
L 2925 3264 
z
" transform="scale(0.015625)"/>
      <path id="NotoSansCJKjp-Regular-5bf9" d="M 3213 2522 
C 3514 2067 3802 1459 3904 1075 
L 4326 1286 
C 4224 1670 3917 2259 3603 2701 
L 3213 2522 
z
M 582 2899 
C 973 2547 1389 2131 1760 1709 
C 1376 890 870 269 288 -109 
C 403 -205 550 -384 627 -499 
C 1216 -77 1715 512 2106 1299 
C 2394 941 2630 602 2784 314 
L 3168 666 
C 2982 998 2682 1395 2330 1798 
C 2624 2534 2835 3411 2944 4448 
L 2630 4538 
L 2547 4518 
L 448 4518 
L 448 4064 
L 2419 4064 
C 2323 3373 2170 2752 1965 2202 
C 1626 2554 1267 2899 922 3200 
L 582 2899 
z
M 4896 5376 
L 4896 3834 
L 3085 3834 
L 3085 3373 
L 4896 3373 
L 4896 141 
C 4896 26 4851 -6 4742 -13 
C 4634 -13 4275 -19 3872 0 
C 3936 -147 4006 -371 4032 -506 
C 4576 -506 4902 -493 5094 -410 
C 5293 -326 5370 -179 5370 141 
L 5370 3373 
L 6138 3373 
L 6138 3834 
L 5370 3834 
L 5370 5376 
L 4896 5376 
z
" transform="scale(0.015625)"/>
      <path id="NotoSansCJKjp-Regular-9f50" d="M 4333 2214 
L 4333 -506 
L 4826 -506 
L 4826 2214 
L 4333 2214 
z
M 1664 2214 
L 1664 1510 
C 1664 928 1555 275 563 -211 
C 691 -288 890 -442 979 -544 
C 2035 6 2157 781 2157 1498 
L 2157 2214 
L 1664 2214 
z
M 4358 4352 
C 4090 3936 3712 3597 3251 3322 
C 2746 3603 2330 3949 2016 4352 
L 4358 4352 
z
M 2925 5382 
L 2925 4762 
L 378 4762 
L 378 4352 
L 1510 4352 
C 1843 3846 2278 3430 2803 3091 
C 2080 2758 1203 2547 250 2419 
C 346 2310 480 2099 531 1984 
C 1542 2157 2483 2413 3264 2822 
C 4006 2432 4896 2176 5894 2042 
C 5958 2176 6080 2374 6182 2477 
C 5261 2579 4429 2784 3725 3091 
C 4218 3424 4634 3834 4928 4352 
L 6035 4352 
L 6035 4762 
L 3443 4762 
L 3443 5382 
L 2925 5382 
z
" transform="scale(0.015625)"/>
      <path id="NotoSansCJKjp-Regular-3d" d="M 243 2912 
L 3315 2912 
L 3315 3347 
L 243 3347 
L 243 2912 
z
M 243 1376 
L 3315 1376 
L 3315 1811 
L 243 1811 
L 243 1376 
z
" transform="scale(0.015625)"/>
      <path id="NotoSansCJKjp-Regular-5206" d="M 2074 5248 
C 1677 4256 966 3373 147 2829 
C 262 2739 474 2554 563 2451 
C 1363 3059 2118 4019 2586 5101 
L 2074 5248 
z
M 4307 5261 
L 3846 5075 
C 4326 4122 5139 3085 5850 2509 
C 5939 2643 6118 2829 6253 2931 
C 5549 3424 4723 4397 4307 5261 
z
M 1197 2957 
L 1197 2490 
L 2509 2490 
C 2368 1402 2010 378 486 -122 
C 595 -224 736 -416 800 -544 
C 2445 51 2854 1216 3027 2490 
L 4685 2490 
C 4608 864 4512 224 4346 58 
C 4282 -6 4205 -26 4077 -26 
C 3923 -26 3533 -19 3110 19 
C 3200 -115 3258 -320 3270 -461 
C 3674 -486 4070 -493 4288 -474 
C 4506 -454 4653 -410 4781 -243 
C 5005 0 5094 736 5190 2726 
C 5197 2790 5197 2957 5197 2957 
L 1197 2957 
z
" transform="scale(0.015625)"/>
      <path id="NotoSansCJKjp-Regular-5757" d="M 5178 2426 
L 4173 2426 
C 4192 2656 4198 2893 4198 3123 
L 4198 3840 
L 5178 3840 
L 5178 2426 
z
M 3731 5306 
L 3731 4294 
L 2573 4294 
L 2573 3840 
L 3731 3840 
L 3731 3130 
C 3731 2893 3725 2656 3699 2426 
L 2381 2426 
L 2381 1971 
L 3635 1971 
C 3462 1158 3008 403 1850 -160 
C 1958 -243 2112 -416 2176 -525 
C 3386 77 3878 890 4077 1773 
C 4410 704 4979 -102 5862 -525 
C 5933 -390 6086 -198 6195 -102 
C 5331 256 4762 1005 4461 1971 
L 6080 1971 
L 6080 2426 
L 5632 2426 
L 5632 4294 
L 4198 4294 
L 4198 5306 
L 3731 5306 
z
M 230 1043 
L 422 563 
C 979 806 1696 1133 2374 1446 
L 2266 1875 
L 1562 1574 
L 1562 3379 
L 2266 3379 
L 2266 3834 
L 1562 3834 
L 1562 5299 
L 1107 5299 
L 1107 3834 
L 333 3834 
L 333 3379 
L 1107 3379 
L 1107 1389 
C 774 1254 474 1133 230 1043 
z
" transform="scale(0.015625)"/>
     </defs>
     <use xlink:href="#NotoSansCJKjp-Regular-43"/>
     <use xlink:href="#NotoSansCJKjp-Regular-20" x="63.799988"/>
     <use xlink:href="#NotoSansCJKjp-Regular-28" x="86.199982"/>
     <use xlink:href="#NotoSansCJKjp-Regular-4d" x="119.999969"/>
     <use xlink:href="#NotoSansCJKjp-Regular-2c" x="201.199951"/>
     <use xlink:href="#NotoSansCJKjp-Regular-20" x="228.999939"/>
     <use xlink:href="#NotoSansCJKjp-Regular-4e" x="251.399933"/>
     <use xlink:href="#NotoSansCJKjp-Regular-29" x="323.699921"/>
     <use xlink:href="#NotoSansCJKjp-Regular-3a" x="357.499908"/>
     <use xlink:href="#NotoSansCJKjp-Regular-672a" x="385.299896"/>
     <use xlink:href="#NotoSansCJKjp-Regular-4f7f" x="485.299881"/>
     <use xlink:href="#NotoSansCJKjp-Regular-7528" x="585.299866"/>
     <use xlink:href="#NotoSansCJKjp-Regular-7684" x="685.29985"/>
     <use xlink:href="#NotoSansCJKjp-Regular-20" x="785.299835"/>
     <use xlink:href="#NotoSansCJKjp-Regular-4c" x="807.699829"/>
     <use xlink:href="#NotoSansCJKjp-Regular-61" x="861.999817"/>
     <use xlink:href="#NotoSansCJKjp-Regular-6e" x="918.299805"/>
     <use xlink:href="#NotoSansCJKjp-Regular-65" x="979.299789"/>
     <use xlink:href="#NotoSansCJKjp-Regular-20" x="1034.699783"/>
     <use xlink:href="#NotoSansCJKjp-Regular-5e26" x="1057.099777"/>
     <use xlink:href="#NotoSansCJKjp-Regular-53ef" x="1157.099762"/>
     <use xlink:href="#NotoSansCJKjp-Regular-5bb9" x="1257.099747"/>
     <use xlink:href="#NotoSansCJKjp-Regular-7eb3" x="1357.099731"/>
     <use xlink:href="#NotoSansCJKjp-Regular-53e6" x="1457.099716"/>
     <use xlink:href="#NotoSansCJKjp-Regular-4e00" x="1557.099701"/>
     <use xlink:href="#NotoSansCJKjp-Regular-4e2a" x="1657.099686"/>
     <use xlink:href="#NotoSansCJKjp-Regular-5bf9" x="1757.09967"/>
     <use xlink:href="#NotoSansCJKjp-Regular-9f50" x="1857.099655"/>
     <use xlink:href="#NotoSansCJKjp-Regular-7684" x="1957.09964"/>
     <use xlink:href="#NotoSansCJKjp-Regular-20" x="2057.099625"/>
     <use xlink:href="#NotoSansCJKjp-Regular-4d" x="2079.499619"/>
     <use xlink:href="#NotoSansCJKjp-Regular-3d" x="2160.6996"/>
     <use xlink:href="#NotoSansCJKjp-Regular-36" x="2216.199585"/>
     <use xlink:href="#NotoSansCJKjp-Regular-34" x="2271.69957"/>
     <use xlink:href="#NotoSansCJKjp-Regular-20" x="2327.199554"/>
     <use xlink:href="#NotoSansCJKjp-Regular-5206" x="2349.599548"/>
     <use xlink:href="#NotoSansCJKjp-Regular-5757" x="2449.599533"/>
    </g>
   </g>
  </g>
 </g>
 <defs>
  <clipPath id="pbe0fedeb6e">
   <rect x="7.2" y="7.2" width="474.3" height="182.952"/>
  </clipPath>
 </defs>
 <defs>
  <pattern id="hacd2413309" patternUnits="userSpaceOnUse" x="0" y="0" width="72" height="72">
   <rect x="0" y="0" width="73" height="73" fill="#cbd5e1"/>
   <path d="M -36 36 
L 36 -36 
M -30 42 
L 42 -30 
M -24 48 
L 48 -24 
M -18 54 
L 54 -18 
M -12 60 
L 60 -12 
M -6 66 
L 66 -6 
M 0 72 
L 72 0 
M 6 78 
L 78 6 
M 12 84 
L 84 12 
M 18 90 
L 90 18 
M 24 96 
L 96 24 
M 30 102 
L 102 30 
M 36 108 
L 108 36 
" style="fill: #ffffff; stroke: #ffffff; stroke-width: 1.0; stroke-linecap: butt; stroke-linejoin: miter; stroke-opacity: 0.6"/>
  </pattern>
 </defs>
</svg>
