<?xml version="1.0" encoding="utf-8" standalone="no"?>
<!DOCTYPE svg PUBLIC "-//W3C//DTD SVG 1.1//EN"
  "http://www.w3.org/Graphics/SVG/1.1/DTD/svg11.dtd">
<svg xmlns:xlink="http://www.w3.org/1999/xlink" width="505.44pt" height="280.512pt" viewBox="0 0 505.44 280.512" xmlns="http://www.w3.org/2000/svg" version="1.1">
 <metadata>
  <rdf:RDF xmlns:dc="http://purl.org/dc/elements/1.1/" xmlns:cc="http://creativecommons.org/ns#" xmlns:rdf="http://www.w3.org/1999/02/22-rdf-syntax-ns#">
   <cc:Work>
    <dc:type rdf:resource="http://purl.org/dc/dcmitype/StillImage"/>
    <dc:date>2026-06-28T19:00:43.288335</dc:date>
    <dc:format>image/svg+xml</dc:format>
    <dc:creator>
     <cc:Agent>
      <dc:title>Matplotlib v3.6.3, https://matplotlib.org/</dc:title>
     </cc:Agent>
    </dc:creator>
   </cc:Work>
  </rdf:RDF>
 </metadata>
 <defs>
  <style type="text/css">*{stroke-linejoin: round; stroke-linecap: butt}</style>
 </defs>
 <g id="figure_1">
  <g id="patch_1">
   <path d="M 0 280.512 
L 505.44 280.512 
L 505.44 0 
L 0 0 
z
" style="fill: #ffffff"/>
  </g>
  <g id="axes_1">
   <g id="patch_2">
    <path d="M 29.2968 118.96704 
L 201.1608 118.96704 
Q 208.5264 118.96704 208.5264 114.97536 
L 208.5264 37.80288 
Q 208.5264 33.8112 201.1608 33.8112 
L 29.2968 33.8112 
Q 21.9312 33.8112 21.9312 37.80288 
L 21.9312 114.97536 
Q 21.9312 118.96704 29.2968 118.96704 
z
" clip-path="url(#p417e694bfd)" style="fill: #ede9fe; stroke: #8b5cf6; stroke-width: 1.2; stroke-linejoin: miter"/>
   </g>
   <g id="patch_3">
    <path d="M 36.6624 76.38912 
L 193.7952 76.38912 
L 193.7952 41.79456 
L 36.6624 41.79456 
z
" clip-path="url(#p417e694bfd)" style="fill: #8b5cf6; stroke: #ffffff; stroke-width: 1.2; stroke-linejoin: miter"/>
   </g>
   <g id="patch_4">
    <path d="M 36.6624 113.6448 
L 193.7952 113.6448 
L 193.7952 81.71136 
L 36.6624 81.71136 
z
" clip-path="url(#p417e694bfd)" style="fill: #6d28d9; stroke: #ffffff; stroke-width: 1.2; stroke-linejoin: miter"/>
   </g>
   <g id="patch_5">
    <path d="M 304.2792 118.96704 
L 476.1432 118.96704 
Q 483.5088 118.96704 483.5088 114.97536 
L 483.5088 37.80288 
Q 483.5088 33.8112 476.1432 33.8112 
L 304.2792 33.8112 
Q 296.9136 33.8112 296.9136 37.80288 
L 296.9136 114.97536 
Q 296.9136 118.96704 304.2792 118.96704 
z
" clip-path="url(#p417e694bfd)" style="fill: #fffbeb; stroke: #f59e0b; stroke-width: 1.2; stroke-linejoin: miter"/>
   </g>
   <g id="patch_6">
    <path d="M 311.6448 76.38912 
L 468.7776 76.38912 
L 468.7776 41.79456 
L 311.6448 41.79456 
z
" clip-path="url(#p417e694bfd)" style="fill: #f59e0b; stroke: #ffffff; stroke-width: 1.2; stroke-linejoin: miter"/>
   </g>
   <g id="patch_7">
    <path d="M 311.6448 113.6448 
L 468.7776 113.6448 
L 468.7776 81.71136 
L 311.6448 81.71136 
z
" clip-path="url(#p417e694bfd)" style="fill: #fbbf24; stroke: #ffffff; stroke-width: 1.2; stroke-linejoin: miter"/>
   </g>
   <g id="patch_8">
    <path d="M 29.2968 241.37856 
L 201.1608 241.37856 
Q 208.5264 241.37856 208.5264 237.38688 
L 208.5264 160.2144 
Q 208.5264 156.22272 201.1608 156.22272 
L 29.2968 156.22272 
Q 21.9312 156.22272 21.9312 160.2144 
L 21.9312 237.38688 
Q 21.9312 241.37856 29.2968 241.37856 
z
" clip-path="url(#p417e694bfd)" style="fill: #ede9fe; stroke: #8b5cf6; stroke-width: 1.2; stroke-linejoin: miter"/>
   </g>
   <g id="patch_9">
    <path d="M 36.6624 198.80064 
L 193.7952 198.80064 
L 193.7952 164.20608 
L 36.6624 164.20608 
z
" clip-path="url(#p417e694bfd)" style="fill: #8b5cf6; stroke: #ffffff; stroke-width: 1.2; stroke-linejoin: miter"/>
   </g>
   <g id="patch_10">
    <path d="M 36.6624 236.05632 
L 193.7952 236.05632 
L 193.7952 204.12288 
L 36.6624 204.12288 
z
" clip-path="url(#p417e694bfd)" style="fill: #6d28d9; stroke: #ffffff; stroke-width: 1.2; stroke-linejoin: miter"/>
   </g>
   <g id="patch_11">
    <path d="M 304.2792 241.37856 
L 476.1432 241.37856 
Q 483.5088 241.37856 483.5088 237.38688 
L 483.5088 160.2144 
Q 483.5088 156.22272 476.1432 156.22272 
L 304.2792 156.22272 
Q 296.9136 156.22272 296.9136 160.2144 
L 296.9136 237.38688 
Q 296.9136 241.37856 304.2792 241.37856 
z
" clip-path="url(#p417e694bfd)" style="fill: #fffbeb; stroke: #f59e0b; stroke-width: 1.2; stroke-linejoin: miter"/>
   </g>
   <g id="patch_12">
    <path d="M 311.6448 198.80064 
L 468.7776 198.80064 
L 468.7776 164.20608 
L 311.6448 164.20608 
z
" clip-path="url(#p417e694bfd)" style="fill: #f59e0b; stroke: #ffffff; stroke-width: 1.2; stroke-linejoin: miter"/>
   </g>
   <g id="patch_13">
    <path d="M 311.6448 236.05632 
L 468.7776 236.05632 
L 468.7776 204.12288 
L 311.6448 204.12288 
z
" clip-path="url(#p417e694bfd)" style="fill: #fbbf24; stroke: #ffffff; stroke-width: 1.2; stroke-linejoin: miter"/>
   </g>
   <g id="text_1">
    <!-- cta_group::2, M=128  —  2 个 CTA(M 划分,N 折叠进 lane) -->
    <g style="fill: #1f2937" transform="translate(114.51457 18.78612) scale(0.105 -0.105)">
     <defs>
      <path id="NotoSansCJKjp-Bold-63" d="M 2029 -90 
C 2426 -90 2861 45 3200 346 
L 2829 966 
C 2630 800 2394 678 2131 678 
C 1613 678 1242 1114 1242 1792 
C 1242 2464 1613 2906 2163 2906 
C 2362 2906 2528 2822 2707 2675 
L 3155 3270 
C 2893 3507 2554 3674 2112 3674 
C 1139 3674 282 2982 282 1792 
C 282 602 1043 -90 2029 -90 
z
" transform="scale(0.015625)"/>
      <path id="NotoSansCJKjp-Bold-74" d="M 1818 -90 
C 2131 -90 2381 -13 2579 45 
L 2419 730 
C 2323 691 2182 653 2067 653 
C 1747 653 1574 845 1574 1254 
L 1574 2842 
L 2464 2842 
L 2464 3584 
L 1574 3584 
L 1574 4550 
L 800 4550 
L 691 3584 
L 134 3539 
L 134 2842 
L 640 2842 
L 640 1248 
C 640 454 966 -90 1818 -90 
z
" transform="scale(0.015625)"/>
      <path id="NotoSansCJKjp-Bold-61" d="M 1382 -90 
C 1798 -90 2157 109 2464 384 
L 2496 384 
L 2560 0 
L 3328 0 
L 3328 2093 
C 3328 3130 2861 3674 1952 3674 
C 1389 3674 877 3456 461 3200 
L 794 2573 
C 1126 2771 1446 2918 1779 2918 
C 2221 2918 2374 2650 2387 2298 
C 947 2144 326 1741 326 979 
C 326 365 742 -90 1382 -90 
z
M 1696 646 
C 1421 646 1222 768 1222 1050 
C 1222 1376 1510 1613 2387 1715 
L 2387 998 
C 2163 774 1965 646 1696 646 
z
" transform="scale(0.015625)"/>
      <path id="NotoSansCJKjp-Bold-5f" d="M 90 -992 
L 3539 -992 
L 3539 -448 
L 90 -448 
L 90 -992 
z
" transform="scale(0.015625)"/>
      <path id="NotoSansCJKjp-Bold-67" d="M 1766 -1555 
C 2963 -1555 3718 -1005 3718 -282 
C 3718 346 3245 614 2381 614 
L 1766 614 
C 1350 614 1203 717 1203 902 
C 1203 1056 1267 1133 1357 1216 
C 1517 1158 1683 1133 1818 1133 
C 2592 1133 3206 1536 3206 2349 
C 3206 2573 3136 2771 3046 2893 
L 3654 2893 
L 3654 3584 
L 2368 3584 
C 2214 3635 2029 3674 1818 3674 
C 1062 3674 378 3219 378 2381 
C 378 1958 608 1619 858 1440 
L 858 1414 
C 640 1261 461 1011 461 749 
C 461 448 595 262 787 141 
L 787 109 
C 448 -77 275 -333 275 -634 
C 275 -1267 922 -1555 1766 -1555 
z
M 1818 1715 
C 1510 1715 1261 1952 1261 2381 
C 1261 2797 1504 3027 1818 3027 
C 2138 3027 2387 2797 2387 2381 
C 2387 1952 2138 1715 1818 1715 
z
M 1907 -954 
C 1389 -954 1056 -787 1056 -493 
C 1056 -339 1126 -198 1286 -70 
C 1421 -102 1568 -115 1779 -115 
L 2221 -115 
C 2605 -115 2816 -186 2816 -442 
C 2816 -717 2451 -954 1907 -954 
z
" transform="scale(0.015625)"/>
      <path id="NotoSansCJKjp-Bold-72" d="M 506 0 
L 1446 0 
L 1446 2138 
C 1651 2656 1984 2842 2259 2842 
C 2413 2842 2515 2822 2643 2784 
L 2797 3597 
C 2694 3642 2579 3674 2381 3674 
C 2010 3674 1626 3418 1363 2950 
L 1344 2950 
L 1274 3584 
L 506 3584 
L 506 0 
z
" transform="scale(0.015625)"/>
      <path id="NotoSansCJKjp-Bold-6f" d="M 2003 -90 
C 2899 -90 3725 602 3725 1792 
C 3725 2982 2899 3674 2003 3674 
C 1101 3674 282 2982 282 1792 
C 282 602 1101 -90 2003 -90 
z
M 2003 678 
C 1510 678 1242 1114 1242 1792 
C 1242 2464 1510 2906 2003 2906 
C 2490 2906 2765 2464 2765 1792 
C 2765 1114 2490 678 2003 678 
z
" transform="scale(0.015625)"/>
      <path id="NotoSansCJKjp-Bold-75" d="M 1574 -90 
C 2067 -90 2406 154 2714 518 
L 2739 518 
L 2810 0 
L 3578 0 
L 3578 3584 
L 2637 3584 
L 2637 1165 
C 2394 845 2202 717 1914 717 
C 1562 717 1402 909 1402 1466 
L 1402 3584 
L 467 3584 
L 467 1350 
C 467 448 800 -90 1574 -90 
z
" transform="scale(0.015625)"/>
      <path id="NotoSansCJKjp-Bold-70" d="M 506 -1376 
L 1446 -1376 
L 1446 -282 
L 1414 301 
C 1683 51 1990 -90 2304 -90 
C 3091 -90 3827 621 3827 1850 
C 3827 2950 3296 3674 2419 3674 
C 2029 3674 1664 3469 1363 3213 
L 1344 3213 
L 1274 3584 
L 506 3584 
L 506 -1376 
z
M 2099 685 
C 1901 685 1677 755 1446 954 
L 1446 2534 
C 1690 2778 1907 2899 2150 2899 
C 2643 2899 2861 2522 2861 1837 
C 2861 1056 2522 685 2099 685 
z
" transform="scale(0.015625)"/>
      <path id="NotoSansCJKjp-Bold-3a" d="M 1043 2342 
C 1376 2342 1626 2605 1626 2950 
C 1626 3302 1376 3565 1043 3565 
C 704 3565 454 3302 454 2950 
C 454 2605 704 2342 1043 2342 
z
M 1043 -90 
C 1376 -90 1626 179 1626 525 
C 1626 877 1376 1139 1043 1139 
C 704 1139 454 877 454 525 
C 454 179 704 -90 1043 -90 
z
" transform="scale(0.015625)"/>
      <path id="NotoSansCJKjp-Bold-32" d="M 275 0 
L 3450 0 
L 3450 794 
L 2426 794 
C 2202 794 1888 768 1645 736 
C 2509 1587 3226 2509 3226 3366 
C 3226 4250 2630 4826 1734 4826 
C 1088 4826 666 4576 224 4102 
L 749 3597 
C 986 3859 1267 4083 1613 4083 
C 2067 4083 2323 3789 2323 3322 
C 2323 2586 1568 1696 275 544 
L 275 0 
z
" transform="scale(0.015625)"/>
      <path id="NotoSansCJKjp-Bold-2c" d="M 538 -1370 
C 1312 -1107 1747 -538 1747 211 
C 1747 794 1504 1139 1075 1139 
C 736 1139 461 922 461 582 
C 461 224 742 26 1050 26 
L 1114 32 
C 1107 -339 832 -666 339 -858 
L 538 -1370 
z
" transform="scale(0.015625)"/>
      <path id="NotoSansCJKjp-Bold-20" transform="scale(0.015625)"/>
      <path id="NotoSansCJKjp-Bold-4d" d="M 582 0 
L 1434 0 
L 1434 1978 
C 1434 2432 1357 3085 1312 3533 
L 1338 3533 
L 1715 2419 
L 2451 429 
L 2995 429 
L 3725 2419 
L 4109 3533 
L 4141 3533 
C 4090 3085 4019 2432 4019 1978 
L 4019 0 
L 4883 0 
L 4883 4742 
L 3834 4742 
L 3040 2515 
C 2944 2227 2861 1914 2758 1613 
L 2726 1613 
C 2630 1914 2541 2227 2438 2515 
L 1632 4742 
L 582 4742 
L 582 0 
z
" transform="scale(0.015625)"/>
      <path id="NotoSansCJKjp-Bold-3d" d="M 250 2893 
L 3526 2893 
L 3526 3558 
L 250 3558 
L 250 2893 
z
M 250 1235 
L 3526 1235 
L 3526 1907 
L 250 1907 
L 250 1235 
z
" transform="scale(0.015625)"/>
      <path id="NotoSansCJKjp-Bold-31" d="M 525 0 
L 3373 0 
L 3373 768 
L 2483 768 
L 2483 4742 
L 1786 4742 
C 1485 4550 1165 4429 685 4346 
L 685 3757 
L 1549 3757 
L 1549 768 
L 525 768 
L 525 0 
z
" transform="scale(0.015625)"/>
      <path id="NotoSansCJKjp-Bold-38" d="M 1888 -90 
C 2842 -90 3482 461 3482 1178 
C 3482 1824 3123 2208 2682 2445 
L 2682 2477 
C 2989 2701 3290 3091 3290 3558 
C 3290 4314 2752 4819 1914 4819 
C 1088 4819 486 4333 486 3565 
C 486 3066 749 2707 1114 2445 
L 1114 2413 
C 672 2182 301 1786 301 1178 
C 301 435 973 -90 1888 -90 
z
M 2182 2707 
C 1690 2906 1318 3123 1318 3565 
C 1318 3949 1574 4160 1894 4160 
C 2291 4160 2522 3885 2522 3501 
C 2522 3219 2413 2944 2182 2707 
z
M 1907 576 
C 1466 576 1114 851 1114 1280 
C 1114 1638 1293 1952 1549 2163 
C 2163 1901 2605 1702 2605 1210 
C 2605 800 2310 576 1907 576 
z
" transform="scale(0.015625)"/>
      <path id="NotoSansCJKjp-Bold-2014" d="M 314 1536 
L 5498 1536 
L 5498 2138 
L 314 2138 
L 314 1536 
z
" transform="scale(0.015625)"/>
      <path id="NotoSansCJKjp-Bold-4e2a" d="M 3174 4627 
C 3718 3827 4800 2893 5824 2323 
C 5971 2560 6150 2829 6355 3027 
C 5299 3482 4243 4371 3552 5421 
L 2726 5421 
C 2259 4589 1216 3533 77 2944 
C 250 2784 474 2490 576 2304 
C 1658 2918 2656 3834 3174 4627 
z
M 2771 3258 
L 2771 -576 
L 3584 -576 
L 3584 3258 
L 2771 3258 
z
" transform="scale(0.015625)"/>
      <path id="NotoSansCJKjp-Bold-43" d="M 2509 -90 
C 3130 -90 3635 154 4026 608 
L 3520 1197 
C 3270 922 2957 730 2547 730 
C 1798 730 1318 1350 1318 2381 
C 1318 3398 1850 4013 2566 4013 
C 2925 4013 3200 3846 3443 3616 
L 3936 4218 
C 3629 4538 3155 4826 2547 4826 
C 1350 4826 346 3910 346 2349 
C 346 768 1318 -90 2509 -90 
z
" transform="scale(0.015625)"/>
      <path id="NotoSansCJKjp-Bold-54" d="M 1523 0 
L 2470 0 
L 2470 3949 
L 3808 3949 
L 3808 4742 
L 192 4742 
L 192 3949 
L 1523 3949 
L 1523 0 
z
" transform="scale(0.015625)"/>
      <path id="NotoSansCJKjp-Bold-41" d="M -26 0 
L 934 0 
L 1267 1216 
L 2797 1216 
L 3130 0 
L 4128 0 
L 2611 4742 
L 1491 4742 
L -26 0 
z
M 1472 1952 
L 1613 2470 
C 1754 2963 1888 3501 2016 4019 
L 2042 4019 
C 2182 3514 2310 2963 2458 2470 
L 2598 1952 
L 1472 1952 
z
" transform="scale(0.015625)"/>
      <path id="NotoSansCJKjp-Bold-28" d="M 1504 -1293 
L 2086 -1043 
C 1549 -109 1306 966 1306 2016 
C 1306 3066 1549 4147 2086 5082 
L 1504 5331 
C 896 4339 544 3296 544 2016 
C 544 736 896 -307 1504 -1293 
z
" transform="scale(0.015625)"/>
      <path id="NotoSansCJKjp-Bold-5212" d="M 3968 4755 
L 3968 1216 
L 4704 1216 
L 4704 4755 
L 3968 4755 
z
M 5190 5376 
L 5190 320 
C 5190 211 5152 179 5037 173 
C 4922 173 4557 173 4198 186 
C 4301 -26 4416 -365 4442 -576 
C 4992 -576 5370 -550 5613 -429 
C 5862 -307 5939 -102 5939 320 
L 5939 5376 
L 5190 5376 
z
M 1888 4973 
C 2208 4704 2598 4314 2771 4058 
L 3315 4525 
C 3130 4774 2720 5139 2400 5389 
L 1888 4973 
z
M 2758 3059 
C 2579 2630 2355 2227 2086 1856 
C 1997 2227 1920 2650 1862 3104 
L 3757 3315 
L 3686 4038 
L 1786 3834 
C 1747 4346 1728 4883 1734 5427 
L 947 5427 
C 954 4864 979 4294 1024 3750 
L 166 3654 
L 237 2925 
L 1101 3021 
C 1184 2330 1312 1690 1478 1146 
C 1088 755 646 429 166 173 
C 326 32 595 -269 704 -429 
C 1075 -198 1434 77 1773 397 
C 2054 -179 2419 -525 2874 -525 
C 3450 -525 3693 -250 3814 870 
C 3616 947 3347 1120 3187 1293 
C 3149 538 3072 243 2931 243 
C 2726 243 2522 525 2342 998 
C 2797 1542 3187 2163 3482 2835 
L 2758 3059 
z
" transform="scale(0.015625)"/>
      <path id="NotoSansCJKjp-Bold-5206" d="M 4403 5370 
L 3648 5069 
C 4006 4384 4493 3674 4998 3085 
L 1517 3085 
C 2022 3661 2477 4371 2797 5114 
L 1965 5357 
C 1581 4378 870 3482 70 2950 
C 256 2810 589 2502 730 2330 
C 902 2464 1082 2624 1248 2790 
L 1248 2342 
L 2330 2342 
C 2202 1408 1869 563 416 90 
C 602 -83 826 -403 915 -614 
C 2592 6 3014 1107 3168 2342 
L 4435 2342 
C 4378 1005 4307 429 4179 288 
C 4109 211 4032 198 3917 198 
C 3763 198 3424 205 3072 230 
C 3206 13 3309 -314 3322 -544 
C 3699 -557 4077 -557 4294 -525 
C 4544 -493 4717 -429 4883 -218 
C 5101 51 5184 813 5248 2752 
L 5254 2797 
C 5389 2650 5530 2509 5664 2387 
C 5811 2605 6112 2918 6317 3078 
C 5613 3622 4813 4550 4403 5370 
z
" transform="scale(0.015625)"/>
      <path id="NotoSansCJKjp-Bold-4e" d="M 582 0 
L 1485 0 
L 1485 1901 
C 1485 2445 1402 3040 1363 3552 
L 1395 3552 
L 1875 2534 
L 3238 0 
L 4205 0 
L 4205 4742 
L 3309 4742 
L 3309 2848 
C 3309 2310 3386 1683 3437 1190 
L 3405 1190 
L 2925 2214 
L 1549 4742 
L 582 4742 
L 582 0 
z
" transform="scale(0.015625)"/>
      <path id="NotoSansCJKjp-Bold-6298" d="M 2848 4960 
L 2848 2835 
C 2848 1926 2778 787 2035 -6 
C 2221 -109 2502 -378 2605 -550 
C 3418 288 3590 1587 3610 2554 
L 4531 2554 
L 4531 -570 
L 5293 -570 
L 5293 2554 
L 6195 2554 
L 6195 3283 
L 3616 3283 
L 3616 4230 
C 4435 4352 5338 4550 6035 4800 
L 5459 5414 
C 4979 5210 4256 5018 3539 4877 
L 2848 4960 
z
M 1043 5440 
L 1043 4230 
L 237 4230 
L 237 3520 
L 1043 3520 
L 1043 2381 
L 128 2170 
L 314 1434 
L 1043 1626 
L 1043 250 
C 1043 160 1005 134 922 128 
C 838 128 570 128 326 141 
C 416 -58 512 -371 538 -563 
C 992 -563 1299 -544 1510 -429 
C 1728 -307 1798 -122 1798 256 
L 1798 1824 
L 2541 2029 
L 2451 2733 
L 1798 2566 
L 1798 3520 
L 2445 3520 
L 2445 4230 
L 1798 4230 
L 1798 5440 
L 1043 5440 
z
" transform="scale(0.015625)"/>
      <path id="NotoSansCJKjp-Bold-53e0" d="M 2323 4864 
L 3955 4864 
C 3770 4781 3558 4710 3334 4653 
C 3002 4730 2662 4800 2323 4864 
z
M 448 2464 
L 448 1517 
L 1146 1517 
L 1146 1997 
L 5229 1997 
L 5229 1517 
L 5958 1517 
L 5958 2464 
L 5536 2464 
L 5958 2778 
C 5760 2874 5517 2976 5242 3072 
C 5517 3245 5754 3462 5914 3731 
L 5530 3923 
L 5421 3898 
L 4749 3898 
L 5037 4160 
C 4787 4256 4480 4352 4134 4448 
C 4531 4608 4870 4813 5120 5075 
L 4749 5318 
L 4640 5293 
L 1280 5293 
L 1280 4864 
L 1856 4864 
L 1606 4602 
C 1856 4557 2099 4512 2342 4461 
C 1920 4403 1478 4371 1043 4352 
C 1133 4237 1242 4038 1286 3904 
C 2016 3955 2752 4045 3405 4211 
C 3776 4109 4115 4000 4397 3898 
L 3283 3898 
L 3283 3475 
L 3680 3475 
L 3379 3200 
L 3981 3034 
C 3776 2976 3558 2931 3347 2899 
L 3392 2854 
L 2867 2854 
L 2867 2842 
C 2739 2912 2579 2982 2406 3053 
C 2714 3232 2976 3456 3162 3725 
L 2790 3923 
L 2688 3898 
L 550 3898 
L 550 3475 
L 1069 3475 
L 736 3162 
L 1158 3034 
C 883 2957 589 2906 301 2867 
C 397 2765 531 2586 595 2464 
L 448 2464 
z
M 1158 3475 
L 2208 3475 
C 2093 3398 1965 3328 1830 3270 
C 1606 3341 1382 3411 1158 3475 
z
M 1837 2778 
C 2080 2682 2291 2579 2451 2483 
L 2867 2778 
L 2867 2464 
L 672 2464 
C 1075 2534 1472 2637 1837 2778 
z
M 3878 3475 
L 4960 3475 
C 4858 3405 4742 3334 4621 3277 
C 4378 3347 4128 3418 3878 3475 
z
M 4698 2797 
C 5005 2688 5267 2573 5472 2464 
L 3501 2464 
L 3501 2726 
C 3565 2650 3629 2566 3667 2502 
C 4026 2573 4378 2669 4698 2797 
z
M 2125 774 
L 4205 774 
L 4205 589 
L 2125 589 
L 2125 774 
z
M 2125 1158 
L 2125 1344 
L 4205 1344 
L 4205 1158 
L 2125 1158 
z
M 2125 205 
L 4205 205 
L 4205 19 
L 2125 19 
L 2125 205 
z
M 1389 1818 
L 1389 19 
L 346 19 
L 346 -454 
L 6061 -454 
L 6061 19 
L 4979 19 
L 4979 1818 
L 1389 1818 
z
" transform="scale(0.015625)"/>
      <path id="NotoSansCJKjp-Bold-8fdb" d="M 384 4890 
C 730 4563 1171 4096 1363 3802 
L 1952 4288 
C 1741 4576 1280 5018 934 5318 
L 384 4890 
z
M 4467 5261 
L 4467 4339 
L 3738 4339 
L 3738 5267 
L 2982 5267 
L 2982 4339 
L 2176 4339 
L 2176 3597 
L 2982 3597 
L 2982 3187 
C 2982 3034 2982 2874 2970 2707 
L 2125 2707 
L 2125 1971 
L 2848 1971 
C 2739 1606 2547 1254 2208 973 
C 2368 870 2675 582 2784 435 
C 3258 832 3507 1395 3629 1971 
L 4467 1971 
L 4467 531 
L 5229 531 
L 5229 1971 
L 6093 1971 
L 6093 2707 
L 5229 2707 
L 5229 3597 
L 5965 3597 
L 5965 4339 
L 5229 4339 
L 5229 5261 
L 4467 5261 
z
M 3738 3597 
L 4467 3597 
L 4467 2707 
L 3725 2707 
C 3731 2874 3738 3027 3738 3181 
L 3738 3597 
z
M 1773 3110 
L 275 3110 
L 275 2400 
L 1018 2400 
L 1018 832 
C 749 710 442 474 147 166 
L 659 -563 
C 890 -186 1171 237 1363 237 
C 1510 237 1728 38 2022 -122 
C 2490 -378 3040 -448 3846 -448 
C 4506 -448 5568 -410 6022 -384 
C 6029 -166 6157 211 6240 416 
C 5600 320 4557 269 3878 269 
C 3162 269 2573 301 2138 550 
C 1990 627 1869 704 1773 768 
L 1773 3110 
z
" transform="scale(0.015625)"/>
      <path id="NotoSansCJKjp-Bold-6c" d="M 1395 -90 
C 1613 -90 1766 -51 1875 -6 
L 1760 691 
C 1696 678 1670 678 1632 678 
C 1542 678 1446 749 1446 966 
L 1446 5107 
L 506 5107 
L 506 1005 
C 506 339 736 -90 1395 -90 
z
" transform="scale(0.015625)"/>
      <path id="NotoSansCJKjp-Bold-6e" d="M 506 0 
L 1446 0 
L 1446 2464 
C 1709 2726 1901 2867 2189 2867 
C 2541 2867 2694 2675 2694 2118 
L 2694 0 
L 3635 0 
L 3635 2234 
C 3635 3136 3302 3674 2528 3674 
C 2042 3674 1677 3418 1363 3110 
L 1344 3110 
L 1274 3584 
L 506 3584 
L 506 0 
z
" transform="scale(0.015625)"/>
      <path id="NotoSansCJKjp-Bold-65" d="M 2067 -90 
C 2509 -90 2963 64 3315 307 
L 2995 883 
C 2733 723 2483 640 2195 640 
C 1658 640 1274 941 1197 1523 
L 3405 1523 
C 3430 1613 3450 1786 3450 1958 
C 3450 2957 2938 3674 1952 3674 
C 1101 3674 282 2950 282 1792 
C 282 608 1062 -90 2067 -90 
z
M 1178 2157 
C 1254 2675 1587 2944 1965 2944 
C 2432 2944 2643 2637 2643 2157 
L 1178 2157 
z
" transform="scale(0.015625)"/>
      <path id="NotoSansCJKjp-Bold-29" d="M 915 -1293 
C 1523 -307 1875 736 1875 2016 
C 1875 3296 1523 4339 915 5331 
L 333 5082 
C 870 4147 1114 3066 1114 2016 
C 1114 966 870 -109 333 -1043 
L 915 -1293 
z
" transform="scale(0.015625)"/>
     </defs>
     <use xlink:href="#NotoSansCJKjp-Bold-63"/>
     <use xlink:href="#NotoSansCJKjp-Bold-74" x="52.699997"/>
     <use xlink:href="#NotoSansCJKjp-Bold-61" x="94.799988"/>
     <use xlink:href="#NotoSansCJKjp-Bold-5f" x="153.899979"/>
     <use xlink:href="#NotoSansCJKjp-Bold-67" x="210.599976"/>
     <use xlink:href="#NotoSansCJKjp-Bold-72" x="270.299973"/>
     <use xlink:href="#NotoSansCJKjp-Bold-6f" x="313.899963"/>
     <use xlink:href="#NotoSansCJKjp-Bold-75" x="376.499954"/>
     <use xlink:href="#NotoSansCJKjp-Bold-70" x="440.199951"/>
     <use xlink:href="#NotoSansCJKjp-Bold-3a" x="504.599945"/>
     <use xlink:href="#NotoSansCJKjp-Bold-3a" x="537.09993"/>
     <use xlink:href="#NotoSansCJKjp-Bold-32" x="569.599915"/>
     <use xlink:href="#NotoSansCJKjp-Bold-2c" x="628.599899"/>
     <use xlink:href="#NotoSansCJKjp-Bold-20" x="661.099884"/>
     <use xlink:href="#NotoSansCJKjp-Bold-4d" x="683.799881"/>
     <use xlink:href="#NotoSansCJKjp-Bold-3d" x="769.099869"/>
     <use xlink:href="#NotoSansCJKjp-Bold-31" x="828.099854"/>
     <use xlink:href="#NotoSansCJKjp-Bold-32" x="887.099838"/>
     <use xlink:href="#NotoSansCJKjp-Bold-38" x="946.099823"/>
     <use xlink:href="#NotoSansCJKjp-Bold-20" x="1005.099808"/>
     <use xlink:href="#NotoSansCJKjp-Bold-20" x="1027.799805"/>
     <use xlink:href="#NotoSansCJKjp-Bold-2014" x="1050.499802"/>
     <use xlink:href="#NotoSansCJKjp-Bold-20" x="1141.299789"/>
     <use xlink:href="#NotoSansCJKjp-Bold-20" x="1163.999786"/>
     <use xlink:href="#NotoSansCJKjp-Bold-32" x="1186.699783"/>
     <use xlink:href="#NotoSansCJKjp-Bold-20" x="1245.699768"/>
     <use xlink:href="#NotoSansCJKjp-Bold-4e2a" x="1268.399765"/>
     <use xlink:href="#NotoSansCJKjp-Bold-20" x="1368.39975"/>
     <use xlink:href="#NotoSansCJKjp-Bold-43" x="1391.099747"/>
     <use xlink:href="#NotoSansCJKjp-Bold-54" x="1456.699738"/>
     <use xlink:href="#NotoSansCJKjp-Bold-41" x="1519.199722"/>
     <use xlink:href="#NotoSansCJKjp-Bold-28" x="1583.299713"/>
     <use xlink:href="#NotoSansCJKjp-Bold-4d" x="1621.099701"/>
     <use xlink:href="#NotoSansCJKjp-Bold-20" x="1706.399689"/>
     <use xlink:href="#NotoSansCJKjp-Bold-5212" x="1729.099686"/>
     <use xlink:href="#NotoSansCJKjp-Bold-5206" x="1829.09967"/>
     <use xlink:href="#NotoSansCJKjp-Bold-2c" x="1929.099655"/>
     <use xlink:href="#NotoSansCJKjp-Bold-4e" x="1961.59964"/>
     <use xlink:href="#NotoSansCJKjp-Bold-20" x="2036.499634"/>
     <use xlink:href="#NotoSansCJKjp-Bold-6298" x="2059.199631"/>
     <use xlink:href="#NotoSansCJKjp-Bold-53e0" x="2159.199615"/>
     <use xlink:href="#NotoSansCJKjp-Bold-8fdb" x="2259.1996"/>
     <use xlink:href="#NotoSansCJKjp-Bold-20" x="2359.199585"/>
     <use xlink:href="#NotoSansCJKjp-Bold-6c" x="2381.899582"/>
     <use xlink:href="#NotoSansCJKjp-Bold-61" x="2413.399567"/>
     <use xlink:href="#NotoSansCJKjp-Bold-6e" x="2472.499557"/>
     <use xlink:href="#NotoSansCJKjp-Bold-65" x="2536.599548"/>
     <use xlink:href="#NotoSansCJKjp-Bold-29" x="2594.699539"/>
    </g>
   </g>
   <g id="text_2">
    <!-- CTA 0 — SMEM -->
    <g style="fill: #334155" transform="translate(29.2968 43.388294) scale(0.08 -0.08)">
     <defs>
      <path id="NotoSansCJKjp-Bold-30" d="M 1888 -90 
C 2854 -90 3494 755 3494 2394 
C 3494 4019 2854 4826 1888 4826 
C 922 4826 282 4026 282 2394 
C 282 755 922 -90 1888 -90 
z
M 1888 646 
C 1478 646 1171 1056 1171 2394 
C 1171 3712 1478 4102 1888 4102 
C 2298 4102 2598 3712 2598 2394 
C 2598 1056 2298 646 1888 646 
z
" transform="scale(0.015625)"/>
      <path id="NotoSansCJKjp-Bold-53" d="M 1997 -90 
C 3091 -90 3738 570 3738 1344 
C 3738 2029 3360 2400 2784 2637 
L 2163 2886 
C 1760 3053 1427 3174 1427 3514 
C 1427 3827 1683 4013 2099 4013 
C 2496 4013 2810 3866 3110 3622 
L 3590 4211 
C 3206 4602 2656 4826 2099 4826 
C 1146 4826 461 4224 461 3456 
C 461 2765 947 2381 1427 2189 
L 2054 1914 
C 2477 1734 2771 1626 2771 1274 
C 2771 941 2509 730 2016 730 
C 1600 730 1146 941 813 1254 
L 269 602 
C 730 154 1363 -90 1997 -90 
z
" transform="scale(0.015625)"/>
      <path id="NotoSansCJKjp-Bold-45" d="M 582 0 
L 3558 0 
L 3558 794 
L 1530 794 
L 1530 2061 
L 3187 2061 
L 3187 2854 
L 1530 2854 
L 1530 3949 
L 3488 3949 
L 3488 4742 
L 582 4742 
L 582 0 
z
" transform="scale(0.015625)"/>
     </defs>
     <use xlink:href="#NotoSansCJKjp-Bold-43"/>
     <use xlink:href="#NotoSansCJKjp-Bold-54" x="65.599991"/>
     <use xlink:href="#NotoSansCJKjp-Bold-41" x="128.099976"/>
     <use xlink:href="#NotoSansCJKjp-Bold-20" x="192.199966"/>
     <use xlink:href="#NotoSansCJKjp-Bold-30" x="214.899963"/>
     <use xlink:href="#NotoSansCJKjp-Bold-20" x="273.899948"/>
     <use xlink:href="#NotoSansCJKjp-Bold-2014" x="296.599945"/>
     <use xlink:href="#NotoSansCJKjp-Bold-20" x="387.399933"/>
     <use xlink:href="#NotoSansCJKjp-Bold-53" x="410.09993"/>
     <use xlink:href="#NotoSansCJKjp-Bold-4d" x="472.499924"/>
     <use xlink:href="#NotoSansCJKjp-Bold-45" x="557.799911"/>
     <use xlink:href="#NotoSansCJKjp-Bold-4d" x="619.299896"/>
    </g>
   </g>
   <g id="text_3">
    <!-- A  行 0-63 -->
    <g style="fill: #ffffff" transform="translate(97.380675 56.580477) scale(0.08 -0.08)">
     <defs>
      <path id="NotoSansCJKjp-Bold-884c" d="M 2861 5075 
L 2861 4339 
L 5984 4339 
L 5984 5075 
L 2861 5075 
z
M 1626 5440 
C 1318 4992 698 4410 166 4070 
C 301 3917 499 3610 595 3437 
C 1210 3866 1901 4525 2368 5133 
L 1626 5440 
z
M 2586 3296 
L 2586 2566 
L 4480 2566 
L 4480 333 
C 4480 237 4442 211 4326 211 
C 4211 205 3782 205 3418 224 
C 3520 0 3622 -333 3654 -557 
C 4224 -557 4634 -544 4909 -429 
C 5190 -314 5267 -96 5267 314 
L 5267 2566 
L 6150 2566 
L 6150 3296 
L 2586 3296 
z
M 1869 4045 
C 1453 3315 749 2573 96 2118 
C 250 1958 512 1613 621 1453 
C 794 1594 966 1754 1146 1926 
L 1146 -582 
L 1914 -582 
L 1914 2784 
C 2170 3104 2406 3437 2598 3763 
L 1869 4045 
z
" transform="scale(0.015625)"/>
      <path id="NotoSansCJKjp-Bold-2d" d="M 314 1491 
L 2061 1491 
L 2061 2170 
L 314 2170 
L 314 1491 
z
" transform="scale(0.015625)"/>
      <path id="NotoSansCJKjp-Bold-36" d="M 2022 -90 
C 2829 -90 3507 525 3507 1498 
C 3507 2509 2938 2982 2144 2982 
C 1843 2982 1440 2803 1178 2483 
C 1222 3661 1664 4070 2214 4070 
C 2483 4070 2771 3910 2938 3725 
L 3437 4288 
C 3155 4582 2733 4826 2150 4826 
C 1197 4826 320 4070 320 2304 
C 320 640 1126 -90 2022 -90 
z
M 1197 1818 
C 1434 2176 1722 2317 1971 2317 
C 2381 2317 2650 2061 2650 1498 
C 2650 922 2362 621 2003 621 
C 1606 621 1286 954 1197 1818 
z
" transform="scale(0.015625)"/>
      <path id="NotoSansCJKjp-Bold-33" d="M 1747 -90 
C 2656 -90 3418 410 3418 1280 
C 3418 1907 3008 2304 2477 2451 
L 2477 2483 
C 2976 2682 3264 3053 3264 3565 
C 3264 4378 2643 4826 1728 4826 
C 1171 4826 717 4602 307 4250 
L 794 3667 
C 1069 3930 1344 4083 1683 4083 
C 2086 4083 2317 3866 2317 3494 
C 2317 3066 2035 2771 1171 2771 
L 1171 2093 
C 2195 2093 2470 1805 2470 1338 
C 2470 915 2144 678 1664 678 
C 1229 678 890 890 608 1165 
L 166 570 
C 499 192 1005 -90 1747 -90 
z
" transform="scale(0.015625)"/>
     </defs>
     <use xlink:href="#NotoSansCJKjp-Bold-41"/>
     <use xlink:href="#NotoSansCJKjp-Bold-20" x="64.099991"/>
     <use xlink:href="#NotoSansCJKjp-Bold-20" x="86.799988"/>
     <use xlink:href="#NotoSansCJKjp-Bold-884c" x="109.499985"/>
     <use xlink:href="#NotoSansCJKjp-Bold-20" x="209.499969"/>
     <use xlink:href="#NotoSansCJKjp-Bold-30" x="232.199966"/>
     <use xlink:href="#NotoSansCJKjp-Bold-2d" x="291.199951"/>
     <use xlink:href="#NotoSansCJKjp-Bold-36" x="328.199936"/>
     <use xlink:href="#NotoSansCJKjp-Bold-33" x="387.199921"/>
    </g>
   </g>
   <g id="text_4">
    <!-- 64 × K -->
    <g style="fill: #ffffff" transform="translate(105.296206 66.384282) scale(0.062 -0.062)">
     <defs>
      <path id="NotoSansCJKjp-Regular-36" d="M 1926 -83 
C 2656 -83 3277 531 3277 1440 
C 3277 2426 2765 2912 1971 2912 
C 1606 2912 1197 2701 909 2349 
C 934 3802 1466 4294 2118 4294 
C 2400 4294 2682 4154 2861 3936 
L 3194 4294 
C 2931 4576 2579 4774 2093 4774 
C 1184 4774 358 4077 358 2240 
C 358 691 1030 -83 1926 -83 
z
M 922 1882 
C 1229 2317 1587 2477 1875 2477 
C 2445 2477 2720 2074 2720 1440 
C 2720 800 2374 378 1926 378 
C 1338 378 986 909 922 1882 
z
" transform="scale(0.015625)"/>
      <path id="NotoSansCJKjp-Regular-34" d="M 2176 0 
L 2726 0 
L 2726 1293 
L 3354 1293 
L 3354 1760 
L 2726 1760 
L 2726 4691 
L 2080 4691 
L 128 1677 
L 128 1293 
L 2176 1293 
L 2176 0 
z
M 2176 1760 
L 736 1760 
L 1805 3360 
C 1939 3590 2067 3827 2182 4051 
L 2208 4051 
C 2195 3814 2176 3430 2176 3200 
L 2176 1760 
z
" transform="scale(0.015625)"/>
      <path id="NotoSansCJKjp-Regular-20" transform="scale(0.015625)"/>
      <path id="NotoSansCJKjp-Regular-d7" d="M 4954 346 
L 5261 653 
L 3514 2406 
L 5261 4160 
L 4954 4467 
L 3200 2714 
L 1453 4467 
L 1139 4154 
L 2893 2406 
L 1139 653 
L 1453 346 
L 3200 2099 
L 4954 346 
z
" transform="scale(0.015625)"/>
      <path id="NotoSansCJKjp-Regular-4b" d="M 646 0 
L 1235 0 
L 1235 1485 
L 2042 2445 
L 3450 0 
L 4109 0 
L 2413 2912 
L 3885 4691 
L 3213 4691 
L 1248 2336 
L 1235 2336 
L 1235 4691 
L 646 4691 
L 646 0 
z
" transform="scale(0.015625)"/>
     </defs>
     <use xlink:href="#NotoSansCJKjp-Regular-36"/>
     <use xlink:href="#NotoSansCJKjp-Regular-34" x="55.499985"/>
     <use xlink:href="#NotoSansCJKjp-Regular-20" x="110.999969"/>
     <use xlink:href="#NotoSansCJKjp-Regular-d7" x="133.399963"/>
     <use xlink:href="#NotoSansCJKjp-Regular-20" x="233.399948"/>
     <use xlink:href="#NotoSansCJKjp-Regular-4b" x="255.799942"/>
    </g>
   </g>
   <g id="text_5">
    <!-- B  列 0..N/2 -->
    <g style="fill: #ffffff" transform="translate(93.9163 95.539273) scale(0.08 -0.08)">
     <defs>
      <path id="NotoSansCJKjp-Bold-42" d="M 582 0 
L 2272 0 
C 3315 0 4102 442 4102 1395 
C 4102 2029 3731 2394 3219 2515 
L 3219 2541 
C 3622 2688 3866 3130 3866 3571 
C 3866 4454 3123 4742 2150 4742 
L 582 4742 
L 582 0 
z
M 1530 2810 
L 1530 4013 
L 2093 4013 
C 2662 4013 2944 3846 2944 3430 
C 2944 3053 2688 2810 2086 2810 
L 1530 2810 
z
M 1530 730 
L 1530 2112 
L 2189 2112 
C 2842 2112 3181 1914 3181 1453 
C 3181 960 2829 730 2189 730 
L 1530 730 
z
" transform="scale(0.015625)"/>
      <path id="NotoSansCJKjp-Bold-5217" d="M 3699 4717 
L 3699 1190 
L 4454 1190 
L 4454 4717 
L 3699 4717 
z
M 5197 5318 
L 5197 346 
C 5197 230 5152 192 5030 186 
C 4902 186 4506 186 4115 198 
C 4224 -13 4339 -358 4371 -570 
C 4954 -570 5350 -544 5613 -422 
C 5869 -301 5958 -96 5958 339 
L 5958 5318 
L 5197 5318 
z
M 2573 3027 
C 2490 2643 2381 2291 2253 1978 
C 2016 2150 1670 2368 1382 2541 
C 1472 2694 1549 2861 1626 3027 
L 2573 3027 
z
M 352 5152 
L 352 4442 
L 1331 4442 
C 1114 3571 698 2592 83 2003 
C 250 1888 499 1651 634 1510 
C 768 1645 896 1792 1018 1958 
C 1325 1760 1683 1510 1914 1312 
C 1542 717 1062 275 486 -32 
C 666 -141 947 -429 1062 -589 
C 2246 96 3104 1478 3424 3597 
L 2944 3757 
L 2810 3731 
L 1901 3731 
C 1984 3968 2061 4205 2125 4442 
L 3533 4442 
L 3533 5152 
L 352 5152 
z
" transform="scale(0.015625)"/>
      <path id="NotoSansCJKjp-Bold-2e" d="M 1043 -90 
C 1376 -90 1626 179 1626 525 
C 1626 877 1376 1139 1043 1139 
C 704 1139 454 877 454 525 
C 454 179 704 -90 1043 -90 
z
" transform="scale(0.015625)"/>
      <path id="NotoSansCJKjp-Bold-2f" d="M 90 -1158 
L 717 -1158 
L 2304 5158 
L 1683 5158 
L 90 -1158 
z
" transform="scale(0.015625)"/>
     </defs>
     <use xlink:href="#NotoSansCJKjp-Bold-42"/>
     <use xlink:href="#NotoSansCJKjp-Bold-20" x="68.099991"/>
     <use xlink:href="#NotoSansCJKjp-Bold-20" x="90.799988"/>
     <use xlink:href="#NotoSansCJKjp-Bold-5217" x="113.499985"/>
     <use xlink:href="#NotoSansCJKjp-Bold-20" x="213.499969"/>
     <use xlink:href="#NotoSansCJKjp-Bold-30" x="236.199966"/>
     <use xlink:href="#NotoSansCJKjp-Bold-2e" x="295.199951"/>
     <use xlink:href="#NotoSansCJKjp-Bold-2e" x="327.699936"/>
     <use xlink:href="#NotoSansCJKjp-Bold-4e" x="360.199921"/>
     <use xlink:href="#NotoSansCJKjp-Bold-2f" x="435.099915"/>
     <use xlink:href="#NotoSansCJKjp-Bold-32" x="473.799911"/>
    </g>
   </g>
   <g id="text_6">
    <!-- N/2 × K -->
    <g style="fill: #ffffff" transform="translate(103.560206 104.544743) scale(0.062 -0.062)">
     <defs>
      <path id="NotoSansCJKjp-Regular-4e" d="M 646 0 
L 1203 0 
L 1203 2464 
C 1203 2957 1158 3456 1133 3930 
L 1158 3930 
L 1664 2963 
L 3373 0 
L 3981 0 
L 3981 4691 
L 3418 4691 
L 3418 2253 
C 3418 1766 3462 1235 3501 768 
L 3469 768 
L 2963 1734 
L 1248 4691 
L 646 4691 
L 646 0 
z
" transform="scale(0.015625)"/>
      <path id="NotoSansCJKjp-Regular-2f" d="M 70 -1146 
L 499 -1146 
L 2413 5082 
L 1990 5082 
L 70 -1146 
z
" transform="scale(0.015625)"/>
      <path id="NotoSansCJKjp-Regular-32" d="M 282 0 
L 3232 0 
L 3232 506 
L 1933 506 
C 1696 506 1408 480 1165 461 
C 2266 1504 3008 2458 3008 3398 
C 3008 4230 2477 4774 1638 4774 
C 1043 4774 634 4506 256 4090 
L 595 3757 
C 858 4070 1184 4301 1568 4301 
C 2150 4301 2432 3910 2432 3373 
C 2432 2566 1754 1632 282 346 
L 282 0 
z
" transform="scale(0.015625)"/>
     </defs>
     <use xlink:href="#NotoSansCJKjp-Regular-4e"/>
     <use xlink:href="#NotoSansCJKjp-Regular-2f" x="72.299988"/>
     <use xlink:href="#NotoSansCJKjp-Regular-32" x="111.499985"/>
     <use xlink:href="#NotoSansCJKjp-Regular-20" x="166.999969"/>
     <use xlink:href="#NotoSansCJKjp-Regular-d7" x="189.399963"/>
     <use xlink:href="#NotoSansCJKjp-Regular-20" x="289.399948"/>
     <use xlink:href="#NotoSansCJKjp-Regular-4b" x="311.799942"/>
    </g>
   </g>
   <g id="patch_14">
    <path d="M 215.435546 79.05024 
Q 245.355498 79.05024 273.262988 79.05024 
" style="fill: none; stroke: #059669; stroke-width: 1.8; stroke-linecap: round"/>
    <path d="M 269.262988 77.05024 
L 273.262988 79.05024 
L 269.262988 81.05024 
L 269.262988 77.05024 
z
" style="fill: #059669; stroke: #059669; stroke-width: 1.8; stroke-linecap: round"/>
   </g>
   <g id="text_7">
    <!-- MMA -->
    <g style="fill: #059669" transform="translate(237.542291 65.067582) scale(0.07 -0.07)">
     <defs>
      <path id="NotoSansCJKjp-Regular-4d" d="M 646 0 
L 1178 0 
L 1178 2598 
C 1178 3002 1139 3571 1101 3981 
L 1126 3981 
L 1504 2912 
L 2394 474 
L 2790 474 
L 3674 2912 
L 4051 3981 
L 4077 3981 
C 4045 3571 4000 3002 4000 2598 
L 4000 0 
L 4550 0 
L 4550 4691 
L 3840 4691 
L 2944 2182 
C 2835 1862 2739 1530 2618 1203 
L 2592 1203 
C 2477 1530 2374 1862 2253 2182 
L 1357 4691 
L 646 4691 
L 646 0 
z
" transform="scale(0.015625)"/>
      <path id="NotoSansCJKjp-Regular-41" d="M 26 0 
L 621 0 
L 1075 1434 
L 2790 1434 
L 3238 0 
L 3866 0 
L 2272 4691 
L 1613 4691 
L 26 0 
z
M 1222 1901 
L 1453 2624 
C 1619 3155 1773 3661 1920 4211 
L 1946 4211 
C 2099 3667 2246 3155 2419 2624 
L 2643 1901 
L 1222 1901 
z
" transform="scale(0.015625)"/>
     </defs>
     <use xlink:href="#NotoSansCJKjp-Regular-4d"/>
     <use xlink:href="#NotoSansCJKjp-Regular-4d" x="81.199982"/>
     <use xlink:href="#NotoSansCJKjp-Regular-41" x="162.399963"/>
    </g>
   </g>
   <g id="text_8">
    <!-- CTA 0 — TMEM -->
    <g style="fill: #334155" transform="translate(304.2792 43.388294) scale(0.08 -0.08)">
     <use xlink:href="#NotoSansCJKjp-Bold-43"/>
     <use xlink:href="#NotoSansCJKjp-Bold-54" x="65.599991"/>
     <use xlink:href="#NotoSansCJKjp-Bold-41" x="128.099976"/>
     <use xlink:href="#NotoSansCJKjp-Bold-20" x="192.199966"/>
     <use xlink:href="#NotoSansCJKjp-Bold-30" x="214.899963"/>
     <use xlink:href="#NotoSansCJKjp-Bold-20" x="273.899948"/>
     <use xlink:href="#NotoSansCJKjp-Bold-2014" x="296.599945"/>
     <use xlink:href="#NotoSansCJKjp-Bold-20" x="387.399933"/>
     <use xlink:href="#NotoSansCJKjp-Bold-54" x="410.09993"/>
     <use xlink:href="#NotoSansCJKjp-Bold-4d" x="472.599915"/>
     <use xlink:href="#NotoSansCJKjp-Bold-45" x="557.899902"/>
     <use xlink:href="#NotoSansCJKjp-Bold-4d" x="619.399887"/>
    </g>
   </g>
   <g id="text_9">
    <!-- C 行 0-63 -->
    <g style="fill: #ffffff" transform="translate(374.2737 56.434734) scale(0.075 -0.075)">
     <use xlink:href="#NotoSansCJKjp-Bold-43"/>
     <use xlink:href="#NotoSansCJKjp-Bold-20" x="65.599991"/>
     <use xlink:href="#NotoSansCJKjp-Bold-884c" x="88.299988"/>
     <use xlink:href="#NotoSansCJKjp-Bold-20" x="188.299973"/>
     <use xlink:href="#NotoSansCJKjp-Bold-30" x="210.999969"/>
     <use xlink:href="#NotoSansCJKjp-Bold-2d" x="269.999954"/>
     <use xlink:href="#NotoSansCJKjp-Bold-36" x="306.999939"/>
     <use xlink:href="#NotoSansCJKjp-Bold-33" x="365.999924"/>
    </g>
   </g>
   <g id="text_10">
    <!-- N 低位 -&gt; lane 0-63 -->
    <g style="fill: #ffffff" transform="translate(365.859731 66.242563) scale(0.057 -0.057)">
     <defs>
      <path id="NotoSansCJKjp-Regular-4f4e" d="M 2093 83 
L 2093 -346 
L 4819 -346 
L 4819 83 
L 2093 83 
z
M 1901 902 
L 2010 448 
C 2650 563 3501 730 4307 883 
L 4282 1312 
C 3776 1216 3264 1126 2803 1043 
L 2803 2694 
L 4211 2694 
C 4429 992 4896 -262 5619 -262 
C 6029 -262 6195 -26 6259 845 
C 6144 890 5978 992 5875 1094 
C 5850 467 5792 205 5658 205 
C 5267 205 4877 1222 4685 2694 
L 6138 2694 
L 6138 3136 
L 4634 3136 
C 4595 3565 4570 4019 4563 4493 
C 5037 4582 5472 4685 5837 4794 
L 5466 5165 
C 4819 4941 3686 4742 2669 4621 
L 2336 4730 
L 2336 966 
L 1901 902 
z
M 2803 4230 
C 3219 4282 3661 4339 4090 4410 
C 4102 3974 4128 3546 4166 3136 
L 2803 3136 
L 2803 4230 
z
M 1690 5350 
C 1331 4378 736 3418 102 2797 
C 192 2688 326 2438 371 2323 
C 595 2554 813 2822 1024 3117 
L 1024 -499 
L 1485 -499 
L 1485 3840 
C 1734 4282 1965 4749 2144 5216 
L 1690 5350 
z
" transform="scale(0.015625)"/>
      <path id="NotoSansCJKjp-Regular-4f4d" d="M 2630 3155 
C 2867 2304 3066 1190 3110 544 
L 3578 646 
C 3526 1280 3302 2381 3059 3232 
L 2630 3155 
z
M 2106 4115 
L 2106 3661 
L 6016 3661 
L 6016 4115 
L 4250 4115 
L 4250 5299 
L 3770 5299 
L 3770 4115 
L 2106 4115 
z
M 1946 243 
L 1946 -211 
L 6176 -211 
L 6176 243 
L 4634 243 
C 4928 1043 5261 2246 5485 3194 
L 4966 3283 
C 4800 2362 4461 1056 4166 243 
L 1946 243 
z
M 1773 5357 
C 1395 4390 774 3443 128 2835 
C 211 2720 352 2470 397 2355 
C 640 2598 877 2880 1107 3194 
L 1107 -493 
L 1568 -493 
L 1568 3891 
C 1818 4314 2048 4762 2227 5216 
L 1773 5357 
z
" transform="scale(0.015625)"/>
      <path id="NotoSansCJKjp-Regular-2d" d="M 294 1568 
L 1933 1568 
L 1933 2016 
L 294 2016 
L 294 1568 
z
" transform="scale(0.015625)"/>
      <path id="NotoSansCJKjp-Regular-3e" d="M 243 934 
L 3315 2144 
L 3315 2605 
L 243 3814 
L 243 3309 
L 1754 2746 
L 2714 2387 
L 2714 2362 
L 1754 2003 
L 243 1446 
L 243 934 
z
" transform="scale(0.015625)"/>
      <path id="NotoSansCJKjp-Regular-6c" d="M 1203 -83 
C 1363 -83 1459 -58 1542 -32 
L 1459 416 
C 1395 403 1370 403 1338 403 
C 1248 403 1178 474 1178 653 
L 1178 5094 
L 589 5094 
L 589 691 
C 589 198 768 -83 1203 -83 
z
" transform="scale(0.015625)"/>
      <path id="NotoSansCJKjp-Regular-61" d="M 1389 -83 
C 1818 -83 2208 141 2541 416 
L 2560 416 
L 2611 0 
L 3091 0 
L 3091 2138 
C 3091 3002 2739 3565 1888 3565 
C 1325 3565 838 3315 525 3110 
L 749 2707 
C 1024 2893 1389 3078 1792 3078 
C 2362 3078 2509 2650 2509 2202 
C 1030 2035 378 1658 378 902 
C 378 275 806 -83 1389 -83 
z
M 1555 390 
C 1210 390 941 544 941 941 
C 941 1389 1338 1677 2509 1811 
L 2509 845 
C 2170 544 1888 390 1555 390 
z
" transform="scale(0.015625)"/>
      <path id="NotoSansCJKjp-Regular-6e" d="M 589 0 
L 1178 0 
L 1178 2522 
C 1523 2874 1766 3053 2125 3053 
C 2586 3053 2784 2778 2784 2125 
L 2784 0 
L 3366 0 
L 3366 2202 
C 3366 3085 3034 3565 2304 3565 
C 1830 3565 1466 3302 1139 2970 
L 1126 2970 
L 1069 3475 
L 589 3475 
L 589 0 
z
" transform="scale(0.015625)"/>
      <path id="NotoSansCJKjp-Regular-65" d="M 1997 -83 
C 2464 -83 2835 70 3136 269 
L 2931 659 
C 2669 486 2400 384 2061 384 
C 1402 384 947 858 909 1600 
L 3251 1600 
C 3264 1690 3277 1805 3277 1933 
C 3277 2925 2778 3565 1888 3565 
C 1094 3565 333 2867 333 1734 
C 333 589 1069 -83 1997 -83 
z
M 902 2016 
C 973 2707 1408 3098 1901 3098 
C 2445 3098 2765 2720 2765 2016 
L 902 2016 
z
" transform="scale(0.015625)"/>
      <path id="NotoSansCJKjp-Regular-30" d="M 1779 -83 
C 2669 -83 3238 723 3238 2362 
C 3238 3987 2669 4774 1779 4774 
C 883 4774 320 3987 320 2362 
C 320 723 883 -83 1779 -83 
z
M 1779 390 
C 1248 390 883 986 883 2362 
C 883 3731 1248 4314 1779 4314 
C 2310 4314 2675 3731 2675 2362 
C 2675 986 2310 390 1779 390 
z
" transform="scale(0.015625)"/>
      <path id="NotoSansCJKjp-Regular-33" d="M 1683 -83 
C 2522 -83 3194 416 3194 1254 
C 3194 1901 2752 2310 2202 2445 
L 2202 2477 
C 2701 2650 3034 3034 3034 3603 
C 3034 4346 2458 4774 1664 4774 
C 1126 4774 710 4538 358 4218 
L 672 3846 
C 941 4115 1267 4301 1645 4301 
C 2138 4301 2438 4006 2438 3558 
C 2438 3053 2112 2662 1139 2662 
L 1139 2214 
C 2227 2214 2598 1843 2598 1274 
C 2598 736 2208 403 1645 403 
C 1114 403 762 659 486 941 
L 186 563 
C 493 224 954 -83 1683 -83 
z
" transform="scale(0.015625)"/>
     </defs>
     <use xlink:href="#NotoSansCJKjp-Regular-4e"/>
     <use xlink:href="#NotoSansCJKjp-Regular-20" x="72.299988"/>
     <use xlink:href="#NotoSansCJKjp-Regular-4f4e" x="94.699982"/>
     <use xlink:href="#NotoSansCJKjp-Regular-4f4d" x="194.699966"/>
     <use xlink:href="#NotoSansCJKjp-Regular-20" x="294.699951"/>
     <use xlink:href="#NotoSansCJKjp-Regular-2d" x="317.099945"/>
     <use xlink:href="#NotoSansCJKjp-Regular-3e" x="351.799942"/>
     <use xlink:href="#NotoSansCJKjp-Regular-20" x="407.299927"/>
     <use xlink:href="#NotoSansCJKjp-Regular-6c" x="429.699921"/>
     <use xlink:href="#NotoSansCJKjp-Regular-61" x="458.099915"/>
     <use xlink:href="#NotoSansCJKjp-Regular-6e" x="514.399902"/>
     <use xlink:href="#NotoSansCJKjp-Regular-65" x="575.399887"/>
     <use xlink:href="#NotoSansCJKjp-Regular-20" x="630.799881"/>
     <use xlink:href="#NotoSansCJKjp-Regular-30" x="653.199875"/>
     <use xlink:href="#NotoSansCJKjp-Regular-2d" x="708.69986"/>
     <use xlink:href="#NotoSansCJKjp-Regular-36" x="743.399857"/>
     <use xlink:href="#NotoSansCJKjp-Regular-33" x="798.899841"/>
    </g>
   </g>
   <g id="text_11">
    <!-- 行 0-63 -->
    <g style="fill: #ffffff" transform="translate(377.584833 95.393531) scale(0.075 -0.075)">
     <use xlink:href="#NotoSansCJKjp-Bold-884c"/>
     <use xlink:href="#NotoSansCJKjp-Bold-20" x="99.999985"/>
     <use xlink:href="#NotoSansCJKjp-Bold-30" x="122.699982"/>
     <use xlink:href="#NotoSansCJKjp-Bold-2d" x="181.699966"/>
     <use xlink:href="#NotoSansCJKjp-Bold-36" x="218.699951"/>
     <use xlink:href="#NotoSansCJKjp-Bold-33" x="277.699936"/>
    </g>
   </g>
   <g id="text_12">
    <!-- N 高位 -&gt; lane 64-127 -->
    <g style="fill: #ffffff" transform="translate(362.696231 104.403024) scale(0.057 -0.057)">
     <defs>
      <path id="NotoSansCJKjp-Regular-9ad8" d="M 1939 3635 
L 4448 3635 
L 4448 3021 
L 1939 3021 
L 1939 3635 
z
M 1478 3987 
L 1478 2662 
L 4928 2662 
L 4928 3987 
L 1478 3987 
z
M 2918 5382 
L 2918 4768 
L 416 4768 
L 416 4346 
L 5978 4346 
L 5978 4768 
L 3411 4768 
L 3411 5382 
L 2918 5382 
z
M 704 2266 
L 704 -512 
L 1171 -512 
L 1171 1856 
L 5261 1856 
L 5261 70 
C 5261 -19 5235 -45 5120 -51 
C 5018 -58 4653 -58 4237 -45 
C 4301 -179 4371 -365 4390 -499 
C 4922 -499 5267 -499 5478 -422 
C 5683 -346 5741 -205 5741 64 
L 5741 2266 
L 704 2266 
z
M 2406 1088 
L 3994 1088 
L 3994 435 
L 2406 435 
L 2406 1088 
z
M 1984 1440 
L 1984 -243 
L 2406 -243 
L 2406 83 
L 4422 83 
L 4422 1440 
L 1984 1440 
z
" transform="scale(0.015625)"/>
      <path id="NotoSansCJKjp-Regular-31" d="M 563 0 
L 3136 0 
L 3136 486 
L 2195 486 
L 2195 4691 
L 1747 4691 
C 1491 4544 1190 4435 774 4358 
L 774 3987 
L 1613 3987 
L 1613 486 
L 563 486 
L 563 0 
z
" transform="scale(0.015625)"/>
      <path id="NotoSansCJKjp-Regular-37" d="M 1267 0 
L 1875 0 
C 1952 1837 2150 2931 3251 4339 
L 3251 4691 
L 314 4691 
L 314 4192 
L 2592 4192 
C 1670 2912 1350 1779 1267 0 
z
" transform="scale(0.015625)"/>
     </defs>
     <use xlink:href="#NotoSansCJKjp-Regular-4e"/>
     <use xlink:href="#NotoSansCJKjp-Regular-20" x="72.299988"/>
     <use xlink:href="#NotoSansCJKjp-Regular-9ad8" x="94.699982"/>
     <use xlink:href="#NotoSansCJKjp-Regular-4f4d" x="194.699966"/>
     <use xlink:href="#NotoSansCJKjp-Regular-20" x="294.699951"/>
     <use xlink:href="#NotoSansCJKjp-Regular-2d" x="317.099945"/>
     <use xlink:href="#NotoSansCJKjp-Regular-3e" x="351.799942"/>
     <use xlink:href="#NotoSansCJKjp-Regular-20" x="407.299927"/>
     <use xlink:href="#NotoSansCJKjp-Regular-6c" x="429.699921"/>
     <use xlink:href="#NotoSansCJKjp-Regular-61" x="458.099915"/>
     <use xlink:href="#NotoSansCJKjp-Regular-6e" x="514.399902"/>
     <use xlink:href="#NotoSansCJKjp-Regular-65" x="575.399887"/>
     <use xlink:href="#NotoSansCJKjp-Regular-20" x="630.799881"/>
     <use xlink:href="#NotoSansCJKjp-Regular-36" x="653.199875"/>
     <use xlink:href="#NotoSansCJKjp-Regular-34" x="708.69986"/>
     <use xlink:href="#NotoSansCJKjp-Regular-2d" x="764.199844"/>
     <use xlink:href="#NotoSansCJKjp-Regular-31" x="798.899841"/>
     <use xlink:href="#NotoSansCJKjp-Regular-32" x="854.399826"/>
     <use xlink:href="#NotoSansCJKjp-Regular-37" x="909.899811"/>
    </g>
   </g>
   <g id="text_13">
    <!-- CTA 1 — SMEM -->
    <g style="fill: #334155" transform="translate(29.2968 165.799814) scale(0.08 -0.08)">
     <use xlink:href="#NotoSansCJKjp-Bold-43"/>
     <use xlink:href="#NotoSansCJKjp-Bold-54" x="65.599991"/>
     <use xlink:href="#NotoSansCJKjp-Bold-41" x="128.099976"/>
     <use xlink:href="#NotoSansCJKjp-Bold-20" x="192.199966"/>
     <use xlink:href="#NotoSansCJKjp-Bold-31" x="214.899963"/>
     <use xlink:href="#NotoSansCJKjp-Bold-20" x="273.899948"/>
     <use xlink:href="#NotoSansCJKjp-Bold-2014" x="296.599945"/>
     <use xlink:href="#NotoSansCJKjp-Bold-20" x="387.399933"/>
     <use xlink:href="#NotoSansCJKjp-Bold-53" x="410.09993"/>
     <use xlink:href="#NotoSansCJKjp-Bold-4d" x="472.499924"/>
     <use xlink:href="#NotoSansCJKjp-Bold-45" x="557.799911"/>
     <use xlink:href="#NotoSansCJKjp-Bold-4d" x="619.299896"/>
    </g>
   </g>
   <g id="text_14">
    <!-- A  行 64-127 -->
    <g style="fill: #ffffff" transform="translate(92.660675 178.991997) scale(0.08 -0.08)">
     <defs>
      <path id="NotoSansCJKjp-Bold-34" d="M 2157 0 
L 3034 0 
L 3034 1229 
L 3597 1229 
L 3597 1946 
L 3034 1946 
L 3034 4742 
L 1901 4742 
L 134 1869 
L 134 1229 
L 2157 1229 
L 2157 0 
z
M 2157 1946 
L 1050 1946 
L 1786 3123 
C 1920 3379 2048 3642 2163 3898 
L 2195 3898 
C 2176 3616 2157 3187 2157 2912 
L 2157 1946 
z
" transform="scale(0.015625)"/>
      <path id="NotoSansCJKjp-Bold-37" d="M 1190 0 
L 2138 0 
C 2221 1850 2368 2822 3469 4166 
L 3469 4742 
L 320 4742 
L 320 3949 
L 2451 3949 
C 1549 2694 1274 1645 1190 0 
z
" transform="scale(0.015625)"/>
     </defs>
     <use xlink:href="#NotoSansCJKjp-Bold-41"/>
     <use xlink:href="#NotoSansCJKjp-Bold-20" x="64.099991"/>
     <use xlink:href="#NotoSansCJKjp-Bold-20" x="86.799988"/>
     <use xlink:href="#NotoSansCJKjp-Bold-884c" x="109.499985"/>
     <use xlink:href="#NotoSansCJKjp-Bold-20" x="209.499969"/>
     <use xlink:href="#NotoSansCJKjp-Bold-36" x="232.199966"/>
     <use xlink:href="#NotoSansCJKjp-Bold-34" x="291.199951"/>
     <use xlink:href="#NotoSansCJKjp-Bold-2d" x="350.199936"/>
     <use xlink:href="#NotoSansCJKjp-Bold-31" x="387.199921"/>
     <use xlink:href="#NotoSansCJKjp-Bold-32" x="446.199905"/>
     <use xlink:href="#NotoSansCJKjp-Bold-37" x="505.19989"/>
    </g>
   </g>
   <g id="text_15">
    <!-- 64 × K -->
    <g style="fill: #ffffff" transform="translate(105.296206 188.795802) scale(0.062 -0.062)">
     <use xlink:href="#NotoSansCJKjp-Regular-36"/>
     <use xlink:href="#NotoSansCJKjp-Regular-34" x="55.499985"/>
     <use xlink:href="#NotoSansCJKjp-Regular-20" x="110.999969"/>
     <use xlink:href="#NotoSansCJKjp-Regular-d7" x="133.399963"/>
     <use xlink:href="#NotoSansCJKjp-Regular-20" x="233.399948"/>
     <use xlink:href="#NotoSansCJKjp-Regular-4b" x="255.799942"/>
    </g>
   </g>
   <g id="text_16">
    <!-- B  列 N/2..N -->
    <g style="fill: #ffffff" transform="translate(93.28005 217.950793) scale(0.08 -0.08)">
     <use xlink:href="#NotoSansCJKjp-Bold-42"/>
     <use xlink:href="#NotoSansCJKjp-Bold-20" x="68.099991"/>
     <use xlink:href="#NotoSansCJKjp-Bold-20" x="90.799988"/>
     <use xlink:href="#NotoSansCJKjp-Bold-5217" x="113.499985"/>
     <use xlink:href="#NotoSansCJKjp-Bold-20" x="213.499969"/>
     <use xlink:href="#NotoSansCJKjp-Bold-4e" x="236.199966"/>
     <use xlink:href="#NotoSansCJKjp-Bold-2f" x="311.09996"/>
     <use xlink:href="#NotoSansCJKjp-Bold-32" x="349.799957"/>
     <use xlink:href="#NotoSansCJKjp-Bold-2e" x="408.799942"/>
     <use xlink:href="#NotoSansCJKjp-Bold-2e" x="441.299927"/>
     <use xlink:href="#NotoSansCJKjp-Bold-4e" x="473.799911"/>
    </g>
   </g>
   <g id="text_17">
    <!-- N/2 × K -->
    <g style="fill: #ffffff" transform="translate(103.560206 226.956263) scale(0.062 -0.062)">
     <use xlink:href="#NotoSansCJKjp-Regular-4e"/>
     <use xlink:href="#NotoSansCJKjp-Regular-2f" x="72.299988"/>
     <use xlink:href="#NotoSansCJKjp-Regular-32" x="111.499985"/>
     <use xlink:href="#NotoSansCJKjp-Regular-20" x="166.999969"/>
     <use xlink:href="#NotoSansCJKjp-Regular-d7" x="189.399963"/>
     <use xlink:href="#NotoSansCJKjp-Regular-20" x="289.399948"/>
     <use xlink:href="#NotoSansCJKjp-Regular-4b" x="311.799942"/>
    </g>
   </g>
   <g id="patch_15">
    <path d="M 215.435546 201.46176 
Q 245.355498 201.46176 273.262988 201.46176 
" style="fill: none; stroke: #059669; stroke-width: 1.8; stroke-linecap: round"/>
    <path d="M 269.262988 199.46176 
L 273.262988 201.46176 
L 269.262988 203.46176 
L 269.262988 199.46176 
z
" style="fill: #059669; stroke: #059669; stroke-width: 1.8; stroke-linecap: round"/>
   </g>
   <g id="text_18">
    <!-- MMA -->
    <g style="fill: #059669" transform="translate(237.542291 187.479102) scale(0.07 -0.07)">
     <use xlink:href="#NotoSansCJKjp-Regular-4d"/>
     <use xlink:href="#NotoSansCJKjp-Regular-4d" x="81.199982"/>
     <use xlink:href="#NotoSansCJKjp-Regular-41" x="162.399963"/>
    </g>
   </g>
   <g id="text_19">
    <!-- CTA 1 — TMEM -->
    <g style="fill: #334155" transform="translate(304.2792 165.799814) scale(0.08 -0.08)">
     <use xlink:href="#NotoSansCJKjp-Bold-43"/>
     <use xlink:href="#NotoSansCJKjp-Bold-54" x="65.599991"/>
     <use xlink:href="#NotoSansCJKjp-Bold-41" x="128.099976"/>
     <use xlink:href="#NotoSansCJKjp-Bold-20" x="192.199966"/>
     <use xlink:href="#NotoSansCJKjp-Bold-31" x="214.899963"/>
     <use xlink:href="#NotoSansCJKjp-Bold-20" x="273.899948"/>
     <use xlink:href="#NotoSansCJKjp-Bold-2014" x="296.599945"/>
     <use xlink:href="#NotoSansCJKjp-Bold-20" x="387.399933"/>
     <use xlink:href="#NotoSansCJKjp-Bold-54" x="410.09993"/>
     <use xlink:href="#NotoSansCJKjp-Bold-4d" x="472.599915"/>
     <use xlink:href="#NotoSansCJKjp-Bold-45" x="557.899902"/>
     <use xlink:href="#NotoSansCJKjp-Bold-4d" x="619.399887"/>
    </g>
   </g>
   <g id="text_20">
    <!-- C 行 64-127 -->
    <g style="fill: #ffffff" transform="translate(369.8487 178.846254) scale(0.075 -0.075)">
     <use xlink:href="#NotoSansCJKjp-Bold-43"/>
     <use xlink:href="#NotoSansCJKjp-Bold-20" x="65.599991"/>
     <use xlink:href="#NotoSansCJKjp-Bold-884c" x="88.299988"/>
     <use xlink:href="#NotoSansCJKjp-Bold-20" x="188.299973"/>
     <use xlink:href="#NotoSansCJKjp-Bold-36" x="210.999969"/>
     <use xlink:href="#NotoSansCJKjp-Bold-34" x="269.999954"/>
     <use xlink:href="#NotoSansCJKjp-Bold-2d" x="328.999939"/>
     <use xlink:href="#NotoSansCJKjp-Bold-31" x="365.999924"/>
     <use xlink:href="#NotoSansCJKjp-Bold-32" x="424.999908"/>
     <use xlink:href="#NotoSansCJKjp-Bold-37" x="483.999893"/>
    </g>
   </g>
   <g id="text_21">
    <!-- N 低位 -&gt; lane 0-63 -->
    <g style="fill: #ffffff" transform="translate(365.859731 188.654083) scale(0.057 -0.057)">
     <use xlink:href="#NotoSansCJKjp-Regular-4e"/>
     <use xlink:href="#NotoSansCJKjp-Regular-20" x="72.299988"/>
     <use xlink:href="#NotoSansCJKjp-Regular-4f4e" x="94.699982"/>
     <use xlink:href="#NotoSansCJKjp-Regular-4f4d" x="194.699966"/>
     <use xlink:href="#NotoSansCJKjp-Regular-20" x="294.699951"/>
     <use xlink:href="#NotoSansCJKjp-Regular-2d" x="317.099945"/>
     <use xlink:href="#NotoSansCJKjp-Regular-3e" x="351.799942"/>
     <use xlink:href="#NotoSansCJKjp-Regular-20" x="407.299927"/>
     <use xlink:href="#NotoSansCJKjp-Regular-6c" x="429.699921"/>
     <use xlink:href="#NotoSansCJKjp-Regular-61" x="458.099915"/>
     <use xlink:href="#NotoSansCJKjp-Regular-6e" x="514.399902"/>
     <use xlink:href="#NotoSansCJKjp-Regular-65" x="575.399887"/>
     <use xlink:href="#NotoSansCJKjp-Regular-20" x="630.799881"/>
     <use xlink:href="#NotoSansCJKjp-Regular-30" x="653.199875"/>
     <use xlink:href="#NotoSansCJKjp-Regular-2d" x="708.69986"/>
     <use xlink:href="#NotoSansCJKjp-Regular-36" x="743.399857"/>
     <use xlink:href="#NotoSansCJKjp-Regular-33" x="798.899841"/>
    </g>
   </g>
   <g id="text_22">
    <!-- 行 64-127 -->
    <g style="fill: #ffffff" transform="translate(373.159833 217.805051) scale(0.075 -0.075)">
     <use xlink:href="#NotoSansCJKjp-Bold-884c"/>
     <use xlink:href="#NotoSansCJKjp-Bold-20" x="99.999985"/>
     <use xlink:href="#NotoSansCJKjp-Bold-36" x="122.699982"/>
     <use xlink:href="#NotoSansCJKjp-Bold-34" x="181.699966"/>
     <use xlink:href="#NotoSansCJKjp-Bold-2d" x="240.699951"/>
     <use xlink:href="#NotoSansCJKjp-Bold-31" x="277.699936"/>
     <use xlink:href="#NotoSansCJKjp-Bold-32" x="336.699921"/>
     <use xlink:href="#NotoSansCJKjp-Bold-37" x="395.699905"/>
    </g>
   </g>
   <g id="text_23">
    <!-- N 高位 -&gt; lane 64-127 -->
    <g style="fill: #ffffff" transform="translate(362.696231 226.814544) scale(0.057 -0.057)">
     <use xlink:href="#NotoSansCJKjp-Regular-4e"/>
     <use xlink:href="#NotoSansCJKjp-Regular-20" x="72.299988"/>
     <use xlink:href="#NotoSansCJKjp-Regular-9ad8" x="94.699982"/>
     <use xlink:href="#NotoSansCJKjp-Regular-4f4d" x="194.699966"/>
     <use xlink:href="#NotoSansCJKjp-Regular-20" x="294.699951"/>
     <use xlink:href="#NotoSansCJKjp-Regular-2d" x="317.099945"/>
     <use xlink:href="#NotoSansCJKjp-Regular-3e" x="351.799942"/>
     <use xlink:href="#NotoSansCJKjp-Regular-20" x="407.299927"/>
     <use xlink:href="#NotoSansCJKjp-Regular-6c" x="429.699921"/>
     <use xlink:href="#NotoSansCJKjp-Regular-61" x="458.099915"/>
     <use xlink:href="#NotoSansCJKjp-Regular-6e" x="514.399902"/>
     <use xlink:href="#NotoSansCJKjp-Regular-65" x="575.399887"/>
     <use xlink:href="#NotoSansCJKjp-Regular-20" x="630.799881"/>
     <use xlink:href="#NotoSansCJKjp-Regular-36" x="653.199875"/>
     <use xlink:href="#NotoSansCJKjp-Regular-34" x="708.69986"/>
     <use xlink:href="#NotoSansCJKjp-Regular-2d" x="764.199844"/>
     <use xlink:href="#NotoSansCJKjp-Regular-31" x="798.899841"/>
     <use xlink:href="#NotoSansCJKjp-Regular-32" x="854.399826"/>
     <use xlink:href="#NotoSansCJKjp-Regular-37" x="909.899811"/>
    </g>
   </g>
   <g id="text_24">
    <!-- 每个 CTA:64 行,N 划分 -&gt; 低位半在 lane 0-63, -->
    <g style="fill: #334155" transform="translate(184.701406 138.194325) scale(0.068 -0.068)">
     <defs>
      <path id="NotoSansCJKjp-Regular-6bcf" d="M 2502 2931 
C 2906 2746 3386 2445 3635 2208 
L 1722 2208 
L 1856 3219 
L 4800 3219 
L 4762 2208 
L 3674 2208 
L 3942 2490 
C 3693 2726 3187 3021 2778 3200 
L 2502 2931 
z
M 275 2221 
L 275 1786 
L 1190 1786 
C 1094 1158 992 550 902 109 
L 1389 77 
L 1434 320 
L 4608 320 
C 4570 128 4525 13 4480 -45 
C 4422 -122 4365 -141 4250 -141 
C 4122 -141 3827 -134 3507 -109 
C 3571 -218 3616 -384 3622 -493 
C 3936 -512 4262 -518 4448 -506 
C 4646 -486 4781 -435 4902 -269 
C 4979 -173 5037 6 5088 320 
L 5914 320 
L 5914 749 
L 5139 749 
C 5171 1024 5190 1363 5216 1786 
L 6138 1786 
L 6138 2221 
L 5235 2221 
L 5280 3411 
C 5280 3475 5286 3648 5286 3648 
L 1427 3648 
C 1382 3219 1318 2720 1254 2221 
L 275 2221 
z
M 4666 749 
L 3603 749 
L 3834 998 
C 3571 1254 3059 1581 2618 1792 
L 4742 1792 
C 4717 1357 4698 1018 4666 749 
z
M 2336 1523 
C 2746 1318 3226 1005 3494 749 
L 1504 749 
L 1664 1792 
L 2598 1792 
L 2336 1523 
z
M 1734 5414 
C 1402 4602 845 3776 262 3264 
C 384 3194 608 3046 710 2963 
C 1030 3290 1363 3718 1658 4192 
L 5901 4192 
L 5901 4634 
L 1920 4634 
C 2029 4845 2138 5056 2234 5274 
L 1734 5414 
z
" transform="scale(0.015625)"/>
      <path id="NotoSansCJKjp-Regular-4e2a" d="M 3174 4858 
C 3770 4026 4941 3014 5990 2406 
C 6080 2554 6189 2720 6317 2842 
C 5261 3373 4090 4365 3398 5357 
L 2893 5357 
C 2387 4493 1274 3411 115 2758 
C 224 2656 358 2483 422 2368 
C 1562 3040 2650 4051 3174 4858 
z
M 2925 3264 
L 2925 -512 
L 3430 -512 
L 3430 3264 
L 2925 3264 
z
" transform="scale(0.015625)"/>
      <path id="NotoSansCJKjp-Regular-43" d="M 2413 -83 
C 3021 -83 3482 160 3853 589 
L 3526 966 
C 3226 634 2886 435 2438 435 
C 1542 435 979 1178 979 2362 
C 979 3533 1574 4256 2458 4256 
C 2861 4256 3168 4077 3418 3814 
L 3738 4198 
C 3469 4499 3021 4774 2451 4774 
C 1261 4774 371 3859 371 2342 
C 371 819 1242 -83 2413 -83 
z
" transform="scale(0.015625)"/>
      <path id="NotoSansCJKjp-Regular-54" d="M 1619 0 
L 2214 0 
L 2214 4192 
L 3635 4192 
L 3635 4691 
L 198 4691 
L 198 4192 
L 1619 4192 
L 1619 0 
z
" transform="scale(0.015625)"/>
      <path id="NotoSansCJKjp-Regular-3a" d="M 890 2496 
C 1120 2496 1312 2675 1312 2944 
C 1312 3206 1120 3392 890 3392 
C 653 3392 467 3206 467 2944 
C 467 2675 653 2496 890 2496 
z
M 890 -83 
C 1120 -83 1312 96 1312 358 
C 1312 627 1120 806 890 806 
C 653 806 467 627 467 358 
C 467 96 653 -83 890 -83 
z
" transform="scale(0.015625)"/>
      <path id="NotoSansCJKjp-Regular-884c" d="M 2784 4992 
L 2784 4531 
L 5933 4531 
L 5933 4992 
L 2784 4992 
z
M 1709 5382 
C 1382 4915 762 4346 224 3981 
C 307 3891 442 3706 506 3597 
C 1082 4006 1741 4634 2170 5190 
L 1709 5382 
z
M 2502 3226 
L 2502 2765 
L 4659 2765 
L 4659 109 
C 4659 6 4614 -26 4493 -32 
C 4378 -38 3942 -38 3488 -19 
C 3558 -160 3629 -358 3648 -493 
C 4275 -493 4640 -493 4858 -422 
C 5069 -339 5146 -192 5146 102 
L 5146 2765 
L 6112 2765 
L 6112 3226 
L 2502 3226 
z
M 1965 4006 
C 1523 3277 819 2534 160 2061 
C 256 1965 429 1754 499 1658 
C 736 1850 986 2080 1229 2330 
L 1229 -531 
L 1702 -531 
L 1702 2854 
C 1971 3174 2214 3507 2419 3840 
L 1965 4006 
z
" transform="scale(0.015625)"/>
      <path id="NotoSansCJKjp-Regular-2c" d="M 480 -1216 
C 1056 -973 1414 -493 1414 122 
C 1414 550 1229 806 922 806 
C 685 806 480 653 480 397 
C 480 141 678 -13 909 -13 
L 979 -6 
C 973 -390 736 -698 339 -870 
L 480 -1216 
z
" transform="scale(0.015625)"/>
      <path id="NotoSansCJKjp-Regular-5212" d="M 4134 4672 
L 4134 1158 
L 4602 1158 
L 4602 4672 
L 4134 4672 
z
M 5376 5312 
L 5376 109 
C 5376 0 5331 -32 5216 -38 
C 5107 -38 4742 -45 4333 -32 
C 4397 -166 4474 -378 4493 -506 
C 5050 -506 5376 -493 5574 -416 
C 5766 -333 5843 -198 5843 115 
L 5843 5312 
L 5376 5312 
z
M 1978 4979 
C 2310 4710 2707 4320 2893 4064 
L 3232 4358 
C 3046 4614 2637 4986 2298 5235 
L 1978 4979 
z
M 2957 3053 
C 2739 2522 2458 2029 2118 1587 
C 1984 2048 1869 2592 1786 3194 
L 3808 3424 
L 3763 3878 
L 1728 3648 
C 1670 4192 1638 4774 1638 5370 
L 1146 5370 
C 1152 4762 1190 4166 1254 3590 
L 230 3475 
L 275 3021 
L 1312 3136 
C 1414 2400 1562 1722 1754 1158 
C 1312 691 800 301 243 6 
C 346 -90 512 -275 582 -378 
C 1069 -90 1523 262 1933 672 
C 2240 -45 2624 -486 3072 -486 
C 3514 -486 3686 -198 3776 774 
C 3648 819 3475 922 3373 1030 
C 3334 282 3258 -13 3098 -13 
C 2829 -13 2541 390 2291 1062 
C 2746 1600 3123 2221 3418 2918 
L 2957 3053 
z
" transform="scale(0.015625)"/>
      <path id="NotoSansCJKjp-Regular-5206" d="M 2074 5248 
C 1677 4256 966 3373 147 2829 
C 262 2739 474 2554 563 2451 
C 1363 3059 2118 4019 2586 5101 
L 2074 5248 
z
M 4307 5261 
L 3846 5075 
C 4326 4122 5139 3085 5850 2509 
C 5939 2643 6118 2829 6253 2931 
C 5549 3424 4723 4397 4307 5261 
z
M 1197 2957 
L 1197 2490 
L 2509 2490 
C 2368 1402 2010 378 486 -122 
C 595 -224 736 -416 800 -544 
C 2445 51 2854 1216 3027 2490 
L 4685 2490 
C 4608 864 4512 224 4346 58 
C 4282 -6 4205 -26 4077 -26 
C 3923 -26 3533 -19 3110 19 
C 3200 -115 3258 -320 3270 -461 
C 3674 -486 4070 -493 4288 -474 
C 4506 -454 4653 -410 4781 -243 
C 5005 0 5094 736 5190 2726 
C 5197 2790 5197 2957 5197 2957 
L 1197 2957 
z
" transform="scale(0.015625)"/>
      <path id="NotoSansCJKjp-Regular-534a" d="M 941 5037 
C 1242 4582 1555 3968 1677 3590 
L 2138 3789 
C 2010 4173 1683 4768 1376 5210 
L 941 5037 
z
M 4986 5229 
C 4800 4774 4467 4141 4198 3757 
L 4621 3590 
C 4890 3968 5229 4550 5491 5050 
L 4986 5229 
z
M 2931 5382 
L 2931 3302 
L 755 3302 
L 755 2829 
L 2931 2829 
L 2931 1798 
L 339 1798 
L 339 1318 
L 2931 1318 
L 2931 -499 
L 3430 -499 
L 3430 1318 
L 6067 1318 
L 6067 1798 
L 3430 1798 
L 3430 2829 
L 5696 2829 
L 5696 3302 
L 3430 3302 
L 3430 5382 
L 2931 5382 
z
" transform="scale(0.015625)"/>
      <path id="NotoSansCJKjp-Regular-5728" d="M 2502 5376 
C 2413 5050 2298 4710 2163 4384 
L 403 4384 
L 403 3923 
L 1952 3923 
C 1542 3104 979 2342 243 1830 
C 320 1722 442 1517 493 1389 
C 762 1581 1011 1798 1235 2035 
L 1235 -486 
L 1715 -486 
L 1715 2605 
C 2016 3014 2278 3462 2496 3923 
L 6010 3923 
L 6010 4384 
L 2694 4384 
C 2810 4672 2912 4966 3002 5254 
L 2502 5376 
z
M 3827 3590 
L 3827 2355 
L 2387 2355 
L 2387 1907 
L 3827 1907 
L 3827 90 
L 2131 90 
L 2131 -358 
L 6003 -358 
L 6003 90 
L 4307 90 
L 4307 1907 
L 5760 1907 
L 5760 2355 
L 4307 2355 
L 4307 3590 
L 3827 3590 
z
" transform="scale(0.015625)"/>
     </defs>
     <use xlink:href="#NotoSansCJKjp-Regular-6bcf"/>
     <use xlink:href="#NotoSansCJKjp-Regular-4e2a" x="99.999985"/>
     <use xlink:href="#NotoSansCJKjp-Regular-20" x="199.999969"/>
     <use xlink:href="#NotoSansCJKjp-Regular-43" x="222.399963"/>
     <use xlink:href="#NotoSansCJKjp-Regular-54" x="286.199951"/>
     <use xlink:href="#NotoSansCJKjp-Regular-41" x="346.099945"/>
     <use xlink:href="#NotoSansCJKjp-Regular-3a" x="406.899933"/>
     <use xlink:href="#NotoSansCJKjp-Regular-36" x="434.699921"/>
     <use xlink:href="#NotoSansCJKjp-Regular-34" x="490.199905"/>
     <use xlink:href="#NotoSansCJKjp-Regular-20" x="545.69989"/>
     <use xlink:href="#NotoSansCJKjp-Regular-884c" x="568.099884"/>
     <use xlink:href="#NotoSansCJKjp-Regular-2c" x="668.099869"/>
     <use xlink:href="#NotoSansCJKjp-Regular-4e" x="695.899857"/>
     <use xlink:href="#NotoSansCJKjp-Regular-20" x="768.199844"/>
     <use xlink:href="#NotoSansCJKjp-Regular-5212" x="790.599838"/>
     <use xlink:href="#NotoSansCJKjp-Regular-5206" x="890.599823"/>
     <use xlink:href="#NotoSansCJKjp-Regular-20" x="990.599808"/>
     <use xlink:href="#NotoSansCJKjp-Regular-2d" x="1012.999802"/>
     <use xlink:href="#NotoSansCJKjp-Regular-3e" x="1047.699799"/>
     <use xlink:href="#NotoSansCJKjp-Regular-20" x="1103.199783"/>
     <use xlink:href="#NotoSansCJKjp-Regular-4f4e" x="1125.599777"/>
     <use xlink:href="#NotoSansCJKjp-Regular-4f4d" x="1225.599762"/>
     <use xlink:href="#NotoSansCJKjp-Regular-534a" x="1325.599747"/>
     <use xlink:href="#NotoSansCJKjp-Regular-5728" x="1425.599731"/>
     <use xlink:href="#NotoSansCJKjp-Regular-20" x="1525.599716"/>
     <use xlink:href="#NotoSansCJKjp-Regular-6c" x="1547.99971"/>
     <use xlink:href="#NotoSansCJKjp-Regular-61" x="1576.399704"/>
     <use xlink:href="#NotoSansCJKjp-Regular-6e" x="1632.699692"/>
     <use xlink:href="#NotoSansCJKjp-Regular-65" x="1693.699677"/>
     <use xlink:href="#NotoSansCJKjp-Regular-20" x="1749.09967"/>
     <use xlink:href="#NotoSansCJKjp-Regular-30" x="1771.499664"/>
     <use xlink:href="#NotoSansCJKjp-Regular-2d" x="1826.999649"/>
     <use xlink:href="#NotoSansCJKjp-Regular-36" x="1861.699646"/>
     <use xlink:href="#NotoSansCJKjp-Regular-33" x="1917.199631"/>
     <use xlink:href="#NotoSansCJKjp-Regular-2c" x="1972.699615"/>
    </g>
    <!-- 高位半在 lane 64-127 -->
    <g style="fill: #334155" transform="translate(220.14375 146.2468) scale(0.068 -0.068)">
     <use xlink:href="#NotoSansCJKjp-Regular-9ad8"/>
     <use xlink:href="#NotoSansCJKjp-Regular-4f4d" x="99.999985"/>
     <use xlink:href="#NotoSansCJKjp-Regular-534a" x="199.999969"/>
     <use xlink:href="#NotoSansCJKjp-Regular-5728" x="299.999954"/>
     <use xlink:href="#NotoSansCJKjp-Regular-20" x="399.999939"/>
     <use xlink:href="#NotoSansCJKjp-Regular-6c" x="422.399933"/>
     <use xlink:href="#NotoSansCJKjp-Regular-61" x="450.799927"/>
     <use xlink:href="#NotoSansCJKjp-Regular-6e" x="507.099915"/>
     <use xlink:href="#NotoSansCJKjp-Regular-65" x="568.099899"/>
     <use xlink:href="#NotoSansCJKjp-Regular-20" x="623.499893"/>
     <use xlink:href="#NotoSansCJKjp-Regular-36" x="645.899887"/>
     <use xlink:href="#NotoSansCJKjp-Regular-34" x="701.399872"/>
     <use xlink:href="#NotoSansCJKjp-Regular-2d" x="756.899857"/>
     <use xlink:href="#NotoSansCJKjp-Regular-31" x="791.599854"/>
     <use xlink:href="#NotoSansCJKjp-Regular-32" x="847.099838"/>
     <use xlink:href="#NotoSansCJKjp-Regular-37" x="902.599823"/>
    </g>
   </g>
  </g>
 </g>
 <defs>
  <clipPath id="p417e694bfd">
   <rect x="7.2" y="7.2" width="491.04" height="266.112"/>
  </clipPath>
 </defs>
</svg>
