<?xml version="1.0" encoding="utf-8" standalone="no"?>
<!DOCTYPE svg PUBLIC "-//W3C//DTD SVG 1.1//EN"
  "http://www.w3.org/Graphics/SVG/1.1/DTD/svg11.dtd">
<svg xmlns:xlink="http://www.w3.org/1999/xlink" width="584.95735pt" height="269.424pt" viewBox="0 0 584.95735 269.424" xmlns="http://www.w3.org/2000/svg" version="1.1">
 <metadata>
  <rdf:RDF xmlns:dc="http://purl.org/dc/elements/1.1/" xmlns:cc="http://creativecommons.org/ns#" xmlns:rdf="http://www.w3.org/1999/02/22-rdf-syntax-ns#">
   <cc:Work>
    <dc:type rdf:resource="http://purl.org/dc/dcmitype/StillImage"/>
    <dc:date>2026-06-28T18:59:58.317713</dc:date>
    <dc:format>image/svg+xml</dc:format>
    <dc:creator>
     <cc:Agent>
      <dc:title>Matplotlib v3.6.3, https://matplotlib.org/</dc:title>
     </cc:Agent>
    </dc:creator>
   </cc:Work>
  </rdf:RDF>
 </metadata>
 <defs>
  <style type="text/css">*{stroke-linejoin: round; stroke-linecap: butt}</style>
 </defs>
 <g id="figure_1">
  <g id="patch_1">
   <path d="M 0 269.424 
L 584.95735 269.424 
L 584.95735 0 
L 0 0 
z
" style="fill: #ffffff"/>
  </g>
  <g id="axes_1">
   <g id="patch_2">
    <path d="M 167.904 93.90816 
L 226.8288 93.90816 
L 226.8288 60.75504 
L 167.904 60.75504 
z
" clip-path="url(#p6d19703437)" style="fill: #ef4444; opacity: 0.92; stroke: #ffffff; stroke-width: 1.6; stroke-linejoin: miter"/>
   </g>
   <g id="patch_3">
    <path d="M 226.8288 93.90816 
L 285.7536 93.90816 
L 285.7536 60.75504 
L 226.8288 60.75504 
z
" clip-path="url(#p6d19703437)" style="fill: #ef4444; opacity: 0.92; stroke: #ffffff; stroke-width: 1.6; stroke-linejoin: miter"/>
   </g>
   <g id="patch_4">
    <path d="M 285.7536 93.90816 
L 344.6784 93.90816 
L 344.6784 60.75504 
L 285.7536 60.75504 
z
" clip-path="url(#p6d19703437)" style="fill: #ef4444; opacity: 0.92; stroke: #ffffff; stroke-width: 1.6; stroke-linejoin: miter"/>
   </g>
   <g id="patch_5">
    <path d="M 344.6784 93.90816 
L 403.6032 93.90816 
L 403.6032 60.75504 
L 344.6784 60.75504 
z
" clip-path="url(#p6d19703437)" style="fill: #ef4444; opacity: 0.92; stroke: #ffffff; stroke-width: 1.6; stroke-linejoin: miter"/>
   </g>
   <g id="patch_6">
    <path d="M 167.904 144.91296 
L 226.8288 144.91296 
L 226.8288 111.75984 
L 167.904 111.75984 
z
" clip-path="url(#p6d19703437)" style="fill: #ef4444; opacity: 0.92; stroke: #ffffff; stroke-width: 1.6; stroke-linejoin: miter"/>
   </g>
   <g id="patch_7">
    <path d="M 226.8288 144.91296 
L 285.7536 144.91296 
L 285.7536 111.75984 
L 226.8288 111.75984 
z
" clip-path="url(#p6d19703437)" style="fill: #3b82f6; opacity: 0.92; stroke: #ffffff; stroke-width: 1.6; stroke-linejoin: miter"/>
   </g>
   <g id="patch_8">
    <path d="M 285.7536 144.91296 
L 344.6784 144.91296 
L 344.6784 111.75984 
L 285.7536 111.75984 
z
" clip-path="url(#p6d19703437)" style="fill: #ef4444; opacity: 0.92; stroke: #ffffff; stroke-width: 1.6; stroke-linejoin: miter"/>
   </g>
   <g id="patch_9">
    <path d="M 344.6784 144.91296 
L 403.6032 144.91296 
L 403.6032 111.75984 
L 344.6784 111.75984 
z
" clip-path="url(#p6d19703437)" style="fill: #3b82f6; opacity: 0.92; stroke: #ffffff; stroke-width: 1.6; stroke-linejoin: miter"/>
   </g>
   <g id="patch_10">
    <path d="M 167.904 195.91776 
L 226.8288 195.91776 
L 226.8288 162.76464 
L 167.904 162.76464 
z
" clip-path="url(#p6d19703437)" style="fill: #ef4444; opacity: 0.92; stroke: #ffffff; stroke-width: 1.6; stroke-linejoin: miter"/>
   </g>
   <g id="patch_11">
    <path d="M 226.8288 195.91776 
L 285.7536 195.91776 
L 285.7536 162.76464 
L 226.8288 162.76464 
z
" clip-path="url(#p6d19703437)" style="fill: #3b82f6; opacity: 0.92; stroke: #ffffff; stroke-width: 1.6; stroke-linejoin: miter"/>
   </g>
   <g id="patch_12">
    <path d="M 285.7536 195.91776 
L 344.6784 195.91776 
L 344.6784 162.76464 
L 285.7536 162.76464 
z
" clip-path="url(#p6d19703437)" style="fill: #10b981; opacity: 0.92; stroke: #ffffff; stroke-width: 1.6; stroke-linejoin: miter"/>
   </g>
   <g id="patch_13">
    <path d="M 344.6784 195.91776 
L 403.6032 195.91776 
L 403.6032 162.76464 
L 344.6784 162.76464 
z
" clip-path="url(#p6d19703437)" style="fill: #f59e0b; opacity: 0.92; stroke: #ffffff; stroke-width: 1.6; stroke-linejoin: miter"/>
   </g>
   <g id="text_1">
    <!-- scale_vec 模式:一个 TMEM u32 如何打包 K-block 缩放系数 -->
    <g style="fill: #1f2937" transform="translate(113.147812 24.426345) scale(0.12 -0.12)">
     <defs>
      <path id="NotoSansCJKjp-Bold-73" d="M 1530 -90 
C 2458 -90 2957 410 2957 1043 
C 2957 1702 2432 1946 1958 2125 
C 1574 2266 1248 2362 1248 2624 
C 1248 2829 1402 2970 1728 2970 
C 1990 2970 2240 2842 2496 2662 
L 2918 3232 
C 2624 3462 2221 3674 1702 3674 
C 883 3674 365 3219 365 2579 
C 365 1978 870 1702 1325 1530 
C 1702 1382 2074 1261 2074 992 
C 2074 768 1914 614 1555 614 
C 1216 614 915 762 595 1005 
L 166 410 
C 525 115 1050 -90 1530 -90 
z
" transform="scale(0.015625)"/>
      <path id="NotoSansCJKjp-Bold-63" d="M 2029 -90 
C 2426 -90 2861 45 3200 346 
L 2829 966 
C 2630 800 2394 678 2131 678 
C 1613 678 1242 1114 1242 1792 
C 1242 2464 1613 2906 2163 2906 
C 2362 2906 2528 2822 2707 2675 
L 3155 3270 
C 2893 3507 2554 3674 2112 3674 
C 1139 3674 282 2982 282 1792 
C 282 602 1043 -90 2029 -90 
z
" transform="scale(0.015625)"/>
      <path id="NotoSansCJKjp-Bold-61" d="M 1382 -90 
C 1798 -90 2157 109 2464 384 
L 2496 384 
L 2560 0 
L 3328 0 
L 3328 2093 
C 3328 3130 2861 3674 1952 3674 
C 1389 3674 877 3456 461 3200 
L 794 2573 
C 1126 2771 1446 2918 1779 2918 
C 2221 2918 2374 2650 2387 2298 
C 947 2144 326 1741 326 979 
C 326 365 742 -90 1382 -90 
z
M 1696 646 
C 1421 646 1222 768 1222 1050 
C 1222 1376 1510 1613 2387 1715 
L 2387 998 
C 2163 774 1965 646 1696 646 
z
" transform="scale(0.015625)"/>
      <path id="NotoSansCJKjp-Bold-6c" d="M 1395 -90 
C 1613 -90 1766 -51 1875 -6 
L 1760 691 
C 1696 678 1670 678 1632 678 
C 1542 678 1446 749 1446 966 
L 1446 5107 
L 506 5107 
L 506 1005 
C 506 339 736 -90 1395 -90 
z
" transform="scale(0.015625)"/>
      <path id="NotoSansCJKjp-Bold-65" d="M 2067 -90 
C 2509 -90 2963 64 3315 307 
L 2995 883 
C 2733 723 2483 640 2195 640 
C 1658 640 1274 941 1197 1523 
L 3405 1523 
C 3430 1613 3450 1786 3450 1958 
C 3450 2957 2938 3674 1952 3674 
C 1101 3674 282 2950 282 1792 
C 282 608 1062 -90 2067 -90 
z
M 1178 2157 
C 1254 2675 1587 2944 1965 2944 
C 2432 2944 2643 2637 2643 2157 
L 1178 2157 
z
" transform="scale(0.015625)"/>
      <path id="NotoSansCJKjp-Bold-5f" d="M 90 -992 
L 3539 -992 
L 3539 -448 
L 90 -448 
L 90 -992 
z
" transform="scale(0.015625)"/>
      <path id="NotoSansCJKjp-Bold-76" d="M 1312 0 
L 2400 0 
L 3597 3584 
L 2694 3584 
L 2170 1798 
C 2074 1446 1978 1075 1882 710 
L 1850 710 
C 1747 1075 1658 1446 1555 1798 
L 1037 3584 
L 90 3584 
L 1312 0 
z
" transform="scale(0.015625)"/>
      <path id="NotoSansCJKjp-Bold-20" transform="scale(0.015625)"/>
      <path id="NotoSansCJKjp-Bold-6a21" d="M 3277 2586 
L 5037 2586 
L 5037 2304 
L 3277 2304 
L 3277 2586 
z
M 3277 3360 
L 5037 3360 
L 5037 3085 
L 3277 3085 
L 3277 3360 
z
M 4608 5440 
L 4608 4998 
L 3866 4998 
L 3866 5440 
L 3136 5440 
L 3136 4998 
L 2387 4998 
L 2387 4371 
L 3136 4371 
L 3136 4006 
L 3866 4006 
L 3866 4371 
L 4608 4371 
L 4608 4006 
L 5350 4006 
L 5350 4371 
L 6074 4371 
L 6074 4998 
L 5350 4998 
L 5350 5440 
L 4608 5440 
z
M 2566 3891 
L 2566 1773 
L 3795 1773 
C 3782 1645 3763 1517 3744 1402 
L 2272 1402 
L 2272 768 
L 3494 768 
C 3258 435 2829 198 2029 38 
C 2176 -109 2355 -390 2419 -576 
C 3475 -320 4000 77 4269 634 
C 4589 45 5075 -365 5798 -563 
C 5901 -371 6112 -77 6272 70 
C 5696 186 5267 422 4979 768 
L 6099 768 
L 6099 1402 
L 4499 1402 
L 4544 1773 
L 5779 1773 
L 5779 3891 
L 2566 3891 
z
M 966 5440 
L 966 4243 
L 269 4243 
L 269 3533 
L 966 3533 
L 966 3373 
C 787 2643 474 1818 115 1357 
C 243 1152 410 800 486 582 
C 659 851 826 1216 966 1626 
L 966 -570 
L 1690 -570 
L 1690 2336 
C 1824 2067 1946 1792 2016 1600 
L 2470 2138 
C 2362 2323 1875 3066 1690 3309 
L 1690 3533 
L 2272 3533 
L 2272 4243 
L 1690 4243 
L 1690 5440 
L 966 5440 
z
" transform="scale(0.015625)"/>
      <path id="NotoSansCJKjp-Bold-5f0f" d="M 3475 5414 
C 3475 5056 3482 4698 3494 4346 
L 326 4346 
L 326 3597 
L 3533 3597 
C 3686 1325 4166 -576 5267 -576 
C 5875 -576 6138 -282 6253 941 
C 6042 1024 5754 1210 5581 1389 
C 5549 576 5472 230 5338 230 
C 4870 230 4474 1722 4339 3597 
L 6086 3597 
L 6086 4346 
L 5478 4346 
L 5926 4730 
C 5741 4941 5370 5242 5075 5440 
L 4570 5018 
C 4826 4826 5139 4557 5318 4346 
L 4307 4346 
C 4294 4698 4294 5056 4301 5414 
L 3475 5414 
z
M 326 378 
L 538 -397 
C 1370 -224 2509 13 3558 243 
L 3507 928 
L 2304 710 
L 2304 2125 
L 3341 2125 
L 3341 2867 
L 570 2867 
L 570 2125 
L 1536 2125 
L 1536 576 
C 1075 499 659 429 326 378 
z
" transform="scale(0.015625)"/>
      <path id="NotoSansCJKjp-Bold-3a" d="M 1043 2342 
C 1376 2342 1626 2605 1626 2950 
C 1626 3302 1376 3565 1043 3565 
C 704 3565 454 3302 454 2950 
C 454 2605 704 2342 1043 2342 
z
M 1043 -90 
C 1376 -90 1626 179 1626 525 
C 1626 877 1376 1139 1043 1139 
C 704 1139 454 877 454 525 
C 454 179 704 -90 1043 -90 
z
" transform="scale(0.015625)"/>
      <path id="NotoSansCJKjp-Bold-4e00" d="M 243 2912 
L 243 2074 
L 6170 2074 
L 6170 2912 
L 243 2912 
z
" transform="scale(0.015625)"/>
      <path id="NotoSansCJKjp-Bold-4e2a" d="M 3174 4627 
C 3718 3827 4800 2893 5824 2323 
C 5971 2560 6150 2829 6355 3027 
C 5299 3482 4243 4371 3552 5421 
L 2726 5421 
C 2259 4589 1216 3533 77 2944 
C 250 2784 474 2490 576 2304 
C 1658 2918 2656 3834 3174 4627 
z
M 2771 3258 
L 2771 -576 
L 3584 -576 
L 3584 3258 
L 2771 3258 
z
" transform="scale(0.015625)"/>
      <path id="NotoSansCJKjp-Bold-54" d="M 1523 0 
L 2470 0 
L 2470 3949 
L 3808 3949 
L 3808 4742 
L 192 4742 
L 192 3949 
L 1523 3949 
L 1523 0 
z
" transform="scale(0.015625)"/>
      <path id="NotoSansCJKjp-Bold-4d" d="M 582 0 
L 1434 0 
L 1434 1978 
C 1434 2432 1357 3085 1312 3533 
L 1338 3533 
L 1715 2419 
L 2451 429 
L 2995 429 
L 3725 2419 
L 4109 3533 
L 4141 3533 
C 4090 3085 4019 2432 4019 1978 
L 4019 0 
L 4883 0 
L 4883 4742 
L 3834 4742 
L 3040 2515 
C 2944 2227 2861 1914 2758 1613 
L 2726 1613 
C 2630 1914 2541 2227 2438 2515 
L 1632 4742 
L 582 4742 
L 582 0 
z
" transform="scale(0.015625)"/>
      <path id="NotoSansCJKjp-Bold-45" d="M 582 0 
L 3558 0 
L 3558 794 
L 1530 794 
L 1530 2061 
L 3187 2061 
L 3187 2854 
L 1530 2854 
L 1530 3949 
L 3488 3949 
L 3488 4742 
L 582 4742 
L 582 0 
z
" transform="scale(0.015625)"/>
      <path id="NotoSansCJKjp-Bold-75" d="M 1574 -90 
C 2067 -90 2406 154 2714 518 
L 2739 518 
L 2810 0 
L 3578 0 
L 3578 3584 
L 2637 3584 
L 2637 1165 
C 2394 845 2202 717 1914 717 
C 1562 717 1402 909 1402 1466 
L 1402 3584 
L 467 3584 
L 467 1350 
C 467 448 800 -90 1574 -90 
z
" transform="scale(0.015625)"/>
      <path id="NotoSansCJKjp-Bold-33" d="M 1747 -90 
C 2656 -90 3418 410 3418 1280 
C 3418 1907 3008 2304 2477 2451 
L 2477 2483 
C 2976 2682 3264 3053 3264 3565 
C 3264 4378 2643 4826 1728 4826 
C 1171 4826 717 4602 307 4250 
L 794 3667 
C 1069 3930 1344 4083 1683 4083 
C 2086 4083 2317 3866 2317 3494 
C 2317 3066 2035 2771 1171 2771 
L 1171 2093 
C 2195 2093 2470 1805 2470 1338 
C 2470 915 2144 678 1664 678 
C 1229 678 890 890 608 1165 
L 166 570 
C 499 192 1005 -90 1747 -90 
z
" transform="scale(0.015625)"/>
      <path id="NotoSansCJKjp-Bold-32" d="M 275 0 
L 3450 0 
L 3450 794 
L 2426 794 
C 2202 794 1888 768 1645 736 
C 2509 1587 3226 2509 3226 3366 
C 3226 4250 2630 4826 1734 4826 
C 1088 4826 666 4576 224 4102 
L 749 3597 
C 986 3859 1267 4083 1613 4083 
C 2067 4083 2323 3789 2323 3322 
C 2323 2586 1568 1696 275 544 
L 275 0 
z
" transform="scale(0.015625)"/>
      <path id="NotoSansCJKjp-Bold-5982" d="M 3360 4781 
L 3360 -403 
L 4083 -403 
L 4083 77 
L 5216 77 
L 5216 -301 
L 5978 -301 
L 5978 4781 
L 3360 4781 
z
M 4083 800 
L 4083 4051 
L 5216 4051 
L 5216 800 
L 4083 800 
z
M 1210 5440 
C 1146 5043 1062 4608 973 4166 
L 250 4166 
L 250 3437 
L 813 3437 
C 646 2682 467 1958 314 1427 
L 960 1114 
L 1024 1357 
L 1472 1037 
C 1158 595 762 262 282 58 
C 442 -96 634 -384 736 -576 
C 1280 -294 1722 70 2067 563 
C 2342 333 2586 102 2746 -102 
L 3187 550 
C 3008 762 2746 992 2445 1229 
C 2778 1958 2970 2899 3053 4102 
L 2579 4186 
L 2451 4166 
L 1702 4166 
L 1952 5363 
L 1210 5440 
z
M 1542 3437 
L 2266 3437 
C 2182 2758 2035 2170 1824 1677 
C 1619 1818 1408 1946 1210 2067 
C 1318 2496 1434 2963 1542 3437 
z
" transform="scale(0.015625)"/>
      <path id="NotoSansCJKjp-Bold-4f55" d="M 2246 4883 
L 2246 4154 
L 5056 4154 
L 5056 339 
C 5056 224 5011 186 4883 186 
C 4755 186 4307 186 3891 205 
C 4000 -19 4122 -358 4147 -576 
C 4742 -582 5178 -557 5459 -442 
C 5734 -320 5824 -109 5824 333 
L 5824 4154 
L 6214 4154 
L 6214 4883 
L 2246 4883 
z
M 3046 2797 
L 3757 2797 
L 3757 1792 
L 3046 1792 
L 3046 2797 
z
M 2323 3456 
L 2323 710 
L 3046 710 
L 3046 1126 
L 4467 1126 
L 4467 3456 
L 2323 3456 
z
M 1587 5446 
C 1267 4544 723 3642 154 3072 
C 288 2880 493 2458 563 2272 
C 717 2432 864 2611 1011 2810 
L 1011 -557 
L 1779 -557 
L 1779 4038 
C 1984 4422 2163 4826 2310 5216 
L 1587 5446 
z
" transform="scale(0.015625)"/>
      <path id="NotoSansCJKjp-Bold-6253" d="M 1107 5440 
L 1107 4218 
L 282 4218 
L 282 3494 
L 1107 3494 
L 1107 2387 
L 211 2189 
L 422 1421 
L 1107 1600 
L 1107 314 
C 1107 224 1075 192 986 192 
C 902 192 627 192 378 205 
C 474 0 576 -320 602 -518 
C 1062 -518 1370 -499 1594 -378 
C 1818 -262 1888 -64 1888 307 
L 1888 1805 
L 2714 2029 
L 2618 2758 
L 1888 2579 
L 1888 3494 
L 2611 3494 
L 2611 4218 
L 1888 4218 
L 1888 5440 
L 1107 5440 
z
M 2714 4954 
L 2714 4186 
L 4346 4186 
L 4346 442 
C 4346 320 4294 282 4166 282 
C 4032 282 3552 275 3155 301 
C 3277 83 3424 -301 3462 -538 
C 4064 -538 4486 -518 4781 -384 
C 5075 -250 5171 -19 5171 429 
L 5171 4186 
L 6202 4186 
L 6202 4954 
L 2714 4954 
z
" transform="scale(0.015625)"/>
      <path id="NotoSansCJKjp-Bold-5305" d="M 1126 2067 
L 1126 499 
C 1126 -314 1472 -525 2669 -525 
C 2931 -525 4442 -525 4723 -525 
C 5747 -525 6003 -282 6131 698 
C 5914 736 5574 851 5395 966 
C 5331 301 5242 192 4691 192 
C 4301 192 2982 192 2675 192 
C 2003 192 1882 237 1882 512 
L 1882 1395 
L 3981 1395 
L 3981 3520 
L 1536 3520 
C 1645 3674 1754 3834 1862 4000 
L 4979 4000 
C 4934 2515 4877 1958 4774 1818 
C 4717 1741 4659 1722 4563 1722 
C 4448 1722 4230 1722 3981 1747 
C 4102 1549 4179 1235 4192 1018 
C 4506 1011 4800 1011 4979 1050 
C 5184 1075 5325 1146 5459 1338 
C 5651 1587 5709 2362 5760 4403 
C 5766 4499 5773 4730 5773 4730 
L 2272 4730 
C 2355 4896 2432 5069 2502 5242 
L 1690 5472 
C 1363 4608 774 3750 122 3238 
C 320 3117 659 2842 806 2688 
C 992 2861 1171 3059 1350 3277 
L 1350 2842 
L 3219 2842 
L 3219 2067 
L 1126 2067 
z
" transform="scale(0.015625)"/>
      <path id="NotoSansCJKjp-Bold-4b" d="M 582 0 
L 1530 0 
L 1530 1331 
L 2150 2131 
L 3379 0 
L 4416 0 
L 2714 2874 
L 4160 4742 
L 3117 4742 
L 1549 2682 
L 1530 2682 
L 1530 4742 
L 582 4742 
L 582 0 
z
" transform="scale(0.015625)"/>
      <path id="NotoSansCJKjp-Bold-2d" d="M 314 1491 
L 2061 1491 
L 2061 2170 
L 314 2170 
L 314 1491 
z
" transform="scale(0.015625)"/>
      <path id="NotoSansCJKjp-Bold-62" d="M 2304 -90 
C 3091 -90 3827 621 3827 1856 
C 3827 2950 3296 3674 2413 3674 
C 2061 3674 1702 3501 1414 3245 
L 1446 3821 
L 1446 5107 
L 506 5107 
L 506 0 
L 1242 0 
L 1318 378 
L 1350 378 
C 1638 77 1984 -90 2304 -90 
z
M 2099 685 
C 1901 685 1664 755 1446 954 
L 1446 2534 
C 1690 2778 1907 2899 2150 2899 
C 2643 2899 2861 2522 2861 1837 
C 2861 1056 2522 685 2099 685 
z
" transform="scale(0.015625)"/>
      <path id="NotoSansCJKjp-Bold-6f" d="M 2003 -90 
C 2899 -90 3725 602 3725 1792 
C 3725 2982 2899 3674 2003 3674 
C 1101 3674 282 2982 282 1792 
C 282 602 1101 -90 2003 -90 
z
M 2003 678 
C 1510 678 1242 1114 1242 1792 
C 1242 2464 1510 2906 2003 2906 
C 2490 2906 2765 2464 2765 1792 
C 2765 1114 2490 678 2003 678 
z
" transform="scale(0.015625)"/>
      <path id="NotoSansCJKjp-Bold-6b" d="M 506 0 
L 1434 0 
L 1434 909 
L 1933 1491 
L 2803 0 
L 3827 0 
L 2483 2106 
L 3712 3584 
L 2682 3584 
L 1459 2048 
L 1434 2048 
L 1434 5107 
L 506 5107 
L 506 0 
z
" transform="scale(0.015625)"/>
      <path id="NotoSansCJKjp-Bold-7f29" d="M 211 435 
L 384 -288 
C 954 -58 1658 230 2323 506 
L 2195 1133 
C 1466 864 710 589 211 435 
z
M 3699 5274 
C 3770 5146 3840 4998 3910 4851 
L 2362 4851 
L 2362 3686 
L 2899 3686 
C 2733 3091 2438 2413 2061 1952 
L 2067 2195 
L 1344 2035 
C 1715 2554 2074 3149 2362 3725 
L 1779 4077 
C 1690 3859 1587 3635 1472 3424 
L 1030 3392 
C 1363 3910 1683 4550 1907 5146 
L 1235 5453 
C 1037 4704 640 3898 512 3693 
C 384 3482 282 3341 147 3309 
C 237 3123 346 2784 384 2643 
C 480 2688 621 2726 1120 2790 
C 928 2470 762 2221 672 2118 
C 493 1882 365 1734 211 1702 
C 288 1530 397 1216 429 1082 
C 570 1178 800 1261 2080 1587 
L 2061 1850 
C 2176 1715 2317 1510 2387 1382 
C 2483 1485 2573 1600 2662 1728 
L 2662 -563 
L 3302 -563 
L 3302 2906 
C 3424 3187 3526 3475 3610 3750 
L 3059 3885 
L 3059 4224 
L 5414 4224 
L 5414 3776 
L 6144 3776 
L 6144 4851 
L 4698 4851 
C 4608 5043 4486 5293 4365 5485 
L 3699 5274 
z
M 3667 2566 
L 3667 -557 
L 4314 -557 
L 4314 -301 
L 5312 -301 
L 5312 -525 
L 5990 -525 
L 5990 2566 
L 4998 2566 
L 5126 3027 
L 6080 3027 
L 6080 3635 
L 3597 3635 
L 3597 3027 
L 4390 3027 
L 4314 2566 
L 3667 2566 
z
M 4314 851 
L 5312 851 
L 5312 294 
L 4314 294 
L 4314 851 
z
M 4314 1440 
L 4314 1971 
L 5312 1971 
L 5312 1440 
L 4314 1440 
z
" transform="scale(0.015625)"/>
      <path id="NotoSansCJKjp-Bold-653e" d="M 3763 5440 
C 3616 4403 3334 3411 2867 2752 
L 2867 2816 
C 2874 2906 2874 3123 2874 3123 
L 1606 3123 
L 1606 3750 
L 3085 3750 
L 3085 4461 
L 2022 4461 
L 2022 5440 
L 1261 5440 
L 1261 4461 
L 250 4461 
L 250 3750 
L 877 3750 
L 877 2509 
C 877 1683 787 755 96 -38 
C 282 -166 531 -378 659 -544 
C 1453 333 1600 1402 1606 2426 
L 2144 2426 
C 2118 909 2080 358 1990 224 
C 1939 147 1888 122 1805 128 
C 1702 128 1523 128 1318 147 
C 1427 -45 1498 -346 1517 -550 
C 1786 -557 2042 -557 2202 -525 
C 2387 -486 2515 -429 2637 -243 
C 2797 -26 2829 678 2861 2502 
C 3046 2374 3283 2182 3386 2074 
C 3482 2202 3571 2336 3654 2490 
C 3789 2016 3942 1581 4141 1190 
C 3802 717 3347 352 2752 83 
C 2886 -77 3110 -422 3174 -589 
C 3744 -301 4198 58 4557 499 
C 4877 70 5267 -282 5760 -538 
C 5875 -333 6112 -32 6291 122 
C 5766 365 5344 730 5018 1190 
C 5370 1843 5594 2624 5741 3565 
L 6221 3565 
L 6221 4275 
L 4339 4275 
C 4429 4614 4499 4966 4557 5325 
L 3763 5440 
z
M 4128 3565 
L 4979 3565 
C 4890 2963 4762 2438 4576 1984 
C 4371 2445 4224 2957 4115 3514 
L 4128 3565 
z
" transform="scale(0.015625)"/>
      <path id="NotoSansCJKjp-Bold-7cfb" d="M 1574 1165 
C 1242 749 678 314 160 45 
C 358 -77 691 -339 851 -486 
C 1350 -160 1971 371 2374 864 
L 1574 1165 
z
M 3962 762 
C 4480 403 5139 -122 5440 -474 
L 6131 19 
C 5792 371 5114 870 4602 1197 
L 3962 762 
z
M 5165 5382 
C 4019 5146 2138 5018 486 4979 
C 563 4806 653 4486 666 4294 
C 1152 4301 1664 4314 2182 4339 
C 2003 4122 1805 3898 1613 3706 
L 1299 3898 
L 768 3405 
C 1203 3136 1728 2752 2080 2432 
L 1645 2106 
L 294 2086 
L 365 1318 
L 2771 1395 
L 2771 -576 
L 3597 -576 
L 3597 1421 
L 5210 1478 
C 5344 1318 5466 1165 5549 1037 
L 6234 1498 
C 5920 1939 5242 2573 4723 3008 
L 4090 2605 
C 4243 2470 4403 2323 4563 2170 
L 2816 2131 
C 3507 2656 4256 3302 4864 3917 
L 4115 4320 
C 3738 3878 3226 3386 2694 2931 
C 2554 3053 2381 3181 2202 3315 
C 2541 3616 2925 4013 3251 4390 
L 3219 4403 
C 4115 4474 4986 4582 5709 4730 
L 5165 5382 
z
" transform="scale(0.015625)"/>
      <path id="NotoSansCJKjp-Bold-6570" d="M 3917 5440 
C 3770 4294 3456 3200 2918 2541 
C 3053 2445 3277 2246 3424 2099 
L 3520 1997 
C 3629 2138 3725 2291 3821 2464 
C 3936 2003 4077 1574 4250 1190 
C 3968 794 3603 474 3123 224 
C 2970 333 2790 448 2592 563 
C 2746 813 2861 1114 2931 1478 
L 3424 1478 
L 3424 2099 
L 1901 2099 
L 2054 2406 
L 1779 2464 
L 2189 2464 
L 2189 3245 
C 2438 3046 2714 2822 2854 2682 
L 3258 3213 
C 3123 3309 2669 3578 2355 3750 
L 3405 3750 
L 3405 4358 
L 2797 4358 
C 2957 4550 3149 4832 3347 5101 
L 2701 5363 
C 2605 5120 2419 4768 2278 4544 
L 2701 4358 
L 2189 4358 
L 2189 5440 
L 1485 5440 
L 1485 4358 
L 954 4358 
L 1363 4538 
C 1306 4762 1139 5088 973 5331 
L 422 5101 
C 557 4870 698 4576 755 4358 
L 262 4358 
L 262 3750 
L 1261 3750 
C 960 3418 525 3110 134 2950 
C 275 2810 442 2560 525 2394 
C 845 2573 1190 2835 1485 3130 
L 1485 2522 
L 1344 2554 
L 1126 2099 
L 192 2099 
L 192 1478 
L 806 1478 
C 646 1171 486 883 346 659 
L 1018 454 
L 1088 576 
L 1446 403 
C 1139 230 736 122 218 51 
C 346 -102 480 -365 525 -582 
C 1210 -442 1728 -256 2106 32 
C 2368 -134 2598 -301 2771 -454 
L 3066 -160 
C 3168 -314 3270 -486 3315 -595 
C 3872 -320 4314 26 4666 448 
C 4954 38 5306 -307 5747 -563 
C 5862 -352 6106 -51 6278 102 
C 5811 346 5440 710 5146 1165 
C 5491 1818 5709 2611 5843 3571 
L 6202 3571 
L 6202 4282 
L 4493 4282 
C 4576 4621 4640 4973 4698 5331 
L 3917 5440 
z
M 1581 1478 
L 2202 1478 
C 2144 1248 2067 1056 1965 896 
C 1779 979 1587 1062 1402 1139 
L 1581 1478 
z
M 5050 3571 
C 4979 3002 4864 2496 4704 2061 
C 4525 2522 4397 3027 4307 3571 
L 5050 3571 
z
" transform="scale(0.015625)"/>
     </defs>
     <use xlink:href="#NotoSansCJKjp-Bold-73"/>
     <use xlink:href="#NotoSansCJKjp-Bold-63" x="49.499985"/>
     <use xlink:href="#NotoSansCJKjp-Bold-61" x="102.199982"/>
     <use xlink:href="#NotoSansCJKjp-Bold-6c" x="161.299973"/>
     <use xlink:href="#NotoSansCJKjp-Bold-65" x="192.799957"/>
     <use xlink:href="#NotoSansCJKjp-Bold-5f" x="250.899948"/>
     <use xlink:href="#NotoSansCJKjp-Bold-76" x="307.599945"/>
     <use xlink:href="#NotoSansCJKjp-Bold-65" x="365.199936"/>
     <use xlink:href="#NotoSansCJKjp-Bold-63" x="423.299927"/>
     <use xlink:href="#NotoSansCJKjp-Bold-20" x="475.999924"/>
     <use xlink:href="#NotoSansCJKjp-Bold-6a21" x="498.699921"/>
     <use xlink:href="#NotoSansCJKjp-Bold-5f0f" x="598.699905"/>
     <use xlink:href="#NotoSansCJKjp-Bold-3a" x="698.69989"/>
     <use xlink:href="#NotoSansCJKjp-Bold-4e00" x="731.199875"/>
     <use xlink:href="#NotoSansCJKjp-Bold-4e2a" x="831.19986"/>
     <use xlink:href="#NotoSansCJKjp-Bold-20" x="931.199844"/>
     <use xlink:href="#NotoSansCJKjp-Bold-54" x="953.899841"/>
     <use xlink:href="#NotoSansCJKjp-Bold-4d" x="1016.399826"/>
     <use xlink:href="#NotoSansCJKjp-Bold-45" x="1101.699814"/>
     <use xlink:href="#NotoSansCJKjp-Bold-4d" x="1163.199799"/>
     <use xlink:href="#NotoSansCJKjp-Bold-20" x="1248.499786"/>
     <use xlink:href="#NotoSansCJKjp-Bold-75" x="1271.199783"/>
     <use xlink:href="#NotoSansCJKjp-Bold-33" x="1334.89978"/>
     <use xlink:href="#NotoSansCJKjp-Bold-32" x="1393.899765"/>
     <use xlink:href="#NotoSansCJKjp-Bold-20" x="1452.89975"/>
     <use xlink:href="#NotoSansCJKjp-Bold-5982" x="1475.599747"/>
     <use xlink:href="#NotoSansCJKjp-Bold-4f55" x="1575.599731"/>
     <use xlink:href="#NotoSansCJKjp-Bold-6253" x="1675.599716"/>
     <use xlink:href="#NotoSansCJKjp-Bold-5305" x="1775.599701"/>
     <use xlink:href="#NotoSansCJKjp-Bold-20" x="1875.599686"/>
     <use xlink:href="#NotoSansCJKjp-Bold-4b" x="1898.299683"/>
     <use xlink:href="#NotoSansCJKjp-Bold-2d" x="1966.899673"/>
     <use xlink:href="#NotoSansCJKjp-Bold-62" x="2003.899658"/>
     <use xlink:href="#NotoSansCJKjp-Bold-6c" x="2068.299652"/>
     <use xlink:href="#NotoSansCJKjp-Bold-6f" x="2099.799637"/>
     <use xlink:href="#NotoSansCJKjp-Bold-63" x="2162.399628"/>
     <use xlink:href="#NotoSansCJKjp-Bold-6b" x="2215.099625"/>
     <use xlink:href="#NotoSansCJKjp-Bold-20" x="2275.499619"/>
     <use xlink:href="#NotoSansCJKjp-Bold-7f29" x="2298.199615"/>
     <use xlink:href="#NotoSansCJKjp-Bold-653e" x="2398.1996"/>
     <use xlink:href="#NotoSansCJKjp-Bold-7cfb" x="2498.199585"/>
     <use xlink:href="#NotoSansCJKjp-Bold-6570" x="2598.19957"/>
    </g>
   </g>
   <g id="text_2">
    <!-- [0:7] -->
    <g style="fill: #1f2937" transform="translate(189.626752 45.029141) scale(0.075 -0.075)">
     <defs>
      <path id="NotoSansCJKjp-Regular-5b" d="M 678 -1088 
L 1946 -1088 
L 1946 -755 
L 1114 -755 
L 1114 4730 
L 1946 4730 
L 1946 5069 
L 678 5069 
L 678 -1088 
z
" transform="scale(0.015625)"/>
      <path id="NotoSansCJKjp-Regular-30" d="M 1779 -83 
C 2669 -83 3238 723 3238 2362 
C 3238 3987 2669 4774 1779 4774 
C 883 4774 320 3987 320 2362 
C 320 723 883 -83 1779 -83 
z
M 1779 390 
C 1248 390 883 986 883 2362 
C 883 3731 1248 4314 1779 4314 
C 2310 4314 2675 3731 2675 2362 
C 2675 986 2310 390 1779 390 
z
" transform="scale(0.015625)"/>
      <path id="NotoSansCJKjp-Regular-3a" d="M 890 2496 
C 1120 2496 1312 2675 1312 2944 
C 1312 3206 1120 3392 890 3392 
C 653 3392 467 3206 467 2944 
C 467 2675 653 2496 890 2496 
z
M 890 -83 
C 1120 -83 1312 96 1312 358 
C 1312 627 1120 806 890 806 
C 653 806 467 627 467 358 
C 467 96 653 -83 890 -83 
z
" transform="scale(0.015625)"/>
      <path id="NotoSansCJKjp-Regular-37" d="M 1267 0 
L 1875 0 
C 1952 1837 2150 2931 3251 4339 
L 3251 4691 
L 314 4691 
L 314 4192 
L 2592 4192 
C 1670 2912 1350 1779 1267 0 
z
" transform="scale(0.015625)"/>
      <path id="NotoSansCJKjp-Regular-5d" d="M 218 -1088 
L 1491 -1088 
L 1491 5069 
L 218 5069 
L 218 4730 
L 1050 4730 
L 1050 -755 
L 218 -755 
L 218 -1088 
z
" transform="scale(0.015625)"/>
     </defs>
     <use xlink:href="#NotoSansCJKjp-Regular-5b"/>
     <use xlink:href="#NotoSansCJKjp-Regular-30" x="33.799988"/>
     <use xlink:href="#NotoSansCJKjp-Regular-3a" x="89.299973"/>
     <use xlink:href="#NotoSansCJKjp-Regular-37" x="117.09996"/>
     <use xlink:href="#NotoSansCJKjp-Regular-5d" x="172.599945"/>
    </g>
   </g>
   <g id="text_3">
    <!-- [8:15] -->
    <g style="fill: #1f2937" transform="translate(246.470302 45.029141) scale(0.075 -0.075)">
     <defs>
      <path id="NotoSansCJKjp-Regular-38" d="M 1792 -83 
C 2669 -83 3258 448 3258 1126 
C 3258 1773 2880 2125 2470 2362 
L 2470 2394 
C 2746 2611 3091 3034 3091 3526 
C 3091 4250 2605 4762 1805 4762 
C 1075 4762 518 4282 518 3571 
C 518 3078 813 2726 1152 2490 
L 1152 2464 
C 723 2234 294 1792 294 1165 
C 294 442 922 -83 1792 -83 
z
M 2112 2547 
C 1555 2765 1050 3014 1050 3571 
C 1050 4026 1363 4326 1798 4326 
C 2298 4326 2592 3962 2592 3494 
C 2592 3149 2426 2829 2112 2547 
z
M 1798 352 
C 1235 352 813 717 813 1216 
C 813 1664 1082 2035 1459 2278 
C 2125 2010 2701 1779 2701 1146 
C 2701 678 2342 352 1798 352 
z
" transform="scale(0.015625)"/>
      <path id="NotoSansCJKjp-Regular-31" d="M 563 0 
L 3136 0 
L 3136 486 
L 2195 486 
L 2195 4691 
L 1747 4691 
C 1491 4544 1190 4435 774 4358 
L 774 3987 
L 1613 3987 
L 1613 486 
L 563 486 
L 563 0 
z
" transform="scale(0.015625)"/>
      <path id="NotoSansCJKjp-Regular-35" d="M 1677 -83 
C 2464 -83 3213 499 3213 1523 
C 3213 2560 2573 3021 1798 3021 
C 1517 3021 1306 2950 1094 2835 
L 1216 4192 
L 2982 4192 
L 2982 4691 
L 704 4691 
L 550 2502 
L 864 2304 
C 1133 2483 1331 2579 1645 2579 
C 2234 2579 2618 2182 2618 1510 
C 2618 826 2176 403 1619 403 
C 1075 403 730 653 467 922 
L 173 538 
C 493 224 941 -83 1677 -83 
z
" transform="scale(0.015625)"/>
     </defs>
     <use xlink:href="#NotoSansCJKjp-Regular-5b"/>
     <use xlink:href="#NotoSansCJKjp-Regular-38" x="33.799988"/>
     <use xlink:href="#NotoSansCJKjp-Regular-3a" x="89.299973"/>
     <use xlink:href="#NotoSansCJKjp-Regular-31" x="117.09996"/>
     <use xlink:href="#NotoSansCJKjp-Regular-35" x="172.599945"/>
     <use xlink:href="#NotoSansCJKjp-Regular-5d" x="228.09993"/>
    </g>
   </g>
   <g id="text_4">
    <!-- [16:23] -->
    <g style="fill: #1f2937" transform="translate(303.313852 45.029141) scale(0.075 -0.075)">
     <defs>
      <path id="NotoSansCJKjp-Regular-36" d="M 1926 -83 
C 2656 -83 3277 531 3277 1440 
C 3277 2426 2765 2912 1971 2912 
C 1606 2912 1197 2701 909 2349 
C 934 3802 1466 4294 2118 4294 
C 2400 4294 2682 4154 2861 3936 
L 3194 4294 
C 2931 4576 2579 4774 2093 4774 
C 1184 4774 358 4077 358 2240 
C 358 691 1030 -83 1926 -83 
z
M 922 1882 
C 1229 2317 1587 2477 1875 2477 
C 2445 2477 2720 2074 2720 1440 
C 2720 800 2374 378 1926 378 
C 1338 378 986 909 922 1882 
z
" transform="scale(0.015625)"/>
      <path id="NotoSansCJKjp-Regular-32" d="M 282 0 
L 3232 0 
L 3232 506 
L 1933 506 
C 1696 506 1408 480 1165 461 
C 2266 1504 3008 2458 3008 3398 
C 3008 4230 2477 4774 1638 4774 
C 1043 4774 634 4506 256 4090 
L 595 3757 
C 858 4070 1184 4301 1568 4301 
C 2150 4301 2432 3910 2432 3373 
C 2432 2566 1754 1632 282 346 
L 282 0 
z
" transform="scale(0.015625)"/>
      <path id="NotoSansCJKjp-Regular-33" d="M 1683 -83 
C 2522 -83 3194 416 3194 1254 
C 3194 1901 2752 2310 2202 2445 
L 2202 2477 
C 2701 2650 3034 3034 3034 3603 
C 3034 4346 2458 4774 1664 4774 
C 1126 4774 710 4538 358 4218 
L 672 3846 
C 941 4115 1267 4301 1645 4301 
C 2138 4301 2438 4006 2438 3558 
C 2438 3053 2112 2662 1139 2662 
L 1139 2214 
C 2227 2214 2598 1843 2598 1274 
C 2598 736 2208 403 1645 403 
C 1114 403 762 659 486 941 
L 186 563 
C 493 224 954 -83 1683 -83 
z
" transform="scale(0.015625)"/>
     </defs>
     <use xlink:href="#NotoSansCJKjp-Regular-5b"/>
     <use xlink:href="#NotoSansCJKjp-Regular-31" x="33.799988"/>
     <use xlink:href="#NotoSansCJKjp-Regular-36" x="89.299973"/>
     <use xlink:href="#NotoSansCJKjp-Regular-3a" x="144.799957"/>
     <use xlink:href="#NotoSansCJKjp-Regular-32" x="172.599945"/>
     <use xlink:href="#NotoSansCJKjp-Regular-33" x="228.09993"/>
     <use xlink:href="#NotoSansCJKjp-Regular-5d" x="283.599915"/>
    </g>
   </g>
   <g id="text_5">
    <!-- [24:31] -->
    <g style="fill: #1f2937" transform="translate(362.238652 45.029141) scale(0.075 -0.075)">
     <defs>
      <path id="NotoSansCJKjp-Regular-34" d="M 2176 0 
L 2726 0 
L 2726 1293 
L 3354 1293 
L 3354 1760 
L 2726 1760 
L 2726 4691 
L 2080 4691 
L 128 1677 
L 128 1293 
L 2176 1293 
L 2176 0 
z
M 2176 1760 
L 736 1760 
L 1805 3360 
C 1939 3590 2067 3827 2182 4051 
L 2208 4051 
C 2195 3814 2176 3430 2176 3200 
L 2176 1760 
z
" transform="scale(0.015625)"/>
     </defs>
     <use xlink:href="#NotoSansCJKjp-Regular-5b"/>
     <use xlink:href="#NotoSansCJKjp-Regular-32" x="33.799988"/>
     <use xlink:href="#NotoSansCJKjp-Regular-34" x="89.299973"/>
     <use xlink:href="#NotoSansCJKjp-Regular-3a" x="144.799957"/>
     <use xlink:href="#NotoSansCJKjp-Regular-33" x="172.599945"/>
     <use xlink:href="#NotoSansCJKjp-Regular-31" x="228.09993"/>
     <use xlink:href="#NotoSansCJKjp-Regular-5d" x="283.599915"/>
    </g>
   </g>
   <g id="text_6">
    <!-- 32 位字的字节 -->
    <g style="fill: #1f2937" transform="translate(260.41735 32.7024) scale(0.08 -0.08)">
     <defs>
      <path id="NotoSansCJKjp-Regular-20" transform="scale(0.015625)"/>
      <path id="NotoSansCJKjp-Regular-4f4d" d="M 2630 3155 
C 2867 2304 3066 1190 3110 544 
L 3578 646 
C 3526 1280 3302 2381 3059 3232 
L 2630 3155 
z
M 2106 4115 
L 2106 3661 
L 6016 3661 
L 6016 4115 
L 4250 4115 
L 4250 5299 
L 3770 5299 
L 3770 4115 
L 2106 4115 
z
M 1946 243 
L 1946 -211 
L 6176 -211 
L 6176 243 
L 4634 243 
C 4928 1043 5261 2246 5485 3194 
L 4966 3283 
C 4800 2362 4461 1056 4166 243 
L 1946 243 
z
M 1773 5357 
C 1395 4390 774 3443 128 2835 
C 211 2720 352 2470 397 2355 
C 640 2598 877 2880 1107 3194 
L 1107 -493 
L 1568 -493 
L 1568 3891 
C 1818 4314 2048 4762 2227 5216 
L 1773 5357 
z
" transform="scale(0.015625)"/>
      <path id="NotoSansCJKjp-Regular-5b57" d="M 2950 2400 
L 2950 1920 
L 454 1920 
L 454 1459 
L 2950 1459 
L 2950 96 
C 2950 6 2918 -26 2803 -32 
C 2688 -38 2272 -32 1843 -19 
C 1926 -154 2016 -365 2054 -499 
C 2592 -499 2931 -493 3155 -422 
C 3386 -346 3462 -205 3462 83 
L 3462 1459 
L 5965 1459 
L 5965 1920 
L 3462 1920 
L 3462 2118 
C 4006 2426 4582 2880 4966 3309 
L 4653 3552 
L 4544 3526 
L 1491 3526 
L 1491 3085 
L 4096 3085 
C 3834 2842 3507 2586 3194 2400 
L 2950 2400 
z
M 512 4685 
L 512 3174 
L 986 3174 
L 986 4224 
L 5395 4224 
L 5395 3174 
L 5888 3174 
L 5888 4685 
L 3443 4685 
L 3443 5389 
L 2938 5389 
L 2938 4685 
L 512 4685 
z
" transform="scale(0.015625)"/>
      <path id="NotoSansCJKjp-Regular-7684" d="M 3533 2707 
C 3885 2240 4320 1600 4512 1210 
L 4922 1466 
C 4710 1843 4269 2464 3904 2918 
L 3533 2707 
z
M 1536 5389 
C 1485 5082 1376 4659 1274 4346 
L 557 4346 
L 557 -346 
L 998 -346 
L 998 160 
L 2784 160 
L 2784 4346 
L 1715 4346 
C 1824 4621 1946 4979 2054 5299 
L 1536 5389 
z
M 998 3917 
L 2342 3917 
L 2342 2566 
L 998 2566 
L 998 3917 
z
M 998 595 
L 998 2144 
L 2342 2144 
L 2342 595 
L 998 595 
z
M 3827 5402 
C 3622 4518 3277 3635 2835 3066 
C 2950 3002 3149 2867 3238 2790 
C 3456 3098 3661 3488 3840 3923 
L 5478 3923 
C 5402 1357 5299 371 5094 154 
C 5018 64 4947 45 4819 45 
C 4672 45 4288 51 3866 83 
C 3955 -38 4013 -243 4026 -378 
C 4384 -397 4762 -410 4979 -390 
C 5210 -365 5350 -314 5498 -122 
C 5754 192 5843 1184 5939 4122 
C 5946 4186 5946 4365 5946 4365 
L 4013 4365 
C 4115 4666 4211 4986 4288 5299 
L 3827 5402 
z
" transform="scale(0.015625)"/>
      <path id="NotoSansCJKjp-Regular-8282" d="M 627 3110 
L 627 2650 
L 2304 2650 
L 2304 -499 
L 2810 -499 
L 2810 2650 
L 4941 2650 
L 4941 986 
C 4941 890 4902 864 4781 858 
C 4653 851 4218 851 3750 864 
C 3814 717 3878 512 3898 365 
C 4506 365 4902 365 5139 442 
C 5370 525 5434 678 5434 973 
L 5434 3110 
L 627 3110 
z
M 4058 5376 
L 4058 4653 
L 2342 4653 
L 2342 5376 
L 1850 5376 
L 1850 4653 
L 352 4653 
L 352 4192 
L 1850 4192 
L 1850 3456 
L 2342 3456 
L 2342 4192 
L 4058 4192 
L 4058 3456 
L 4557 3456 
L 4557 4192 
L 6054 4192 
L 6054 4653 
L 4557 4653 
L 4557 5376 
L 4058 5376 
z
" transform="scale(0.015625)"/>
     </defs>
     <use xlink:href="#NotoSansCJKjp-Regular-33"/>
     <use xlink:href="#NotoSansCJKjp-Regular-32" x="55.499985"/>
     <use xlink:href="#NotoSansCJKjp-Regular-20" x="110.999969"/>
     <use xlink:href="#NotoSansCJKjp-Regular-4f4d" x="133.399963"/>
     <use xlink:href="#NotoSansCJKjp-Regular-5b57" x="233.399948"/>
     <use xlink:href="#NotoSansCJKjp-Regular-7684" x="333.399933"/>
     <use xlink:href="#NotoSansCJKjp-Regular-5b57" x="433.399918"/>
     <use xlink:href="#NotoSansCJKjp-Regular-8282" x="533.399902"/>
    </g>
   </g>
   <g id="text_7">
    <!-- 1X -->
    <g style="fill: #1f2937" transform="translate(138.446256 80.537928) scale(0.11 -0.11)">
     <defs>
      <path id="NotoSansCJKjp-Bold-31" d="M 525 0 
L 3373 0 
L 3373 768 
L 2483 768 
L 2483 4742 
L 1786 4742 
C 1485 4550 1165 4429 685 4346 
L 685 3757 
L 1549 3757 
L 1549 768 
L 525 768 
L 525 0 
z
" transform="scale(0.015625)"/>
      <path id="NotoSansCJKjp-Bold-58" d="M 96 0 
L 1094 0 
L 1600 1050 
C 1715 1293 1824 1542 1946 1830 
L 1971 1830 
C 2106 1542 2227 1293 2342 1050 
L 2874 0 
L 3923 0 
L 2592 2400 
L 3840 4742 
L 2842 4742 
L 2394 3757 
C 2291 3539 2189 3309 2074 3014 
L 2048 3014 
C 1907 3309 1811 3539 1696 3757 
L 1222 4742 
L 166 4742 
L 1421 2438 
L 96 0 
z
" transform="scale(0.015625)"/>
     </defs>
     <use xlink:href="#NotoSansCJKjp-Bold-31"/>
     <use xlink:href="#NotoSansCJKjp-Bold-58" x="58.999985"/>
    </g>
   </g>
   <g id="text_8">
    <!-- fp8 / mxfp8 -->
    <g style="fill: #1f2937" transform="translate(112.353131 102.45876) scale(0.075 -0.075)">
     <defs>
      <path id="NotoSansCJKjp-Regular-66" d="M 211 3002 
L 685 3002 
L 685 0 
L 1267 0 
L 1267 3002 
L 2003 3002 
L 2003 3475 
L 1267 3475 
L 1267 4026 
C 1267 4474 1427 4710 1760 4710 
C 1882 4710 2022 4678 2150 4614 
L 2278 5069 
C 2118 5133 1914 5178 1696 5178 
C 1005 5178 685 4736 685 4032 
L 685 3475 
L 211 3443 
L 211 3002 
z
" transform="scale(0.015625)"/>
      <path id="NotoSansCJKjp-Regular-70" d="M 589 -1466 
L 1178 -1466 
L 1178 -288 
L 1158 320 
C 1472 58 1805 -83 2118 -83 
C 2912 -83 3629 602 3629 1792 
C 3629 2867 3142 3565 2246 3565 
C 1843 3565 1453 3334 1139 3072 
L 1126 3072 
L 1069 3475 
L 589 3475 
L 589 -1466 
z
M 2022 410 
C 1792 410 1485 499 1178 768 
L 1178 2598 
C 1510 2906 1811 3072 2099 3072 
C 2765 3072 3021 2560 3021 1786 
C 3021 928 2598 410 2022 410 
z
" transform="scale(0.015625)"/>
      <path id="NotoSansCJKjp-Regular-2f" d="M 70 -1146 
L 499 -1146 
L 2413 5082 
L 1990 5082 
L 70 -1146 
z
" transform="scale(0.015625)"/>
      <path id="NotoSansCJKjp-Regular-6d" d="M 589 0 
L 1178 0 
L 1178 2522 
C 1491 2880 1786 3053 2048 3053 
C 2490 3053 2694 2778 2694 2125 
L 2694 0 
L 3277 0 
L 3277 2522 
C 3603 2880 3885 3053 4154 3053 
C 4595 3053 4800 2778 4800 2125 
L 4800 0 
L 5382 0 
L 5382 2202 
C 5382 3085 5043 3565 4333 3565 
C 3904 3565 3546 3290 3181 2899 
C 3040 3309 2758 3565 2221 3565 
C 1805 3565 1446 3302 1139 2970 
L 1126 2970 
L 1069 3475 
L 589 3475 
L 589 0 
z
" transform="scale(0.015625)"/>
      <path id="NotoSansCJKjp-Regular-78" d="M 96 0 
L 710 0 
L 1178 813 
C 1299 1024 1408 1235 1530 1434 
L 1562 1434 
C 1696 1235 1824 1024 1939 813 
L 2451 0 
L 3091 0 
L 1946 1754 
L 3002 3475 
L 2394 3475 
L 1965 2714 
C 1856 2515 1760 2330 1658 2131 
L 1626 2131 
C 1510 2330 1389 2515 1286 2714 
L 819 3475 
L 186 3475 
L 1242 1811 
L 96 0 
z
" transform="scale(0.015625)"/>
     </defs>
     <use xlink:href="#NotoSansCJKjp-Regular-66"/>
     <use xlink:href="#NotoSansCJKjp-Regular-70" x="32.499985"/>
     <use xlink:href="#NotoSansCJKjp-Regular-38" x="94.499969"/>
     <use xlink:href="#NotoSansCJKjp-Regular-20" x="149.999954"/>
     <use xlink:href="#NotoSansCJKjp-Regular-2f" x="172.399948"/>
     <use xlink:href="#NotoSansCJKjp-Regular-20" x="211.599945"/>
     <use xlink:href="#NotoSansCJKjp-Regular-6d" x="233.999939"/>
     <use xlink:href="#NotoSansCJKjp-Regular-78" x="326.59993"/>
     <use xlink:href="#NotoSansCJKjp-Regular-66" x="376.399918"/>
     <use xlink:href="#NotoSansCJKjp-Regular-70" x="408.899902"/>
     <use xlink:href="#NotoSansCJKjp-Regular-38" x="470.899887"/>
    </g>
   </g>
   <g id="text_9">
    <!-- SF0 -->
    <g style="fill: #ffffff" transform="translate(189.270619 79.954959) scale(0.09 -0.09)">
     <defs>
      <path id="NotoSansCJKjp-Bold-53" d="M 1997 -90 
C 3091 -90 3738 570 3738 1344 
C 3738 2029 3360 2400 2784 2637 
L 2163 2886 
C 1760 3053 1427 3174 1427 3514 
C 1427 3827 1683 4013 2099 4013 
C 2496 4013 2810 3866 3110 3622 
L 3590 4211 
C 3206 4602 2656 4826 2099 4826 
C 1146 4826 461 4224 461 3456 
C 461 2765 947 2381 1427 2189 
L 2054 1914 
C 2477 1734 2771 1626 2771 1274 
C 2771 941 2509 730 2016 730 
C 1600 730 1146 941 813 1254 
L 269 602 
C 730 154 1363 -90 1997 -90 
z
" transform="scale(0.015625)"/>
      <path id="NotoSansCJKjp-Bold-46" d="M 582 0 
L 1530 0 
L 1530 1920 
L 3213 1920 
L 3213 2714 
L 1530 2714 
L 1530 3949 
L 3501 3949 
L 3501 4742 
L 582 4742 
L 582 0 
z
" transform="scale(0.015625)"/>
      <path id="NotoSansCJKjp-Bold-30" d="M 1888 -90 
C 2854 -90 3494 755 3494 2394 
C 3494 4019 2854 4826 1888 4826 
C 922 4826 282 4026 282 2394 
C 282 755 922 -90 1888 -90 
z
M 1888 646 
C 1478 646 1171 1056 1171 2394 
C 1171 3712 1478 4102 1888 4102 
C 2298 4102 2598 3712 2598 2394 
C 2598 1056 2298 646 1888 646 
z
" transform="scale(0.015625)"/>
     </defs>
     <use xlink:href="#NotoSansCJKjp-Bold-53"/>
     <use xlink:href="#NotoSansCJKjp-Bold-46" x="62.399994"/>
     <use xlink:href="#NotoSansCJKjp-Bold-30" x="120.899979"/>
    </g>
   </g>
   <g id="text_10">
    <!-- SF0 -->
    <g style="fill: #ffffff" transform="translate(248.195419 79.954959) scale(0.09 -0.09)">
     <use xlink:href="#NotoSansCJKjp-Bold-53"/>
     <use xlink:href="#NotoSansCJKjp-Bold-46" x="62.399994"/>
     <use xlink:href="#NotoSansCJKjp-Bold-30" x="120.899979"/>
    </g>
   </g>
   <g id="text_11">
    <!-- SF0 -->
    <g style="fill: #ffffff" transform="translate(307.120219 79.954959) scale(0.09 -0.09)">
     <use xlink:href="#NotoSansCJKjp-Bold-53"/>
     <use xlink:href="#NotoSansCJKjp-Bold-46" x="62.399994"/>
     <use xlink:href="#NotoSansCJKjp-Bold-30" x="120.899979"/>
    </g>
   </g>
   <g id="text_12">
    <!-- SF0 -->
    <g style="fill: #ffffff" transform="translate(366.045019 79.954959) scale(0.09 -0.09)">
     <use xlink:href="#NotoSansCJKjp-Bold-53"/>
     <use xlink:href="#NotoSansCJKjp-Bold-46" x="62.399994"/>
     <use xlink:href="#NotoSansCJKjp-Bold-30" x="120.899979"/>
    </g>
   </g>
   <g id="text_13">
    <!-- 一个缩放系数,广播 ×4   (SF_VEC = 32) -->
    <g style="fill: #1f2937" transform="translate(419.6736 79.654725) scale(0.08 -0.08)">
     <defs>
      <path id="NotoSansCJKjp-Regular-4e00" d="M 282 2758 
L 282 2234 
L 6144 2234 
L 6144 2758 
L 282 2758 
z
" transform="scale(0.015625)"/>
      <path id="NotoSansCJKjp-Regular-4e2a" d="M 3174 4858 
C 3770 4026 4941 3014 5990 2406 
C 6080 2554 6189 2720 6317 2842 
C 5261 3373 4090 4365 3398 5357 
L 2893 5357 
C 2387 4493 1274 3411 115 2758 
C 224 2656 358 2483 422 2368 
C 1562 3040 2650 4051 3174 4858 
z
M 2925 3264 
L 2925 -512 
L 3430 -512 
L 3430 3264 
L 2925 3264 
z
" transform="scale(0.015625)"/>
      <path id="NotoSansCJKjp-Regular-7f29" d="M 282 339 
L 397 -115 
C 934 90 1619 358 2285 614 
L 2202 1018 
C 1485 755 768 493 282 339 
z
M 403 2707 
C 493 2746 634 2778 1331 2861 
C 1082 2451 851 2125 749 1997 
C 563 1766 429 1600 301 1581 
C 352 1466 416 1254 442 1165 
C 550 1242 749 1306 2035 1626 
L 2016 1862 
L 2016 2016 
L 1075 1805 
C 1517 2374 1946 3066 2310 3750 
L 1926 3968 
C 1824 3738 1702 3507 1574 3283 
L 870 3219 
C 1242 3776 1600 4480 1882 5165 
L 1453 5357 
C 1203 4582 749 3750 608 3539 
C 474 3315 365 3168 250 3142 
C 307 3021 378 2803 403 2707 
z
M 3021 3917 
C 2854 3238 2490 2394 2016 1862 
C 2093 1786 2214 1638 2272 1549 
C 2419 1709 2554 1888 2682 2086 
L 2682 -512 
L 3091 -512 
L 3091 2854 
C 3238 3174 3354 3501 3450 3808 
L 3021 3917 
z
M 3597 2586 
L 3597 -506 
L 4013 -506 
L 4013 -205 
L 5466 -205 
L 5466 -474 
L 5901 -474 
L 5901 2586 
L 4749 2586 
L 4915 3232 
L 5990 3232 
L 5990 3629 
L 3501 3629 
L 3501 3232 
L 4442 3232 
C 4403 3021 4358 2784 4307 2586 
L 3597 2586 
z
M 3776 5254 
C 3866 5107 3962 4922 4038 4755 
L 2362 4755 
L 2362 3712 
L 2803 3712 
L 2803 4352 
L 5626 4352 
L 5626 3802 
L 6086 3802 
L 6086 4755 
L 4525 4755 
C 4442 4941 4301 5197 4179 5395 
L 3776 5254 
z
M 4013 1024 
L 5466 1024 
L 5466 186 
L 4013 186 
L 4013 1024 
z
M 4013 1414 
L 4013 2189 
L 5466 2189 
L 5466 1414 
L 4013 1414 
z
" transform="scale(0.015625)"/>
      <path id="NotoSansCJKjp-Regular-653e" d="M 1453 5363 
L 1453 4339 
L 282 4339 
L 282 3891 
L 1037 3891 
L 1037 2560 
C 1037 1651 941 640 160 -192 
C 275 -275 435 -403 518 -506 
C 1370 403 1498 1491 1498 2554 
L 1498 2592 
L 2374 2592 
C 2330 800 2285 166 2176 26 
C 2125 -51 2074 -64 1978 -64 
C 1882 -64 1638 -58 1370 -38 
C 1446 -160 1491 -352 1498 -486 
C 1773 -493 2042 -493 2195 -480 
C 2368 -461 2477 -410 2579 -269 
C 2752 -51 2784 678 2829 2816 
C 2835 2886 2835 3040 2835 3040 
L 1498 3040 
L 1498 3891 
L 3123 3891 
L 3123 4339 
L 1926 4339 
L 1926 5363 
L 1453 5363 
z
M 3974 3731 
L 5203 3731 
C 5069 2912 4870 2214 4570 1638 
C 4282 2221 4077 2899 3942 3635 
L 3974 3731 
z
M 3872 5382 
C 3686 4275 3354 3200 2848 2528 
C 2963 2451 3174 2298 3258 2214 
C 3405 2419 3533 2662 3654 2918 
C 3814 2272 4019 1683 4282 1171 
C 3898 627 3379 205 2688 -102 
C 2778 -205 2918 -416 2963 -525 
C 3629 -198 4141 218 4544 730 
C 4890 205 5325 -211 5869 -499 
C 5939 -371 6093 -186 6202 -90 
C 5632 179 5184 608 4832 1158 
C 5248 1850 5510 2694 5683 3731 
L 6157 3731 
L 6157 4179 
L 4109 4179 
C 4211 4538 4294 4922 4365 5306 
L 3872 5382 
z
" transform="scale(0.015625)"/>
      <path id="NotoSansCJKjp-Regular-7cfb" d="M 1715 1222 
C 1363 749 787 262 243 -51 
C 371 -128 582 -288 678 -378 
C 1197 -32 1805 512 2208 1043 
L 1715 1222 
z
M 4109 986 
C 4666 582 5350 -6 5677 -371 
L 6093 -64 
C 5741 301 5037 864 4493 1248 
L 4109 986 
z
M 5286 5286 
C 4179 5062 2208 4928 557 4883 
C 602 4768 659 4576 672 4448 
C 1235 4461 1843 4486 2445 4525 
C 2195 4198 1882 3840 1594 3565 
L 1158 3827 
L 832 3533 
C 1344 3232 1939 2790 2310 2445 
C 2125 2291 1933 2150 1760 2016 
L 358 2003 
L 403 1517 
L 2938 1581 
L 2938 -512 
L 3443 -512 
L 3443 1594 
L 5293 1645 
C 5466 1459 5613 1286 5715 1139 
L 6138 1427 
C 5811 1862 5126 2509 4563 2957 
L 4173 2707 
C 4403 2522 4646 2298 4883 2074 
L 2464 2029 
C 3226 2618 4083 3398 4730 4077 
L 4269 4326 
C 3853 3846 3270 3270 2682 2765 
C 2490 2938 2227 3136 1952 3328 
C 2317 3661 2739 4122 3072 4525 
L 3002 4563 
C 3974 4634 4915 4736 5632 4877 
L 5286 5286 
z
" transform="scale(0.015625)"/>
      <path id="NotoSansCJKjp-Regular-6570" d="M 2803 5254 
C 2688 4998 2483 4627 2317 4403 
L 2643 4243 
C 2816 4454 3027 4781 3219 5075 
L 2803 5254 
z
M 531 5075 
C 704 4806 870 4454 928 4230 
L 1312 4397 
C 1248 4627 1075 4973 890 5222 
L 531 5075 
z
M 4026 5382 
C 3846 4243 3507 3162 2970 2490 
C 3078 2413 3283 2246 3360 2163 
C 3533 2394 3693 2669 3827 2970 
C 3974 2310 4160 1709 4410 1184 
C 4090 698 3667 314 3110 19 
C 2912 166 2656 326 2374 480 
C 2598 774 2746 1126 2829 1562 
L 3398 1562 
L 3398 1958 
L 1677 1958 
L 1894 2413 
L 1779 2438 
L 2061 2438 
L 2061 3398 
C 2374 3168 2771 2854 2938 2701 
L 3206 3046 
C 3034 3174 2336 3616 2061 3776 
L 2061 3802 
L 3373 3802 
L 3373 4198 
L 2061 4198 
L 2061 5382 
L 1613 5382 
L 1613 4198 
L 288 4198 
L 288 3802 
L 1485 3802 
C 1171 3379 678 2982 218 2784 
C 314 2694 422 2528 480 2419 
C 870 2637 1293 2989 1613 3373 
L 1613 2477 
L 1440 2515 
L 1178 1958 
L 250 1958 
L 250 1562 
L 979 1562 
C 806 1222 627 896 486 653 
L 909 506 
L 1005 678 
C 1222 589 1434 493 1638 384 
C 1306 147 858 -13 269 -109 
C 352 -211 448 -384 480 -512 
C 1171 -365 1683 -154 2061 160 
C 2355 -13 2611 -186 2810 -352 
L 2963 -192 
C 3046 -301 3136 -448 3174 -531 
C 3802 -205 4288 205 4666 710 
C 4979 192 5370 -224 5862 -512 
C 5939 -378 6093 -192 6208 -96 
C 5690 173 5280 614 4960 1165 
C 5350 1856 5594 2707 5754 3750 
L 6144 3750 
L 6144 4198 
L 4262 4198 
C 4358 4557 4442 4928 4506 5312 
L 4026 5382 
z
M 1478 1562 
L 2368 1562 
C 2285 1216 2157 928 1965 698 
C 1715 819 1459 934 1197 1030 
L 1478 1562 
z
M 4134 3750 
L 5254 3750 
C 5139 2950 4966 2266 4698 1696 
C 4435 2298 4250 3002 4134 3750 
z
" transform="scale(0.015625)"/>
      <path id="NotoSansCJKjp-Regular-2c" d="M 480 -1216 
C 1056 -973 1414 -493 1414 122 
C 1414 550 1229 806 922 806 
C 685 806 480 653 480 397 
C 480 141 678 -13 909 -13 
L 979 -6 
C 973 -390 736 -698 339 -870 
L 480 -1216 
z
" transform="scale(0.015625)"/>
      <path id="NotoSansCJKjp-Regular-5e7f" d="M 3136 5376 
L 3136 4518 
L 915 4518 
L 915 2778 
C 915 1875 851 640 250 -237 
C 358 -294 557 -461 634 -550 
C 1293 384 1395 1805 1395 2778 
L 1395 4058 
L 6029 4058 
L 6029 4518 
L 3622 4518 
L 3622 5376 
L 3136 5376 
z
" transform="scale(0.015625)"/>
      <path id="NotoSansCJKjp-Regular-64ad" d="M 5178 4698 
C 5075 4410 4870 3994 4704 3706 
L 4333 3706 
L 4333 4755 
C 4877 4813 5389 4890 5792 4979 
L 5517 5338 
C 4762 5158 3411 5030 2298 4973 
C 2342 4877 2400 4717 2413 4614 
C 2880 4634 3392 4666 3891 4710 
L 3891 3706 
L 2227 3706 
L 2227 3302 
L 3501 3302 
C 3123 2810 2509 2355 1933 2131 
C 2035 2042 2170 1882 2240 1773 
C 2355 1824 2477 1888 2592 1958 
L 2592 -506 
L 3021 -506 
L 3021 -224 
L 5280 -224 
L 5280 -467 
L 5728 -467 
L 5728 1958 
L 5939 1843 
C 6016 1958 6150 2118 6246 2202 
C 5715 2419 5126 2854 4749 3302 
L 6061 3302 
L 6061 3706 
L 5133 3706 
C 5286 3962 5453 4282 5600 4570 
L 5178 4698 
z
M 2714 4461 
C 2842 4224 3002 3904 3072 3706 
L 3475 3853 
C 3398 4038 3232 4346 3098 4582 
L 2714 4461 
z
M 3891 3155 
L 3891 2106 
L 4333 2106 
L 4333 3200 
C 4678 2726 5210 2259 5715 1965 
L 2598 1965 
C 3085 2259 3565 2694 3891 3155 
z
M 3891 1600 
L 3891 1056 
L 3021 1056 
L 3021 1600 
L 3891 1600 
z
M 4307 1600 
L 5280 1600 
L 5280 1056 
L 4307 1056 
L 4307 1600 
z
M 3891 698 
L 3891 141 
L 3021 141 
L 3021 698 
L 3891 698 
z
M 4307 698 
L 5280 698 
L 5280 141 
L 4307 141 
L 4307 698 
z
M 1069 5370 
L 1069 4083 
L 269 4083 
L 269 3635 
L 1069 3635 
L 1069 2317 
L 179 2010 
L 282 1542 
L 1069 1837 
L 1069 45 
C 1069 -45 1037 -70 960 -70 
C 883 -77 634 -77 358 -64 
C 416 -198 480 -397 493 -512 
C 902 -518 1146 -499 1299 -422 
C 1459 -352 1517 -218 1517 45 
L 1517 2003 
L 2195 2266 
L 2112 2701 
L 1517 2483 
L 1517 3635 
L 2208 3635 
L 2208 4083 
L 1517 4083 
L 1517 5370 
L 1069 5370 
z
" transform="scale(0.015625)"/>
      <path id="NotoSansCJKjp-Regular-d7" d="M 4954 346 
L 5261 653 
L 3514 2406 
L 5261 4160 
L 4954 4467 
L 3200 2714 
L 1453 4467 
L 1139 4154 
L 2893 2406 
L 1139 653 
L 1453 346 
L 3200 2099 
L 4954 346 
z
" transform="scale(0.015625)"/>
      <path id="NotoSansCJKjp-Regular-28" d="M 1530 -1254 
L 1888 -1094 
C 1338 -186 1075 902 1075 1990 
C 1075 3072 1338 4154 1888 5069 
L 1530 5235 
C 941 4275 589 3245 589 1990 
C 589 730 941 -301 1530 -1254 
z
" transform="scale(0.015625)"/>
      <path id="NotoSansCJKjp-Regular-53" d="M 1946 -83 
C 2925 -83 3539 506 3539 1248 
C 3539 1946 3117 2266 2573 2502 
L 1907 2790 
C 1542 2944 1126 3117 1126 3578 
C 1126 3994 1472 4256 2003 4256 
C 2438 4256 2784 4090 3072 3821 
L 3379 4198 
C 3053 4538 2560 4774 2003 4774 
C 1152 4774 525 4256 525 3533 
C 525 2848 1043 2515 1478 2330 
L 2150 2035 
C 2598 1837 2938 1683 2938 1197 
C 2938 742 2573 435 1952 435 
C 1466 435 992 666 659 1018 
L 307 608 
C 710 186 1280 -83 1946 -83 
z
" transform="scale(0.015625)"/>
      <path id="NotoSansCJKjp-Regular-46" d="M 646 0 
L 1235 0 
L 1235 2106 
L 3027 2106 
L 3027 2605 
L 1235 2605 
L 1235 4192 
L 3347 4192 
L 3347 4691 
L 646 4691 
L 646 0 
z
" transform="scale(0.015625)"/>
      <path id="NotoSansCJKjp-Regular-5f" d="M 83 -896 
L 3488 -896 
L 3488 -512 
L 83 -512 
L 83 -896 
z
" transform="scale(0.015625)"/>
      <path id="NotoSansCJKjp-Regular-56" d="M 1504 0 
L 2189 0 
L 3680 4691 
L 3078 4691 
L 2323 2150 
C 2163 1600 2048 1152 1869 602 
L 1843 602 
C 1670 1152 1549 1600 1389 2150 
L 627 4691 
L 6 4691 
L 1504 0 
z
" transform="scale(0.015625)"/>
      <path id="NotoSansCJKjp-Regular-45" d="M 646 0 
L 3418 0 
L 3418 506 
L 1235 506 
L 1235 2214 
L 3014 2214 
L 3014 2720 
L 1235 2720 
L 1235 4192 
L 3347 4192 
L 3347 4691 
L 646 4691 
L 646 0 
z
" transform="scale(0.015625)"/>
      <path id="NotoSansCJKjp-Regular-43" d="M 2413 -83 
C 3021 -83 3482 160 3853 589 
L 3526 966 
C 3226 634 2886 435 2438 435 
C 1542 435 979 1178 979 2362 
C 979 3533 1574 4256 2458 4256 
C 2861 4256 3168 4077 3418 3814 
L 3738 4198 
C 3469 4499 3021 4774 2451 4774 
C 1261 4774 371 3859 371 2342 
C 371 819 1242 -83 2413 -83 
z
" transform="scale(0.015625)"/>
      <path id="NotoSansCJKjp-Regular-3d" d="M 243 2912 
L 3315 2912 
L 3315 3347 
L 243 3347 
L 243 2912 
z
M 243 1376 
L 3315 1376 
L 3315 1811 
L 243 1811 
L 243 1376 
z
" transform="scale(0.015625)"/>
      <path id="NotoSansCJKjp-Regular-29" d="M 634 -1254 
C 1222 -301 1574 730 1574 1990 
C 1574 3245 1222 4275 634 5235 
L 269 5069 
C 819 4154 1094 3072 1094 1990 
C 1094 902 819 -186 269 -1094 
L 634 -1254 
z
" transform="scale(0.015625)"/>
     </defs>
     <use xlink:href="#NotoSansCJKjp-Regular-4e00"/>
     <use xlink:href="#NotoSansCJKjp-Regular-4e2a" x="99.999985"/>
     <use xlink:href="#NotoSansCJKjp-Regular-7f29" x="199.999969"/>
     <use xlink:href="#NotoSansCJKjp-Regular-653e" x="299.999954"/>
     <use xlink:href="#NotoSansCJKjp-Regular-7cfb" x="399.999939"/>
     <use xlink:href="#NotoSansCJKjp-Regular-6570" x="499.999924"/>
     <use xlink:href="#NotoSansCJKjp-Regular-2c" x="599.999908"/>
     <use xlink:href="#NotoSansCJKjp-Regular-5e7f" x="627.799896"/>
     <use xlink:href="#NotoSansCJKjp-Regular-64ad" x="727.799881"/>
     <use xlink:href="#NotoSansCJKjp-Regular-20" x="827.799866"/>
     <use xlink:href="#NotoSansCJKjp-Regular-d7" x="850.19986"/>
     <use xlink:href="#NotoSansCJKjp-Regular-34" x="950.199844"/>
     <use xlink:href="#NotoSansCJKjp-Regular-20" x="1005.699829"/>
     <use xlink:href="#NotoSansCJKjp-Regular-20" x="1028.099823"/>
     <use xlink:href="#NotoSansCJKjp-Regular-20" x="1050.499817"/>
     <use xlink:href="#NotoSansCJKjp-Regular-28" x="1072.899811"/>
     <use xlink:href="#NotoSansCJKjp-Regular-53" x="1106.699799"/>
     <use xlink:href="#NotoSansCJKjp-Regular-46" x="1166.299789"/>
     <use xlink:href="#NotoSansCJKjp-Regular-5f" x="1221.499786"/>
     <use xlink:href="#NotoSansCJKjp-Regular-56" x="1277.39978"/>
     <use xlink:href="#NotoSansCJKjp-Regular-45" x="1334.899765"/>
     <use xlink:href="#NotoSansCJKjp-Regular-43" x="1393.799759"/>
     <use xlink:href="#NotoSansCJKjp-Regular-20" x="1457.599747"/>
     <use xlink:href="#NotoSansCJKjp-Regular-3d" x="1479.999741"/>
     <use xlink:href="#NotoSansCJKjp-Regular-20" x="1535.499725"/>
     <use xlink:href="#NotoSansCJKjp-Regular-33" x="1557.899719"/>
     <use xlink:href="#NotoSansCJKjp-Regular-32" x="1613.399704"/>
     <use xlink:href="#NotoSansCJKjp-Regular-29" x="1668.899689"/>
    </g>
   </g>
   <g id="text_14">
    <!-- 2X -->
    <g style="fill: #1f2937" transform="translate(138.446256 131.542728) scale(0.11 -0.11)">
     <use xlink:href="#NotoSansCJKjp-Bold-32"/>
     <use xlink:href="#NotoSansCJKjp-Bold-58" x="58.999985"/>
    </g>
   </g>
   <g id="text_15">
    <!-- mxfp4 -->
    <g style="fill: #1f2937" transform="translate(129.904303 153.46356) scale(0.075 -0.075)">
     <use xlink:href="#NotoSansCJKjp-Regular-6d"/>
     <use xlink:href="#NotoSansCJKjp-Regular-78" x="92.599991"/>
     <use xlink:href="#NotoSansCJKjp-Regular-66" x="142.399979"/>
     <use xlink:href="#NotoSansCJKjp-Regular-70" x="174.899963"/>
     <use xlink:href="#NotoSansCJKjp-Regular-34" x="236.899948"/>
    </g>
   </g>
   <g id="text_16">
    <!-- SF0 -->
    <g style="fill: #ffffff" transform="translate(189.270619 130.959759) scale(0.09 -0.09)">
     <use xlink:href="#NotoSansCJKjp-Bold-53"/>
     <use xlink:href="#NotoSansCJKjp-Bold-46" x="62.399994"/>
     <use xlink:href="#NotoSansCJKjp-Bold-30" x="120.899979"/>
    </g>
   </g>
   <g id="text_17">
    <!-- SF1 -->
    <g style="fill: #ffffff" transform="translate(248.195419 130.959759) scale(0.09 -0.09)">
     <use xlink:href="#NotoSansCJKjp-Bold-53"/>
     <use xlink:href="#NotoSansCJKjp-Bold-46" x="62.399994"/>
     <use xlink:href="#NotoSansCJKjp-Bold-31" x="120.899979"/>
    </g>
   </g>
   <g id="text_18">
    <!-- SF0 -->
    <g style="fill: #ffffff" transform="translate(307.120219 130.959759) scale(0.09 -0.09)">
     <use xlink:href="#NotoSansCJKjp-Bold-53"/>
     <use xlink:href="#NotoSansCJKjp-Bold-46" x="62.399994"/>
     <use xlink:href="#NotoSansCJKjp-Bold-30" x="120.899979"/>
    </g>
   </g>
   <g id="text_19">
    <!-- SF1 -->
    <g style="fill: #ffffff" transform="translate(366.045019 130.959759) scale(0.09 -0.09)">
     <use xlink:href="#NotoSansCJKjp-Bold-53"/>
     <use xlink:href="#NotoSansCJKjp-Bold-46" x="62.399994"/>
     <use xlink:href="#NotoSansCJKjp-Bold-31" x="120.899979"/>
    </g>
   </g>
   <g id="text_20">
    <!-- 两个缩放系数,各 ×2   (SF_VEC = 32) -->
    <g style="fill: #1f2937" transform="translate(419.6736 130.679525) scale(0.08 -0.08)">
     <defs>
      <path id="NotoSansCJKjp-Regular-4e24" d="M 646 3578 
L 646 -518 
L 1126 -518 
L 1126 3130 
L 2125 3130 
C 2093 2374 1933 1427 1203 730 
C 1312 653 1466 499 1542 397 
C 2003 858 2266 1395 2413 1933 
C 2611 1664 2810 1376 2912 1171 
L 3200 1555 
C 3072 1798 2790 2163 2528 2477 
C 2560 2701 2579 2925 2592 3130 
L 3763 3130 
C 3731 2374 3571 1427 2835 730 
C 2950 653 3104 499 3181 397 
C 3648 864 3910 1414 4058 1958 
C 4397 1536 4742 1056 4922 736 
L 5210 1107 
C 5005 1472 4570 2035 4166 2490 
C 4198 2707 4218 2925 4230 3130 
L 5286 3130 
L 5286 102 
C 5286 0 5248 -38 5126 -38 
C 5005 -45 4570 -51 4115 -32 
C 4186 -166 4256 -378 4282 -518 
C 4858 -518 5242 -512 5472 -435 
C 5696 -352 5766 -205 5766 96 
L 5766 3578 
L 4237 3578 
L 4237 4467 
L 6029 4467 
L 6029 4928 
L 384 4928 
L 384 4467 
L 2131 4467 
L 2131 3578 
L 646 3578 
z
M 2598 4467 
L 3770 4467 
L 3770 3578 
L 2598 3578 
L 2598 4467 
z
" transform="scale(0.015625)"/>
      <path id="NotoSansCJKjp-Regular-5404" d="M 1299 1779 
L 1299 -538 
L 1779 -538 
L 1779 -237 
L 4589 -237 
L 4589 -518 
L 5094 -518 
L 5094 1779 
L 1299 1779 
z
M 1779 192 
L 1779 1338 
L 4589 1338 
L 4589 192 
L 1779 192 
z
M 2394 5427 
C 1939 4640 1165 3923 358 3475 
C 467 3398 646 3213 723 3123 
C 1069 3341 1421 3610 1747 3923 
C 2048 3578 2406 3264 2797 2982 
C 1978 2541 1037 2214 186 2042 
C 269 1939 378 1741 422 1613 
C 1350 1824 2355 2189 3238 2694 
C 4032 2208 4947 1850 5888 1638 
C 5958 1766 6093 1971 6202 2074 
C 5312 2246 4435 2560 3680 2970 
C 4326 3398 4877 3917 5254 4512 
L 4922 4730 
L 4838 4704 
L 2464 4704 
C 2605 4883 2739 5075 2854 5267 
L 2394 5427 
z
M 2054 4224 
L 2106 4282 
L 4480 4282 
C 4160 3891 3725 3546 3232 3238 
C 2771 3533 2368 3866 2054 4224 
z
" transform="scale(0.015625)"/>
     </defs>
     <use xlink:href="#NotoSansCJKjp-Regular-4e24"/>
     <use xlink:href="#NotoSansCJKjp-Regular-4e2a" x="99.999985"/>
     <use xlink:href="#NotoSansCJKjp-Regular-7f29" x="199.999969"/>
     <use xlink:href="#NotoSansCJKjp-Regular-653e" x="299.999954"/>
     <use xlink:href="#NotoSansCJKjp-Regular-7cfb" x="399.999939"/>
     <use xlink:href="#NotoSansCJKjp-Regular-6570" x="499.999924"/>
     <use xlink:href="#NotoSansCJKjp-Regular-2c" x="599.999908"/>
     <use xlink:href="#NotoSansCJKjp-Regular-5404" x="627.799896"/>
     <use xlink:href="#NotoSansCJKjp-Regular-20" x="727.799881"/>
     <use xlink:href="#NotoSansCJKjp-Regular-d7" x="750.199875"/>
     <use xlink:href="#NotoSansCJKjp-Regular-32" x="850.19986"/>
     <use xlink:href="#NotoSansCJKjp-Regular-20" x="905.699844"/>
     <use xlink:href="#NotoSansCJKjp-Regular-20" x="928.099838"/>
     <use xlink:href="#NotoSansCJKjp-Regular-20" x="950.499832"/>
     <use xlink:href="#NotoSansCJKjp-Regular-28" x="972.899826"/>
     <use xlink:href="#NotoSansCJKjp-Regular-53" x="1006.699814"/>
     <use xlink:href="#NotoSansCJKjp-Regular-46" x="1066.299805"/>
     <use xlink:href="#NotoSansCJKjp-Regular-5f" x="1121.499802"/>
     <use xlink:href="#NotoSansCJKjp-Regular-56" x="1177.399796"/>
     <use xlink:href="#NotoSansCJKjp-Regular-45" x="1234.89978"/>
     <use xlink:href="#NotoSansCJKjp-Regular-43" x="1293.799774"/>
     <use xlink:href="#NotoSansCJKjp-Regular-20" x="1357.599762"/>
     <use xlink:href="#NotoSansCJKjp-Regular-3d" x="1379.999756"/>
     <use xlink:href="#NotoSansCJKjp-Regular-20" x="1435.499741"/>
     <use xlink:href="#NotoSansCJKjp-Regular-33" x="1457.899734"/>
     <use xlink:href="#NotoSansCJKjp-Regular-32" x="1513.399719"/>
     <use xlink:href="#NotoSansCJKjp-Regular-29" x="1568.899704"/>
    </g>
   </g>
   <g id="text_21">
    <!-- 4X -->
    <g style="fill: #1f2937" transform="translate(138.446256 182.547528) scale(0.11 -0.11)">
     <defs>
      <path id="NotoSansCJKjp-Bold-34" d="M 2157 0 
L 3034 0 
L 3034 1229 
L 3597 1229 
L 3597 1946 
L 3034 1946 
L 3034 4742 
L 1901 4742 
L 134 1869 
L 134 1229 
L 2157 1229 
L 2157 0 
z
M 2157 1946 
L 1050 1946 
L 1786 3123 
C 1920 3379 2048 3642 2163 3898 
L 2195 3898 
C 2176 3616 2157 3187 2157 2912 
L 2157 1946 
z
" transform="scale(0.015625)"/>
     </defs>
     <use xlink:href="#NotoSansCJKjp-Bold-34"/>
     <use xlink:href="#NotoSansCJKjp-Bold-58" x="58.999985"/>
    </g>
   </g>
   <g id="text_22">
    <!-- nvfp4 -->
    <g style="fill: #1f2937" transform="translate(132.101569 204.46836) scale(0.075 -0.075)">
     <defs>
      <path id="NotoSansCJKjp-Regular-6e" d="M 589 0 
L 1178 0 
L 1178 2522 
C 1523 2874 1766 3053 2125 3053 
C 2586 3053 2784 2778 2784 2125 
L 2784 0 
L 3366 0 
L 3366 2202 
C 3366 3085 3034 3565 2304 3565 
C 1830 3565 1466 3302 1139 2970 
L 1126 2970 
L 1069 3475 
L 589 3475 
L 589 0 
z
" transform="scale(0.015625)"/>
      <path id="NotoSansCJKjp-Regular-76" d="M 1338 0 
L 2022 0 
L 3251 3475 
L 2675 3475 
L 2016 1498 
C 1914 1158 1798 806 1696 474 
L 1664 474 
C 1562 806 1453 1158 1344 1498 
L 691 3475 
L 83 3475 
L 1338 0 
z
" transform="scale(0.015625)"/>
     </defs>
     <use xlink:href="#NotoSansCJKjp-Regular-6e"/>
     <use xlink:href="#NotoSansCJKjp-Regular-76" x="60.999985"/>
     <use xlink:href="#NotoSansCJKjp-Regular-66" x="113.099976"/>
     <use xlink:href="#NotoSansCJKjp-Regular-70" x="145.59996"/>
     <use xlink:href="#NotoSansCJKjp-Regular-34" x="207.599945"/>
    </g>
   </g>
   <g id="text_23">
    <!-- SF0 -->
    <g style="fill: #ffffff" transform="translate(189.270619 181.964559) scale(0.09 -0.09)">
     <use xlink:href="#NotoSansCJKjp-Bold-53"/>
     <use xlink:href="#NotoSansCJKjp-Bold-46" x="62.399994"/>
     <use xlink:href="#NotoSansCJKjp-Bold-30" x="120.899979"/>
    </g>
   </g>
   <g id="text_24">
    <!-- SF1 -->
    <g style="fill: #ffffff" transform="translate(248.195419 181.964559) scale(0.09 -0.09)">
     <use xlink:href="#NotoSansCJKjp-Bold-53"/>
     <use xlink:href="#NotoSansCJKjp-Bold-46" x="62.399994"/>
     <use xlink:href="#NotoSansCJKjp-Bold-31" x="120.899979"/>
    </g>
   </g>
   <g id="text_25">
    <!-- SF2 -->
    <g style="fill: #ffffff" transform="translate(307.120219 181.964559) scale(0.09 -0.09)">
     <use xlink:href="#NotoSansCJKjp-Bold-53"/>
     <use xlink:href="#NotoSansCJKjp-Bold-46" x="62.399994"/>
     <use xlink:href="#NotoSansCJKjp-Bold-32" x="120.899979"/>
    </g>
   </g>
   <g id="text_26">
    <!-- SF3 -->
    <g style="fill: #ffffff" transform="translate(366.045019 181.964559) scale(0.09 -0.09)">
     <use xlink:href="#NotoSansCJKjp-Bold-53"/>
     <use xlink:href="#NotoSansCJKjp-Bold-46" x="62.399994"/>
     <use xlink:href="#NotoSansCJKjp-Bold-33" x="120.899979"/>
    </g>
   </g>
   <g id="text_27">
    <!-- 四个缩放系数 = 四个 K-block   (SF_VEC = 16) -->
    <g style="fill: #1f2937" transform="translate(419.6736 181.664325) scale(0.08 -0.08)">
     <defs>
      <path id="NotoSansCJKjp-Regular-56db" d="M 576 4787 
L 576 -326 
L 1062 -326 
L 1062 128 
L 5344 128 
L 5344 -275 
L 5843 -275 
L 5843 4787 
L 576 4787 
z
M 1062 595 
L 1062 4326 
L 2259 4326 
C 2202 3130 2035 2234 1158 1741 
C 1267 1658 1402 1498 1459 1389 
C 2451 1965 2656 2970 2726 4326 
L 3571 4326 
L 3571 2483 
C 3571 2093 3616 1984 3731 1907 
C 3834 1824 4006 1792 4154 1792 
C 4243 1792 4499 1792 4589 1792 
C 4723 1792 4890 1811 4986 1850 
C 5088 1894 5165 1965 5203 2080 
C 5242 2195 5261 2502 5274 2765 
C 5152 2803 4992 2880 4902 2963 
C 4896 2682 4890 2470 4870 2374 
C 4851 2278 4813 2240 4774 2214 
C 4736 2202 4640 2195 4557 2195 
C 4474 2195 4320 2195 4262 2195 
C 4186 2195 4128 2202 4090 2221 
C 4051 2246 4038 2317 4038 2445 
L 4038 4326 
L 5344 4326 
L 5344 595 
L 1062 595 
z
" transform="scale(0.015625)"/>
      <path id="NotoSansCJKjp-Regular-4b" d="M 646 0 
L 1235 0 
L 1235 1485 
L 2042 2445 
L 3450 0 
L 4109 0 
L 2413 2912 
L 3885 4691 
L 3213 4691 
L 1248 2336 
L 1235 2336 
L 1235 4691 
L 646 4691 
L 646 0 
z
" transform="scale(0.015625)"/>
      <path id="NotoSansCJKjp-Regular-2d" d="M 294 1568 
L 1933 1568 
L 1933 2016 
L 294 2016 
L 294 1568 
z
" transform="scale(0.015625)"/>
      <path id="NotoSansCJKjp-Regular-62" d="M 2118 -83 
C 2912 -83 3629 602 3629 1792 
C 3629 2867 3142 3565 2246 3565 
C 1856 3565 1472 3347 1152 3078 
L 1178 3699 
L 1178 5094 
L 589 5094 
L 589 0 
L 1056 0 
L 1107 358 
L 1133 358 
C 1434 83 1798 -83 2118 -83 
z
M 2022 410 
C 1792 410 1478 499 1178 768 
L 1178 2598 
C 1504 2906 1811 3072 2099 3072 
C 2765 3072 3021 2560 3021 1786 
C 3021 928 2598 410 2022 410 
z
" transform="scale(0.015625)"/>
      <path id="NotoSansCJKjp-Regular-6c" d="M 1203 -83 
C 1363 -83 1459 -58 1542 -32 
L 1459 416 
C 1395 403 1370 403 1338 403 
C 1248 403 1178 474 1178 653 
L 1178 5094 
L 589 5094 
L 589 691 
C 589 198 768 -83 1203 -83 
z
" transform="scale(0.015625)"/>
      <path id="NotoSansCJKjp-Regular-6f" d="M 1939 -83 
C 2790 -83 3546 582 3546 1734 
C 3546 2893 2790 3565 1939 3565 
C 1088 3565 333 2893 333 1734 
C 333 582 1088 -83 1939 -83 
z
M 1939 403 
C 1338 403 934 934 934 1734 
C 934 2534 1338 3072 1939 3072 
C 2541 3072 2950 2534 2950 1734 
C 2950 934 2541 403 1939 403 
z
" transform="scale(0.015625)"/>
      <path id="NotoSansCJKjp-Regular-63" d="M 1958 -83 
C 2374 -83 2771 83 3085 352 
L 2829 749 
C 2611 557 2330 403 2010 403 
C 1370 403 934 934 934 1734 
C 934 2534 1395 3072 2029 3072 
C 2298 3072 2522 2950 2720 2771 
L 3014 3155 
C 2771 3373 2458 3565 2003 3565 
C 1107 3565 333 2893 333 1734 
C 333 582 1037 -83 1958 -83 
z
" transform="scale(0.015625)"/>
      <path id="NotoSansCJKjp-Regular-6b" d="M 589 0 
L 1165 0 
L 1165 915 
L 1818 1677 
L 2835 0 
L 3469 0 
L 2157 2074 
L 3315 3475 
L 2662 3475 
L 1190 1645 
L 1165 1645 
L 1165 5094 
L 589 5094 
L 589 0 
z
" transform="scale(0.015625)"/>
     </defs>
     <use xlink:href="#NotoSansCJKjp-Regular-56db"/>
     <use xlink:href="#NotoSansCJKjp-Regular-4e2a" x="99.999985"/>
     <use xlink:href="#NotoSansCJKjp-Regular-7f29" x="199.999969"/>
     <use xlink:href="#NotoSansCJKjp-Regular-653e" x="299.999954"/>
     <use xlink:href="#NotoSansCJKjp-Regular-7cfb" x="399.999939"/>
     <use xlink:href="#NotoSansCJKjp-Regular-6570" x="499.999924"/>
     <use xlink:href="#NotoSansCJKjp-Regular-20" x="599.999908"/>
     <use xlink:href="#NotoSansCJKjp-Regular-3d" x="622.399902"/>
     <use xlink:href="#NotoSansCJKjp-Regular-20" x="677.899887"/>
     <use xlink:href="#NotoSansCJKjp-Regular-56db" x="700.299881"/>
     <use xlink:href="#NotoSansCJKjp-Regular-4e2a" x="800.299866"/>
     <use xlink:href="#NotoSansCJKjp-Regular-20" x="900.29985"/>
     <use xlink:href="#NotoSansCJKjp-Regular-4b" x="922.699844"/>
     <use xlink:href="#NotoSansCJKjp-Regular-2d" x="987.299835"/>
     <use xlink:href="#NotoSansCJKjp-Regular-62" x="1021.999832"/>
     <use xlink:href="#NotoSansCJKjp-Regular-6c" x="1083.79982"/>
     <use xlink:href="#NotoSansCJKjp-Regular-6f" x="1112.199814"/>
     <use xlink:href="#NotoSansCJKjp-Regular-63" x="1172.799805"/>
     <use xlink:href="#NotoSansCJKjp-Regular-6b" x="1223.799789"/>
     <use xlink:href="#NotoSansCJKjp-Regular-20" x="1278.999786"/>
     <use xlink:href="#NotoSansCJKjp-Regular-20" x="1301.39978"/>
     <use xlink:href="#NotoSansCJKjp-Regular-20" x="1323.799774"/>
     <use xlink:href="#NotoSansCJKjp-Regular-28" x="1346.199768"/>
     <use xlink:href="#NotoSansCJKjp-Regular-53" x="1379.999756"/>
     <use xlink:href="#NotoSansCJKjp-Regular-46" x="1439.599747"/>
     <use xlink:href="#NotoSansCJKjp-Regular-5f" x="1494.799744"/>
     <use xlink:href="#NotoSansCJKjp-Regular-56" x="1550.699738"/>
     <use xlink:href="#NotoSansCJKjp-Regular-45" x="1608.199722"/>
     <use xlink:href="#NotoSansCJKjp-Regular-43" x="1667.099716"/>
     <use xlink:href="#NotoSansCJKjp-Regular-20" x="1730.899704"/>
     <use xlink:href="#NotoSansCJKjp-Regular-3d" x="1753.299698"/>
     <use xlink:href="#NotoSansCJKjp-Regular-20" x="1808.799683"/>
     <use xlink:href="#NotoSansCJKjp-Regular-31" x="1831.199677"/>
     <use xlink:href="#NotoSansCJKjp-Regular-36" x="1886.699661"/>
     <use xlink:href="#NotoSansCJKjp-Regular-29" x="1942.199646"/>
    </g>
   </g>
   <g id="text_28">
    <!-- SFk = 某个 M 行第 k 个 K-block 的缩放系数。sf_per_mma(即 ×N)= mma_k / SF_VEC:fp8 为 1、mxfp4 为 2、nvfp4 为 4。 -->
    <g style="fill: #1f2937" transform="translate(68.008875 239.27184) scale(0.076 -0.076)">
     <defs>
      <path id="NotoSansCJKjp-Regular-67d0" d="M 1542 5376 
L 1542 4717 
L 378 4717 
L 378 4301 
L 1542 4301 
L 1542 2374 
L 2944 2374 
L 2944 1818 
L 365 1818 
L 365 1389 
L 2522 1389 
C 1952 800 1050 282 237 19 
C 339 -83 486 -262 563 -378 
C 1402 -58 2342 557 2944 1248 
L 2944 -512 
L 3430 -512 
L 3430 1261 
C 4038 570 4992 -51 5850 -365 
C 5926 -237 6067 -51 6176 45 
C 5350 294 4442 806 3859 1389 
L 6048 1389 
L 6048 1818 
L 3430 1818 
L 3430 2374 
L 4838 2374 
L 4838 4301 
L 6035 4301 
L 6035 4717 
L 4838 4717 
L 4838 5376 
L 4346 5376 
L 4346 4717 
L 2016 4717 
L 2016 5376 
L 1542 5376 
z
M 4346 4301 
L 4346 3763 
L 2016 3763 
L 2016 4301 
L 4346 4301 
z
M 4346 3366 
L 4346 2790 
L 2016 2790 
L 2016 3366 
L 4346 3366 
z
" transform="scale(0.015625)"/>
      <path id="NotoSansCJKjp-Regular-4d" d="M 646 0 
L 1178 0 
L 1178 2598 
C 1178 3002 1139 3571 1101 3981 
L 1126 3981 
L 1504 2912 
L 2394 474 
L 2790 474 
L 3674 2912 
L 4051 3981 
L 4077 3981 
C 4045 3571 4000 3002 4000 2598 
L 4000 0 
L 4550 0 
L 4550 4691 
L 3840 4691 
L 2944 2182 
C 2835 1862 2739 1530 2618 1203 
L 2592 1203 
C 2477 1530 2374 1862 2253 2182 
L 1357 4691 
L 646 4691 
L 646 0 
z
" transform="scale(0.015625)"/>
      <path id="NotoSansCJKjp-Regular-884c" d="M 2784 4992 
L 2784 4531 
L 5933 4531 
L 5933 4992 
L 2784 4992 
z
M 1709 5382 
C 1382 4915 762 4346 224 3981 
C 307 3891 442 3706 506 3597 
C 1082 4006 1741 4634 2170 5190 
L 1709 5382 
z
M 2502 3226 
L 2502 2765 
L 4659 2765 
L 4659 109 
C 4659 6 4614 -26 4493 -32 
C 4378 -38 3942 -38 3488 -19 
C 3558 -160 3629 -358 3648 -493 
C 4275 -493 4640 -493 4858 -422 
C 5069 -339 5146 -192 5146 102 
L 5146 2765 
L 6112 2765 
L 6112 3226 
L 2502 3226 
z
M 1965 4006 
C 1523 3277 819 2534 160 2061 
C 256 1965 429 1754 499 1658 
C 736 1850 986 2080 1229 2330 
L 1229 -531 
L 1702 -531 
L 1702 2854 
C 1971 3174 2214 3507 2419 3840 
L 1965 4006 
z
" transform="scale(0.015625)"/>
      <path id="NotoSansCJKjp-Regular-7b2c" d="M 1133 2566 
C 1037 2061 877 1421 742 1005 
L 1216 934 
L 1280 1158 
L 2547 1158 
C 1965 640 1069 198 275 -26 
C 378 -115 518 -288 589 -410 
C 1414 -134 2342 390 2963 1005 
L 2963 -512 
L 3430 -512 
L 3430 1158 
L 5363 1158 
C 5299 576 5229 326 5139 237 
C 5082 192 5024 186 4909 186 
C 4794 179 4493 186 4179 218 
C 4256 96 4307 -90 4314 -224 
C 4646 -243 4960 -243 5120 -230 
C 5299 -218 5421 -179 5530 -70 
C 5690 90 5779 480 5869 1376 
C 5875 1440 5882 1568 5882 1568 
L 3430 1568 
L 3430 2163 
L 5510 2163 
L 5510 3622 
L 826 3622 
L 826 3213 
L 2963 3213 
L 2963 2566 
L 1133 2566 
z
M 1523 2163 
L 2963 2163 
L 2963 1568 
L 1382 1568 
L 1523 2163 
z
M 3430 3213 
L 5037 3213 
L 5037 2566 
L 3430 2566 
L 3430 3213 
z
M 1178 5408 
C 966 4838 614 4269 211 3898 
C 326 3834 518 3706 608 3635 
C 819 3846 1024 4128 1210 4435 
L 1446 4435 
C 1581 4179 1702 3878 1747 3674 
L 2170 3840 
C 2125 3994 2029 4224 1926 4435 
L 3110 4435 
L 3110 4819 
L 1421 4819 
C 1498 4973 1562 5126 1626 5286 
L 1178 5408 
z
M 3699 5408 
C 3488 4832 3104 4294 2650 3942 
C 2765 3885 2963 3744 3046 3667 
C 3283 3872 3507 4141 3706 4435 
L 4160 4435 
C 4352 4179 4544 3872 4621 3661 
L 5043 3827 
C 4973 4000 4826 4230 4672 4435 
L 6099 4435 
L 6099 4819 
L 3936 4819 
C 4019 4973 4090 5133 4154 5293 
L 3699 5408 
z
" transform="scale(0.015625)"/>
      <path id="NotoSansCJKjp-Regular-3002" d="M 1242 1562 
C 710 1562 269 1126 269 589 
C 269 45 710 -390 1242 -390 
C 1786 -390 2221 45 2221 589 
C 2221 1126 1786 1562 1242 1562 
z
M 1242 -64 
C 890 -64 595 224 595 589 
C 595 941 890 1235 1242 1235 
C 1606 1235 1894 941 1894 589 
C 1894 224 1606 -64 1242 -64 
z
" transform="scale(0.015625)"/>
      <path id="NotoSansCJKjp-Regular-73" d="M 1498 -83 
C 2317 -83 2758 384 2758 947 
C 2758 1606 2208 1811 1702 2003 
C 1312 2150 954 2278 954 2605 
C 954 2880 1158 3110 1600 3110 
C 1907 3110 2150 2976 2387 2803 
L 2669 3168 
C 2406 3386 2022 3565 1594 3565 
C 832 3565 397 3130 397 2579 
C 397 1984 922 1754 1408 1574 
C 1792 1434 2202 1267 2202 915 
C 2202 614 1978 371 1517 371 
C 1101 371 794 538 486 787 
L 205 397 
C 531 122 1005 -83 1498 -83 
z
" transform="scale(0.015625)"/>
      <path id="NotoSansCJKjp-Regular-65" d="M 1997 -83 
C 2464 -83 2835 70 3136 269 
L 2931 659 
C 2669 486 2400 384 2061 384 
C 1402 384 947 858 909 1600 
L 3251 1600 
C 3264 1690 3277 1805 3277 1933 
C 3277 2925 2778 3565 1888 3565 
C 1094 3565 333 2867 333 1734 
C 333 589 1069 -83 1997 -83 
z
M 902 2016 
C 973 2707 1408 3098 1901 3098 
C 2445 3098 2765 2720 2765 2016 
L 902 2016 
z
" transform="scale(0.015625)"/>
      <path id="NotoSansCJKjp-Regular-72" d="M 589 0 
L 1178 0 
L 1178 2234 
C 1408 2822 1760 3040 2048 3040 
C 2195 3040 2272 3021 2387 2982 
L 2496 3488 
C 2387 3546 2278 3565 2125 3565 
C 1741 3565 1382 3283 1139 2842 
L 1126 2842 
L 1069 3475 
L 589 3475 
L 589 0 
z
" transform="scale(0.015625)"/>
      <path id="NotoSansCJKjp-Regular-61" d="M 1389 -83 
C 1818 -83 2208 141 2541 416 
L 2560 416 
L 2611 0 
L 3091 0 
L 3091 2138 
C 3091 3002 2739 3565 1888 3565 
C 1325 3565 838 3315 525 3110 
L 749 2707 
C 1024 2893 1389 3078 1792 3078 
C 2362 3078 2509 2650 2509 2202 
C 1030 2035 378 1658 378 902 
C 378 275 806 -83 1389 -83 
z
M 1555 390 
C 1210 390 941 544 941 941 
C 941 1389 1338 1677 2509 1811 
L 2509 845 
C 2170 544 1888 390 1555 390 
z
" transform="scale(0.015625)"/>
      <path id="NotoSansCJKjp-Regular-5373" d="M 1158 3341 
L 2630 3341 
L 2630 2547 
L 1158 2547 
L 1158 3341 
z
M 1158 3770 
L 1158 4582 
L 2630 4582 
L 2630 3770 
L 1158 3770 
z
M 1869 1606 
C 2035 1389 2208 1139 2362 883 
L 1158 544 
L 1158 2099 
L 3085 2099 
L 3085 5030 
L 698 5030 
L 698 422 
L 250 307 
L 410 -186 
L 2598 474 
C 2726 230 2835 0 2899 -186 
L 3322 32 
C 3149 518 2688 1248 2259 1798 
L 1869 1606 
z
M 3565 5024 
L 3565 -512 
L 4051 -512 
L 4051 4544 
L 5402 4544 
L 5402 1133 
C 5402 1037 5376 1011 5286 1011 
C 5184 1005 4877 998 4538 1018 
C 4614 870 4691 634 4710 486 
C 5152 486 5466 499 5651 589 
C 5843 685 5894 845 5894 1120 
L 5894 5024 
L 3565 5024 
z
" transform="scale(0.015625)"/>
      <path id="NotoSansCJKjp-Regular-4e" d="M 646 0 
L 1203 0 
L 1203 2464 
C 1203 2957 1158 3456 1133 3930 
L 1158 3930 
L 1664 2963 
L 3373 0 
L 3981 0 
L 3981 4691 
L 3418 4691 
L 3418 2253 
C 3418 1766 3462 1235 3501 768 
L 3469 768 
L 2963 1734 
L 1248 4691 
L 646 4691 
L 646 0 
z
" transform="scale(0.015625)"/>
      <path id="NotoSansCJKjp-Regular-4e3a" d="M 1037 5018 
C 1293 4717 1581 4307 1709 4045 
L 2144 4256 
C 2010 4518 1709 4915 1446 5197 
L 1037 5018 
z
M 3194 2374 
C 3520 1984 3898 1446 4064 1107 
L 4486 1338 
C 4314 1670 3923 2189 3590 2566 
L 3194 2374 
z
M 2630 5363 
L 2630 4608 
C 2630 4365 2624 4109 2605 3834 
L 525 3834 
L 525 3354 
L 2554 3354 
C 2394 2214 1888 928 352 -70 
C 467 -147 646 -314 730 -422 
C 2368 666 2893 2099 3046 3354 
L 5254 3354 
C 5165 1178 5062 320 4870 122 
C 4800 45 4730 26 4589 32 
C 4435 32 4032 32 3597 70 
C 3693 -70 3757 -282 3763 -429 
C 4160 -448 4563 -461 4787 -442 
C 5024 -416 5171 -365 5318 -179 
C 5568 115 5658 1018 5760 3584 
C 5760 3661 5766 3834 5766 3834 
L 3098 3834 
C 3110 4102 3117 4365 3117 4602 
L 3117 5363 
L 2630 5363 
z
" transform="scale(0.015625)"/>
      <path id="NotoSansCJKjp-Regular-3001" d="M 1747 -358 
L 2182 13 
C 1786 480 1210 1062 749 1434 
L 333 1069 
C 787 698 1338 147 1747 -358 
z
" transform="scale(0.015625)"/>
     </defs>
     <use xlink:href="#NotoSansCJKjp-Regular-53"/>
     <use xlink:href="#NotoSansCJKjp-Regular-46" x="59.599991"/>
     <use xlink:href="#NotoSansCJKjp-Regular-6b" x="114.799988"/>
     <use xlink:href="#NotoSansCJKjp-Regular-20" x="169.999985"/>
     <use xlink:href="#NotoSansCJKjp-Regular-3d" x="192.399979"/>
     <use xlink:href="#NotoSansCJKjp-Regular-20" x="247.899963"/>
     <use xlink:href="#NotoSansCJKjp-Regular-67d0" x="270.299957"/>
     <use xlink:href="#NotoSansCJKjp-Regular-4e2a" x="370.299942"/>
     <use xlink:href="#NotoSansCJKjp-Regular-20" x="470.299927"/>
     <use xlink:href="#NotoSansCJKjp-Regular-4d" x="492.699921"/>
     <use xlink:href="#NotoSansCJKjp-Regular-20" x="573.899902"/>
     <use xlink:href="#NotoSansCJKjp-Regular-884c" x="596.299896"/>
     <use xlink:href="#NotoSansCJKjp-Regular-7b2c" x="696.299881"/>
     <use xlink:href="#NotoSansCJKjp-Regular-20" x="796.299866"/>
     <use xlink:href="#NotoSansCJKjp-Regular-6b" x="818.69986"/>
     <use xlink:href="#NotoSansCJKjp-Regular-20" x="873.899857"/>
     <use xlink:href="#NotoSansCJKjp-Regular-4e2a" x="896.29985"/>
     <use xlink:href="#NotoSansCJKjp-Regular-20" x="996.299835"/>
     <use xlink:href="#NotoSansCJKjp-Regular-4b" x="1018.699829"/>
     <use xlink:href="#NotoSansCJKjp-Regular-2d" x="1083.29982"/>
     <use xlink:href="#NotoSansCJKjp-Regular-62" x="1117.999817"/>
     <use xlink:href="#NotoSansCJKjp-Regular-6c" x="1179.799805"/>
     <use xlink:href="#NotoSansCJKjp-Regular-6f" x="1208.199799"/>
     <use xlink:href="#NotoSansCJKjp-Regular-63" x="1268.799789"/>
     <use xlink:href="#NotoSansCJKjp-Regular-6b" x="1319.799774"/>
     <use xlink:href="#NotoSansCJKjp-Regular-20" x="1374.999771"/>
     <use xlink:href="#NotoSansCJKjp-Regular-7684" x="1397.399765"/>
     <use xlink:href="#NotoSansCJKjp-Regular-7f29" x="1497.39975"/>
     <use xlink:href="#NotoSansCJKjp-Regular-653e" x="1597.399734"/>
     <use xlink:href="#NotoSansCJKjp-Regular-7cfb" x="1697.399719"/>
     <use xlink:href="#NotoSansCJKjp-Regular-6570" x="1797.399704"/>
     <use xlink:href="#NotoSansCJKjp-Regular-3002" x="1897.399689"/>
     <use xlink:href="#NotoSansCJKjp-Regular-73" x="1997.399673"/>
     <use xlink:href="#NotoSansCJKjp-Regular-66" x="2044.199661"/>
     <use xlink:href="#NotoSansCJKjp-Regular-5f" x="2076.699646"/>
     <use xlink:href="#NotoSansCJKjp-Regular-70" x="2132.59964"/>
     <use xlink:href="#NotoSansCJKjp-Regular-65" x="2194.599625"/>
     <use xlink:href="#NotoSansCJKjp-Regular-72" x="2249.999619"/>
     <use xlink:href="#NotoSansCJKjp-Regular-5f" x="2288.799606"/>
     <use xlink:href="#NotoSansCJKjp-Regular-6d" x="2344.6996"/>
     <use xlink:href="#NotoSansCJKjp-Regular-6d" x="2437.299591"/>
     <use xlink:href="#NotoSansCJKjp-Regular-61" x="2529.899582"/>
     <use xlink:href="#NotoSansCJKjp-Regular-28" x="2586.19957"/>
     <use xlink:href="#NotoSansCJKjp-Regular-5373" x="2619.999557"/>
     <use xlink:href="#NotoSansCJKjp-Regular-20" x="2719.999542"/>
     <use xlink:href="#NotoSansCJKjp-Regular-d7" x="2742.399536"/>
     <use xlink:href="#NotoSansCJKjp-Regular-4e" x="2842.399521"/>
     <use xlink:href="#NotoSansCJKjp-Regular-29" x="2914.699509"/>
     <use xlink:href="#NotoSansCJKjp-Regular-3d" x="2948.499496"/>
     <use xlink:href="#NotoSansCJKjp-Regular-20" x="3003.999481"/>
     <use xlink:href="#NotoSansCJKjp-Regular-6d" x="3026.399475"/>
     <use xlink:href="#NotoSansCJKjp-Regular-6d" x="3118.999466"/>
     <use xlink:href="#NotoSansCJKjp-Regular-61" x="3211.599457"/>
     <use xlink:href="#NotoSansCJKjp-Regular-5f" x="3267.899445"/>
     <use xlink:href="#NotoSansCJKjp-Regular-6b" x="3323.799438"/>
     <use xlink:href="#NotoSansCJKjp-Regular-20" x="3378.999435"/>
     <use xlink:href="#NotoSansCJKjp-Regular-2f" x="3401.399429"/>
     <use xlink:href="#NotoSansCJKjp-Regular-20" x="3440.599426"/>
     <use xlink:href="#NotoSansCJKjp-Regular-53" x="3462.99942"/>
     <use xlink:href="#NotoSansCJKjp-Regular-46" x="3522.599411"/>
     <use xlink:href="#NotoSansCJKjp-Regular-5f" x="3577.799408"/>
     <use xlink:href="#NotoSansCJKjp-Regular-56" x="3633.699402"/>
     <use xlink:href="#NotoSansCJKjp-Regular-45" x="3691.199387"/>
     <use xlink:href="#NotoSansCJKjp-Regular-43" x="3750.09938"/>
     <use xlink:href="#NotoSansCJKjp-Regular-3a" x="3813.899368"/>
     <use xlink:href="#NotoSansCJKjp-Regular-66" x="3841.699356"/>
     <use xlink:href="#NotoSansCJKjp-Regular-70" x="3874.199341"/>
     <use xlink:href="#NotoSansCJKjp-Regular-38" x="3936.199326"/>
     <use xlink:href="#NotoSansCJKjp-Regular-20" x="3991.69931"/>
     <use xlink:href="#NotoSansCJKjp-Regular-4e3a" x="4014.099304"/>
     <use xlink:href="#NotoSansCJKjp-Regular-20" x="4114.099289"/>
     <use xlink:href="#NotoSansCJKjp-Regular-31" x="4136.499283"/>
     <use xlink:href="#NotoSansCJKjp-Regular-3001" x="4191.999268"/>
     <use xlink:href="#NotoSansCJKjp-Regular-6d" x="4291.999252"/>
     <use xlink:href="#NotoSansCJKjp-Regular-78" x="4384.599243"/>
     <use xlink:href="#NotoSansCJKjp-Regular-66" x="4434.399231"/>
     <use xlink:href="#NotoSansCJKjp-Regular-70" x="4466.899216"/>
     <use xlink:href="#NotoSansCJKjp-Regular-34" x="4528.8992"/>
     <use xlink:href="#NotoSansCJKjp-Regular-20" x="4584.399185"/>
     <use xlink:href="#NotoSansCJKjp-Regular-4e3a" x="4606.799179"/>
     <use xlink:href="#NotoSansCJKjp-Regular-20" x="4706.799164"/>
     <use xlink:href="#NotoSansCJKjp-Regular-32" x="4729.199158"/>
     <use xlink:href="#NotoSansCJKjp-Regular-3001" x="4784.699142"/>
     <use xlink:href="#NotoSansCJKjp-Regular-6e" x="4884.699127"/>
     <use xlink:href="#NotoSansCJKjp-Regular-76" x="4945.699112"/>
     <use xlink:href="#NotoSansCJKjp-Regular-66" x="4997.799103"/>
     <use xlink:href="#NotoSansCJKjp-Regular-70" x="5030.299088"/>
     <use xlink:href="#NotoSansCJKjp-Regular-34" x="5092.299072"/>
     <use xlink:href="#NotoSansCJKjp-Regular-20" x="5147.799057"/>
     <use xlink:href="#NotoSansCJKjp-Regular-4e3a" x="5170.199051"/>
     <use xlink:href="#NotoSansCJKjp-Regular-20" x="5270.199036"/>
     <use xlink:href="#NotoSansCJKjp-Regular-34" x="5292.59903"/>
     <use xlink:href="#NotoSansCJKjp-Regular-3002" x="5348.099014"/>
    </g>
   </g>
   <g id="text_29">
    <!-- 三种模式的 lane/列放置(TLane = m%32,m//32 → 列)都相同,只是字节打包方式不同。 -->
    <g style="fill: #1f2937" transform="translate(130.80625 252.02304) scale(0.076 -0.076)">
     <defs>
      <path id="NotoSansCJKjp-Regular-4e09" d="M 787 4755 
L 787 4269 
L 5626 4269 
L 5626 4755 
L 787 4755 
z
M 1197 2662 
L 1197 2182 
L 5126 2182 
L 5126 2662 
L 1197 2662 
z
M 416 442 
L 416 -45 
L 5978 -45 
L 5978 442 
L 416 442 
z
" transform="scale(0.015625)"/>
      <path id="NotoSansCJKjp-Regular-79cd" d="M 4179 3558 
L 4179 2035 
L 3277 2035 
L 3277 3558 
L 4179 3558 
z
M 4659 3558 
L 5542 3558 
L 5542 2035 
L 4659 2035 
L 4659 3558 
z
M 4179 5363 
L 4179 4026 
L 2822 4026 
L 2822 1178 
L 3277 1178 
L 3277 1568 
L 4179 1568 
L 4179 -499 
L 4659 -499 
L 4659 1568 
L 5542 1568 
L 5542 1216 
L 6010 1216 
L 6010 4026 
L 4659 4026 
L 4659 5363 
L 4179 5363 
z
M 2349 5286 
C 1862 5075 1018 4883 294 4768 
C 352 4666 416 4506 435 4397 
C 717 4435 1024 4480 1325 4544 
L 1325 3571 
L 294 3571 
L 294 3123 
L 1254 3123 
C 998 2387 550 1555 147 1101 
C 224 986 339 794 384 659 
C 717 1056 1062 1696 1325 2349 
L 1325 -499 
L 1792 -499 
L 1792 2458 
C 2003 2144 2266 1741 2368 1542 
L 2656 1914 
C 2534 2086 1971 2784 1792 2982 
L 1792 3123 
L 2611 3123 
L 2611 3571 
L 1792 3571 
L 1792 4640 
C 2106 4717 2394 4806 2637 4902 
L 2349 5286 
z
" transform="scale(0.015625)"/>
      <path id="NotoSansCJKjp-Regular-6a21" d="M 3021 2669 
L 5248 2669 
L 5248 2208 
L 3021 2208 
L 3021 2669 
z
M 3021 3469 
L 5248 3469 
L 5248 3021 
L 3021 3021 
L 3021 3469 
z
M 4685 5376 
L 4685 4845 
L 3699 4845 
L 3699 5376 
L 3245 5376 
L 3245 4845 
L 2304 4845 
L 2304 4435 
L 3245 4435 
L 3245 3955 
L 3699 3955 
L 3699 4435 
L 4685 4435 
L 4685 3955 
L 5152 3955 
L 5152 4435 
L 6048 4435 
L 6048 4845 
L 5152 4845 
L 5152 5376 
L 4685 5376 
z
M 2573 3834 
L 2573 1850 
L 3878 1850 
C 3853 1658 3827 1485 3782 1318 
L 2176 1318 
L 2176 909 
L 3642 909 
C 3398 416 2938 77 1997 -128 
C 2086 -224 2208 -403 2253 -512 
C 3366 -243 3885 218 4141 896 
C 4461 192 5056 -288 5888 -512 
C 5952 -390 6080 -211 6182 -115 
C 5459 38 4909 390 4602 909 
L 6035 909 
L 6035 1318 
L 4262 1318 
C 4294 1485 4326 1664 4346 1850 
L 5715 1850 
L 5715 3834 
L 2573 3834 
z
M 1120 5376 
L 1120 4141 
L 320 4141 
L 320 3693 
L 1120 3693 
L 1120 3686 
C 947 2816 576 1798 205 1261 
C 288 1146 403 934 461 794 
C 704 1171 934 1754 1120 2381 
L 1120 -506 
L 1581 -506 
L 1581 2790 
C 1754 2451 1952 2042 2035 1830 
L 2342 2176 
C 2234 2374 1747 3174 1581 3424 
L 1581 3693 
L 2240 3693 
L 2240 4141 
L 1581 4141 
L 1581 5376 
L 1120 5376 
z
" transform="scale(0.015625)"/>
      <path id="NotoSansCJKjp-Regular-5f0f" d="M 4538 5062 
C 4870 4832 5267 4486 5459 4256 
L 5792 4557 
C 5600 4781 5190 5107 4864 5331 
L 4538 5062 
z
M 3616 5350 
C 3616 4954 3629 4563 3648 4179 
L 352 4179 
L 352 3712 
L 3680 3712 
C 3846 1331 4384 -525 5434 -525 
C 5926 -525 6106 -198 6189 922 
C 6054 973 5875 1082 5766 1190 
C 5722 333 5651 -26 5472 -26 
C 4838 -26 4339 1542 4179 3712 
L 6061 3712 
L 6061 4179 
L 4154 4179 
C 4134 4557 4128 4947 4128 5350 
L 3616 5350 
z
M 378 154 
L 531 -320 
C 1350 -141 2528 128 3616 384 
L 3578 819 
L 2208 525 
L 2208 2291 
L 3405 2291 
L 3405 2758 
L 576 2758 
L 576 2291 
L 1728 2291 
L 1728 429 
L 378 154 
z
" transform="scale(0.015625)"/>
      <path id="NotoSansCJKjp-Regular-5217" d="M 3814 4646 
L 3814 1139 
L 4288 1139 
L 4288 4646 
L 3814 4646 
z
M 5376 5254 
L 5376 115 
C 5376 -6 5331 -45 5210 -45 
C 5088 -51 4698 -58 4256 -45 
C 4333 -179 4403 -384 4429 -518 
C 5011 -518 5357 -506 5568 -429 
C 5766 -352 5850 -205 5850 115 
L 5850 5254 
L 5376 5254 
z
M 2816 3206 
C 2714 2694 2560 2234 2374 1824 
C 2074 2054 1606 2355 1203 2592 
C 1318 2790 1421 2995 1510 3206 
L 2816 3206 
z
M 384 5043 
L 384 4595 
L 1491 4595 
C 1267 3654 826 2598 141 1952 
C 243 1875 397 1728 480 1638 
C 659 1811 826 2010 973 2227 
C 1382 1978 1856 1651 2157 1408 
C 1734 691 1184 166 538 -173 
C 646 -250 826 -422 902 -531 
C 2080 147 3008 1472 3360 3558 
L 3059 3667 
L 2976 3648 
L 1690 3648 
C 1805 3962 1901 4282 1984 4595 
L 3571 4595 
L 3571 5043 
L 384 5043 
z
" transform="scale(0.015625)"/>
      <path id="NotoSansCJKjp-Regular-7f6e" d="M 4154 4762 
L 5235 4762 
L 5235 4186 
L 4154 4186 
L 4154 4762 
z
M 2656 4762 
L 3712 4762 
L 3712 4186 
L 2656 4186 
L 2656 4762 
z
M 1197 4762 
L 2214 4762 
L 2214 4186 
L 1197 4186 
L 1197 4762 
z
M 2374 1798 
L 4979 1798 
L 4979 1440 
L 2374 1440 
L 2374 1798 
z
M 2374 1152 
L 4979 1152 
L 4979 794 
L 2374 794 
L 2374 1152 
z
M 2374 2432 
L 4979 2432 
L 4979 2086 
L 2374 2086 
L 2374 2432 
z
M 1920 2726 
L 1920 499 
L 5440 499 
L 5440 2726 
L 3347 2726 
L 3418 3104 
L 5971 3104 
L 5971 3482 
L 3482 3482 
L 3533 3834 
L 5715 3834 
L 5715 5107 
L 736 5107 
L 736 3834 
L 3046 3834 
L 3002 3482 
L 435 3482 
L 435 3104 
L 2944 3104 
L 2880 2726 
L 1920 2726 
z
M 787 2630 
L 787 -518 
L 1274 -518 
L 1274 -243 
L 6138 -243 
L 6138 141 
L 1274 141 
L 1274 2630 
L 787 2630 
z
" transform="scale(0.015625)"/>
      <path id="NotoSansCJKjp-Regular-54" d="M 1619 0 
L 2214 0 
L 2214 4192 
L 3635 4192 
L 3635 4691 
L 198 4691 
L 198 4192 
L 1619 4192 
L 1619 0 
z
" transform="scale(0.015625)"/>
      <path id="NotoSansCJKjp-Regular-4c" d="M 646 0 
L 3290 0 
L 3290 506 
L 1235 506 
L 1235 4691 
L 646 4691 
L 646 0 
z
" transform="scale(0.015625)"/>
      <path id="NotoSansCJKjp-Regular-25" d="M 1312 1818 
C 1958 1818 2381 2362 2381 3309 
C 2381 4243 1958 4774 1312 4774 
C 672 4774 250 4243 250 3309 
C 250 2362 672 1818 1312 1818 
z
M 1312 2176 
C 941 2176 691 2560 691 3309 
C 691 4058 941 4416 1312 4416 
C 1683 4416 1933 4058 1933 3309 
C 1933 2560 1683 2176 1312 2176 
z
M 1446 -83 
L 1843 -83 
L 4435 4774 
L 4038 4774 
L 1446 -83 
z
M 4582 -83 
C 5222 -83 5645 454 5645 1402 
C 5645 2342 5222 2874 4582 2874 
C 3942 2874 3520 2342 3520 1402 
C 3520 454 3942 -83 4582 -83 
z
M 4582 275 
C 4211 275 3955 653 3955 1402 
C 3955 2150 4211 2515 4582 2515 
C 4947 2515 5210 2150 5210 1402 
C 5210 653 4947 275 4582 275 
z
" transform="scale(0.015625)"/>
      <path id="NotoSansCJKjp-Regular-2192" d="M 5190 2650 
L 256 2650 
L 256 2214 
L 5190 2214 
C 4864 1965 4442 1562 4154 1165 
L 4538 941 
C 4966 1504 5606 2067 6176 2432 
C 5606 2797 4966 3360 4538 3923 
L 4154 3699 
C 4442 3302 4864 2899 5190 2650 
z
" transform="scale(0.015625)"/>
      <path id="NotoSansCJKjp-Regular-90fd" d="M 3251 5158 
C 3123 4851 2976 4563 2810 4288 
L 2810 4634 
L 2003 4634 
L 2003 5325 
L 1555 5325 
L 1555 4634 
L 570 4634 
L 570 4205 
L 1555 4205 
L 1555 3437 
L 275 3437 
L 275 3008 
L 1811 3008 
C 1318 2522 755 2118 134 1811 
C 224 1722 378 1523 435 1421 
C 614 1517 787 1619 954 1734 
L 954 -480 
L 1389 -480 
L 1389 -102 
L 2835 -102 
L 2835 -390 
L 3296 -390 
L 3296 2387 
L 1798 2387 
C 2016 2579 2221 2790 2413 3008 
L 3584 3008 
L 3584 3437 
L 2758 3437 
C 3123 3917 3430 4448 3686 5024 
L 3251 5158 
z
M 2003 4205 
L 2758 4205 
C 2592 3936 2406 3680 2202 3437 
L 2003 3437 
L 2003 4205 
z
M 1389 301 
L 1389 979 
L 2835 979 
L 2835 301 
L 1389 301 
z
M 1389 1363 
L 1389 1990 
L 2835 1990 
L 2835 1363 
L 1389 1363 
z
M 3859 5011 
L 3859 -512 
L 4333 -512 
L 4333 4557 
L 5530 4557 
C 5318 4045 5030 3354 4742 2810 
C 5414 2253 5619 1766 5619 1357 
C 5626 1126 5574 941 5427 851 
C 5344 806 5242 781 5126 781 
C 4986 768 4794 774 4582 794 
C 4666 659 4717 454 4723 320 
C 4928 307 5152 307 5325 326 
C 5491 346 5638 397 5760 474 
C 5990 621 6086 922 6086 1318 
C 6086 1773 5914 2278 5235 2874 
C 5549 3469 5901 4205 6163 4813 
L 5818 5030 
L 5741 5011 
L 3859 5011 
z
" transform="scale(0.015625)"/>
      <path id="NotoSansCJKjp-Regular-76f8" d="M 3494 3034 
L 5440 3034 
L 5440 1920 
L 3494 1920 
L 3494 3034 
z
M 3494 3469 
L 3494 4544 
L 5440 4544 
L 5440 3469 
L 3494 3469 
z
M 3494 1478 
L 5440 1478 
L 5440 365 
L 3494 365 
L 3494 1478 
z
M 3027 4998 
L 3027 -467 
L 3494 -467 
L 3494 -77 
L 5440 -77 
L 5440 -448 
L 5926 -448 
L 5926 4998 
L 3027 4998 
z
M 1370 5376 
L 1370 4006 
L 333 4006 
L 333 3546 
L 1312 3546 
C 1088 2662 634 1651 186 1120 
C 262 1005 384 813 435 685 
C 781 1126 1120 1837 1370 2573 
L 1370 -506 
L 1837 -506 
L 1837 2419 
C 2080 2106 2368 1709 2490 1498 
L 2784 1888 
C 2643 2061 2061 2746 1837 2970 
L 1837 3546 
L 2752 3546 
L 2752 4006 
L 1837 4006 
L 1837 5376 
L 1370 5376 
z
" transform="scale(0.015625)"/>
      <path id="NotoSansCJKjp-Regular-540c" d="M 1587 3917 
L 1587 3501 
L 4838 3501 
L 4838 3917 
L 1587 3917 
z
M 2355 2419 
L 4045 2419 
L 4045 1203 
L 2355 1203 
L 2355 2419 
z
M 1914 2829 
L 1914 326 
L 2355 326 
L 2355 794 
L 4493 794 
L 4493 2829 
L 1914 2829 
z
M 563 5043 
L 563 -525 
L 1030 -525 
L 1030 4589 
L 5376 4589 
L 5376 102 
C 5376 -13 5338 -51 5222 -58 
C 5114 -58 4742 -64 4339 -51 
C 4416 -173 4486 -390 4512 -518 
C 5062 -518 5389 -506 5581 -429 
C 5779 -352 5850 -198 5850 96 
L 5850 5043 
L 563 5043 
z
" transform="scale(0.015625)"/>
      <path id="NotoSansCJKjp-Regular-53ea" d="M 3776 1011 
C 4410 557 5184 -102 5549 -531 
L 5971 -230 
C 5581 205 4787 838 4160 1267 
L 3776 1011 
z
M 2163 1280 
C 1792 768 1043 186 371 -179 
C 486 -262 659 -416 755 -518 
C 1440 -134 2195 493 2675 1082 
L 2163 1280 
z
M 1062 4941 
L 1062 1491 
L 1542 1491 
L 1542 1722 
L 4973 1722 
L 4973 1523 
L 5472 1523 
L 5472 4941 
L 1062 4941 
z
M 1542 2182 
L 1542 4474 
L 4973 4474 
L 4973 2182 
L 1542 2182 
z
" transform="scale(0.015625)"/>
      <path id="NotoSansCJKjp-Regular-662f" d="M 1510 3885 
L 4845 3885 
L 4845 3360 
L 1510 3360 
L 1510 3885 
z
M 1510 4749 
L 4845 4749 
L 4845 4230 
L 1510 4230 
L 1510 4749 
z
M 1050 5114 
L 1050 2995 
L 5331 2995 
L 5331 5114 
L 1050 5114 
z
M 1478 1914 
C 1312 979 902 256 224 -186 
C 333 -256 518 -435 589 -518 
C 1011 -218 1344 192 1587 698 
C 2112 -186 2938 -384 4230 -384 
L 5984 -384 
C 6010 -250 6086 -38 6163 77 
C 5830 70 4493 64 4250 70 
C 3981 70 3725 77 3494 102 
L 3494 986 
L 5619 986 
L 5619 1408 
L 3494 1408 
L 3494 2125 
L 6035 2125 
L 6035 2554 
L 378 2554 
L 378 2125 
L 3014 2125 
L 3014 186 
C 2458 326 2048 627 1798 1216 
C 1862 1414 1914 1626 1958 1850 
L 1478 1914 
z
" transform="scale(0.015625)"/>
      <path id="NotoSansCJKjp-Regular-6253" d="M 1274 5376 
L 1274 4083 
L 307 4083 
L 307 3622 
L 1274 3622 
L 1274 2259 
C 890 2157 538 2061 250 1990 
L 397 1510 
L 1274 1766 
L 1274 128 
C 1274 38 1235 6 1146 6 
C 1062 0 781 0 480 6 
C 544 -122 614 -320 634 -448 
C 1082 -448 1344 -435 1517 -358 
C 1683 -282 1747 -147 1747 122 
L 1747 1907 
L 2707 2195 
L 2643 2650 
L 1747 2394 
L 1747 3622 
L 2637 3622 
L 2637 4083 
L 1747 4083 
L 1747 5376 
L 1274 5376 
z
M 2675 4838 
L 2675 4358 
L 4499 4358 
L 4499 198 
C 4499 77 4454 38 4326 38 
C 4186 26 3725 26 3251 45 
C 3328 -96 3418 -333 3450 -474 
C 4058 -474 4461 -467 4698 -384 
C 4928 -301 5011 -134 5011 192 
L 5011 4358 
L 6150 4358 
L 6150 4838 
L 2675 4838 
z
" transform="scale(0.015625)"/>
      <path id="NotoSansCJKjp-Regular-5305" d="M 1165 1984 
L 1165 333 
C 1165 -294 1466 -442 2483 -442 
C 2707 -442 4640 -442 4877 -442 
C 5786 -442 5978 -218 6074 704 
C 5933 730 5728 806 5606 883 
C 5549 147 5453 13 4877 13 
C 4442 13 2784 13 2464 13 
C 1766 13 1638 70 1638 339 
L 1638 1549 
L 3866 1549 
L 3866 3507 
L 1318 3507 
C 1478 3718 1626 3949 1766 4186 
L 5178 4186 
C 5126 2374 5062 1709 4922 1549 
C 4870 1485 4800 1466 4691 1466 
C 4570 1466 4269 1466 3942 1498 
C 4019 1370 4070 1184 4077 1037 
C 4416 1024 4736 1018 4922 1043 
C 5114 1056 5235 1107 5350 1254 
C 5542 1491 5600 2253 5664 4410 
C 5670 4486 5670 4646 5670 4646 
L 2022 4646 
C 2125 4851 2221 5056 2304 5267 
L 1805 5408 
C 1453 4499 858 3610 198 3053 
C 320 2976 531 2803 621 2707 
C 838 2912 1050 3155 1254 3424 
L 1254 3078 
L 3386 3078 
L 3386 1984 
L 1165 1984 
z
" transform="scale(0.015625)"/>
      <path id="NotoSansCJKjp-Regular-65b9" d="M 2931 5395 
L 2931 4269 
L 339 4269 
L 339 3808 
L 2310 3808 
C 2240 2330 2054 666 269 -147 
C 397 -243 544 -416 621 -538 
C 1926 90 2438 1152 2669 2298 
L 4787 2298 
C 4685 819 4557 186 4371 19 
C 4294 -51 4211 -58 4064 -58 
C 3898 -58 3443 -51 2982 -13 
C 3078 -147 3142 -346 3155 -480 
C 3584 -506 4013 -512 4230 -499 
C 4480 -486 4634 -435 4781 -282 
C 5030 -26 5165 685 5293 2522 
C 5306 2598 5312 2758 5312 2758 
L 2746 2758 
C 2790 3110 2822 3462 2842 3808 
L 6067 3808 
L 6067 4269 
L 3424 4269 
L 3424 5395 
L 2931 5395 
z
" transform="scale(0.015625)"/>
      <path id="NotoSansCJKjp-Regular-4e0d" d="M 3578 3059 
C 4339 2547 5299 1792 5754 1299 
L 6144 1670 
C 5664 2163 4691 2880 3936 3366 
L 3578 3059 
z
M 442 4928 
L 442 4435 
L 3290 4435 
C 2656 3341 1555 2259 282 1632 
C 384 1523 531 1331 608 1210 
C 1498 1677 2291 2336 2938 3078 
L 2938 -499 
L 3456 -499 
L 3456 3738 
C 3622 3962 3770 4198 3904 4435 
L 5958 4435 
L 5958 4928 
L 442 4928 
z
" transform="scale(0.015625)"/>
     </defs>
     <use xlink:href="#NotoSansCJKjp-Regular-4e09"/>
     <use xlink:href="#NotoSansCJKjp-Regular-79cd" x="99.999985"/>
     <use xlink:href="#NotoSansCJKjp-Regular-6a21" x="199.999969"/>
     <use xlink:href="#NotoSansCJKjp-Regular-5f0f" x="299.999954"/>
     <use xlink:href="#NotoSansCJKjp-Regular-7684" x="399.999939"/>
     <use xlink:href="#NotoSansCJKjp-Regular-20" x="499.999924"/>
     <use xlink:href="#NotoSansCJKjp-Regular-6c" x="522.399918"/>
     <use xlink:href="#NotoSansCJKjp-Regular-61" x="550.799911"/>
     <use xlink:href="#NotoSansCJKjp-Regular-6e" x="607.099899"/>
     <use xlink:href="#NotoSansCJKjp-Regular-65" x="668.099884"/>
     <use xlink:href="#NotoSansCJKjp-Regular-2f" x="723.499878"/>
     <use xlink:href="#NotoSansCJKjp-Regular-5217" x="762.699875"/>
     <use xlink:href="#NotoSansCJKjp-Regular-653e" x="862.69986"/>
     <use xlink:href="#NotoSansCJKjp-Regular-7f6e" x="962.699844"/>
     <use xlink:href="#NotoSansCJKjp-Regular-28" x="1062.699829"/>
     <use xlink:href="#NotoSansCJKjp-Regular-54" x="1096.499817"/>
     <use xlink:href="#NotoSansCJKjp-Regular-4c" x="1156.399811"/>
     <use xlink:href="#NotoSansCJKjp-Regular-61" x="1210.699799"/>
     <use xlink:href="#NotoSansCJKjp-Regular-6e" x="1266.999786"/>
     <use xlink:href="#NotoSansCJKjp-Regular-65" x="1327.999771"/>
     <use xlink:href="#NotoSansCJKjp-Regular-20" x="1383.399765"/>
     <use xlink:href="#NotoSansCJKjp-Regular-3d" x="1405.799759"/>
     <use xlink:href="#NotoSansCJKjp-Regular-20" x="1461.299744"/>
     <use xlink:href="#NotoSansCJKjp-Regular-6d" x="1483.699738"/>
     <use xlink:href="#NotoSansCJKjp-Regular-25" x="1576.299728"/>
     <use xlink:href="#NotoSansCJKjp-Regular-33" x="1668.399719"/>
     <use xlink:href="#NotoSansCJKjp-Regular-32" x="1723.899704"/>
     <use xlink:href="#NotoSansCJKjp-Regular-2c" x="1779.399689"/>
     <use xlink:href="#NotoSansCJKjp-Regular-6d" x="1807.199677"/>
     <use xlink:href="#NotoSansCJKjp-Regular-2f" x="1899.799667"/>
     <use xlink:href="#NotoSansCJKjp-Regular-2f" x="1938.999664"/>
     <use xlink:href="#NotoSansCJKjp-Regular-33" x="1978.199661"/>
     <use xlink:href="#NotoSansCJKjp-Regular-32" x="2033.699646"/>
     <use xlink:href="#NotoSansCJKjp-Regular-20" x="2089.199631"/>
     <use xlink:href="#NotoSansCJKjp-Regular-2192" x="2111.599625"/>
     <use xlink:href="#NotoSansCJKjp-Regular-20" x="2211.599609"/>
     <use xlink:href="#NotoSansCJKjp-Regular-5217" x="2233.999603"/>
     <use xlink:href="#NotoSansCJKjp-Regular-29" x="2333.999588"/>
     <use xlink:href="#NotoSansCJKjp-Regular-90fd" x="2367.799576"/>
     <use xlink:href="#NotoSansCJKjp-Regular-76f8" x="2467.799561"/>
     <use xlink:href="#NotoSansCJKjp-Regular-540c" x="2567.799545"/>
     <use xlink:href="#NotoSansCJKjp-Regular-2c" x="2667.79953"/>
     <use xlink:href="#NotoSansCJKjp-Regular-53ea" x="2695.599518"/>
     <use xlink:href="#NotoSansCJKjp-Regular-662f" x="2795.599503"/>
     <use xlink:href="#NotoSansCJKjp-Regular-5b57" x="2895.599487"/>
     <use xlink:href="#NotoSansCJKjp-Regular-8282" x="2995.599472"/>
     <use xlink:href="#NotoSansCJKjp-Regular-6253" x="3095.599457"/>
     <use xlink:href="#NotoSansCJKjp-Regular-5305" x="3195.599442"/>
     <use xlink:href="#NotoSansCJKjp-Regular-65b9" x="3295.599426"/>
     <use xlink:href="#NotoSansCJKjp-Regular-5f0f" x="3395.599411"/>
     <use xlink:href="#NotoSansCJKjp-Regular-4e0d" x="3495.599396"/>
     <use xlink:href="#NotoSansCJKjp-Regular-540c" x="3595.59938"/>
     <use xlink:href="#NotoSansCJKjp-Regular-3002" x="3695.599365"/>
    </g>
   </g>
  </g>
 </g>
 <defs>
  <clipPath id="p6d19703437">
   <rect x="7.2" y="7.2" width="535.68" height="255.024"/>
  </clipPath>
 </defs>
</svg>
